solid Cable Comb
facet normal -0.0 -0.7071067811865468 0.7071067811865482
  outer loop
    vertex 0.9999999999999999 7.049916206369744e-16 23.143799999999974
    vertex -5.000000000000011 1.500000000000001 24.64379999999997
    vertex -5.000000000000011 7.049916206369744e-16 23.143799999999974
  endloop
endfacet
facet normal -0.0 -0.7071067811865468 0.7071067811865482
  outer loop
    vertex -5.000000000000011 1.500000000000001 24.64379999999997
    vertex 0.9999999999999999 7.049916206369744e-16 23.143799999999974
    vertex 0.9999999999999999 1.500000000000001 24.64379999999997
  endloop
endfacet
facet normal -0.0 -0.0 1.0
  outer loop
    vertex 0.9999999999999999 1.500000000000001 24.64379999999997
    vertex -5.000000000000011 9.0 24.64379999999997
    vertex -5.000000000000011 1.500000000000001 24.64379999999997
  endloop
endfacet
facet normal -0.0 -0.0 1.0
  outer loop
    vertex -5.000000000000011 9.0 24.64379999999997
    vertex 0.9999999999999999 1.500000000000001 24.64379999999997
    vertex 0.9999999999999999 9.0 24.64379999999997
  endloop
endfacet
facet normal -0.0 0.7071067811865469 0.7071067811865481
  outer loop
    vertex 0.9999999999999999 9.0 24.64379999999997
    vertex -5.000000000000011 10.5 23.143799999999974
    vertex -5.000000000000011 9.0 24.64379999999997
  endloop
endfacet
facet normal -0.0 0.7071067811865469 0.7071067811865481
  outer loop
    vertex -5.000000000000011 10.5 23.143799999999974
    vertex 0.9999999999999999 9.0 24.64379999999997
    vertex 0.9999999999999999 10.5 23.143799999999974
  endloop
endfacet
facet normal -0.0 1.0 -0.0
  outer loop
    vertex -5.000000000000011 10.5 23.143799999999974
    vertex 0.9999999999999999 10.5 22.14379999999998
    vertex -5.000000000000011 10.5 22.14379999999998
  endloop
endfacet
facet normal -0.0 1.0 -0.0
  outer loop
    vertex 0.9999999999999999 10.5 22.14379999999998
    vertex -5.000000000000011 10.5 23.143799999999974
    vertex 0.9999999999999999 10.5 23.143799999999974
  endloop
endfacet
facet normal 0.0 0.0 -1.0
  outer loop
    vertex 0.9999999999999999 10.5 22.14379999999998
    vertex -5.000000000000011 7.660355497797334 22.14379999999998
    vertex -5.000000000000011 10.5 22.14379999999998
  endloop
endfacet
facet normal 0.0 0.0 -1.0
  outer loop
    vertex -5.000000000000011 7.660355497797334 22.14379999999998
    vertex 0.9999999999999999 10.5 22.14379999999998
    vertex 0.9999999999999999 7.660355497797334 22.14379999999998
  endloop
endfacet
facet normal 0.0 -0.6087614290086838 -0.7933533402912636
  outer loop
    vertex 0.9999999999999999 7.660355497797334 22.14379999999998
    vertex -5.000000000000011 7.549999999999985 22.228478751731732
    vertex -5.000000000000011 7.660355497797334 22.14379999999998
  endloop
endfacet
facet normal 0.0 -0.6087614290086838 -0.7933533402912636
  outer loop
    vertex -5.000000000000011 7.549999999999985 22.228478751731732
    vertex 0.9999999999999999 7.660355497797334 22.14379999999998
    vertex 0.9999999999999999 7.549999999999985 22.228478751731732
  endloop
endfacet
facet normal 0.0 -0.3826834323651072 -0.9238795325112795
  outer loop
    vertex 0.9999999999999999 7.549999999999985 22.228478751731732
    vertex -5.000000000000011 6.80233903981781 22.538170061496096
    vertex -5.000000000000011 7.549999999999985 22.228478751731732
  endloop
endfacet
facet normal 0.0 -0.3826834323651072 -0.9238795325112795
  outer loop
    vertex -5.000000000000011 6.80233903981781 22.538170061496096
    vertex 0.9999999999999999 7.549999999999985 22.228478751731732
    vertex 0.9999999999999999 6.80233903981781 22.538170061496096
  endloop
endfacet
facet normal 0.0 -0.13052619222003384 -0.9914448613738127
  outer loop
    vertex 0.9999999999999999 6.80233903981781 22.538170061496096
    vertex -5.000000000000011 6.0 22.64379999999997
    vertex -5.000000000000011 6.80233903981781 22.538170061496096
  endloop
endfacet
facet normal 0.0 -0.13052619222003384 -0.9914448613738127
  outer loop
    vertex -5.000000000000011 6.0 22.64379999999997
    vertex 0.9999999999999999 6.80233903981781 22.538170061496096
    vertex 0.9999999999999999 6.0 22.64379999999997
  endloop
endfacet
facet normal 0.0 0.13052619222003384 -0.9914448613738127
  outer loop
    vertex 0.9999999999999999 6.0 22.64379999999997
    vertex -5.000000000000011 5.19766096018219 22.538170061496096
    vertex -5.000000000000011 6.0 22.64379999999997
  endloop
endfacet
facet normal 0.0 0.13052619222003384 -0.9914448613738127
  outer loop
    vertex -5.000000000000011 5.19766096018219 22.538170061496096
    vertex 0.9999999999999999 6.0 22.64379999999997
    vertex 0.9999999999999999 5.19766096018219 22.538170061496096
  endloop
endfacet
facet normal 0.0 0.3826834323651018 -0.923879532511282
  outer loop
    vertex 0.9999999999999999 5.19766096018219 22.538170061496096
    vertex -5.000000000000011 4.450000000000003 22.228478751731732
    vertex -5.000000000000011 5.19766096018219 22.538170061496096
  endloop
endfacet
facet normal 0.0 0.3826834323651018 -0.923879532511282
  outer loop
    vertex -5.000000000000011 4.450000000000003 22.228478751731732
    vertex 0.9999999999999999 5.19766096018219 22.538170061496096
    vertex 0.9999999999999999 4.450000000000003 22.228478751731732
  endloop
endfacet
facet normal 0.0 0.6087614290087264 -0.793353340291231
  outer loop
    vertex 0.9999999999999999 4.450000000000003 22.228478751731732
    vertex -5.000000000000011 3.8079689783217066 21.735831021678266
    vertex -5.000000000000011 4.450000000000003 22.228478751731732
  endloop
endfacet
facet normal 0.0 0.6087614290087264 -0.793353340291231
  outer loop
    vertex -5.000000000000011 3.8079689783217066 21.735831021678266
    vertex 0.9999999999999999 4.450000000000003 22.228478751731732
    vertex 0.9999999999999999 3.8079689783217066 21.735831021678266
  endloop
endfacet
facet normal -0.0 0.7933533402912263 -0.6087614290087322
  outer loop
    vertex -5.000000000000011 3.8079689783217066 21.735831021678266
    vertex 0.9999999999999999 3.315321248268243 21.093799999999984
    vertex -5.000000000000011 3.315321248268243 21.093799999999984
  endloop
endfacet
facet normal -0.0 0.7933533402912263 -0.6087614290087322
  outer loop
    vertex 0.9999999999999999 3.315321248268243 21.093799999999984
    vertex -5.000000000000011 3.8079689783217066 21.735831021678266
    vertex 0.9999999999999999 3.8079689783217066 21.735831021678266
  endloop
endfacet
facet normal -0.0 0.9238795325112903 -0.38268343236508146
  outer loop
    vertex -5.000000000000011 3.315321248268243 21.093799999999984
    vertex 0.9999999999999999 3.0056299385038963 20.346139039817793
    vertex -5.000000000000011 3.0056299385038963 20.346139039817793
  endloop
endfacet
facet normal -0.0 0.9238795325112903 -0.38268343236508146
  outer loop
    vertex 0.9999999999999999 3.0056299385038963 20.346139039817793
    vertex -5.000000000000011 3.315321248268243 21.093799999999984
    vertex 0.9999999999999999 3.315321248268243 21.093799999999984
  endloop
endfacet
facet normal -0.0 0.9914448613738103 -0.13052619222005357
  outer loop
    vertex -5.000000000000011 3.0056299385038963 20.346139039817793
    vertex 0.9999999999999999 2.900000000000006 19.543799999999976
    vertex -5.000000000000011 2.900000000000006 19.543799999999976
  endloop
endfacet
facet normal -0.0 0.9914448613738103 -0.13052619222005357
  outer loop
    vertex 0.9999999999999999 2.900000000000006 19.543799999999976
    vertex -5.000000000000011 3.0056299385038963 20.346139039817793
    vertex 0.9999999999999999 3.0056299385038963 20.346139039817793
  endloop
endfacet
facet normal -0.0 0.9914448613738103 0.13052619222005354
  outer loop
    vertex -5.000000000000011 2.900000000000006 19.543799999999976
    vertex 0.9999999999999999 3.0056299385038963 18.74146096018216
    vertex -5.000000000000011 3.0056299385038963 18.74146096018216
  endloop
endfacet
facet normal -0.0 0.9914448613738103 0.13052619222005354
  outer loop
    vertex 0.9999999999999999 3.0056299385038963 18.74146096018216
    vertex -5.000000000000011 2.900000000000006 19.543799999999976
    vertex 0.9999999999999999 2.900000000000006 19.543799999999976
  endloop
endfacet
facet normal -0.0 0.9238795325112892 0.3826834323650838
  outer loop
    vertex -5.000000000000011 3.0056299385038963 18.74146096018216
    vertex 0.9999999999999999 3.315321248268243 17.993799999999972
    vertex -5.000000000000011 3.315321248268243 17.993799999999972
  endloop
endfacet
facet normal -0.0 0.9238795325112892 0.3826834323650838
  outer loop
    vertex 0.9999999999999999 3.315321248268243 17.993799999999972
    vertex -5.000000000000011 3.0056299385038963 18.74146096018216
    vertex 0.9999999999999999 3.0056299385038963 18.74146096018216
  endloop
endfacet
facet normal -0.0 0.7933533402912342 0.6087614290087219
  outer loop
    vertex -5.000000000000011 3.315321248268243 17.993799999999972
    vertex 0.9999999999999999 3.8079689783217066 17.351768978321676
    vertex -5.000000000000011 3.8079689783217066 17.351768978321676
  endloop
endfacet
facet normal -0.0 0.7933533402912342 0.6087614290087219
  outer loop
    vertex 0.9999999999999999 3.8079689783217066 17.351768978321676
    vertex -5.000000000000011 3.315321248268243 17.993799999999972
    vertex 0.9999999999999999 3.315321248268243 17.993799999999972
  endloop
endfacet
facet normal -0.0 0.6087614290087177 0.7933533402912377
  outer loop
    vertex 0.9999999999999999 3.8079689783217066 17.351768978321676
    vertex -5.000000000000011 4.450000000000003 16.859121248268217
    vertex -5.000000000000011 3.8079689783217066 17.351768978321676
  endloop
endfacet
facet normal -0.0 0.6087614290087177 0.7933533402912377
  outer loop
    vertex -5.000000000000011 4.450000000000003 16.859121248268217
    vertex 0.9999999999999999 3.8079689783217066 17.351768978321676
    vertex 0.9999999999999999 4.450000000000003 16.859121248268217
  endloop
endfacet
facet normal -0.0 0.3826834323650898 0.9238795325112867
  outer loop
    vertex 0.9999999999999999 4.450000000000003 16.859121248268217
    vertex -5.000000000000011 5.19766096018219 16.549429938503867
    vertex -5.000000000000011 4.450000000000003 16.859121248268217
  endloop
endfacet
facet normal -0.0 0.3826834323650898 0.9238795325112867
  outer loop
    vertex -5.000000000000011 5.19766096018219 16.549429938503867
    vertex 0.9999999999999999 4.450000000000003 16.859121248268217
    vertex 0.9999999999999999 5.19766096018219 16.549429938503867
  endloop
endfacet
facet normal -0.0 0.13052619222005438 0.99144486137381
  outer loop
    vertex 0.9999999999999999 5.19766096018219 16.549429938503867
    vertex -5.000000000000011 6.0 16.443799999999975
    vertex -5.000000000000011 5.19766096018219 16.549429938503867
  endloop
endfacet
facet normal -0.0 0.13052619222005438 0.99144486137381
  outer loop
    vertex -5.000000000000011 6.0 16.443799999999975
    vertex 0.9999999999999999 5.19766096018219 16.549429938503867
    vertex 0.9999999999999999 6.0 16.443799999999975
  endloop
endfacet
facet normal -0.0 -0.13052619222005438 0.99144486137381
  outer loop
    vertex 0.9999999999999999 6.0 16.443799999999975
    vertex -5.000000000000011 6.80233903981781 16.549429938503867
    vertex -5.000000000000011 6.0 16.443799999999975
  endloop
endfacet
facet normal -0.0 -0.13052619222005438 0.99144486137381
  outer loop
    vertex -5.000000000000011 6.80233903981781 16.549429938503867
    vertex 0.9999999999999999 6.0 16.443799999999975
    vertex 0.9999999999999999 6.80233903981781 16.549429938503867
  endloop
endfacet
facet normal -0.0 -0.3826834323650954 0.9238795325112844
  outer loop
    vertex 0.9999999999999999 6.80233903981781 16.549429938503867
    vertex -5.000000000000011 7.549999999999985 16.859121248268217
    vertex -5.000000000000011 6.80233903981781 16.549429938503867
  endloop
endfacet
facet normal -0.0 -0.3826834323650954 0.9238795325112844
  outer loop
    vertex -5.000000000000011 7.549999999999985 16.859121248268217
    vertex 0.9999999999999999 6.80233903981781 16.549429938503867
    vertex 0.9999999999999999 7.549999999999985 16.859121248268217
  endloop
endfacet
facet normal -0.0 -0.6087614290087083 0.7933533402912447
  outer loop
    vertex 0.9999999999999999 7.549999999999985 16.859121248268217
    vertex -5.000000000000011 7.660355497797328 16.943799999999968
    vertex -5.000000000000011 7.549999999999985 16.859121248268217
  endloop
endfacet
facet normal -0.0 -0.6087614290087083 0.7933533402912447
  outer loop
    vertex -5.000000000000011 7.660355497797328 16.943799999999968
    vertex 0.9999999999999999 7.549999999999985 16.859121248268217
    vertex 0.9999999999999999 7.660355497797328 16.943799999999968
  endloop
endfacet
facet normal -0.0 -0.0 1.0
  outer loop
    vertex 0.9999999999999999 7.660355497797328 16.943799999999968
    vertex -5.000000000000011 10.5 16.943799999999968
    vertex -5.000000000000011 7.660355497797328 16.943799999999968
  endloop
endfacet
facet normal -0.0 -0.0 1.0
  outer loop
    vertex -5.000000000000011 10.5 16.943799999999968
    vertex 0.9999999999999999 7.660355497797328 16.943799999999968
    vertex 0.9999999999999999 10.5 16.943799999999968
  endloop
endfacet
facet normal -0.0 1.0 -0.0
  outer loop
    vertex -5.000000000000011 10.5 16.943799999999968
    vertex 0.9999999999999999 10.5 13.94379999999998
    vertex -5.000000000000011 10.5 13.94379999999998
  endloop
endfacet
facet normal -0.0 1.0 -0.0
  outer loop
    vertex 0.9999999999999999 10.5 13.94379999999998
    vertex -5.000000000000011 10.5 16.943799999999968
    vertex 0.9999999999999999 10.5 16.943799999999968
  endloop
endfacet
facet normal -0.0 1.0 -0.0
  outer loop
    vertex -5.000000000000011 10.5 8.743799999999984
    vertex 0.9999999999999999 10.5 6.257097134367628
    vertex -5.000000000000011 10.5 6.257097134367628
  endloop
endfacet
facet normal -0.0 1.0 -0.0
  outer loop
    vertex 0.9999999999999999 10.5 6.257097134367628
    vertex -5.000000000000011 10.5 8.743799999999984
    vertex 0.9999999999999999 10.5 8.743799999999984
  endloop
endfacet
facet normal 0.0 0.0 -1.0
  outer loop
    vertex -13.999999999999995 10.5 -0.9999999999999998
    vertex -11.431851652578144 6.767638090205042 -1.0000000000000004
    vertex -13.999999999999995 0.0 -0.9999999999999998
  endloop
endfacet
facet normal 0.0 0.0 -1.0
  outer loop
    vertex -11.431851652578144 6.767638090205042 -1.0000000000000004
    vertex -13.999999999999995 10.5 -0.9999999999999998
    vertex -11.23205080756889 7.250000000000001 -1.0000000000000004
  endloop
endfacet
facet normal 0.0 0.0 -1.0
  outer loop
    vertex -11.23205080756889 7.250000000000001 -1.0000000000000004
    vertex -13.999999999999995 10.5 -0.9999999999999998
    vertex -10.91421356237311 7.664213562373096 -1.0000000000000004
  endloop
endfacet
facet normal 0.0 0.0 -1.0
  outer loop
    vertex -10.91421356237311 7.664213562373096 -1.0000000000000004
    vertex -13.999999999999995 10.5 -0.9999999999999998
    vertex -10.500000000000009 7.9820508075688785 -1.0000000000000004
  endloop
endfacet
facet normal 0.0 0.0 -1.0
  outer loop
    vertex -10.500000000000009 7.9820508075688785 -1.0000000000000004
    vertex -13.999999999999995 10.5 -0.9999999999999998
    vertex -10.017638090205049 8.181851652578139 -1.0000000000000004
  endloop
endfacet
facet normal 0.0 0.0 -1.0
  outer loop
    vertex -10.017638090205049 8.181851652578139 -1.0000000000000004
    vertex -13.999999999999995 10.5 -0.9999999999999998
    vertex 0.9999999999999999 10.5 -0.9999999999999998
  endloop
endfacet
facet normal 0.0 0.0 -1.0
  outer loop
    vertex -13.999999999999995 0.0 -0.9999999999999998
    vertex -11.431851652578144 6.767638090205042 -1.0000000000000004
    vertex -11.500000000000007 6.25 -1.0000000000000004
  endloop
endfacet
facet normal 0.0 0.0 -1.0
  outer loop
    vertex -10.017638090205049 8.181851652578139 -1.0000000000000004
    vertex 0.9999999999999999 10.5 -0.9999999999999998
    vertex -9.50000000000001 8.250000000000002 -1.0000000000000004
  endloop
endfacet
facet normal 0.0 0.0 -1.0
  outer loop
    vertex -9.50000000000001 8.250000000000002 -1.0000000000000004
    vertex 0.9999999999999999 10.5 -0.9999999999999998
    vertex -8.982361909794966 8.181851652578139 -1.0000000000000004
  endloop
endfacet
facet normal 0.0 0.0 -1.0
  outer loop
    vertex -8.982361909794966 8.181851652578139 -1.0000000000000004
    vertex 0.9999999999999999 10.5 -0.9999999999999998
    vertex -8.500000000000012 7.9820508075688785 -1.0000000000000004
  endloop
endfacet
facet normal 0.0 0.0 -1.0
  outer loop
    vertex -8.500000000000012 7.9820508075688785 -1.0000000000000004
    vertex 0.9999999999999999 10.5 -0.9999999999999998
    vertex -8.085786437626915 7.664213562373096 -1.0000000000000004
  endloop
endfacet
facet normal 0.0 0.0 -1.0
  outer loop
    vertex -8.085786437626915 7.664213562373096 -1.0000000000000004
    vertex 0.9999999999999999 10.5 -0.9999999999999998
    vertex -7.767949192431132 7.250000000000001 -1.0000000000000004
  endloop
endfacet
facet normal 0.0 0.0 -1.0
  outer loop
    vertex -7.767949192431132 7.250000000000001 -1.0000000000000004
    vertex 0.9999999999999999 10.5 -0.9999999999999998
    vertex -7.568148347421866 6.767638090205042 -1.0000000000000004
  endloop
endfacet
facet normal 0.0 0.0 -1.0
  outer loop
    vertex -7.568148347421866 6.767638090205042 -1.0000000000000004
    vertex 0.9999999999999999 10.5 -0.9999999999999998
    vertex -7.5000000000000036 6.25 -1.0000000000000004
  endloop
endfacet
facet normal 0.0 0.0 -1.0
  outer loop
    vertex -13.999999999999995 0.0 -0.9999999999999998
    vertex -10.017638090205049 4.318148347421861 -1.0000000000000004
    vertex 0.9999999999999999 0.0 -0.9999999999999998
  endloop
endfacet
facet normal 0.0 0.0 -1.0
  outer loop
    vertex -10.017638090205049 4.318148347421861 -1.0000000000000004
    vertex -13.999999999999995 0.0 -0.9999999999999998
    vertex -10.500000000000009 4.51794919243112 -1.0000000000000004
  endloop
endfacet
facet normal 0.0 0.0 -1.0
  outer loop
    vertex -10.500000000000009 4.51794919243112 -1.0000000000000004
    vertex -13.999999999999995 0.0 -0.9999999999999998
    vertex -10.91421356237311 4.835786437626902 -1.0000000000000004
  endloop
endfacet
facet normal 0.0 0.0 -1.0
  outer loop
    vertex -10.91421356237311 4.835786437626902 -1.0000000000000004
    vertex -13.999999999999995 0.0 -0.9999999999999998
    vertex -11.23205080756889 5.249999999999998 -1.0000000000000004
  endloop
endfacet
facet normal 0.0 0.0 -1.0
  outer loop
    vertex -11.23205080756889 5.249999999999998 -1.0000000000000004
    vertex -13.999999999999995 0.0 -0.9999999999999998
    vertex -11.431851652578144 5.732361909794957 -1.0000000000000004
  endloop
endfacet
facet normal 0.0 0.0 -1.0
  outer loop
    vertex -11.431851652578144 5.732361909794957 -1.0000000000000004
    vertex -13.999999999999995 0.0 -0.9999999999999998
    vertex -11.500000000000007 6.25 -1.0000000000000004
  endloop
endfacet
facet normal 0.0 0.0 -1.0
  outer loop
    vertex 0.9999999999999999 0.0 -0.9999999999999998
    vertex -10.017638090205049 4.318148347421861 -1.0000000000000004
    vertex -9.50000000000001 4.249999999999998 -1.0000000000000004
  endloop
endfacet
facet normal 0.0 0.0 -1.0
  outer loop
    vertex 0.9999999999999999 0.0 -0.9999999999999998
    vertex -9.50000000000001 4.249999999999998 -1.0000000000000004
    vertex -8.982361909794966 4.318148347421861 -1.0000000000000004
  endloop
endfacet
facet normal 0.0 0.0 -1.0
  outer loop
    vertex 0.9999999999999999 0.0 -0.9999999999999998
    vertex -8.982361909794966 4.318148347421861 -1.0000000000000004
    vertex -8.500000000000002 4.5179491924311215 -1.0000000000000004
  endloop
endfacet
facet normal 0.0 0.0 -1.0
  outer loop
    vertex 0.9999999999999999 0.0 -0.9999999999999998
    vertex -8.500000000000002 4.5179491924311215 -1.0000000000000004
    vertex -8.085786437626915 4.835786437626904 -1.0000000000000004
  endloop
endfacet
facet normal 0.0 0.0 -1.0
  outer loop
    vertex 0.9999999999999999 0.0 -0.9999999999999998
    vertex -8.085786437626915 4.835786437626904 -1.0000000000000004
    vertex -7.767949192431132 5.249999999999999 -1.0000000000000004
  endloop
endfacet
facet normal 0.0 0.0 -1.0
  outer loop
    vertex 0.9999999999999999 0.0 -0.9999999999999998
    vertex -7.767949192431132 5.249999999999999 -1.0000000000000004
    vertex -7.568148347421866 5.7323619097949585 -1.0000000000000004
  endloop
endfacet
facet normal 0.0 0.0 -1.0
  outer loop
    vertex 0.9999999999999999 0.0 -0.9999999999999998
    vertex -7.568148347421866 5.7323619097949585 -1.0000000000000004
    vertex -7.5000000000000036 6.25 -1.0000000000000004
  endloop
endfacet
facet normal 0.0 0.0 -1.0
  outer loop
    vertex 0.9999999999999999 0.0 -0.9999999999999998
    vertex -7.5000000000000036 6.25 -1.0000000000000004
    vertex 0.9999999999999999 10.5 -0.9999999999999998
  endloop
endfacet
facet normal -0.0 -0.0 1.0
  outer loop
    vertex -5.000000000000011 -2.46747067222941e-15 1.0
    vertex -12.00000000000001 1.9999999999999998 1.0000000000000002
    vertex -12.00000000000001 -2.46747067222941e-15 1.0000000000000002
  endloop
endfacet
facet normal -0.0 -0.0 1.0
  outer loop
    vertex -12.00000000000001 1.9999999999999998 1.0000000000000002
    vertex -5.000000000000011 -2.46747067222941e-15 1.0
    vertex -10.91421356237311 4.835786437626902 1.0
  endloop
endfacet
facet normal -0.0 -0.0 1.0
  outer loop
    vertex -12.00000000000001 1.9999999999999998 1.0000000000000002
    vertex -10.91421356237311 4.835786437626902 1.0
    vertex -11.23205080756889 5.249999999999998 1.0
  endloop
endfacet
facet normal -0.0 -0.0 1.0
  outer loop
    vertex -12.00000000000001 1.9999999999999998 1.0000000000000002
    vertex -11.23205080756889 5.249999999999998 1.0
    vertex -11.431851652578144 5.732361909794957 1.0
  endloop
endfacet
facet normal -0.0 -0.0 1.0
  outer loop
    vertex -12.00000000000001 1.9999999999999998 1.0000000000000002
    vertex -11.431851652578144 5.732361909794957 1.0
    vertex -11.500000000000007 6.25 1.0
  endloop
endfacet
facet normal -0.0 -0.0 1.0
  outer loop
    vertex -10.91421356237311 4.835786437626902 1.0
    vertex -5.000000000000011 -2.46747067222941e-15 1.0
    vertex -10.500000000000009 4.51794919243112 1.0
  endloop
endfacet
facet normal -0.0 -0.0 1.0
  outer loop
    vertex -10.500000000000009 4.51794919243112 1.0
    vertex -5.000000000000011 -2.46747067222941e-15 1.0
    vertex -10.017638090205049 4.318148347421861 1.0
  endloop
endfacet
facet normal -0.0 -0.0 1.0
  outer loop
    vertex -10.017638090205049 4.318148347421861 1.0
    vertex -5.000000000000011 -2.46747067222941e-15 1.0
    vertex -9.50000000000001 4.249999999999998 1.0
  endloop
endfacet
facet normal -0.0 -0.0 1.0
  outer loop
    vertex -9.50000000000001 4.249999999999998 1.0
    vertex -5.000000000000011 -2.46747067222941e-15 1.0
    vertex -8.982361909794966 4.318148347421861 1.0
  endloop
endfacet
facet normal -0.0 -0.0 1.0
  outer loop
    vertex -8.982361909794966 4.318148347421861 1.0
    vertex -5.000000000000011 -2.46747067222941e-15 1.0
    vertex -8.500000000000002 4.5179491924311215 1.0
  endloop
endfacet
facet normal -0.0 -0.0 1.0
  outer loop
    vertex -8.500000000000002 4.5179491924311215 1.0
    vertex -5.000000000000011 -2.46747067222941e-15 1.0
    vertex -8.085786437626915 4.835786437626904 1.0
  endloop
endfacet
facet normal -0.0 -0.0 1.0
  outer loop
    vertex -8.085786437626915 4.835786437626904 1.0
    vertex -5.000000000000011 -2.46747067222941e-15 1.0
    vertex -7.767949192431132 5.249999999999999 1.0
  endloop
endfacet
facet normal -0.0 -0.0 1.0
  outer loop
    vertex -7.767949192431132 5.249999999999999 1.0
    vertex -5.000000000000011 -2.46747067222941e-15 1.0
    vertex -7.568148347421866 5.7323619097949585 1.0
  endloop
endfacet
facet normal -0.0 -0.0 1.0
  outer loop
    vertex -7.568148347421866 5.7323619097949585 1.0
    vertex -5.000000000000011 -2.46747067222941e-15 1.0
    vertex -7.5000000000000036 6.25 1.0
  endloop
endfacet
facet normal -0.0 -0.0 1.0
  outer loop
    vertex -12.00000000000001 1.9999999999999998 1.0000000000000002
    vertex -13.999999999999995 10.5 1.0
    vertex -13.999999999999995 1.9999999999999991 1.0
  endloop
endfacet
facet normal -0.0 -0.0 1.0
  outer loop
    vertex -13.999999999999995 10.5 1.0
    vertex -12.00000000000001 1.9999999999999998 1.0000000000000002
    vertex -11.500000000000007 6.25 1.0
  endloop
endfacet
facet normal -0.0 -0.0 1.0
  outer loop
    vertex -13.999999999999995 10.5 1.0
    vertex -11.500000000000007 6.25 1.0
    vertex -11.431851652578144 6.767638090205042 1.0
  endloop
endfacet
facet normal -0.0 -0.0 1.0
  outer loop
    vertex -13.999999999999995 10.5 1.0
    vertex -11.431851652578144 6.767638090205042 1.0
    vertex -11.23205080756889 7.250000000000001 1.0
  endloop
endfacet
facet normal -0.0 -0.0 1.0
  outer loop
    vertex -13.999999999999995 10.5 1.0
    vertex -11.23205080756889 7.250000000000001 1.0
    vertex -10.91421356237311 7.664213562373096 1.0
  endloop
endfacet
facet normal -0.0 -0.0 1.0
  outer loop
    vertex -13.999999999999995 10.5 1.0
    vertex -10.91421356237311 7.664213562373096 1.0
    vertex -10.500000000000009 7.9820508075688785 1.0
  endloop
endfacet
facet normal -0.0 -0.0 1.0
  outer loop
    vertex -13.999999999999995 10.5 1.0
    vertex -10.500000000000009 7.9820508075688785 1.0
    vertex -5.000000000000011 10.5 1.0
  endloop
endfacet
facet normal -0.0 -0.0 1.0
  outer loop
    vertex -5.000000000000011 10.5 1.0
    vertex -10.500000000000009 7.9820508075688785 1.0
    vertex -10.017638090205049 8.181851652578139 1.0
  endloop
endfacet
facet normal -0.0 -0.0 1.0
  outer loop
    vertex -5.000000000000011 10.5 1.0
    vertex -10.017638090205049 8.181851652578139 1.0
    vertex -9.50000000000001 8.250000000000002 1.0
  endloop
endfacet
facet normal -0.0 -0.0 1.0
  outer loop
    vertex -5.000000000000011 10.5 1.0
    vertex -9.50000000000001 8.250000000000002 1.0
    vertex -8.982361909794966 8.181851652578139 1.0
  endloop
endfacet
facet normal -0.0 -0.0 1.0
  outer loop
    vertex -5.000000000000011 10.5 1.0
    vertex -8.982361909794966 8.181851652578139 1.0
    vertex -8.500000000000012 7.9820508075688785 1.0
  endloop
endfacet
facet normal -0.0 -0.0 1.0
  outer loop
    vertex -5.000000000000011 10.5 1.0
    vertex -8.500000000000012 7.9820508075688785 1.0
    vertex -8.085786437626915 7.664213562373096 1.0
  endloop
endfacet
facet normal -0.0 -0.0 1.0
  outer loop
    vertex -5.000000000000011 10.5 1.0
    vertex -8.085786437626915 7.664213562373096 1.0
    vertex -7.767949192431132 7.250000000000001 1.0
  endloop
endfacet
facet normal -0.0 -0.0 1.0
  outer loop
    vertex -5.000000000000011 10.5 1.0
    vertex -7.767949192431132 7.250000000000001 1.0
    vertex -7.568148347421866 6.767638090205042 1.0
  endloop
endfacet
facet normal -0.0 -0.0 1.0
  outer loop
    vertex -5.000000000000011 10.5 1.0
    vertex -7.568148347421866 6.767638090205042 1.0
    vertex -7.5000000000000036 6.25 1.0
  endloop
endfacet
facet normal -0.0 -0.0 1.0
  outer loop
    vertex -5.000000000000011 10.5 1.0
    vertex -7.5000000000000036 6.25 1.0
    vertex -5.000000000000011 -2.46747067222941e-15 1.0
  endloop
endfacet
facet normal 0.0 0.0 -1.0
  outer loop
    vertex -5.000000000000011 10.5 13.94379999999998
    vertex 0.9999999999999999 7.660355497797334 13.94379999999998
    vertex -5.000000000000013 7.660355497797334 13.94379999999998
  endloop
endfacet
facet normal 0.0 0.0 -1.0
  outer loop
    vertex 0.9999999999999999 7.660355497797334 13.94379999999998
    vertex -5.000000000000011 10.5 13.94379999999998
    vertex 0.9999999999999999 10.5 13.94379999999998
  endloop
endfacet
facet normal -0.0 0.99144486137381 0.13052619222005535
  outer loop
    vertex -5.000000000000011 2.900000000000006 11.343799999999977
    vertex 0.9999999999999999 3.0056299385038963 10.541460960182173
    vertex -5.000000000000011 3.0056299385038963 10.541460960182173
  endloop
endfacet
facet normal -0.0 0.99144486137381 0.13052619222005535
  outer loop
    vertex 0.9999999999999999 3.0056299385038963 10.541460960182173
    vertex -5.000000000000011 2.900000000000006 11.343799999999977
    vertex 0.9999999999999999 2.900000000000006 11.343799999999977
  endloop
endfacet
facet normal 0.0 0.6087614290087219 -0.7933533402912342
  outer loop
    vertex 0.9999999999999999 4.450000000000003 14.028478751731736
    vertex -5.000000000000011 3.8079689783217066 13.535831021678273
    vertex -5.000000000000011 4.450000000000003 14.028478751731736
  endloop
endfacet
facet normal 0.0 0.6087614290087219 -0.7933533402912342
  outer loop
    vertex -5.000000000000011 3.8079689783217066 13.535831021678273
    vertex 0.9999999999999999 4.450000000000003 14.028478751731736
    vertex 0.9999999999999999 3.8079689783217066 13.535831021678273
  endloop
endfacet
facet normal -0.0 -0.6087614290087064 0.7933533402912462
  outer loop
    vertex 0.9999999999999999 7.549999999999985 8.65912124826823
    vertex -5.000000000000011 7.660355497797331 8.743799999999984
    vertex -5.000000000000011 7.549999999999985 8.65912124826823
  endloop
endfacet
facet normal -0.0 -0.6087614290087064 0.7933533402912462
  outer loop
    vertex -5.000000000000011 7.660355497797331 8.743799999999984
    vertex 0.9999999999999999 7.549999999999985 8.65912124826823
    vertex 0.9999999999999999 7.660355497797331 8.743799999999984
  endloop
endfacet
facet normal 4.780146535131705e-19 -0.6087614290087092 -0.7933533402912442
  outer loop
    vertex 0.9999999999999999 7.660355497797334 13.94379999999998
    vertex -5.000000000000011 7.549999999999985 14.028478751731736
    vertex -5.000000000000013 7.660355497797334 13.94379999999998
  endloop
endfacet
facet normal 4.780146535131705e-19 -0.6087614290087092 -0.7933533402912442
  outer loop
    vertex -5.000000000000011 7.549999999999985 14.028478751731736
    vertex 0.9999999999999999 7.660355497797334 13.94379999999998
    vertex 0.9999999999999999 7.549999999999985 14.028478751731736
  endloop
endfacet
facet normal -0.0 0.7933533402912302 -0.6087614290087271
  outer loop
    vertex -5.000000000000011 3.8079689783217066 13.535831021678273
    vertex 0.9999999999999999 3.315321248268243 12.893799999999985
    vertex -5.000000000000011 3.315321248268243 12.893799999999985
  endloop
endfacet
facet normal -0.0 0.7933533402912302 -0.6087614290087271
  outer loop
    vertex 0.9999999999999999 3.315321248268243 12.893799999999985
    vertex -5.000000000000011 3.8079689783217066 13.535831021678273
    vertex 0.9999999999999999 3.8079689783217066 13.535831021678273
  endloop
endfacet
facet normal 0.0 0.3826834323650898 -0.9238795325112867
  outer loop
    vertex 0.9999999999999999 5.19766096018219 14.33817006149609
    vertex -5.000000000000011 4.450000000000003 14.028478751731736
    vertex -5.000000000000011 5.19766096018219 14.33817006149609
  endloop
endfacet
facet normal 0.0 0.3826834323650898 -0.9238795325112867
  outer loop
    vertex -5.000000000000011 4.450000000000003 14.028478751731736
    vertex 0.9999999999999999 5.19766096018219 14.33817006149609
    vertex 0.9999999999999999 4.450000000000003 14.028478751731736
  endloop
endfacet
facet normal -0.0 -0.0 1.0
  outer loop
    vertex 0.9999999999999999 7.660355497797331 8.743799999999984
    vertex -5.000000000000011 10.5 8.743799999999984
    vertex -5.000000000000011 7.660355497797331 8.743799999999984
  endloop
endfacet
facet normal -0.0 -0.0 1.0
  outer loop
    vertex -5.000000000000011 10.5 8.743799999999984
    vertex 0.9999999999999999 7.660355497797331 8.743799999999984
    vertex 0.9999999999999999 10.5 8.743799999999984
  endloop
endfacet
facet normal -0.0 0.3826834323650928 0.9238795325112855
  outer loop
    vertex 0.9999999999999999 4.450000000000003 8.65912124826823
    vertex -5.000000000000011 5.19766096018219 8.349429938503876
    vertex -5.000000000000011 4.450000000000003 8.65912124826823
  endloop
endfacet
facet normal -0.0 0.3826834323650928 0.9238795325112855
  outer loop
    vertex -5.000000000000011 5.19766096018219 8.349429938503876
    vertex 0.9999999999999999 4.450000000000003 8.65912124826823
    vertex 0.9999999999999999 5.19766096018219 8.349429938503876
  endloop
endfacet
facet normal -0.0 -0.3826834323650984 0.9238795325112833
  outer loop
    vertex 0.9999999999999999 6.80233903981781 8.349429938503876
    vertex -5.000000000000011 7.549999999999985 8.65912124826823
    vertex -5.000000000000011 6.80233903981781 8.349429938503876
  endloop
endfacet
facet normal -0.0 -0.3826834323650984 0.9238795325112833
  outer loop
    vertex -5.000000000000011 7.549999999999985 8.65912124826823
    vertex 0.9999999999999999 6.80233903981781 8.349429938503876
    vertex 0.9999999999999999 7.549999999999985 8.65912124826823
  endloop
endfacet
facet normal 0.0 0.13052619222004072 -0.9914448613738118
  outer loop
    vertex 0.9999999999999999 6.0 14.443799999999968
    vertex -5.000000000000011 5.19766096018219 14.33817006149609
    vertex -5.000000000000011 6.0 14.443799999999968
  endloop
endfacet
facet normal 0.0 0.13052619222004072 -0.9914448613738118
  outer loop
    vertex -5.000000000000011 5.19766096018219 14.33817006149609
    vertex 0.9999999999999999 6.0 14.443799999999968
    vertex 0.9999999999999999 5.19766096018219 14.33817006149609
  endloop
endfacet
facet normal -0.0 0.9238795325112882 -0.38268343236508634
  outer loop
    vertex -5.000000000000011 3.315321248268243 12.893799999999985
    vertex 0.9999999999999999 3.0056299385038963 12.146139039817804
    vertex -5.000000000000011 3.0056299385038963 12.146139039817804
  endloop
endfacet
facet normal -0.0 0.9238795325112882 -0.38268343236508634
  outer loop
    vertex 0.9999999999999999 3.0056299385038963 12.146139039817804
    vertex -5.000000000000011 3.315321248268243 12.893799999999985
    vertex 0.9999999999999999 3.315321248268243 12.893799999999985
  endloop
endfacet
facet normal -0.0 0.9238795325112903 0.38268343236508146
  outer loop
    vertex -5.000000000000011 3.0056299385038963 10.541460960182173
    vertex 0.9999999999999999 3.315321248268243 9.79379999999998
    vertex -5.000000000000011 3.315321248268243 9.79379999999998
  endloop
endfacet
facet normal -0.0 0.9238795325112903 0.38268343236508146
  outer loop
    vertex 0.9999999999999999 3.315321248268243 9.79379999999998
    vertex -5.000000000000011 3.0056299385038963 10.541460960182173
    vertex 0.9999999999999999 3.0056299385038963 10.541460960182173
  endloop
endfacet
facet normal -0.0 0.9914448613738105 -0.13052619222005174
  outer loop
    vertex -5.000000000000011 3.0056299385038963 12.146139039817804
    vertex 0.9999999999999999 2.900000000000006 11.343799999999977
    vertex -5.000000000000011 2.900000000000006 11.343799999999977
  endloop
endfacet
facet normal -0.0 0.9914448613738105 -0.13052619222005174
  outer loop
    vertex 0.9999999999999999 2.900000000000006 11.343799999999977
    vertex -5.000000000000011 3.0056299385038963 12.146139039817804
    vertex 0.9999999999999999 3.0056299385038963 12.146139039817804
  endloop
endfacet
facet normal 0.0 -0.13052619222004072 -0.9914448613738118
  outer loop
    vertex 0.9999999999999999 6.80233903981781 14.33817006149609
    vertex -5.000000000000011 6.0 14.443799999999968
    vertex -5.000000000000011 6.80233903981781 14.33817006149609
  endloop
endfacet
facet normal 0.0 -0.13052619222004072 -0.9914448613738118
  outer loop
    vertex -5.000000000000011 6.0 14.443799999999968
    vertex 0.9999999999999999 6.80233903981781 14.33817006149609
    vertex 0.9999999999999999 6.0 14.443799999999968
  endloop
endfacet
facet normal -0.0 0.6087614290087154 0.7933533402912392
  outer loop
    vertex 0.9999999999999999 3.8079689783217066 9.151768978321686
    vertex -5.000000000000011 4.450000000000003 8.65912124826823
    vertex -5.000000000000011 3.8079689783217066 9.151768978321686
  endloop
endfacet
facet normal -0.0 0.6087614290087154 0.7933533402912392
  outer loop
    vertex -5.000000000000011 4.450000000000003 8.65912124826823
    vertex 0.9999999999999999 3.8079689783217066 9.151768978321686
    vertex 0.9999999999999999 4.450000000000003 8.65912124826823
  endloop
endfacet
facet normal -0.0 0.130526192220051 0.9914448613738105
  outer loop
    vertex 0.9999999999999999 5.19766096018219 8.349429938503876
    vertex -5.000000000000011 6.0 8.243799999999988
    vertex -5.000000000000011 5.19766096018219 8.349429938503876
  endloop
endfacet
facet normal -0.0 0.130526192220051 0.9914448613738105
  outer loop
    vertex -5.000000000000011 6.0 8.243799999999988
    vertex 0.9999999999999999 5.19766096018219 8.349429938503876
    vertex 0.9999999999999999 6.0 8.243799999999988
  endloop
endfacet
facet normal 0.0 -0.38268343236509544 -0.9238795325112846
  outer loop
    vertex 0.9999999999999999 7.549999999999985 14.028478751731736
    vertex -5.000000000000011 6.80233903981781 14.33817006149609
    vertex -5.000000000000011 7.549999999999985 14.028478751731736
  endloop
endfacet
facet normal 0.0 -0.38268343236509544 -0.9238795325112846
  outer loop
    vertex -5.000000000000011 6.80233903981781 14.33817006149609
    vertex 0.9999999999999999 7.549999999999985 14.028478751731736
    vertex 0.9999999999999999 6.80233903981781 14.33817006149609
  endloop
endfacet
facet normal -0.0 0.793353340291233 0.6087614290087239
  outer loop
    vertex -5.000000000000011 3.315321248268243 9.79379999999998
    vertex 0.9999999999999999 3.8079689783217066 9.151768978321686
    vertex -5.000000000000011 3.8079689783217066 9.151768978321686
  endloop
endfacet
facet normal -0.0 0.793353340291233 0.6087614290087239
  outer loop
    vertex 0.9999999999999999 3.8079689783217066 9.151768978321686
    vertex -5.000000000000011 3.315321248268243 9.79379999999998
    vertex 0.9999999999999999 3.315321248268243 9.79379999999998
  endloop
endfacet
facet normal -0.0 -0.130526192220051 0.9914448613738105
  outer loop
    vertex 0.9999999999999999 6.0 8.243799999999988
    vertex -5.000000000000011 6.80233903981781 8.349429938503876
    vertex -5.000000000000011 6.0 8.243799999999988
  endloop
endfacet
facet normal -0.0 -0.130526192220051 0.9914448613738105
  outer loop
    vertex -5.000000000000011 6.80233903981781 8.349429938503876
    vertex 0.9999999999999999 6.0 8.243799999999988
    vertex 0.9999999999999999 6.80233903981781 8.349429938503876
  endloop
endfacet
facet normal -1.0 0.0 0.0
  outer loop
    vertex -13.999999999999995 1.9999999999999991 1.0
    vertex -13.999999999999995 0.0 -0.9999999999999998
    vertex -13.999999999999995 0.0 1.0
  endloop
endfacet
facet normal -1.0 0.0 0.0
  outer loop
    vertex -13.999999999999995 0.0 -0.9999999999999998
    vertex -13.999999999999995 1.9999999999999991 1.0
    vertex -13.999999999999995 10.5 -0.9999999999999998
  endloop
endfacet
facet normal -1.0 0.0 0.0
  outer loop
    vertex -13.999999999999995 10.5 -0.9999999999999998
    vertex -13.999999999999995 1.9999999999999991 1.0
    vertex -13.999999999999995 10.5 1.0
  endloop
endfacet
facet normal 1.0423227399369071e-18 -1.0 2.988894426542615e-17
  outer loop
    vertex 0.9999999999999999 0.0 -0.9999999999999998
    vertex -5.000000000000011 -2.46747067222941e-15 1.0
    vertex -13.999999999999995 0.0 -0.9999999999999998
  endloop
endfacet
facet normal 1.0423227399369071e-18 -1.0 2.988894426542615e-17
  outer loop
    vertex -5.000000000000011 -2.46747067222941e-15 1.0
    vertex 0.9999999999999999 0.0 -0.9999999999999998
    vertex 0.9999999999999999 7.049916206369744e-16 23.143799999999974
  endloop
endfacet
facet normal 1.0423227399369071e-18 -1.0 2.988894426542615e-17
  outer loop
    vertex -5.000000000000011 -2.46747067222941e-15 1.0
    vertex 0.9999999999999999 7.049916206369744e-16 23.143799999999974
    vertex -5.000000000000011 -2.46747067222941e-15 3.0
  endloop
endfacet
facet normal 1.0423227399369071e-18 -1.0 2.988894426542615e-17
  outer loop
    vertex -5.000000000000011 -2.46747067222941e-15 3.0
    vertex 0.9999999999999999 7.049916206369744e-16 23.143799999999974
    vertex -12.00000000000001 -2.46747067222941e-15 3.0
  endloop
endfacet
facet normal 1.0423227399369071e-18 -1.0 2.988894426542615e-17
  outer loop
    vertex -5.000000000000011 -2.46747067222941e-15 1.0
    vertex -13.999999999999995 0.0 1.0
    vertex -13.999999999999995 0.0 -0.9999999999999998
  endloop
endfacet
facet normal 1.0423227399369071e-18 -1.0 2.988894426542615e-17
  outer loop
    vertex -13.999999999999995 0.0 1.0
    vertex -5.000000000000011 -2.46747067222941e-15 1.0
    vertex -12.00000000000001 -2.46747067222941e-15 1.0000000000000002
  endloop
endfacet
facet normal 1.0423227399369071e-18 -1.0 2.988894426542615e-17
  outer loop
    vertex -13.999999999999995 0.0 1.0
    vertex -12.00000000000001 -2.46747067222941e-15 1.0000000000000002
    vertex -13.999999999999995 7.049916206369744e-16 23.143799999999974
  endloop
endfacet
facet normal 1.0423227399369071e-18 -1.0 2.988894426542615e-17
  outer loop
    vertex -13.999999999999995 7.049916206369744e-16 23.143799999999974
    vertex -12.00000000000001 -2.46747067222941e-15 1.0000000000000002
    vertex -12.00000000000001 -2.46747067222941e-15 3.0
  endloop
endfacet
facet normal 1.0423227399369071e-18 -1.0 2.988894426542615e-17
  outer loop
    vertex -13.999999999999995 7.049916206369744e-16 23.143799999999974
    vertex -12.00000000000001 -2.46747067222941e-15 3.0
    vertex 0.9999999999999999 7.049916206369744e-16 23.143799999999974
  endloop
endfacet
facet normal 1.0423227399369071e-18 -1.0 2.988894426542615e-17
  outer loop
    vertex -13.999999999999995 7.049916206369744e-16 23.143799999999974
    vertex 0.9999999999999999 7.049916206369744e-16 23.143799999999974
    vertex -5.000000000000011 7.049916206369744e-16 23.143799999999974
  endloop
endfacet
facet normal 1.0423227399369071e-18 -1.0 2.988894426542615e-17
  outer loop
    vertex -13.999999999999995 7.049916206369744e-16 23.143799999999974
    vertex -5.000000000000011 7.049916206369744e-16 23.143799999999974
    vertex -12.00000000000001 7.049916206369744e-16 23.143799999999974
  endloop
endfacet
facet normal 0.6087614290087161 0.7933533402912387 -0.0
  outer loop
    vertex -10.91421356237311 4.835786437626902 1.0
    vertex -10.500000000000009 4.51794919243112 -1.0000000000000004
    vertex -10.91421356237311 4.835786437626902 -1.0000000000000004
  endloop
endfacet
facet normal 0.6087614290087161 0.7933533402912387 -0.0
  outer loop
    vertex -10.500000000000009 4.51794919243112 -1.0000000000000004
    vertex -10.91421356237311 4.835786437626902 1.0
    vertex -10.500000000000009 4.51794919243112 1.0
  endloop
endfacet
facet normal 0.92387953251129 -0.3826834323650821 -0.0
  outer loop
    vertex -11.23205080756889 7.250000000000001 -1.0000000000000004
    vertex -11.431851652578144 6.767638090205042 1.0
    vertex -11.431851652578144 6.767638090205042 -1.0000000000000004
  endloop
endfacet
facet normal 0.92387953251129 -0.3826834323650821 -0.0
  outer loop
    vertex -11.431851652578144 6.767638090205042 1.0
    vertex -11.23205080756889 7.250000000000001 -1.0000000000000004
    vertex -11.23205080756889 7.250000000000001 1.0
  endloop
endfacet
facet normal 0.3826834323650871 0.9238795325112881 -0.0
  outer loop
    vertex -10.500000000000009 4.51794919243112 1.0
    vertex -10.017638090205049 4.318148347421861 -1.0000000000000004
    vertex -10.500000000000009 4.51794919243112 -1.0000000000000004
  endloop
endfacet
facet normal 0.3826834323650871 0.9238795325112881 -0.0
  outer loop
    vertex -10.017638090205049 4.318148347421861 -1.0000000000000004
    vertex -10.500000000000009 4.51794919243112 1.0
    vertex -10.017638090205049 4.318148347421861 1.0
  endloop
endfacet
facet normal -0.13052619222005077 0.9914448613738105 -0.0
  outer loop
    vertex -9.50000000000001 4.249999999999998 1.0
    vertex -8.982361909794966 4.318148347421861 -1.0000000000000004
    vertex -9.50000000000001 4.249999999999998 -1.0000000000000004
  endloop
endfacet
facet normal -0.13052619222005077 0.9914448613738105 -0.0
  outer loop
    vertex -8.982361909794966 4.318148347421861 -1.0000000000000004
    vertex -9.50000000000001 4.249999999999998 1.0
    vertex -8.982361909794966 4.318148347421861 1.0
  endloop
endfacet
facet normal -0.3826834323650876 0.9238795325112878 -0.0
  outer loop
    vertex -8.982361909794966 4.318148347421861 1.0
    vertex -8.500000000000002 4.5179491924311215 -1.0000000000000004
    vertex -8.982361909794966 4.318148347421861 -1.0000000000000004
  endloop
endfacet
facet normal -0.3826834323650876 0.9238795325112878 -0.0
  outer loop
    vertex -8.500000000000002 4.5179491924311215 -1.0000000000000004
    vertex -8.982361909794966 4.318148347421861 1.0
    vertex -8.500000000000002 4.5179491924311215 1.0
  endloop
endfacet
facet normal 0.13052619222005285 0.9914448613738103 -0.0
  outer loop
    vertex -10.017638090205049 4.318148347421861 1.0
    vertex -9.50000000000001 4.249999999999998 -1.0000000000000004
    vertex -10.017638090205049 4.318148347421861 -1.0000000000000004
  endloop
endfacet
facet normal 0.13052619222005285 0.9914448613738103 -0.0
  outer loop
    vertex -9.50000000000001 4.249999999999998 -1.0000000000000004
    vertex -10.017638090205049 4.318148347421861 1.0
    vertex -9.50000000000001 4.249999999999998 1.0
  endloop
endfacet
facet normal 0.9914448613738105 0.1305261922200513 -0.0
  outer loop
    vertex -11.500000000000007 6.25 -1.0000000000000004
    vertex -11.431851652578144 5.732361909794957 1.0
    vertex -11.431851652578144 5.732361909794957 -1.0000000000000004
  endloop
endfacet
facet normal 0.9914448613738105 0.1305261922200513 -0.0
  outer loop
    vertex -11.431851652578144 5.732361909794957 1.0
    vertex -11.500000000000007 6.25 -1.0000000000000004
    vertex -11.500000000000007 6.25 1.0
  endloop
endfacet
facet normal 0.9914448613738105 -0.13052619222005143 -0.0
  outer loop
    vertex -11.431851652578144 6.767638090205042 -1.0000000000000004
    vertex -11.500000000000007 6.25 1.0
    vertex -11.500000000000007 6.25 -1.0000000000000004
  endloop
endfacet
facet normal 0.9914448613738105 -0.13052619222005143 -0.0
  outer loop
    vertex -11.500000000000007 6.25 1.0
    vertex -11.431851652578144 6.767638090205042 -1.0000000000000004
    vertex -11.431851652578144 6.767638090205042 1.0
  endloop
endfacet
facet normal 0.92387953251129 0.3826834323650821 -0.0
  outer loop
    vertex -11.431851652578144 5.732361909794957 -1.0000000000000004
    vertex -11.23205080756889 5.249999999999998 1.0
    vertex -11.23205080756889 5.249999999999998 -1.0000000000000004
  endloop
endfacet
facet normal 0.92387953251129 0.3826834323650821 -0.0
  outer loop
    vertex -11.23205080756889 5.249999999999998 1.0
    vertex -11.431851652578144 5.732361909794957 -1.0000000000000004
    vertex -11.431851652578144 5.732361909794957 1.0
  endloop
endfacet
facet normal 0.7933533402912377 0.6087614290087173 -0.0
  outer loop
    vertex -11.23205080756889 5.249999999999998 -1.0000000000000004
    vertex -10.91421356237311 4.835786437626902 1.0
    vertex -10.91421356237311 4.835786437626902 -1.0000000000000004
  endloop
endfacet
facet normal 0.7933533402912377 0.6087614290087173 -0.0
  outer loop
    vertex -10.91421356237311 4.835786437626902 1.0
    vertex -11.23205080756889 5.249999999999998 -1.0000000000000004
    vertex -11.23205080756889 5.249999999999998 1.0
  endloop
endfacet
facet normal -0.7933533402912352 0.6087614290087207 0.0
  outer loop
    vertex -7.767949192431132 5.249999999999999 1.0
    vertex -8.085786437626915 4.835786437626904 -1.0000000000000004
    vertex -8.085786437626915 4.835786437626904 1.0
  endloop
endfacet
facet normal -0.7933533402912352 0.6087614290087207 0.0
  outer loop
    vertex -8.085786437626915 4.835786437626904 -1.0000000000000004
    vertex -7.767949192431132 5.249999999999999 1.0
    vertex -7.767949192431132 5.249999999999999 -1.0000000000000004
  endloop
endfacet
facet normal -0.6087614290087292 0.7933533402912287 -0.0
  outer loop
    vertex -8.500000000000002 4.5179491924311215 1.0
    vertex -8.085786437626915 4.835786437626904 -1.0000000000000004
    vertex -8.500000000000002 4.5179491924311215 -1.0000000000000004
  endloop
endfacet
facet normal -0.6087614290087292 0.7933533402912287 -0.0
  outer loop
    vertex -8.085786437626915 4.835786437626904 -1.0000000000000004
    vertex -8.500000000000002 4.5179491924311215 1.0
    vertex -8.085786437626915 4.835786437626904 1.0
  endloop
endfacet
facet normal 0.13052619222005282 -0.9914448613738103 0.0
  outer loop
    vertex -9.50000000000001 8.250000000000002 1.0
    vertex -10.017638090205049 8.181851652578139 -1.0000000000000004
    vertex -9.50000000000001 8.250000000000002 -1.0000000000000004
  endloop
endfacet
facet normal 0.13052619222005282 -0.9914448613738103 0.0
  outer loop
    vertex -10.017638090205049 8.181851652578139 -1.0000000000000004
    vertex -9.50000000000001 8.250000000000002 1.0
    vertex -10.017638090205049 8.181851652578139 1.0
  endloop
endfacet
facet normal -0.13052619222005077 -0.9914448613738105 0.0
  outer loop
    vertex -8.982361909794966 8.181851652578139 1.0
    vertex -9.50000000000001 8.250000000000002 -1.0000000000000004
    vertex -8.982361909794966 8.181851652578139 -1.0000000000000004
  endloop
endfacet
facet normal -0.13052619222005077 -0.9914448613738105 0.0
  outer loop
    vertex -9.50000000000001 8.250000000000002 -1.0000000000000004
    vertex -8.982361909794966 8.181851652578139 1.0
    vertex -9.50000000000001 8.250000000000002 1.0
  endloop
endfacet
facet normal -0.9238795325112823 -0.3826834323651005 0.0
  outer loop
    vertex -7.767949192431132 7.250000000000001 1.0
    vertex -7.568148347421866 6.767638090205042 -1.0000000000000004
    vertex -7.568148347421866 6.767638090205042 1.0
  endloop
endfacet
facet normal -0.9238795325112823 -0.3826834323651005 0.0
  outer loop
    vertex -7.568148347421866 6.767638090205042 -1.0000000000000004
    vertex -7.767949192431132 7.250000000000001 1.0
    vertex -7.767949192431132 7.250000000000001 -1.0000000000000004
  endloop
endfacet
facet normal -0.6087614290087188 -0.7933533402912366 0.0
  outer loop
    vertex -8.085786437626915 7.664213562373096 1.0
    vertex -8.500000000000012 7.9820508075688785 -1.0000000000000004
    vertex -8.085786437626915 7.664213562373096 -1.0000000000000004
  endloop
endfacet
facet normal -0.6087614290087188 -0.7933533402912366 0.0
  outer loop
    vertex -8.500000000000012 7.9820508075688785 -1.0000000000000004
    vertex -8.085786437626915 7.664213562373096 1.0
    vertex -8.500000000000012 7.9820508075688785 1.0
  endloop
endfacet
facet normal -0.9914448613738105 -0.13052619222005143 0.0
  outer loop
    vertex -7.568148347421866 6.767638090205042 1.0
    vertex -7.5000000000000036 6.25 -1.0000000000000004
    vertex -7.5000000000000036 6.25 1.0
  endloop
endfacet
facet normal -0.9914448613738105 -0.13052619222005143 0.0
  outer loop
    vertex -7.5000000000000036 6.25 -1.0000000000000004
    vertex -7.568148347421866 6.767638090205042 1.0
    vertex -7.568148347421866 6.767638090205042 -1.0000000000000004
  endloop
endfacet
facet normal -0.9238795325112825 0.38268343236510005 0.0
  outer loop
    vertex -7.568148347421866 5.7323619097949585 1.0
    vertex -7.767949192431132 5.249999999999999 -1.0000000000000004
    vertex -7.767949192431132 5.249999999999999 1.0
  endloop
endfacet
facet normal -0.9238795325112825 0.38268343236510005 0.0
  outer loop
    vertex -7.767949192431132 5.249999999999999 -1.0000000000000004
    vertex -7.568148347421866 5.7323619097949585 1.0
    vertex -7.568148347421866 5.7323619097949585 -1.0000000000000004
  endloop
endfacet
facet normal 0.7933533402912374 -0.6087614290087179 -0.0
  outer loop
    vertex -10.91421356237311 7.664213562373096 -1.0000000000000004
    vertex -11.23205080756889 7.250000000000001 1.0
    vertex -11.23205080756889 7.250000000000001 -1.0000000000000004
  endloop
endfacet
facet normal 0.7933533402912374 -0.6087614290087179 -0.0
  outer loop
    vertex -11.23205080756889 7.250000000000001 1.0
    vertex -10.91421356237311 7.664213562373096 -1.0000000000000004
    vertex -10.91421356237311 7.664213562373096 1.0
  endloop
endfacet
facet normal -0.38268343236509506 -0.9238795325112846 0.0
  outer loop
    vertex -8.500000000000012 7.9820508075688785 1.0
    vertex -8.982361909794966 8.181851652578139 -1.0000000000000004
    vertex -8.500000000000012 7.9820508075688785 -1.0000000000000004
  endloop
endfacet
facet normal -0.38268343236509506 -0.9238795325112846 0.0
  outer loop
    vertex -8.982361909794966 8.181851652578139 -1.0000000000000004
    vertex -8.500000000000012 7.9820508075688785 1.0
    vertex -8.982361909794966 8.181851652578139 1.0
  endloop
endfacet
facet normal 0.6087614290087161 -0.7933533402912387 0.0
  outer loop
    vertex -10.500000000000009 7.9820508075688785 1.0
    vertex -10.91421356237311 7.664213562373096 -1.0000000000000004
    vertex -10.500000000000009 7.9820508075688785 -1.0000000000000004
  endloop
endfacet
facet normal 0.6087614290087161 -0.7933533402912387 0.0
  outer loop
    vertex -10.91421356237311 7.664213562373096 -1.0000000000000004
    vertex -10.500000000000009 7.9820508075688785 1.0
    vertex -10.91421356237311 7.664213562373096 1.0
  endloop
endfacet
facet normal 0.38268343236508945 -0.9238795325112871 0.0
  outer loop
    vertex -10.017638090205049 8.181851652578139 1.0
    vertex -10.500000000000009 7.9820508075688785 -1.0000000000000004
    vertex -10.017638090205049 8.181851652578139 -1.0000000000000004
  endloop
endfacet
facet normal 0.38268343236508945 -0.9238795325112871 0.0
  outer loop
    vertex -10.500000000000009 7.9820508075688785 -1.0000000000000004
    vertex -10.017638090205049 8.181851652578139 1.0
    vertex -10.500000000000009 7.9820508075688785 1.0
  endloop
endfacet
facet normal -0.9914448613738105 0.13052619222005182 0.0
  outer loop
    vertex -7.5000000000000036 6.25 1.0
    vertex -7.568148347421866 5.7323619097949585 -1.0000000000000004
    vertex -7.568148347421866 5.7323619097949585 1.0
  endloop
endfacet
facet normal -0.9914448613738105 0.13052619222005182 0.0
  outer loop
    vertex -7.568148347421866 5.7323619097949585 -1.0000000000000004
    vertex -7.5000000000000036 6.25 1.0
    vertex -7.5000000000000036 6.25 -1.0000000000000004
  endloop
endfacet
facet normal -0.7933533402912347 -0.6087614290087214 0.0
  outer loop
    vertex -8.085786437626915 7.664213562373096 1.0
    vertex -7.767949192431132 7.250000000000001 -1.0000000000000004
    vertex -7.767949192431132 7.250000000000001 1.0
  endloop
endfacet
facet normal -0.7933533402912347 -0.6087614290087214 0.0
  outer loop
    vertex -7.767949192431132 7.250000000000001 -1.0000000000000004
    vertex -8.085786437626915 7.664213562373096 1.0
    vertex -8.085786437626915 7.664213562373096 -1.0000000000000004
  endloop
endfacet
facet normal 1.0 0.0 0.0
  outer loop
    vertex 0.9999999999999999 0.0 -0.9999999999999998
    vertex 0.9999999999999999 2.900000000000006 4.007097134367628
    vertex 0.9999999999999999 7.049916206369744e-16 23.143799999999974
  endloop
endfacet
facet normal 1.0 0.0 0.0
  outer loop
    vertex 0.9999999999999999 2.900000000000006 4.007097134367628
    vertex 0.9999999999999999 0.0 -0.9999999999999998
    vertex 0.9999999999999999 10.5 -0.9999999999999998
  endloop
endfacet
facet normal 1.0 0.0 0.0
  outer loop
    vertex 0.9999999999999999 7.049916206369744e-16 23.143799999999974
    vertex 0.9999999999999999 2.900000000000006 4.007097134367628
    vertex 0.9999999999999999 1.500000000000001 24.64379999999997
  endloop
endfacet
facet normal 1.0 0.0 0.0
  outer loop
    vertex 0.9999999999999999 2.900000000000006 4.007097134367628
    vertex 0.9999999999999999 10.5 -0.9999999999999998
    vertex 0.9999999999999999 10.5 4.007097134367628
  endloop
endfacet
facet normal 1.0 0.0 0.0
  outer loop
    vertex 0.9999999999999999 2.900000000000006 6.257097134367628
    vertex 0.9999999999999999 3.0056299385038963 10.541460960182173
    vertex 0.9999999999999999 2.900000000000006 11.343799999999977
  endloop
endfacet
facet normal 1.0 0.0 0.0
  outer loop
    vertex 0.9999999999999999 3.0056299385038963 10.541460960182173
    vertex 0.9999999999999999 2.900000000000006 6.257097134367628
    vertex 0.9999999999999999 3.315321248268243 9.79379999999998
  endloop
endfacet
facet normal 1.0 0.0 0.0
  outer loop
    vertex 0.9999999999999999 3.315321248268243 9.79379999999998
    vertex 0.9999999999999999 2.900000000000006 6.257097134367628
    vertex 0.9999999999999999 3.8079689783217066 9.151768978321686
  endloop
endfacet
facet normal 1.0 0.0 0.0
  outer loop
    vertex 0.9999999999999999 3.8079689783217066 9.151768978321686
    vertex 0.9999999999999999 2.900000000000006 6.257097134367628
    vertex 0.9999999999999999 4.450000000000003 8.65912124826823
  endloop
endfacet
facet normal 1.0 0.0 0.0
  outer loop
    vertex 0.9999999999999999 4.450000000000003 8.65912124826823
    vertex 0.9999999999999999 2.900000000000006 6.257097134367628
    vertex 0.9999999999999999 5.19766096018219 8.349429938503876
  endloop
endfacet
facet normal 1.0 0.0 0.0
  outer loop
    vertex 0.9999999999999999 5.19766096018219 8.349429938503876
    vertex 0.9999999999999999 2.900000000000006 6.257097134367628
    vertex 0.9999999999999999 10.5 6.257097134367628
  endloop
endfacet
facet normal 1.0 0.0 0.0
  outer loop
    vertex 0.9999999999999999 5.19766096018219 8.349429938503876
    vertex 0.9999999999999999 10.5 6.257097134367628
    vertex 0.9999999999999999 6.0 8.243799999999988
  endloop
endfacet
facet normal 1.0 0.0 0.0
  outer loop
    vertex 0.9999999999999999 6.0 8.243799999999988
    vertex 0.9999999999999999 10.5 6.257097134367628
    vertex 0.9999999999999999 6.80233903981781 8.349429938503876
  endloop
endfacet
facet normal 1.0 0.0 0.0
  outer loop
    vertex 0.9999999999999999 6.80233903981781 8.349429938503876
    vertex 0.9999999999999999 10.5 6.257097134367628
    vertex 0.9999999999999999 7.549999999999985 8.65912124826823
  endloop
endfacet
facet normal 1.0 0.0 0.0
  outer loop
    vertex 0.9999999999999999 7.549999999999985 8.65912124826823
    vertex 0.9999999999999999 10.5 6.257097134367628
    vertex 0.9999999999999999 7.660355497797331 8.743799999999984
  endloop
endfacet
facet normal 1.0 0.0 0.0
  outer loop
    vertex 0.9999999999999999 7.660355497797331 8.743799999999984
    vertex 0.9999999999999999 10.5 6.257097134367628
    vertex 0.9999999999999999 10.5 8.743799999999984
  endloop
endfacet
facet normal 1.0 0.0 0.0
  outer loop
    vertex 0.9999999999999999 3.0056299385038963 12.146139039817804
    vertex 0.9999999999999999 2.900000000000006 19.543799999999976
    vertex 0.9999999999999999 2.900000000000006 11.343799999999977
  endloop
endfacet
facet normal 1.0 0.0 0.0
  outer loop
    vertex 0.9999999999999999 2.900000000000006 19.543799999999976
    vertex 0.9999999999999999 3.0056299385038963 12.146139039817804
    vertex 0.9999999999999999 3.0056299385038963 18.74146096018216
  endloop
endfacet
facet normal 1.0 0.0 0.0
  outer loop
    vertex 0.9999999999999999 3.0056299385038963 18.74146096018216
    vertex 0.9999999999999999 3.0056299385038963 12.146139039817804
    vertex 0.9999999999999999 3.315321248268243 12.893799999999985
  endloop
endfacet
facet normal 1.0 0.0 0.0
  outer loop
    vertex 0.9999999999999999 3.0056299385038963 18.74146096018216
    vertex 0.9999999999999999 3.315321248268243 12.893799999999985
    vertex 0.9999999999999999 3.315321248268243 17.993799999999972
  endloop
endfacet
facet normal 1.0 0.0 0.0
  outer loop
    vertex 0.9999999999999999 3.315321248268243 17.993799999999972
    vertex 0.9999999999999999 3.315321248268243 12.893799999999985
    vertex 0.9999999999999999 3.8079689783217066 13.535831021678273
  endloop
endfacet
facet normal 1.0 0.0 0.0
  outer loop
    vertex 0.9999999999999999 3.315321248268243 17.993799999999972
    vertex 0.9999999999999999 3.8079689783217066 13.535831021678273
    vertex 0.9999999999999999 3.8079689783217066 17.351768978321676
  endloop
endfacet
facet normal 1.0 0.0 0.0
  outer loop
    vertex 0.9999999999999999 3.8079689783217066 17.351768978321676
    vertex 0.9999999999999999 3.8079689783217066 13.535831021678273
    vertex 0.9999999999999999 4.450000000000003 14.028478751731736
  endloop
endfacet
facet normal 1.0 0.0 0.0
  outer loop
    vertex 0.9999999999999999 3.8079689783217066 17.351768978321676
    vertex 0.9999999999999999 4.450000000000003 14.028478751731736
    vertex 0.9999999999999999 4.450000000000003 16.859121248268217
  endloop
endfacet
facet normal 1.0 0.0 0.0
  outer loop
    vertex 0.9999999999999999 4.450000000000003 16.859121248268217
    vertex 0.9999999999999999 4.450000000000003 14.028478751731736
    vertex 0.9999999999999999 5.19766096018219 14.33817006149609
  endloop
endfacet
facet normal 1.0 0.0 0.0
  outer loop
    vertex 0.9999999999999999 4.450000000000003 16.859121248268217
    vertex 0.9999999999999999 5.19766096018219 14.33817006149609
    vertex 0.9999999999999999 5.19766096018219 16.549429938503867
  endloop
endfacet
facet normal 1.0 0.0 0.0
  outer loop
    vertex 0.9999999999999999 5.19766096018219 16.549429938503867
    vertex 0.9999999999999999 5.19766096018219 14.33817006149609
    vertex 0.9999999999999999 6.0 14.443799999999968
  endloop
endfacet
facet normal 1.0 0.0 0.0
  outer loop
    vertex 0.9999999999999999 5.19766096018219 16.549429938503867
    vertex 0.9999999999999999 6.0 14.443799999999968
    vertex 0.9999999999999999 6.0 16.443799999999975
  endloop
endfacet
facet normal 1.0 0.0 0.0
  outer loop
    vertex 0.9999999999999999 6.0 16.443799999999975
    vertex 0.9999999999999999 6.0 14.443799999999968
    vertex 0.9999999999999999 6.80233903981781 14.33817006149609
  endloop
endfacet
facet normal 1.0 0.0 0.0
  outer loop
    vertex 0.9999999999999999 6.0 16.443799999999975
    vertex 0.9999999999999999 6.80233903981781 14.33817006149609
    vertex 0.9999999999999999 6.80233903981781 16.549429938503867
  endloop
endfacet
facet normal 1.0 0.0 0.0
  outer loop
    vertex 0.9999999999999999 6.80233903981781 16.549429938503867
    vertex 0.9999999999999999 6.80233903981781 14.33817006149609
    vertex 0.9999999999999999 7.549999999999985 14.028478751731736
  endloop
endfacet
facet normal 1.0 0.0 0.0
  outer loop
    vertex 0.9999999999999999 6.80233903981781 16.549429938503867
    vertex 0.9999999999999999 7.549999999999985 14.028478751731736
    vertex 0.9999999999999999 7.549999999999985 16.859121248268217
  endloop
endfacet
facet normal 1.0 0.0 0.0
  outer loop
    vertex 0.9999999999999999 7.549999999999985 16.859121248268217
    vertex 0.9999999999999999 7.549999999999985 14.028478751731736
    vertex 0.9999999999999999 7.660355497797334 13.94379999999998
  endloop
endfacet
facet normal 1.0 0.0 0.0
  outer loop
    vertex 0.9999999999999999 7.549999999999985 16.859121248268217
    vertex 0.9999999999999999 7.660355497797334 13.94379999999998
    vertex 0.9999999999999999 7.660355497797328 16.943799999999968
  endloop
endfacet
facet normal 1.0 0.0 0.0
  outer loop
    vertex 0.9999999999999999 7.660355497797328 16.943799999999968
    vertex 0.9999999999999999 7.660355497797334 13.94379999999998
    vertex 0.9999999999999999 10.5 16.943799999999968
  endloop
endfacet
facet normal 1.0 0.0 0.0
  outer loop
    vertex 0.9999999999999999 10.5 16.943799999999968
    vertex 0.9999999999999999 7.660355497797334 13.94379999999998
    vertex 0.9999999999999999 10.5 13.94379999999998
  endloop
endfacet
facet normal 1.0 0.0 0.0
  outer loop
    vertex 0.9999999999999999 1.500000000000001 24.64379999999997
    vertex 0.9999999999999999 4.450000000000003 22.228478751731732
    vertex 0.9999999999999999 9.0 24.64379999999997
  endloop
endfacet
facet normal 1.0 0.0 0.0
  outer loop
    vertex 0.9999999999999999 4.450000000000003 22.228478751731732
    vertex 0.9999999999999999 1.500000000000001 24.64379999999997
    vertex 0.9999999999999999 3.8079689783217066 21.735831021678266
  endloop
endfacet
facet normal 1.0 0.0 0.0
  outer loop
    vertex 0.9999999999999999 3.8079689783217066 21.735831021678266
    vertex 0.9999999999999999 1.500000000000001 24.64379999999997
    vertex 0.9999999999999999 3.315321248268243 21.093799999999984
  endloop
endfacet
facet normal 1.0 0.0 0.0
  outer loop
    vertex 0.9999999999999999 3.315321248268243 21.093799999999984
    vertex 0.9999999999999999 1.500000000000001 24.64379999999997
    vertex 0.9999999999999999 3.0056299385038963 20.346139039817793
  endloop
endfacet
facet normal 1.0 0.0 0.0
  outer loop
    vertex 0.9999999999999999 3.0056299385038963 20.346139039817793
    vertex 0.9999999999999999 1.500000000000001 24.64379999999997
    vertex 0.9999999999999999 2.900000000000006 19.543799999999976
  endloop
endfacet
facet normal 1.0 0.0 0.0
  outer loop
    vertex 0.9999999999999999 2.900000000000006 19.543799999999976
    vertex 0.9999999999999999 1.500000000000001 24.64379999999997
    vertex 0.9999999999999999 2.900000000000006 4.007097134367628
  endloop
endfacet
facet normal 1.0 0.0 0.0
  outer loop
    vertex 0.9999999999999999 2.900000000000006 19.543799999999976
    vertex 0.9999999999999999 2.900000000000006 4.007097134367628
    vertex 0.9999999999999999 2.900000000000006 6.257097134367628
  endloop
endfacet
facet normal 1.0 0.0 0.0
  outer loop
    vertex 0.9999999999999999 2.900000000000006 19.543799999999976
    vertex 0.9999999999999999 2.900000000000006 6.257097134367628
    vertex 0.9999999999999999 2.900000000000006 11.343799999999977
  endloop
endfacet
facet normal 1.0 0.0 0.0
  outer loop
    vertex 0.9999999999999999 9.0 24.64379999999997
    vertex 0.9999999999999999 4.450000000000003 22.228478751731732
    vertex 0.9999999999999999 5.19766096018219 22.538170061496096
  endloop
endfacet
facet normal 1.0 0.0 0.0
  outer loop
    vertex 0.9999999999999999 9.0 24.64379999999997
    vertex 0.9999999999999999 5.19766096018219 22.538170061496096
    vertex 0.9999999999999999 6.0 22.64379999999997
  endloop
endfacet
facet normal 1.0 0.0 0.0
  outer loop
    vertex 0.9999999999999999 9.0 24.64379999999997
    vertex 0.9999999999999999 6.0 22.64379999999997
    vertex 0.9999999999999999 6.80233903981781 22.538170061496096
  endloop
endfacet
facet normal 1.0 0.0 0.0
  outer loop
    vertex 0.9999999999999999 9.0 24.64379999999997
    vertex 0.9999999999999999 6.80233903981781 22.538170061496096
    vertex 0.9999999999999999 7.549999999999985 22.228478751731732
  endloop
endfacet
facet normal 1.0 0.0 0.0
  outer loop
    vertex 0.9999999999999999 9.0 24.64379999999997
    vertex 0.9999999999999999 7.549999999999985 22.228478751731732
    vertex 0.9999999999999999 7.660355497797334 22.14379999999998
  endloop
endfacet
facet normal 1.0 0.0 0.0
  outer loop
    vertex 0.9999999999999999 9.0 24.64379999999997
    vertex 0.9999999999999999 7.660355497797334 22.14379999999998
    vertex 0.9999999999999999 10.5 22.14379999999998
  endloop
endfacet
facet normal 1.0 0.0 0.0
  outer loop
    vertex 0.9999999999999999 9.0 24.64379999999997
    vertex 0.9999999999999999 10.5 22.14379999999998
    vertex 0.9999999999999999 10.5 23.143799999999974
  endloop
endfacet
facet normal -0.0 1.0 -0.0
  outer loop
    vertex -13.999999999999995 10.5 1.0
    vertex 0.9999999999999999 10.5 -0.9999999999999998
    vertex -13.999999999999995 10.5 -0.9999999999999998
  endloop
endfacet
facet normal -0.0 1.0 -0.0
  outer loop
    vertex 0.9999999999999999 10.5 -0.9999999999999998
    vertex -13.999999999999995 10.5 1.0
    vertex -5.000000000000011 10.5 1.0
  endloop
endfacet
facet normal -0.0 1.0 -0.0
  outer loop
    vertex 0.9999999999999999 10.5 -0.9999999999999998
    vertex -5.000000000000011 10.5 1.0
    vertex 0.9999999999999999 10.5 4.007097134367628
  endloop
endfacet
facet normal -0.0 1.0 -0.0
  outer loop
    vertex 0.9999999999999999 10.5 4.007097134367628
    vertex -5.000000000000011 10.5 1.0
    vertex -5.000000000000011 10.5 4.007097134367628
  endloop
endfacet
facet normal -1.4099832412739459e-16 1.0 -0.0
  outer loop
    vertex -5.000000000000011 2.9000000000000052 6.257097134367628
    vertex 0.9999999999999999 2.900000000000006 4.007097134367628
    vertex -5.000000000000011 2.9000000000000052 4.007097134367628
  endloop
endfacet
facet normal -1.4099832412739459e-16 1.0 -0.0
  outer loop
    vertex 0.9999999999999999 2.900000000000006 4.007097134367628
    vertex -5.000000000000011 2.9000000000000052 6.257097134367628
    vertex 0.9999999999999999 2.900000000000006 6.257097134367628
  endloop
endfacet
facet normal -0.0 -0.0 1.0
  outer loop
    vertex 0.9999999999999999 2.900000000000006 4.007097134367628
    vertex -5.000000000000011 10.5 4.007097134367628
    vertex -5.000000000000011 2.9000000000000052 4.007097134367628
  endloop
endfacet
facet normal -0.0 -0.0 1.0
  outer loop
    vertex -5.000000000000011 10.5 4.007097134367628
    vertex 0.9999999999999999 2.900000000000006 4.007097134367628
    vertex 0.9999999999999999 10.5 4.007097134367628
  endloop
endfacet
facet normal 0.0 0.0 -1.0
  outer loop
    vertex 0.9999999999999999 10.5 6.257097134367628
    vertex -5.000000000000011 2.9000000000000052 6.257097134367628
    vertex -5.000000000000011 10.5 6.257097134367628
  endloop
endfacet
facet normal 0.0 0.0 -1.0
  outer loop
    vertex -5.000000000000011 2.9000000000000052 6.257097134367628
    vertex 0.9999999999999999 10.5 6.257097134367628
    vertex 0.9999999999999999 2.900000000000006 6.257097134367628
  endloop
endfacet
facet normal 1.0 -0.0 -0.0
  outer loop
    vertex -12.00000000000001 1.9999999999999998 1.0000000000000002
    vertex -12.00000000000001 -2.46747067222941e-15 3.0
    vertex -12.00000000000001 -2.46747067222941e-15 1.0000000000000002
  endloop
endfacet
facet normal 1.0 -0.0 -0.0
  outer loop
    vertex -12.00000000000001 -2.46747067222941e-15 3.0
    vertex -12.00000000000001 1.9999999999999998 1.0000000000000002
    vertex -12.00000000000001 1.9999999999999998 3.0
  endloop
endfacet
facet normal 0.0 -0.0 -1.0
  outer loop
    vertex -5.000000000000011 1.9999999999999998 3.0
    vertex -12.00000000000001 -2.46747067222941e-15 3.0
    vertex -12.00000000000001 1.9999999999999998 3.0
  endloop
endfacet
facet normal 0.0 -0.0 -1.0
  outer loop
    vertex -12.00000000000001 -2.46747067222941e-15 3.0
    vertex -5.000000000000011 1.9999999999999998 3.0
    vertex -5.000000000000011 -2.46747067222941e-15 3.0
  endloop
endfacet
facet normal -6.371738940722263e-17 1.0 1.1802716318855832e-17
  outer loop
    vertex -13.999999999999995 1.9999999999999991 24.643799999999974
    vertex -12.00000000000001 1.9999999999999998 1.0000000000000002
    vertex -13.999999999999995 1.9999999999999991 1.0
  endloop
endfacet
facet normal -6.371738940722263e-17 1.0 1.1802716318855832e-17
  outer loop
    vertex -12.00000000000001 1.9999999999999998 1.0000000000000002
    vertex -13.999999999999995 1.9999999999999991 24.643799999999974
    vertex -12.00000000000001 1.9999999999999998 3.0
  endloop
endfacet
facet normal -6.371738940722263e-17 1.0 1.1802716318855832e-17
  outer loop
    vertex -12.00000000000001 1.9999999999999998 3.0
    vertex -13.999999999999995 1.9999999999999991 24.643799999999974
    vertex -5.000000000000011 1.9999999999999998 3.0
  endloop
endfacet
facet normal -6.371738940722263e-17 1.0 1.1802716318855832e-17
  outer loop
    vertex -5.000000000000011 1.9999999999999998 3.0
    vertex -13.999999999999995 1.9999999999999991 24.643799999999974
    vertex -12.00000000000001 1.9999999999999991 23.143799999999974
  endloop
endfacet
facet normal -6.371738940722263e-17 1.0 1.1802716318855832e-17
  outer loop
    vertex -12.00000000000001 1.9999999999999991 23.143799999999974
    vertex -13.999999999999995 1.9999999999999991 24.643799999999974
    vertex -12.00000000000001 1.9999999999999991 24.643799999999974
  endloop
endfacet
facet normal -6.371738940722263e-17 1.0 1.1802716318855832e-17
  outer loop
    vertex -5.000000000000011 1.9999999999999998 23.143799999999974
    vertex -5.000000000000011 1.9999999999999998 3.0
    vertex -12.00000000000001 1.9999999999999991 23.143799999999974
  endloop
endfacet
facet normal -0.0 -0.0 1.0
  outer loop
    vertex -5.000000000000011 7.049916206369744e-16 23.143799999999974
    vertex -12.00000000000001 1.9999999999999991 23.143799999999974
    vertex -12.00000000000001 7.049916206369744e-16 23.143799999999974
  endloop
endfacet
facet normal -0.0 -0.0 1.0
  outer loop
    vertex -12.00000000000001 1.9999999999999991 23.143799999999974
    vertex -5.000000000000011 7.049916206369744e-16 23.143799999999974
    vertex -5.000000000000011 1.9999999999999998 23.143799999999974
  endloop
endfacet
facet normal -1.0 0.0 0.0
  outer loop
    vertex -13.999999999999995 7.049916206369744e-16 23.143799999999974
    vertex -13.999999999999995 1.9999999999999991 1.0
    vertex -13.999999999999995 0.0 1.0
  endloop
endfacet
facet normal -1.0 0.0 0.0
  outer loop
    vertex -13.999999999999995 1.9999999999999991 1.0
    vertex -13.999999999999995 7.049916206369744e-16 23.143799999999974
    vertex -13.999999999999995 1.5000000000000007 24.643799999999974
  endloop
endfacet
facet normal -1.0 0.0 0.0
  outer loop
    vertex -13.999999999999995 1.9999999999999991 1.0
    vertex -13.999999999999995 1.5000000000000007 24.643799999999974
    vertex -13.999999999999995 1.9999999999999991 24.643799999999974
  endloop
endfacet
facet normal -1.0 -1.437608870061999e-17 1.6221227138034531e-18
  outer loop
    vertex -5.000000000000011 1.500000000000001 24.64379999999997
    vertex -5.000000000000011 1.9999999999999998 23.143799999999974
    vertex -5.000000000000011 7.049916206369744e-16 23.143799999999974
  endloop
endfacet
facet normal -1.0 -1.437608870061999e-17 1.6221227138034531e-18
  outer loop
    vertex -5.000000000000011 1.9999999999999998 23.143799999999974
    vertex -5.000000000000011 1.500000000000001 24.64379999999997
    vertex -5.000000000000011 9.0 24.64379999999997
  endloop
endfacet
facet normal -1.0 -1.437608870061999e-17 1.6221227138034531e-18
  outer loop
    vertex -5.000000000000011 1.9999999999999998 23.143799999999974
    vertex -5.000000000000011 9.0 24.64379999999997
    vertex -5.000000000000011 4.450000000000003 22.228478751731732
  endloop
endfacet
facet normal -1.0 -1.437608870061999e-17 1.6221227138034531e-18
  outer loop
    vertex -5.000000000000011 1.9999999999999998 23.143799999999974
    vertex -5.000000000000011 4.450000000000003 22.228478751731732
    vertex -5.000000000000011 3.8079689783217066 21.735831021678266
  endloop
endfacet
facet normal -1.0 -1.437608870061999e-17 1.6221227138034531e-18
  outer loop
    vertex -5.000000000000011 1.9999999999999998 23.143799999999974
    vertex -5.000000000000011 3.8079689783217066 21.735831021678266
    vertex -5.000000000000011 3.315321248268243 21.093799999999984
  endloop
endfacet
facet normal -1.0 -1.437608870061999e-17 1.6221227138034531e-18
  outer loop
    vertex -5.000000000000011 1.9999999999999998 23.143799999999974
    vertex -5.000000000000011 3.315321248268243 21.093799999999984
    vertex -5.000000000000011 3.0056299385038963 20.346139039817793
  endloop
endfacet
facet normal -1.0 -1.437608870061999e-17 1.6221227138034531e-18
  outer loop
    vertex -5.000000000000011 1.9999999999999998 23.143799999999974
    vertex -5.000000000000011 3.0056299385038963 20.346139039817793
    vertex -5.000000000000011 2.900000000000006 19.543799999999976
  endloop
endfacet
facet normal -1.0 -1.437608870061999e-17 1.6221227138034531e-18
  outer loop
    vertex -5.000000000000011 1.9999999999999998 23.143799999999974
    vertex -5.000000000000011 2.900000000000006 19.543799999999976
    vertex -5.000000000000011 1.9999999999999998 3.0
  endloop
endfacet
facet normal -1.0 -1.437608870061999e-17 1.6221227138034531e-18
  outer loop
    vertex -5.000000000000011 1.9999999999999998 3.0
    vertex -5.000000000000011 2.900000000000006 19.543799999999976
    vertex -5.000000000000011 2.9000000000000052 6.257097134367628
  endloop
endfacet
facet normal -1.0 -1.437608870061999e-17 1.6221227138034531e-18
  outer loop
    vertex -5.000000000000011 4.450000000000003 22.228478751731732
    vertex -5.000000000000011 9.0 24.64379999999997
    vertex -5.000000000000011 5.19766096018219 22.538170061496096
  endloop
endfacet
facet normal -1.0 -1.437608870061999e-17 1.6221227138034531e-18
  outer loop
    vertex -5.000000000000011 5.19766096018219 22.538170061496096
    vertex -5.000000000000011 9.0 24.64379999999997
    vertex -5.000000000000011 6.0 22.64379999999997
  endloop
endfacet
facet normal -1.0 -1.437608870061999e-17 1.6221227138034531e-18
  outer loop
    vertex -5.000000000000011 6.0 22.64379999999997
    vertex -5.000000000000011 9.0 24.64379999999997
    vertex -5.000000000000011 6.80233903981781 22.538170061496096
  endloop
endfacet
facet normal -1.0 -1.437608870061999e-17 1.6221227138034531e-18
  outer loop
    vertex -5.000000000000011 6.80233903981781 22.538170061496096
    vertex -5.000000000000011 9.0 24.64379999999997
    vertex -5.000000000000011 7.549999999999985 22.228478751731732
  endloop
endfacet
facet normal -1.0 -1.437608870061999e-17 1.6221227138034531e-18
  outer loop
    vertex -5.000000000000011 7.549999999999985 22.228478751731732
    vertex -5.000000000000011 9.0 24.64379999999997
    vertex -5.000000000000011 7.660355497797334 22.14379999999998
  endloop
endfacet
facet normal -1.0 -1.437608870061999e-17 1.6221227138034531e-18
  outer loop
    vertex -5.000000000000011 7.660355497797334 22.14379999999998
    vertex -5.000000000000011 9.0 24.64379999999997
    vertex -5.000000000000011 10.5 22.14379999999998
  endloop
endfacet
facet normal -1.0 -1.437608870061999e-17 1.6221227138034531e-18
  outer loop
    vertex -5.000000000000011 10.5 22.14379999999998
    vertex -5.000000000000011 9.0 24.64379999999997
    vertex -5.000000000000011 10.5 23.143799999999974
  endloop
endfacet
facet normal -1.0 -1.437608870061999e-17 1.6221227138034531e-18
  outer loop
    vertex -5.000000000000011 3.0056299385038963 18.74146096018216
    vertex -5.000000000000011 2.900000000000006 11.343799999999977
    vertex -5.000000000000011 2.900000000000006 19.543799999999976
  endloop
endfacet
facet normal -1.0 -1.437608870061999e-17 1.6221227138034531e-18
  outer loop
    vertex -5.000000000000011 2.900000000000006 11.343799999999977
    vertex -5.000000000000011 3.0056299385038963 18.74146096018216
    vertex -5.000000000000011 3.0056299385038963 12.146139039817804
  endloop
endfacet
facet normal -1.0 -1.437608870061999e-17 1.6221227138034531e-18
  outer loop
    vertex -5.000000000000011 3.0056299385038963 12.146139039817804
    vertex -5.000000000000011 3.0056299385038963 18.74146096018216
    vertex -5.000000000000011 3.315321248268243 17.993799999999972
  endloop
endfacet
facet normal -1.0 -1.437608870061999e-17 1.6221227138034531e-18
  outer loop
    vertex -5.000000000000011 3.0056299385038963 12.146139039817804
    vertex -5.000000000000011 3.315321248268243 17.993799999999972
    vertex -5.000000000000011 3.315321248268243 12.893799999999985
  endloop
endfacet
facet normal -1.0 -1.437608870061999e-17 1.6221227138034531e-18
  outer loop
    vertex -5.000000000000011 3.315321248268243 12.893799999999985
    vertex -5.000000000000011 3.315321248268243 17.993799999999972
    vertex -5.000000000000011 3.8079689783217066 17.351768978321676
  endloop
endfacet
facet normal -1.0 -1.437608870061999e-17 1.6221227138034531e-18
  outer loop
    vertex -5.000000000000011 3.315321248268243 12.893799999999985
    vertex -5.000000000000011 3.8079689783217066 17.351768978321676
    vertex -5.000000000000011 3.8079689783217066 13.535831021678273
  endloop
endfacet
facet normal -1.0 -1.437608870061999e-17 1.6221227138034531e-18
  outer loop
    vertex -5.000000000000011 3.8079689783217066 13.535831021678273
    vertex -5.000000000000011 3.8079689783217066 17.351768978321676
    vertex -5.000000000000011 4.450000000000003 16.859121248268217
  endloop
endfacet
facet normal -1.0 -1.437608870061999e-17 1.6221227138034531e-18
  outer loop
    vertex -5.000000000000011 3.8079689783217066 13.535831021678273
    vertex -5.000000000000011 4.450000000000003 16.859121248268217
    vertex -5.000000000000011 4.450000000000003 14.028478751731736
  endloop
endfacet
facet normal -1.0 -1.437608870061999e-17 1.6221227138034531e-18
  outer loop
    vertex -5.000000000000011 4.450000000000003 14.028478751731736
    vertex -5.000000000000011 4.450000000000003 16.859121248268217
    vertex -5.000000000000011 5.19766096018219 16.549429938503867
  endloop
endfacet
facet normal -1.0 -1.437608870061999e-17 1.6221227138034531e-18
  outer loop
    vertex -5.000000000000011 4.450000000000003 14.028478751731736
    vertex -5.000000000000011 5.19766096018219 16.549429938503867
    vertex -5.000000000000011 5.19766096018219 14.33817006149609
  endloop
endfacet
facet normal -1.0 -1.437608870061999e-17 1.6221227138034531e-18
  outer loop
    vertex -5.000000000000011 5.19766096018219 14.33817006149609
    vertex -5.000000000000011 5.19766096018219 16.549429938503867
    vertex -5.000000000000011 6.0 16.443799999999975
  endloop
endfacet
facet normal -1.0 -1.437608870061999e-17 1.6221227138034531e-18
  outer loop
    vertex -5.000000000000011 5.19766096018219 14.33817006149609
    vertex -5.000000000000011 6.0 16.443799999999975
    vertex -5.000000000000011 6.0 14.443799999999968
  endloop
endfacet
facet normal -1.0 -1.437608870061999e-17 1.6221227138034531e-18
  outer loop
    vertex -5.000000000000011 6.0 14.443799999999968
    vertex -5.000000000000011 6.0 16.443799999999975
    vertex -5.000000000000011 6.80233903981781 16.549429938503867
  endloop
endfacet
facet normal -1.0 -1.437608870061999e-17 1.6221227138034531e-18
  outer loop
    vertex -5.000000000000011 6.0 14.443799999999968
    vertex -5.000000000000011 6.80233903981781 16.549429938503867
    vertex -5.000000000000011 6.80233903981781 14.33817006149609
  endloop
endfacet
facet normal -1.0 -1.437608870061999e-17 1.6221227138034531e-18
  outer loop
    vertex -5.000000000000011 6.80233903981781 14.33817006149609
    vertex -5.000000000000011 6.80233903981781 16.549429938503867
    vertex -5.000000000000011 7.549999999999985 16.859121248268217
  endloop
endfacet
facet normal -1.0 -1.437608870061999e-17 1.6221227138034531e-18
  outer loop
    vertex -5.000000000000011 6.80233903981781 14.33817006149609
    vertex -5.000000000000011 7.549999999999985 16.859121248268217
    vertex -5.000000000000011 7.549999999999985 14.028478751731736
  endloop
endfacet
facet normal -1.0 -1.437608870061999e-17 1.6221227138034531e-18
  outer loop
    vertex -5.000000000000011 7.549999999999985 14.028478751731736
    vertex -5.000000000000011 7.549999999999985 16.859121248268217
    vertex -5.000000000000011 7.660355497797328 16.943799999999968
  endloop
endfacet
facet normal -1.0 -1.437608870061999e-17 1.6221227138034531e-18
  outer loop
    vertex -5.000000000000011 7.549999999999985 14.028478751731736
    vertex -5.000000000000011 7.660355497797328 16.943799999999968
    vertex -5.000000000000013 7.660355497797334 13.94379999999998
  endloop
endfacet
facet normal -1.0 -1.437608870061999e-17 1.6221227138034531e-18
  outer loop
    vertex -5.000000000000013 7.660355497797334 13.94379999999998
    vertex -5.000000000000011 7.660355497797328 16.943799999999968
    vertex -5.000000000000011 10.5 16.943799999999968
  endloop
endfacet
facet normal -1.0 -1.437608870061999e-17 1.6221227138034531e-18
  outer loop
    vertex -5.000000000000013 7.660355497797334 13.94379999999998
    vertex -5.000000000000011 10.5 16.943799999999968
    vertex -5.000000000000011 10.5 13.94379999999998
  endloop
endfacet
facet normal -1.0 -1.437608870061999e-17 1.6221227138034531e-18
  outer loop
    vertex -5.000000000000011 2.9000000000000052 6.257097134367628
    vertex -5.000000000000011 5.19766096018219 8.349429938503876
    vertex -5.000000000000011 10.5 6.257097134367628
  endloop
endfacet
facet normal -1.0 -1.437608870061999e-17 1.6221227138034531e-18
  outer loop
    vertex -5.000000000000011 5.19766096018219 8.349429938503876
    vertex -5.000000000000011 2.9000000000000052 6.257097134367628
    vertex -5.000000000000011 4.450000000000003 8.65912124826823
  endloop
endfacet
facet normal -1.0 -1.437608870061999e-17 1.6221227138034531e-18
  outer loop
    vertex -5.000000000000011 4.450000000000003 8.65912124826823
    vertex -5.000000000000011 2.9000000000000052 6.257097134367628
    vertex -5.000000000000011 3.8079689783217066 9.151768978321686
  endloop
endfacet
facet normal -1.0 -1.437608870061999e-17 1.6221227138034531e-18
  outer loop
    vertex -5.000000000000011 3.8079689783217066 9.151768978321686
    vertex -5.000000000000011 2.9000000000000052 6.257097134367628
    vertex -5.000000000000011 3.315321248268243 9.79379999999998
  endloop
endfacet
facet normal -1.0 -1.437608870061999e-17 1.6221227138034531e-18
  outer loop
    vertex -5.000000000000011 3.315321248268243 9.79379999999998
    vertex -5.000000000000011 2.9000000000000052 6.257097134367628
    vertex -5.000000000000011 3.0056299385038963 10.541460960182173
  endloop
endfacet
facet normal -1.0 -1.437608870061999e-17 1.6221227138034531e-18
  outer loop
    vertex -5.000000000000011 3.0056299385038963 10.541460960182173
    vertex -5.000000000000011 2.9000000000000052 6.257097134367628
    vertex -5.000000000000011 2.900000000000006 11.343799999999977
  endloop
endfacet
facet normal -1.0 -1.437608870061999e-17 1.6221227138034531e-18
  outer loop
    vertex -5.000000000000011 2.900000000000006 11.343799999999977
    vertex -5.000000000000011 2.9000000000000052 6.257097134367628
    vertex -5.000000000000011 2.900000000000006 19.543799999999976
  endloop
endfacet
facet normal -1.0 -1.437608870061999e-17 1.6221227138034531e-18
  outer loop
    vertex -5.000000000000011 10.5 6.257097134367628
    vertex -5.000000000000011 5.19766096018219 8.349429938503876
    vertex -5.000000000000011 6.0 8.243799999999988
  endloop
endfacet
facet normal -1.0 -1.437608870061999e-17 1.6221227138034531e-18
  outer loop
    vertex -5.000000000000011 10.5 6.257097134367628
    vertex -5.000000000000011 6.0 8.243799999999988
    vertex -5.000000000000011 6.80233903981781 8.349429938503876
  endloop
endfacet
facet normal -1.0 -1.437608870061999e-17 1.6221227138034531e-18
  outer loop
    vertex -5.000000000000011 10.5 6.257097134367628
    vertex -5.000000000000011 6.80233903981781 8.349429938503876
    vertex -5.000000000000011 7.549999999999985 8.65912124826823
  endloop
endfacet
facet normal -1.0 -1.437608870061999e-17 1.6221227138034531e-18
  outer loop
    vertex -5.000000000000011 10.5 6.257097134367628
    vertex -5.000000000000011 7.549999999999985 8.65912124826823
    vertex -5.000000000000011 7.660355497797331 8.743799999999984
  endloop
endfacet
facet normal -1.0 -1.437608870061999e-17 1.6221227138034531e-18
  outer loop
    vertex -5.000000000000011 10.5 6.257097134367628
    vertex -5.000000000000011 7.660355497797331 8.743799999999984
    vertex -5.000000000000011 10.5 8.743799999999984
  endloop
endfacet
facet normal -1.0 -1.437608870061999e-17 1.6221227138034531e-18
  outer loop
    vertex -5.000000000000011 1.9999999999999998 3.0
    vertex -5.000000000000011 -2.46747067222941e-15 1.0
    vertex -5.000000000000011 -2.46747067222941e-15 3.0
  endloop
endfacet
facet normal -1.0 -1.437608870061999e-17 1.6221227138034531e-18
  outer loop
    vertex -5.000000000000011 -2.46747067222941e-15 1.0
    vertex -5.000000000000011 1.9999999999999998 3.0
    vertex -5.000000000000011 10.5 1.0
  endloop
endfacet
facet normal -1.0 -1.437608870061999e-17 1.6221227138034531e-18
  outer loop
    vertex -5.000000000000011 10.5 1.0
    vertex -5.000000000000011 1.9999999999999998 3.0
    vertex -5.000000000000011 2.9000000000000052 4.007097134367628
  endloop
endfacet
facet normal -1.0 -1.437608870061999e-17 1.6221227138034531e-18
  outer loop
    vertex -5.000000000000011 2.9000000000000052 4.007097134367628
    vertex -5.000000000000011 1.9999999999999998 3.0
    vertex -5.000000000000011 2.9000000000000052 6.257097134367628
  endloop
endfacet
facet normal -1.0 -1.437608870061999e-17 1.6221227138034531e-18
  outer loop
    vertex -5.000000000000011 10.5 1.0
    vertex -5.000000000000011 2.9000000000000052 4.007097134367628
    vertex -5.000000000000011 10.5 4.007097134367628
  endloop
endfacet
facet normal -0.0 -0.0 1.0
  outer loop
    vertex -12.00000000000001 1.5000000000000007 24.643799999999974
    vertex -13.999999999999995 1.9999999999999991 24.643799999999974
    vertex -13.999999999999995 1.5000000000000007 24.643799999999974
  endloop
endfacet
facet normal -0.0 -0.0 1.0
  outer loop
    vertex -13.999999999999995 1.9999999999999991 24.643799999999974
    vertex -12.00000000000001 1.5000000000000007 24.643799999999974
    vertex -12.00000000000001 1.9999999999999991 24.643799999999974
  endloop
endfacet
facet normal 1.0 -0.0 -0.0
  outer loop
    vertex -12.00000000000001 1.9999999999999991 23.143799999999974
    vertex -12.00000000000001 1.5000000000000007 24.643799999999974
    vertex -12.00000000000001 7.049916206369744e-16 23.143799999999974
  endloop
endfacet
facet normal 1.0 -0.0 -0.0
  outer loop
    vertex -12.00000000000001 1.5000000000000007 24.643799999999974
    vertex -12.00000000000001 1.9999999999999991 23.143799999999974
    vertex -12.00000000000001 1.9999999999999991 24.643799999999974
  endloop
endfacet
facet normal 2.4730489517685843e-17 -0.7071067811865476 0.7071067811865476
  outer loop
    vertex -12.00000000000001 1.5000000000000007 24.643799999999974
    vertex -13.999999999999995 7.049916206369744e-16 23.143799999999974
    vertex -12.00000000000001 7.049916206369744e-16 23.143799999999974
  endloop
endfacet
facet normal 2.4730489517685843e-17 -0.7071067811865476 0.7071067811865476
  outer loop
    vertex -13.999999999999995 7.049916206369744e-16 23.143799999999974
    vertex -12.00000000000001 1.5000000000000007 24.643799999999974
    vertex -13.999999999999995 1.5000000000000007 24.643799999999974
  endloop
endfacet
endsolid Cable Comb
