solid Carry Handle
facet normal -0.7387168551531188 0.11080752827296804 0.6648451696378048
  outer loop
    vertex 29.75000000000003 0.6855000000000097 4.750000000000001
    vertex 19.25000000000004 -39.31449999999995 -0.25000000000000094
    vertex 22.250000000000032 -49.31449999999989 4.750000000000001
  endloop
endfacet
facet normal -0.0 0.44721359549996037 0.8944271909999147
  outer loop
    vertex 22.250000000000032 -49.31449999999989 4.750000000000001
    vertex 4.7499999999999805 -39.31449999999995 -0.25000000000000094
    vertex 1.7499999999999856 -49.31449999999989 4.750000000000001
  endloop
endfacet
facet normal -0.0 0.44721359549996037 0.8944271909999147
  outer loop
    vertex 4.7499999999999805 -39.31449999999995 -0.25000000000000094
    vertex 22.250000000000032 -49.31449999999989 4.750000000000001
    vertex 19.25000000000004 -39.31449999999995 -0.25000000000000094
  endloop
endfacet
facet normal -0.6429883783679233 0.11430904504318638 -0.7572974234111081
  outer loop
    vertex 25.25000000000004 0.6854999999999871 10.249999999999995
    vertex 22.250000000000032 -49.31449999999993 5.25
    vertex 17.250000000000043 -44.31449999999999 10.249999999999995
  endloop
endfacet
facet normal 0.7387168551531179 0.11080752827296766 -0.6648451696378058
  outer loop
    vertex -1.2500000000000089 0.6854999999999871 10.249999999999995
    vertex 1.7499999999999856 -49.31449999999993 5.25
    vertex -5.750000000000002 0.6854999999999871 5.25
  endloop
endfacet
facet normal -0.7387168551531181 0.11080752827296782 -0.6648451696378057
  outer loop
    vertex 29.75000000000003 0.6854999999999871 5.25
    vertex 22.250000000000032 -49.31449999999993 5.25
    vertex 25.25000000000004 0.6854999999999871 10.249999999999995
  endloop
endfacet
facet normal 0.6429883783679233 0.11430904504318622 -0.7572974234111081
  outer loop
    vertex 6.749999999999976 -44.31449999999999 10.249999999999995
    vertex 1.7499999999999856 -49.31449999999993 5.25
    vertex -1.2500000000000089 0.6854999999999871 10.249999999999995
  endloop
endfacet
facet normal -0.0 0.7071067811865509 -0.7071067811865441
  outer loop
    vertex 6.749999999999976 -44.31449999999999 10.249999999999995
    vertex 22.250000000000032 -49.31449999999993 5.25
    vertex 1.7499999999999856 -49.31449999999993 5.25
  endloop
endfacet
facet normal -0.0 0.7071067811865509 -0.7071067811865441
  outer loop
    vertex 22.250000000000032 -49.31449999999993 5.25
    vertex 6.749999999999976 -44.31449999999999 10.249999999999995
    vertex 17.250000000000043 -44.31449999999999 10.249999999999995
  endloop
endfacet
facet normal -0.9889363528682975 0.14834045293024486 9.9611284442244e-15
  outer loop
    vertex 29.75000000000003 0.6854999999999871 5.25
    vertex 22.250000000000032 -49.31449999999989 4.750000000000001
    vertex 22.250000000000032 -49.31449999999993 5.25
  endloop
endfacet
facet normal -0.9889363528682975 0.14834045293024486 9.9611284442244e-15
  outer loop
    vertex 22.250000000000032 -49.31449999999989 4.750000000000001
    vertex 29.75000000000003 0.6854999999999871 5.25
    vertex 29.75000000000003 0.6855000000000097 4.750000000000001
  endloop
endfacet
facet normal -0.0 1.0 9.02389274415329e-14
  outer loop
    vertex 1.7499999999999856 -49.31449999999993 5.25
    vertex 22.250000000000032 -49.31449999999989 4.750000000000001
    vertex 1.7499999999999856 -49.31449999999989 4.750000000000001
  endloop
endfacet
facet normal -0.0 1.0 9.02389274415329e-14
  outer loop
    vertex 22.250000000000032 -49.31449999999989 4.750000000000001
    vertex 1.7499999999999856 -49.31449999999993 5.25
    vertex 22.250000000000032 -49.31449999999993 5.25
  endloop
endfacet
facet normal 0.9889363528682975 0.14834045293024464 9.961128444224386e-15
  outer loop
    vertex 1.7499999999999856 -49.31449999999989 4.750000000000001
    vertex -5.750000000000002 0.6854999999999871 5.25
    vertex 1.7499999999999856 -49.31449999999993 5.25
  endloop
endfacet
facet normal 0.9889363528682975 0.14834045293024464 9.961128444224386e-15
  outer loop
    vertex -5.750000000000002 0.6854999999999871 5.25
    vertex 1.7499999999999856 -49.31449999999989 4.750000000000001
    vertex -5.750000000000002 0.6855000000000097 4.750000000000001
  endloop
endfacet
facet normal 0.7432941462471665 3.663462854485119e-18 -0.6689647316224495
  outer loop
    vertex -5.750000000000002 42.00000000000001 5.25
    vertex -1.2500000000000089 0.6854999999999871 10.249999999999995
    vertex -5.750000000000002 0.6854999999999871 5.25
  endloop
endfacet
facet normal 0.7432941462471665 3.663462854485119e-18 -0.6689647316224495
  outer loop
    vertex -1.2500000000000089 0.6854999999999871 10.249999999999995
    vertex -5.750000000000002 42.00000000000001 5.25
    vertex -1.2500000000000089 42.00000000000001 10.249999999999995
  endloop
endfacet
facet normal -0.7432941462471668 -5.3730788532448364e-17 -0.6689647316224492
  outer loop
    vertex 25.25000000000004 42.00000000000001 10.249999999999995
    vertex 29.75000000000003 0.6854999999999871 5.25
    vertex 25.25000000000004 0.6854999999999871 10.249999999999995
  endloop
endfacet
facet normal -0.7432941462471668 -5.3730788532448364e-17 -0.6689647316224492
  outer loop
    vertex 29.75000000000003 0.6854999999999871 5.25
    vertex 25.25000000000004 42.00000000000001 10.249999999999995
    vertex 29.750000000000025 34.99999999999999 5.249999999999992
  endloop
endfacet
facet normal -0.7432941462471668 -5.3730788532448364e-17 -0.6689647316224492
  outer loop
    vertex 29.750000000000025 34.99999999999999 5.249999999999992
    vertex 25.25000000000004 42.00000000000001 10.249999999999995
    vertex 29.75000000000003 42.00000000000001 5.25
  endloop
endfacet
facet normal -1.0 -4.5971684061747904e-17 -1.1320317067102704e-15
  outer loop
    vertex 29.750000000000025 34.99999999999999 5.249999999999992
    vertex 29.75000000000003 0.6855000000000097 4.750000000000001
    vertex 29.75000000000003 0.6854999999999871 5.25
  endloop
endfacet
facet normal -1.0 -4.5971684061747904e-17 -1.1320317067102704e-15
  outer loop
    vertex 29.75000000000003 0.6855000000000097 4.750000000000001
    vertex 29.750000000000025 34.99999999999999 5.249999999999992
    vertex 29.75000000000003 33.99999999999999 4.750000000000001
  endloop
endfacet
facet normal -1.0 -4.5971684061747904e-17 -1.1320317067102704e-15
  outer loop
    vertex 29.75000000000003 33.99999999999999 4.750000000000001
    vertex 29.750000000000025 34.99999999999999 5.249999999999992
    vertex 29.750000000000025 35.24999999999997 4.75000000000001
  endloop
endfacet
facet normal -1.0 -4.5971684061747904e-17 -1.1320317067102704e-15
  outer loop
    vertex 29.750000000000025 35.24999999999997 4.75000000000001
    vertex 29.750000000000025 34.99999999999999 5.249999999999992
    vertex 29.75000000000003 42.00000000000001 5.25
  endloop
endfacet
facet normal -1.0 -4.5971684061747904e-17 -1.1320317067102704e-15
  outer loop
    vertex 29.750000000000025 35.24999999999997 4.75000000000001
    vertex 29.75000000000003 42.00000000000001 5.25
    vertex 29.75000000000003 42.00000000000001 4.750000000000001
  endloop
endfacet
facet normal -1.0 0.0 0.0
  outer loop
    vertex 29.75000000000003 33.99999999999999 -0.2500000000000024
    vertex 29.75000000000003 0.6855000000000097 4.750000000000001
    vertex 29.75000000000003 33.99999999999999 4.750000000000001
  endloop
endfacet
facet normal -0.7196094183012508 0.10306145294809534 0.6866881548478634
  outer loop
    vertex 29.75000000000003 33.99999999999999 -0.2500000000000024
    vertex 19.25000000000004 -39.31449999999995 -0.25000000000000094
    vertex 29.75000000000003 0.6855000000000097 4.750000000000001
  endloop
endfacet
facet normal -1.0 1.4976285483658174e-16 -3.4853900761968e-16
  outer loop
    vertex 29.750000000000025 35.24999999999997 4.75000000000001
    vertex 29.75000000000003 33.99999999999999 -0.2500000000000024
    vertex 29.75000000000003 33.99999999999999 4.750000000000001
  endloop
endfacet
facet normal -1.0 1.4976285483658174e-16 -3.4853900761968e-16
  outer loop
    vertex 29.75000000000003 33.99999999999999 -0.2500000000000024
    vertex 29.750000000000025 35.24999999999997 4.75000000000001
    vertex 29.75000000000003 42.00000000000001 -0.2500000000000024
  endloop
endfacet
facet normal -1.0 1.4976285483658174e-16 -3.4853900761968e-16
  outer loop
    vertex 29.75000000000003 42.00000000000001 -0.2500000000000024
    vertex 29.750000000000025 35.24999999999997 4.75000000000001
    vertex 29.75000000000003 42.00000000000001 4.750000000000001
  endloop
endfacet
facet normal 0.7196094183012518 0.10306145294809553 0.686688154847862
  outer loop
    vertex -5.750000000000002 33.99999999999998 -0.2500000000000207
    vertex -5.750000000000002 0.6855000000000097 4.750000000000001
    vertex 4.7499999999999805 -39.31449999999995 -0.25000000000000094
  endloop
endfacet
facet normal 1.0 1.872035685457253e-17 -4.3567375952459825e-17
  outer loop
    vertex -5.750000000000002 42.00000000000001 -0.2500000000000207
    vertex -5.750000000000002 33.99999999999998 4.749999999999998
    vertex -5.750000000000002 33.99999999999998 -0.2500000000000207
  endloop
endfacet
facet normal 1.0 1.872035685457253e-17 -4.3567375952459825e-17
  outer loop
    vertex -5.750000000000002 33.99999999999998 4.749999999999998
    vertex -5.750000000000002 42.00000000000001 -0.2500000000000207
    vertex -5.750000000000001 35.24999999999999 4.75
  endloop
endfacet
facet normal 1.0 1.872035685457253e-17 -4.3567375952459825e-17
  outer loop
    vertex -5.750000000000001 35.24999999999999 4.75
    vertex -5.750000000000002 42.00000000000001 -0.2500000000000207
    vertex -5.750000000000002 42.00000000000001 4.750000000000001
  endloop
endfacet
facet normal 1.0 -0.0 -0.0
  outer loop
    vertex -5.750000000000002 33.99999999999998 4.749999999999998
    vertex -5.750000000000002 0.6855000000000097 4.750000000000001
    vertex -5.750000000000002 33.99999999999998 -0.2500000000000207
  endloop
endfacet
facet normal 0.738716855153119 0.11080752827296791 0.6648451696378046
  outer loop
    vertex -5.750000000000002 0.6855000000000097 4.750000000000001
    vertex 1.7499999999999856 -49.31449999999989 4.750000000000001
    vertex 4.7499999999999805 -39.31449999999995 -0.25000000000000094
  endloop
endfacet
facet normal 0.0 -1.0 0.0
  outer loop
    vertex 29.75000000000003 42.00000000000001 -0.2500000000000024
    vertex -5.750000000000002 42.00000000000001 4.750000000000001
    vertex -5.750000000000002 42.00000000000001 -0.2500000000000207
  endloop
endfacet
facet normal 0.0 -1.0 0.0
  outer loop
    vertex -5.750000000000002 42.00000000000001 4.750000000000001
    vertex 29.75000000000003 42.00000000000001 -0.2500000000000024
    vertex 29.75000000000003 42.00000000000001 4.750000000000001
  endloop
endfacet
facet normal 0.0 -1.0 0.0
  outer loop
    vertex -5.750000000000002 42.00000000000001 4.750000000000001
    vertex 29.75000000000003 42.00000000000001 4.750000000000001
    vertex 29.75000000000003 42.00000000000001 5.25
  endloop
endfacet
facet normal 0.0 -1.0 0.0
  outer loop
    vertex -5.750000000000002 42.00000000000001 4.750000000000001
    vertex 29.75000000000003 42.00000000000001 5.25
    vertex -5.750000000000002 42.00000000000001 5.25
  endloop
endfacet
facet normal 0.0 -1.0 0.0
  outer loop
    vertex -5.750000000000002 42.00000000000001 5.25
    vertex 29.75000000000003 42.00000000000001 5.25
    vertex 25.25000000000004 42.00000000000001 10.249999999999995
  endloop
endfacet
facet normal 0.0 -1.0 0.0
  outer loop
    vertex -5.750000000000002 42.00000000000001 5.25
    vertex 25.25000000000004 42.00000000000001 10.249999999999995
    vertex -1.2500000000000089 42.00000000000001 10.249999999999995
  endloop
endfacet
facet normal 0.0 -1.0 0.0
  outer loop
    vertex -1.2500000000000089 42.00000000000001 10.249999999999995
    vertex 25.25000000000004 42.00000000000001 10.249999999999995
    vertex 24.25000000000004 42.00000000000001 10.249999999999995
  endloop
endfacet
facet normal 0.0 -1.0 0.0
  outer loop
    vertex -1.2500000000000089 42.00000000000001 10.249999999999995
    vertex 24.25000000000004 42.00000000000001 10.249999999999995
    vertex -0.25000000000000905 42.00000000000001 10.249999999999995
  endloop
endfacet
facet normal 1.0 -2.550522669868904e-18 3.4184121440866595e-16
  outer loop
    vertex -5.750000000000002 0.6855000000000097 4.750000000000001
    vertex -5.750000000000002 42.00000000000001 5.25
    vertex -5.750000000000002 0.6854999999999871 5.25
  endloop
endfacet
facet normal 1.0 -2.550522669868904e-18 3.4184121440866595e-16
  outer loop
    vertex -5.750000000000002 42.00000000000001 5.25
    vertex -5.750000000000002 0.6855000000000097 4.750000000000001
    vertex -5.750000000000002 33.99999999999998 4.749999999999998
  endloop
endfacet
facet normal 1.0 -2.550522669868904e-18 3.4184121440866595e-16
  outer loop
    vertex -5.750000000000002 42.00000000000001 5.25
    vertex -5.750000000000002 33.99999999999998 4.749999999999998
    vertex -5.750000000000001 35.24999999999999 4.75
  endloop
endfacet
facet normal 1.0 -2.550522669868904e-18 3.4184121440866595e-16
  outer loop
    vertex -5.750000000000002 42.00000000000001 5.25
    vertex -5.750000000000001 35.24999999999999 4.75
    vertex -5.750000000000002 42.00000000000001 4.750000000000001
  endloop
endfacet
facet normal -0.0 1.0 -0.0
  outer loop
    vertex 6.749999999999976 -44.31449999999999 15.24999999999999
    vertex 17.250000000000043 -44.31449999999999 10.249999999999995
    vertex 6.749999999999976 -44.31449999999999 10.249999999999995
  endloop
endfacet
facet normal -0.0 1.0 -0.0
  outer loop
    vertex 17.250000000000043 -44.31449999999999 10.249999999999995
    vertex 6.749999999999976 -44.31449999999999 15.24999999999999
    vertex 17.250000000000043 -44.31449999999999 15.24999999999999
  endloop
endfacet
facet normal -0.9845625077859067 0.17503333471749452 0.0
  outer loop
    vertex 25.25000000000004 0.6854999999999871 15.24999999999999
    vertex 17.250000000000043 -44.31449999999999 10.249999999999995
    vertex 17.250000000000043 -44.31449999999999 15.24999999999999
  endloop
endfacet
facet normal -0.9845625077859067 0.17503333471749452 0.0
  outer loop
    vertex 17.250000000000043 -44.31449999999999 10.249999999999995
    vertex 25.25000000000004 0.6854999999999871 15.24999999999999
    vertex 25.25000000000004 0.6854999999999871 10.249999999999995
  endloop
endfacet
facet normal 0.9845625077859067 0.17503333471749424 -0.0
  outer loop
    vertex -1.2500000000000089 0.6854999999999871 10.249999999999995
    vertex 6.749999999999976 -44.31449999999999 15.24999999999999
    vertex 6.749999999999976 -44.31449999999999 10.249999999999995
  endloop
endfacet
facet normal 0.9845625077859067 0.17503333471749424 -0.0
  outer loop
    vertex 6.749999999999976 -44.31449999999999 15.24999999999999
    vertex -1.2500000000000089 0.6854999999999871 10.249999999999995
    vertex -1.2500000000000089 0.6854999999999871 15.24999999999999
  endloop
endfacet
facet normal -0.9969184902746141 -0.0784443990899553 1.682922079236881e-18
  outer loop
    vertex -18.75 44.00000000000001 7.321067811865453
    vertex -11.249999999999993 -51.314500000000855 -0.24999999999999953
    vertex -11.249999999999993 -51.314500000000855 7.32106781186547
  endloop
endfacet
facet normal -0.9969184902746141 -0.0784443990899553 1.682922079236881e-18
  outer loop
    vertex -11.249999999999993 -51.314500000000855 -0.24999999999999953
    vertex -18.75 44.00000000000001 7.321067811865453
    vertex -18.75 44.00000000000001 -0.24999999999999953
  endloop
endfacet
facet normal -0.45678152467525557 -0.03594271002905511 0.888852496374464
  outer loop
    vertex -3.3210678118654657 44.00000000000001 15.249999999999984
    vertex -18.75 44.00000000000001 7.321067811865453
    vertex -11.249999999999993 -51.314500000000855 7.32106781186547
  endloop
endfacet
facet normal 0.7060147811647193 -0.0555540957434109 0.7060147811647187
  outer loop
    vertex 42.750000000000014 44.00000000000001 7.321067811865453
    vertex 27.321067811865497 -51.314500000000855 15.24999999999999
    vertex 35.250000000000014 -51.314500000000855 7.321067811865464
  endloop
endfacet
facet normal 0.0 -1.0 0.0
  outer loop
    vertex 30.25000000000001 -61.314500000000855 5.249999999999989
    vertex -6.249999999999994 -61.314500000000855 -0.24999999999999953
    vertex 30.25000000000001 -61.314500000000855 -0.2500000000000023
  endloop
endfacet
facet normal 0.0 -1.0 0.0
  outer loop
    vertex -6.249999999999994 -61.314500000000855 -0.24999999999999953
    vertex 30.25000000000001 -61.314500000000855 5.249999999999989
    vertex -6.249999999999994 -61.314500000000855 5.249999999999986
  endloop
endfacet
facet normal 0.0 -1.0 0.0
  outer loop
    vertex -6.249999999999994 -61.314500000000855 5.249999999999986
    vertex 30.25000000000001 -61.314500000000855 5.249999999999989
    vertex -1.2499999999999576 -61.314500000000855 10.24999999999999
  endloop
endfacet
facet normal 0.0 -1.0 0.0
  outer loop
    vertex -1.2499999999999576 -61.314500000000855 10.24999999999999
    vertex 30.25000000000001 -61.314500000000855 5.249999999999989
    vertex 25.250000000000018 -61.314500000000855 10.24999999999999
  endloop
endfacet
facet normal -0.6324555320336739 -0.44721359549995776 0.632455532033678
  outer loop
    vertex -6.249999999999994 -61.314500000000855 5.249999999999986
    vertex -3.3210678118654235 -51.314500000000855 15.24999999999999
    vertex -11.249999999999993 -51.314500000000855 7.32106781186547
  endloop
endfacet
facet normal -0.6324555320336739 -0.44721359549995776 0.632455532033678
  outer loop
    vertex -3.3210678118654235 -51.314500000000855 15.24999999999999
    vertex -6.249999999999994 -61.314500000000855 5.249999999999986
    vertex -1.2499999999999576 -61.314500000000855 10.24999999999999
  endloop
endfacet
facet normal -3.495033514799855e-33 -0.44721359549995776 0.894427190999916
  outer loop
    vertex -1.2499999999999576 -61.314500000000855 10.24999999999999
    vertex 27.321067811865497 -51.314500000000855 15.24999999999999
    vertex -3.3210678118654235 -51.314500000000855 15.24999999999999
  endloop
endfacet
facet normal -3.495033514799855e-33 -0.44721359549995776 0.894427190999916
  outer loop
    vertex 27.321067811865497 -51.314500000000855 15.24999999999999
    vertex -1.2499999999999576 -61.314500000000855 10.24999999999999
    vertex 25.250000000000018 -61.314500000000855 10.24999999999999
  endloop
endfacet
facet normal 0.6324555320336761 -0.44721359549995787 0.6324555320336757
  outer loop
    vertex 35.250000000000014 -51.314500000000855 7.321067811865464
    vertex 25.250000000000018 -61.314500000000855 10.24999999999999
    vertex 30.25000000000001 -61.314500000000855 5.249999999999989
  endloop
endfacet
facet normal 0.6324555320336761 -0.44721359549995787 0.6324555320336757
  outer loop
    vertex 25.250000000000018 -61.314500000000855 10.24999999999999
    vertex 35.250000000000014 -51.314500000000855 7.321067811865464
    vertex 27.321067811865497 -51.314500000000855 15.24999999999999
  endloop
endfacet
facet normal -0.894427190999916 -0.4472135954999578 4.5583156635816885e-17
  outer loop
    vertex -11.249999999999993 -51.314500000000855 7.32106781186547
    vertex -6.249999999999994 -61.314500000000855 -0.24999999999999953
    vertex -6.249999999999994 -61.314500000000855 5.249999999999986
  endloop
endfacet
facet normal -0.894427190999916 -0.4472135954999578 4.5583156635816885e-17
  outer loop
    vertex -6.249999999999994 -61.314500000000855 -0.24999999999999953
    vertex -11.249999999999993 -51.314500000000855 7.32106781186547
    vertex -11.249999999999993 -51.314500000000855 -0.24999999999999953
  endloop
endfacet
facet normal 0.8944271909999161 -0.44721359549995804 -0.0
  outer loop
    vertex 35.250000000000014 -51.314500000000855 -0.2500000000000024
    vertex 30.25000000000001 -61.314500000000855 5.249999999999989
    vertex 30.25000000000001 -61.314500000000855 -0.2500000000000023
  endloop
endfacet
facet normal 0.8944271909999161 -0.44721359549995804 -0.0
  outer loop
    vertex 30.25000000000001 -61.314500000000855 5.249999999999989
    vertex 35.250000000000014 -51.314500000000855 -0.2500000000000024
    vertex 35.250000000000014 -51.314500000000855 7.321067811865464
  endloop
endfacet
facet normal 0.9969184902746141 -0.07844439908995521 4.48268687794943e-18
  outer loop
    vertex 42.750000000000014 44.00000000000001 -0.2500000000000024
    vertex 35.250000000000014 -51.314500000000855 7.321067811865464
    vertex 35.250000000000014 -51.314500000000855 -0.2500000000000024
  endloop
endfacet
facet normal 0.9969184902746141 -0.07844439908995521 4.48268687794943e-18
  outer loop
    vertex 35.250000000000014 -51.314500000000855 7.321067811865464
    vertex 42.750000000000014 44.00000000000001 -0.2500000000000024
    vertex 42.750000000000014 44.00000000000001 7.321067811865453
  endloop
endfacet
facet normal -4.9206896688780244e-17 -6.317792382530784e-17 -1.0
  outer loop
    vertex -18.75 44.00000000000001 -0.24999999999999953
    vertex -5.750000000000002 42.00000000000001 -0.2500000000000207
    vertex -11.249999999999993 -51.314500000000855 -0.24999999999999953
  endloop
endfacet
facet normal -4.9206896688780244e-17 -6.317792382530784e-17 -1.0
  outer loop
    vertex -5.750000000000002 42.00000000000001 -0.2500000000000207
    vertex -18.75 44.00000000000001 -0.24999999999999953
    vertex -3.3210678118655053 44.00000000000001 -0.25000000000001366
  endloop
endfacet
facet normal -4.9206896688780244e-17 -6.317792382530784e-17 -1.0
  outer loop
    vertex -11.249999999999993 -51.314500000000855 -0.24999999999999953
    vertex -5.750000000000002 42.00000000000001 -0.2500000000000207
    vertex -6.249999999999994 -61.314500000000855 -0.24999999999999953
  endloop
endfacet
facet normal -4.9206896688780244e-17 -6.317792382530784e-17 -1.0
  outer loop
    vertex -5.750000000000002 42.00000000000001 -0.2500000000000207
    vertex -3.3210678118655053 44.00000000000001 -0.25000000000001366
    vertex 29.75000000000003 42.00000000000001 -0.2500000000000024
  endloop
endfacet
facet normal -4.9206896688780244e-17 -6.317792382530784e-17 -1.0
  outer loop
    vertex 29.75000000000003 42.00000000000001 -0.2500000000000024
    vertex -3.3210678118655053 44.00000000000001 -0.25000000000001366
    vertex 27.32106781186549 44.00000000000001 -0.25000000000001366
  endloop
endfacet
facet normal -4.9206896688780244e-17 -6.317792382530784e-17 -1.0
  outer loop
    vertex 29.75000000000003 42.00000000000001 -0.2500000000000024
    vertex 27.32106781186549 44.00000000000001 -0.25000000000001366
    vertex 42.750000000000014 44.00000000000001 -0.2500000000000024
  endloop
endfacet
facet normal -4.9206896688780244e-17 -6.317792382530784e-17 -1.0
  outer loop
    vertex 29.75000000000003 42.00000000000001 -0.2500000000000024
    vertex 42.750000000000014 44.00000000000001 -0.2500000000000024
    vertex 29.75000000000003 33.99999999999999 -0.2500000000000024
  endloop
endfacet
facet normal -4.9206896688780244e-17 -6.317792382530784e-17 -1.0
  outer loop
    vertex 29.75000000000003 33.99999999999999 -0.2500000000000024
    vertex 42.750000000000014 44.00000000000001 -0.2500000000000024
    vertex 30.25000000000001 -61.314500000000855 -0.2500000000000023
  endloop
endfacet
facet normal -4.9206896688780244e-17 -6.317792382530784e-17 -1.0
  outer loop
    vertex 30.25000000000001 -61.314500000000855 -0.2500000000000023
    vertex 42.750000000000014 44.00000000000001 -0.2500000000000024
    vertex 35.250000000000014 -51.314500000000855 -0.2500000000000024
  endloop
endfacet
facet normal -4.9206896688780244e-17 -6.317792382530784e-17 -1.0
  outer loop
    vertex -6.249999999999994 -61.314500000000855 -0.24999999999999953
    vertex 4.7499999999999805 -39.31449999999995 -0.25000000000000094
    vertex 30.25000000000001 -61.314500000000855 -0.2500000000000023
  endloop
endfacet
facet normal -4.9206896688780244e-17 -6.317792382530784e-17 -1.0
  outer loop
    vertex 4.7499999999999805 -39.31449999999995 -0.25000000000000094
    vertex -6.249999999999994 -61.314500000000855 -0.24999999999999953
    vertex -5.750000000000002 33.99999999999998 -0.2500000000000207
  endloop
endfacet
facet normal -4.9206896688780244e-17 -6.317792382530784e-17 -1.0
  outer loop
    vertex -5.750000000000002 33.99999999999998 -0.2500000000000207
    vertex -6.249999999999994 -61.314500000000855 -0.24999999999999953
    vertex -5.750000000000002 42.00000000000001 -0.2500000000000207
  endloop
endfacet
facet normal -4.9206896688780244e-17 -6.317792382530784e-17 -1.0
  outer loop
    vertex 30.25000000000001 -61.314500000000855 -0.2500000000000023
    vertex 4.7499999999999805 -39.31449999999995 -0.25000000000000094
    vertex 19.25000000000004 -39.31449999999995 -0.25000000000000094
  endloop
endfacet
facet normal -4.9206896688780244e-17 -6.317792382530784e-17 -1.0
  outer loop
    vertex 30.25000000000001 -61.314500000000855 -0.2500000000000023
    vertex 19.25000000000004 -39.31449999999995 -0.25000000000000094
    vertex 29.75000000000003 33.99999999999999 -0.2500000000000024
  endloop
endfacet
facet normal 0.4570768639565028 -8.552209423968235e-17 0.8894271979401622
  outer loop
    vertex 42.750000000000014 44.00000000000001 7.321067811865453
    vertex 27.32106781186552 44.00000000000001 15.249999999999984
    vertex 27.321067811865497 -51.314500000000855 15.24999999999999
  endloop
endfacet
facet normal -0.7071067811865454 -2.6281497037893704e-16 0.7071067811865497
  outer loop
    vertex -3.3210678118654235 -51.314500000000855 15.24999999999999
    vertex -3.3210678118654657 44.00000000000001 15.249999999999984
    vertex -11.249999999999993 -51.314500000000855 7.32106781186547
  endloop
endfacet
facet normal -1.0 0.0 0.0
  outer loop
    vertex 25.25000000000004 42.00000000000001 15.24999999999999
    vertex 25.25000000000004 0.6854999999999871 10.249999999999995
    vertex 25.25000000000004 0.6854999999999871 15.24999999999999
  endloop
endfacet
facet normal -1.0 0.0 0.0
  outer loop
    vertex 25.25000000000004 0.6854999999999871 10.249999999999995
    vertex 25.25000000000004 42.00000000000001 15.24999999999999
    vertex 25.25000000000004 42.00000000000001 10.249999999999995
  endloop
endfacet
facet normal 1.0 -0.0 -0.0
  outer loop
    vertex -1.2500000000000089 42.00000000000001 10.249999999999995
    vertex -1.2500000000000089 0.6854999999999871 15.24999999999999
    vertex -1.2500000000000089 0.6854999999999871 10.249999999999995
  endloop
endfacet
facet normal 1.0 -0.0 -0.0
  outer loop
    vertex -1.2500000000000089 0.6854999999999871 15.24999999999999
    vertex -1.2500000000000089 42.00000000000001 10.249999999999995
    vertex -1.2500000000000089 42.00000000000001 15.249999999999984
  endloop
endfacet
facet normal 0.0 -1.0 0.0
  outer loop
    vertex -0.25000000000000905 42.00000000000001 15.249999999999984
    vertex -1.2500000000000089 42.00000000000001 10.249999999999995
    vertex -0.25000000000000905 42.00000000000001 10.249999999999995
  endloop
endfacet
facet normal 0.0 -1.0 0.0
  outer loop
    vertex -1.2500000000000089 42.00000000000001 10.249999999999995
    vertex -0.25000000000000905 42.00000000000001 15.249999999999984
    vertex -1.2500000000000089 42.00000000000001 15.249999999999984
  endloop
endfacet
facet normal 0.0 -1.0 0.0
  outer loop
    vertex 25.25000000000004 42.00000000000001 15.24999999999999
    vertex 24.25000000000004 42.00000000000001 10.249999999999995
    vertex 25.25000000000004 42.00000000000001 10.249999999999995
  endloop
endfacet
facet normal 0.0 -1.0 0.0
  outer loop
    vertex 24.25000000000004 42.00000000000001 10.249999999999995
    vertex 25.25000000000004 42.00000000000001 15.24999999999999
    vertex 24.25000000000004 42.00000000000001 15.24999999999999
  endloop
endfacet
facet normal 2.7925482973808497e-33 5.917182553646868e-17 1.0
  outer loop
    vertex 24.25000000000004 0.6927499999999929 15.24999999999999
    vertex -0.25000000000000905 42.00000000000001 15.249999999999984
    vertex -0.25000000000000905 0.6927499999999929 15.249999999999984
  endloop
endfacet
facet normal 2.7925482973808497e-33 5.917182553646868e-17 1.0
  outer loop
    vertex -3.3210678118654235 -51.314500000000855 15.24999999999999
    vertex 6.749999999999976 -44.31449999999999 15.24999999999999
    vertex -1.2500000000000089 0.6854999999999871 15.24999999999999
  endloop
endfacet
facet normal 2.7925482973808497e-33 5.917182553646868e-17 1.0
  outer loop
    vertex 6.749999999999976 -44.31449999999999 15.24999999999999
    vertex -3.3210678118654235 -51.314500000000855 15.24999999999999
    vertex 27.321067811865497 -51.314500000000855 15.24999999999999
  endloop
endfacet
facet normal 2.7925482973808497e-33 5.917182553646868e-17 1.0
  outer loop
    vertex 6.749999999999976 -44.31449999999999 15.24999999999999
    vertex 27.321067811865497 -51.314500000000855 15.24999999999999
    vertex 17.250000000000043 -44.31449999999999 15.24999999999999
  endloop
endfacet
facet normal 2.7925482973808497e-33 5.917182553646868e-17 1.0
  outer loop
    vertex 17.250000000000043 -44.31449999999999 15.24999999999999
    vertex 27.321067811865497 -51.314500000000855 15.24999999999999
    vertex 25.25000000000004 0.6854999999999871 15.24999999999999
  endloop
endfacet
facet normal 2.7925482973808497e-33 5.917182553646868e-17 1.0
  outer loop
    vertex 25.25000000000004 0.6854999999999871 15.24999999999999
    vertex 27.321067811865497 -51.314500000000855 15.24999999999999
    vertex 25.25000000000004 42.00000000000001 15.24999999999999
  endloop
endfacet
facet normal 2.7925482973808497e-33 5.917182553646868e-17 1.0
  outer loop
    vertex -3.3210678118654657 44.00000000000001 15.249999999999984
    vertex -1.2500000000000089 42.00000000000001 15.249999999999984
    vertex 27.32106781186552 44.00000000000001 15.249999999999984
  endloop
endfacet
facet normal 2.7925482973808497e-33 5.917182553646868e-17 1.0
  outer loop
    vertex -1.2500000000000089 42.00000000000001 15.249999999999984
    vertex -3.3210678118654657 44.00000000000001 15.249999999999984
    vertex -3.3210678118654235 -51.314500000000855 15.24999999999999
  endloop
endfacet
facet normal 2.7925482973808497e-33 5.917182553646868e-17 1.0
  outer loop
    vertex -1.2500000000000089 42.00000000000001 15.249999999999984
    vertex -3.3210678118654235 -51.314500000000855 15.24999999999999
    vertex -1.2500000000000089 0.6854999999999871 15.24999999999999
  endloop
endfacet
facet normal 2.7925482973808497e-33 5.917182553646868e-17 1.0
  outer loop
    vertex 27.32106781186552 44.00000000000001 15.249999999999984
    vertex -1.2500000000000089 42.00000000000001 15.249999999999984
    vertex -0.25000000000000905 42.00000000000001 15.249999999999984
  endloop
endfacet
facet normal 2.7925482973808497e-33 5.917182553646868e-17 1.0
  outer loop
    vertex 27.32106781186552 44.00000000000001 15.249999999999984
    vertex -0.25000000000000905 42.00000000000001 15.249999999999984
    vertex 24.25000000000004 42.00000000000001 15.24999999999999
  endloop
endfacet
facet normal 2.7925482973808497e-33 5.917182553646868e-17 1.0
  outer loop
    vertex 24.25000000000004 42.00000000000001 15.24999999999999
    vertex -0.25000000000000905 42.00000000000001 15.249999999999984
    vertex 24.25000000000004 0.6927499999999929 15.24999999999999
  endloop
endfacet
facet normal 2.7925482973808497e-33 5.917182553646868e-17 1.0
  outer loop
    vertex 27.32106781186552 44.00000000000001 15.249999999999984
    vertex 24.25000000000004 42.00000000000001 15.24999999999999
    vertex 25.25000000000004 42.00000000000001 15.24999999999999
  endloop
endfacet
facet normal 2.7925482973808497e-33 5.917182553646868e-17 1.0
  outer loop
    vertex 27.32106781186552 44.00000000000001 15.249999999999984
    vertex 25.25000000000004 42.00000000000001 15.24999999999999
    vertex 27.321067811865497 -51.314500000000855 15.24999999999999
  endloop
endfacet
facet normal -1.0 0.0 0.0
  outer loop
    vertex -0.25000000000000905 42.00000000000001 15.249999999999984
    vertex -0.25000000000000905 0.6927499999999929 10.249999999999995
    vertex -0.25000000000000905 0.6927499999999929 15.249999999999984
  endloop
endfacet
facet normal -1.0 0.0 0.0
  outer loop
    vertex -0.25000000000000905 0.6927499999999929 10.249999999999995
    vertex -0.25000000000000905 42.00000000000001 15.249999999999984
    vertex -0.2500000000000083 15.692749999999993 10.249999999999995
  endloop
endfacet
facet normal -1.0 0.0 0.0
  outer loop
    vertex -0.2500000000000083 15.692749999999993 10.249999999999995
    vertex -0.25000000000000905 42.00000000000001 15.249999999999984
    vertex -0.25000000000000905 42.00000000000001 10.249999999999995
  endloop
endfacet
facet normal 1.0 -0.0 -0.0
  outer loop
    vertex 24.25000000000004 15.692749999999993 10.249999999999995
    vertex 24.25000000000004 0.6927499999999929 15.24999999999999
    vertex 24.25000000000004 0.6927499999999929 10.249999999999995
  endloop
endfacet
facet normal 1.0 -0.0 -0.0
  outer loop
    vertex 24.25000000000004 0.6927499999999929 15.24999999999999
    vertex 24.25000000000004 15.692749999999993 10.249999999999995
    vertex 24.25000000000004 42.00000000000001 15.24999999999999
  endloop
endfacet
facet normal 1.0 -0.0 -0.0
  outer loop
    vertex 24.25000000000004 42.00000000000001 15.24999999999999
    vertex 24.25000000000004 15.692749999999993 10.249999999999995
    vertex 24.25000000000004 42.00000000000001 10.249999999999995
  endloop
endfacet
facet normal 1.0 -0.0 -0.0
  outer loop
    vertex 24.25000000000004 15.692749999999993 10.249999999999995
    vertex 24.25000000000004 0.6927499999999929 10.249999999999995
    vertex 24.25000000000004 3.1927499999999926 7.749999999999995
  endloop
endfacet
facet normal 0.0 0.0 -1.0
  outer loop
    vertex 24.25000000000004 42.00000000000001 10.249999999999995
    vertex -0.2500000000000083 15.692749999999993 10.249999999999995
    vertex -0.25000000000000905 42.00000000000001 10.249999999999995
  endloop
endfacet
facet normal 0.0 0.0 -1.0
  outer loop
    vertex -0.2500000000000083 15.692749999999993 10.249999999999995
    vertex 24.25000000000004 42.00000000000001 10.249999999999995
    vertex 24.25000000000004 15.692749999999993 10.249999999999995
  endloop
endfacet
facet normal 0.0 -1.0 0.0
  outer loop
    vertex 24.25000000000004 0.6927499999999929 15.24999999999999
    vertex -0.25000000000000905 0.6927499999999929 10.249999999999995
    vertex 24.25000000000004 0.6927499999999929 10.249999999999995
  endloop
endfacet
facet normal 0.0 -1.0 0.0
  outer loop
    vertex -0.25000000000000905 0.6927499999999929 10.249999999999995
    vertex 24.25000000000004 0.6927499999999929 15.24999999999999
    vertex -0.25000000000000905 0.6927499999999929 15.249999999999984
  endloop
endfacet
facet normal 0.0 -0.7071067811865476 -0.7071067811865476
  outer loop
    vertex 24.25000000000004 0.6927499999999929 10.249999999999995
    vertex -0.2500000000000087 3.1927499999999926 7.749999999999995
    vertex 24.25000000000004 3.1927499999999926 7.749999999999995
  endloop
endfacet
facet normal 0.0 -0.7071067811865476 -0.7071067811865476
  outer loop
    vertex -0.2500000000000087 3.1927499999999926 7.749999999999995
    vertex 24.25000000000004 0.6927499999999929 10.249999999999995
    vertex -0.25000000000000905 0.6927499999999929 10.249999999999995
  endloop
endfacet
facet normal -1.0 4.699944137579829e-17 -9.399888275159659e-17
  outer loop
    vertex -0.2500000000000083 15.692749999999993 10.249999999999995
    vertex -0.2500000000000087 3.1927499999999926 7.749999999999995
    vertex -0.25000000000000905 0.6927499999999929 10.249999999999995
  endloop
endfacet
facet normal 0.0 0.19611613513818402 -0.9805806756909203
  outer loop
    vertex -0.2500000000000083 15.692749999999993 10.249999999999995
    vertex 24.25000000000004 3.1927499999999926 7.749999999999995
    vertex -0.2500000000000087 3.1927499999999926 7.749999999999995
  endloop
endfacet
facet normal 0.0 0.19611613513818402 -0.9805806756909203
  outer loop
    vertex 24.25000000000004 3.1927499999999926 7.749999999999995
    vertex -0.2500000000000083 15.692749999999993 10.249999999999995
    vertex 24.25000000000004 15.692749999999993 10.249999999999995
  endloop
endfacet
facet normal -0.7071067811865476 0.7071067811865476 -0.0
  outer loop
    vertex -55.5 169.0 15.249999999999975
    vertex -68.0 156.5 -0.24999999999999645
    vertex -68.0 156.5 15.249999999999975
  endloop
endfacet
facet normal -0.7071067811865476 0.7071067811865476 -0.0
  outer loop
    vertex -68.0 156.5 -0.24999999999999645
    vertex -55.5 169.0 15.249999999999975
    vertex -55.5 169.0 -0.24999999999999628
  endloop
endfacet
facet normal -0.0 1.0 -0.0
  outer loop
    vertex -55.5 169.0 15.249999999999975
    vertex 79.50000000000003 169.0 -0.24999999999999403
    vertex -55.5 169.0 -0.24999999999999628
  endloop
endfacet
facet normal -0.0 1.0 -0.0
  outer loop
    vertex 79.50000000000003 169.0 -0.24999999999999403
    vertex -55.5 169.0 15.249999999999975
    vertex 79.50000000000003 169.0 15.249999999999977
  endloop
endfacet
facet normal 0.7071067811865476 0.7071067811865476 -0.0
  outer loop
    vertex 79.50000000000003 169.0 -0.24999999999999403
    vertex 92.00000000000003 156.5 15.249999999999977
    vertex 92.00000000000003 156.5 -0.2499999999999939
  endloop
endfacet
facet normal 0.7071067811865476 0.7071067811865476 -0.0
  outer loop
    vertex 92.00000000000003 156.5 15.249999999999977
    vertex 79.50000000000003 169.0 -0.24999999999999403
    vertex 79.50000000000003 169.0 15.249999999999977
  endloop
endfacet
facet normal 1.0 -0.0 -0.0
  outer loop
    vertex 92.00000000000003 156.5 -0.2499999999999939
    vertex 92.00000000000003 94.00000000000001 15.249999999999977
    vertex 92.00000000000003 94.00000000000001 -0.2499999999999939
  endloop
endfacet
facet normal 1.0 -0.0 -0.0
  outer loop
    vertex 92.00000000000003 94.00000000000001 15.249999999999977
    vertex 92.00000000000003 156.5 -0.2499999999999939
    vertex 92.00000000000003 156.5 15.249999999999977
  endloop
endfacet
facet normal 0.7124298165968639 -0.7017433693479112 -8.421044911835513e-17
  outer loop
    vertex 82.14999999999999 83.99999999999999 -0.2500000000000046
    vertex 42.750000000000014 44.00000000000001 7.321067811865453
    vertex 42.750000000000014 44.00000000000001 -0.2500000000000024
  endloop
endfacet
facet normal 0.7124298165968639 -0.7017433693479112 -8.421044911835513e-17
  outer loop
    vertex 42.750000000000014 44.00000000000001 7.321067811865453
    vertex 82.14999999999999 83.99999999999999 -0.2500000000000046
    vertex 42.750000000000014 44.00000000000001 15.24999999999997
  endloop
endfacet
facet normal 0.7124298165968639 -0.7017433693479112 -8.421044911835513e-17
  outer loop
    vertex 42.750000000000014 44.00000000000001 15.24999999999997
    vertex 82.14999999999999 83.99999999999999 -0.2500000000000046
    vertex 92.00000000000003 94.00000000000001 15.249999999999977
  endloop
endfacet
facet normal 0.7124298165968639 -0.7017433693479112 -8.421044911835513e-17
  outer loop
    vertex 92.00000000000003 94.00000000000001 15.249999999999977
    vertex 82.14999999999999 83.99999999999999 -0.2500000000000046
    vertex 92.00000000000003 94.00000000000001 -0.2499999999999939
  endloop
endfacet
facet normal 0.0 -1.0 0.0
  outer loop
    vertex -3.3210678118654657 44.00000000000001 15.249999999999984
    vertex -18.75 44.00000000000001 15.249999999999972
    vertex -18.75 44.00000000000001 7.321067811865453
  endloop
endfacet
facet normal -0.712429816596864 -0.701743369347911 -4.56734639285994e-17
  outer loop
    vertex -68.0 94.00000000000001 15.249999999999975
    vertex -18.75 44.00000000000001 7.321067811865453
    vertex -18.75 44.00000000000001 15.249999999999972
  endloop
endfacet
facet normal -0.712429816596864 -0.701743369347911 -4.56734639285994e-17
  outer loop
    vertex -18.75 44.00000000000001 7.321067811865453
    vertex -68.0 94.00000000000001 15.249999999999975
    vertex -18.75 44.00000000000001 -0.24999999999999953
  endloop
endfacet
facet normal -0.712429816596864 -0.701743369347911 -4.56734639285994e-17
  outer loop
    vertex -18.75 44.00000000000001 -0.24999999999999953
    vertex -68.0 94.00000000000001 15.249999999999975
    vertex -58.14999999999999 84.0 -0.2500000000000057
  endloop
endfacet
facet normal -0.712429816596864 -0.701743369347911 -4.56734639285994e-17
  outer loop
    vertex -58.14999999999999 84.0 -0.2500000000000057
    vertex -68.0 94.00000000000001 15.249999999999975
    vertex -68.0 94.00000000000001 -0.2499999999999973
  endloop
endfacet
facet normal -1.0 0.0 0.0
  outer loop
    vertex -68.0 156.5 15.249999999999975
    vertex -68.0 94.00000000000001 -0.2499999999999973
    vertex -68.0 94.00000000000001 15.249999999999975
  endloop
endfacet
facet normal -1.0 0.0 0.0
  outer loop
    vertex -68.0 94.00000000000001 -0.2499999999999973
    vertex -68.0 156.5 15.249999999999975
    vertex -68.0 156.5 -0.24999999999999645
  endloop
endfacet
facet normal 0.8064049958557058 0.5913636636275172 -3.606274121686295e-17
  outer loop
    vertex -26.500000000000004 84.0 -0.2500000000000054
    vertex -15.50000000000001 69.00000000000001 15.249999999999972
    vertex -15.50000000000001 69.00000000000001 -0.24999999999999858
  endloop
endfacet
facet normal 0.8064049958557058 0.5913636636275172 -3.606274121686295e-17
  outer loop
    vertex -15.50000000000001 69.00000000000001 15.249999999999972
    vertex -26.500000000000004 84.0 -0.2500000000000054
    vertex -43.0 106.50000000000001 15.249999999999977
  endloop
endfacet
facet normal 0.8064049958557058 0.5913636636275172 -3.606274121686295e-17
  outer loop
    vertex -43.0 106.50000000000001 15.249999999999977
    vertex -26.500000000000004 84.0 -0.2500000000000054
    vertex -43.0 106.50000000000001 -0.24999999999999506
  endloop
endfacet
facet normal -2.0508847145802866e-16 1.0 -3.0572117446208226e-32
  outer loop
    vertex -15.50000000000001 69.00000000000001 -0.24999999999999858
    vertex 39.50000000000004 69.00000000000001 15.249999999999972
    vertex 39.50000000000004 69.00000000000001 -0.2499999999999998
  endloop
endfacet
facet normal -2.0508847145802866e-16 1.0 -3.0572117446208226e-32
  outer loop
    vertex 39.50000000000004 69.00000000000001 15.249999999999972
    vertex -15.50000000000001 69.00000000000001 -0.24999999999999858
    vertex -15.50000000000001 69.00000000000001 15.249999999999972
  endloop
endfacet
facet normal -0.8064049958557056 0.5913636636275174 -4.808365495581733e-17
  outer loop
    vertex 67.00000000000003 106.50000000000001 15.249999999999977
    vertex 39.50000000000004 69.00000000000001 -0.2499999999999998
    vertex 39.50000000000004 69.00000000000001 15.249999999999972
  endloop
endfacet
facet normal -0.8064049958557056 0.5913636636275174 -4.808365495581733e-17
  outer loop
    vertex 39.50000000000004 69.00000000000001 -0.2499999999999998
    vertex 67.00000000000003 106.50000000000001 15.249999999999977
    vertex 50.50000000000002 84.0 -0.25000000000000555
  endloop
endfacet
facet normal -0.8064049958557056 0.5913636636275174 -4.808365495581733e-17
  outer loop
    vertex 50.50000000000002 84.0 -0.25000000000000555
    vertex 67.00000000000003 106.50000000000001 15.249999999999977
    vertex 67.00000000000003 106.50000000000001 -0.2499999999999939
  endloop
endfacet
facet normal -1.0 0.0 0.0
  outer loop
    vertex 67.00000000000003 134.0 15.249999999999977
    vertex 67.00000000000003 106.50000000000001 -0.2499999999999939
    vertex 67.00000000000003 106.50000000000001 15.249999999999977
  endloop
endfacet
facet normal -1.0 0.0 0.0
  outer loop
    vertex 67.00000000000003 106.50000000000001 -0.2499999999999939
    vertex 67.00000000000003 134.0 15.249999999999977
    vertex 67.00000000000003 134.0 -0.2499999999999939
  endloop
endfacet
facet normal -0.7071067811865476 -0.7071067811865476 0.0
  outer loop
    vertex 57.00000000000002 144.0 15.249999999999977
    vertex 67.00000000000003 134.0 -0.2499999999999939
    vertex 67.00000000000003 134.0 15.249999999999977
  endloop
endfacet
facet normal -0.7071067811865476 -0.7071067811865476 0.0
  outer loop
    vertex 67.00000000000003 134.0 -0.2499999999999939
    vertex 57.00000000000002 144.0 15.249999999999977
    vertex 57.00000000000002 144.0 -0.2499999999999939
  endloop
endfacet
facet normal 0.0 -1.0 0.0
  outer loop
    vertex 57.00000000000002 144.0 15.249999999999977
    vertex -33.0 144.0 -0.2499999999999939
    vertex 57.00000000000002 144.0 -0.2499999999999939
  endloop
endfacet
facet normal 0.0 -1.0 0.0
  outer loop
    vertex -33.0 144.0 -0.2499999999999939
    vertex 57.00000000000002 144.0 15.249999999999977
    vertex -33.0 144.0 15.249999999999977
  endloop
endfacet
facet normal 0.7071067811865477 -0.7071067811865474 -1.4156249499065263e-32
  outer loop
    vertex -33.0 144.0 -0.2499999999999939
    vertex -43.0 134.0 15.249999999999977
    vertex -43.0 134.0 -0.24999999999999478
  endloop
endfacet
facet normal 0.7071067811865477 -0.7071067811865474 -1.4156249499065263e-32
  outer loop
    vertex -43.0 134.0 15.249999999999977
    vertex -33.0 144.0 -0.2499999999999939
    vertex -33.0 144.0 15.249999999999977
  endloop
endfacet
facet normal 1.0 -0.0 -0.0
  outer loop
    vertex -43.0 134.0 -0.24999999999999478
    vertex -43.0 119.00000000000001 15.249999999999975
    vertex -43.0 119.00000000000001 -0.24999999999999614
  endloop
endfacet
facet normal 1.0 -0.0 -0.0
  outer loop
    vertex -43.0 119.00000000000001 15.249999999999975
    vertex -43.0 134.0 -0.24999999999999478
    vertex -43.0 134.0 15.249999999999977
  endloop
endfacet
facet normal 1.0 -0.0 -0.0
  outer loop
    vertex -43.0 119.00000000000001 -0.24999999999999614
    vertex -43.0 106.50000000000001 15.249999999999977
    vertex -43.0 106.50000000000001 -0.24999999999999506
  endloop
endfacet
facet normal 1.0 -0.0 -0.0
  outer loop
    vertex -43.0 106.50000000000001 15.249999999999977
    vertex -43.0 119.00000000000001 -0.24999999999999614
    vertex -43.0 119.00000000000001 15.249999999999975
  endloop
endfacet
facet normal 0.0 -1.0 0.0
  outer loop
    vertex 27.32106781186552 44.00000000000001 15.249999999999984
    vertex 42.750000000000014 44.00000000000001 7.321067811865453
    vertex 42.750000000000014 44.00000000000001 15.24999999999997
  endloop
endfacet
facet normal -3.026273061318102e-33 2.4639606995624405e-17 1.0
  outer loop
    vertex -63.0 96.04896972286578 20.24999999999998
    vertex -48.0 104.86314761920991 20.24999999999998
    vertex -63.0 154.42893218813452 20.24999999999998
  endloop
endfacet
facet normal -3.026273061318102e-33 2.4639606995624405e-17 1.0
  outer loop
    vertex -48.0 104.86314761920991 20.24999999999998
    vertex -63.0 96.04896972286578 20.24999999999998
    vertex -16.656764822977216 49.000000000000014 20.24999999999998
  endloop
endfacet
facet normal -3.026273061318102e-33 2.4639606995624405e-17 1.0
  outer loop
    vertex -63.0 154.42893218813452 20.24999999999998
    vertex -48.0 104.86314761920991 20.24999999999998
    vertex -53.42893218813452 164.00000000000003 20.24999999999998
  endloop
endfacet
facet normal -3.026273061318102e-33 2.4639606995624405e-17 1.0
  outer loop
    vertex -48.0 104.86314761920991 20.24999999999998
    vertex -16.656764822977216 49.000000000000014 20.24999999999998
    vertex -18.033691745912737 63.999999999999986 20.24999999999997
  endloop
endfacet
facet normal -3.026273061318102e-33 2.4639606995624405e-17 1.0
  outer loop
    vertex -18.033691745912737 63.999999999999986 20.24999999999997
    vertex -16.656764822977216 49.000000000000014 20.24999999999998
    vertex 42.0336917459128 64.0 20.24999999999997
  endloop
endfacet
facet normal -3.026273061318102e-33 2.4639606995624405e-17 1.0
  outer loop
    vertex 42.0336917459128 64.0 20.24999999999997
    vertex -16.656764822977216 49.000000000000014 20.24999999999998
    vertex -3.3210678118654657 49.000000000000014 20.249999999999982
  endloop
endfacet
facet normal -3.026273061318102e-33 2.4639606995624405e-17 1.0
  outer loop
    vertex 42.0336917459128 64.0 20.24999999999997
    vertex -3.3210678118654657 49.000000000000014 20.249999999999982
    vertex 27.32106781186552 49.000000000000014 20.249999999999982
  endloop
endfacet
facet normal -3.026273061318102e-33 2.4639606995624405e-17 1.0
  outer loop
    vertex 42.0336917459128 64.0 20.24999999999997
    vertex 27.32106781186552 49.000000000000014 20.249999999999982
    vertex 40.65676482297723 49.000000000000014 20.24999999999998
  endloop
endfacet
facet normal -3.026273061318102e-33 2.4639606995624405e-17 1.0
  outer loop
    vertex 42.0336917459128 64.0 20.24999999999997
    vertex 40.65676482297723 49.000000000000014 20.24999999999998
    vertex 87.00000000000001 96.04896972286578 20.24999999999998
  endloop
endfacet
facet normal -3.026273061318102e-33 2.4639606995624405e-17 1.0
  outer loop
    vertex 42.0336917459128 64.0 20.24999999999997
    vertex 87.00000000000001 96.04896972286578 20.24999999999998
    vertex 72.00000000000004 104.86314761920991 20.24999999999998
  endloop
endfacet
facet normal -3.026273061318102e-33 2.4639606995624405e-17 1.0
  outer loop
    vertex 72.00000000000004 104.86314761920991 20.24999999999998
    vertex 87.00000000000001 96.04896972286578 20.24999999999998
    vertex 77.42893218813455 164.00000000000003 20.24999999999998
  endloop
endfacet
facet normal -3.026273061318102e-33 2.4639606995624405e-17 1.0
  outer loop
    vertex 77.42893218813455 164.00000000000003 20.24999999999998
    vertex 87.00000000000001 96.04896972286578 20.24999999999998
    vertex 87.00000000000001 154.42893218813452 20.24999999999998
  endloop
endfacet
facet normal -3.026273061318102e-33 2.4639606995624405e-17 1.0
  outer loop
    vertex -53.42893218813452 164.00000000000003 20.24999999999998
    vertex -35.07106781186548 149.0 20.24999999999998
    vertex 77.42893218813455 164.00000000000003 20.24999999999998
  endloop
endfacet
facet normal -3.026273061318102e-33 2.4639606995624405e-17 1.0
  outer loop
    vertex -35.07106781186548 149.0 20.24999999999998
    vertex -53.42893218813452 164.00000000000003 20.24999999999998
    vertex -48.0 136.07106781186545 20.24999999999998
  endloop
endfacet
facet normal -3.026273061318102e-33 2.4639606995624405e-17 1.0
  outer loop
    vertex -48.0 136.07106781186545 20.24999999999998
    vertex -53.42893218813452 164.00000000000003 20.24999999999998
    vertex -48.0 104.86314761920991 20.24999999999998
  endloop
endfacet
facet normal -3.026273061318102e-33 2.4639606995624405e-17 1.0
  outer loop
    vertex 77.42893218813455 164.00000000000003 20.24999999999998
    vertex -35.07106781186548 149.0 20.24999999999998
    vertex 59.07106781186551 149.0 20.24999999999998
  endloop
endfacet
facet normal -3.026273061318102e-33 2.4639606995624405e-17 1.0
  outer loop
    vertex 77.42893218813455 164.00000000000003 20.24999999999998
    vertex 59.07106781186551 149.0 20.24999999999998
    vertex 72.00000000000003 136.07106781186548 20.24999999999998
  endloop
endfacet
facet normal -3.026273061318102e-33 2.4639606995624405e-17 1.0
  outer loop
    vertex 77.42893218813455 164.00000000000003 20.24999999999998
    vertex 72.00000000000003 136.07106781186548 20.24999999999998
    vertex 72.00000000000004 104.86314761920991 20.24999999999998
  endloop
endfacet
facet normal 5.3466811790079614e-33 -0.7071067811865481 0.7071067811865469
  outer loop
    vertex 59.07106781186551 149.0 20.24999999999998
    vertex -33.0 144.0 15.249999999999977
    vertex 57.00000000000002 144.0 15.249999999999977
  endloop
endfacet
facet normal 5.3466811790079614e-33 -0.7071067811865481 0.7071067811865469
  outer loop
    vertex -33.0 144.0 15.249999999999977
    vertex 59.07106781186551 149.0 20.24999999999998
    vertex -35.07106781186548 149.0 20.24999999999998
  endloop
endfacet
facet normal -0.5702144409522775 0.4181572566983366 0.7071067811865499
  outer loop
    vertex 42.0336917459128 64.0 20.24999999999997
    vertex 67.00000000000003 106.50000000000001 15.249999999999977
    vertex 39.50000000000004 69.00000000000001 15.249999999999972
  endloop
endfacet
facet normal -0.5702144409522775 0.4181572566983366 0.7071067811865499
  outer loop
    vertex 67.00000000000003 106.50000000000001 15.249999999999977
    vertex 42.0336917459128 64.0 20.24999999999997
    vertex 72.00000000000004 104.86314761920991 20.24999999999998
  endloop
endfacet
facet normal -2.0998072574629888e-16 0.7071067811865461 0.7071067811865489
  outer loop
    vertex 42.0336917459128 64.0 20.24999999999997
    vertex -15.50000000000001 69.00000000000001 15.249999999999972
    vertex -18.033691745912737 63.999999999999986 20.24999999999997
  endloop
endfacet
facet normal -2.0998072574629888e-16 0.7071067811865461 0.7071067811865489
  outer loop
    vertex -15.50000000000001 69.00000000000001 15.249999999999972
    vertex 42.0336917459128 64.0 20.24999999999997
    vertex 39.50000000000004 69.00000000000001 15.249999999999972
  endloop
endfacet
facet normal -0.707106781186547 -1.4773054343182448e-16 0.7071067811865481
  outer loop
    vertex 72.00000000000004 104.86314761920991 20.24999999999998
    vertex 67.00000000000003 134.0 15.249999999999977
    vertex 67.00000000000003 106.50000000000001 15.249999999999977
  endloop
endfacet
facet normal -0.707106781186547 -1.4773054343182448e-16 0.7071067811865481
  outer loop
    vertex 67.00000000000003 134.0 15.249999999999977
    vertex 72.00000000000004 104.86314761920991 20.24999999999998
    vertex 72.00000000000003 136.07106781186548 20.24999999999998
  endloop
endfacet
facet normal -0.49999999999999967 -0.49999999999999967 0.707106781186548
  outer loop
    vertex 67.00000000000003 134.0 15.249999999999977
    vertex 59.07106781186551 149.0 20.24999999999998
    vertex 57.00000000000002 144.0 15.249999999999977
  endloop
endfacet
facet normal -0.49999999999999967 -0.49999999999999967 0.707106781186548
  outer loop
    vertex 59.07106781186551 149.0 20.24999999999998
    vertex 67.00000000000003 134.0 15.249999999999977
    vertex 72.00000000000003 136.07106781186548 20.24999999999998
  endloop
endfacet
facet normal -0.5037639544351303 -0.49620749511860335 0.7071067811865485
  outer loop
    vertex -18.75 44.00000000000001 15.249999999999972
    vertex -63.0 96.04896972286578 20.24999999999998
    vertex -68.0 94.00000000000001 15.249999999999975
  endloop
endfacet
facet normal -0.5037639544351303 -0.49620749511860335 0.7071067811865485
  outer loop
    vertex -63.0 96.04896972286578 20.24999999999998
    vertex -18.75 44.00000000000001 15.249999999999972
    vertex -16.656764822977216 49.000000000000014 20.24999999999998
  endloop
endfacet
facet normal -0.7071067811865476 1.7314143809763432e-18 0.7071067811865476
  outer loop
    vertex -63.0 96.04896972286578 20.24999999999998
    vertex -68.0 156.5 15.249999999999975
    vertex -68.0 94.00000000000001 15.249999999999975
  endloop
endfacet
facet normal -0.7071067811865476 1.7314143809763432e-18 0.7071067811865476
  outer loop
    vertex -68.0 156.5 15.249999999999975
    vertex -63.0 96.04896972286578 20.24999999999998
    vertex -63.0 154.42893218813452 20.24999999999998
  endloop
endfacet
facet normal -0.5000000000000001 0.49999999999999994 0.7071067811865476
  outer loop
    vertex -63.0 154.42893218813452 20.24999999999998
    vertex -55.5 169.0 15.249999999999975
    vertex -68.0 156.5 15.249999999999975
  endloop
endfacet
facet normal -0.5000000000000001 0.49999999999999994 0.7071067811865476
  outer loop
    vertex -55.5 169.0 15.249999999999975
    vertex -63.0 154.42893218813452 20.24999999999998
    vertex -53.42893218813452 164.00000000000003 20.24999999999998
  endloop
endfacet
facet normal 0.7071067811865475 -6.140360942340743e-19 0.7071067811865476
  outer loop
    vertex -43.0 106.50000000000001 15.249999999999977
    vertex -48.0 136.07106781186545 20.24999999999998
    vertex -48.0 104.86314761920991 20.24999999999998
  endloop
endfacet
facet normal 0.7071067811865475 -6.140360942340743e-19 0.7071067811865476
  outer loop
    vertex -48.0 136.07106781186545 20.24999999999998
    vertex -43.0 106.50000000000001 15.249999999999977
    vertex -43.0 134.0 15.249999999999977
  endloop
endfacet
facet normal 0.7071067811865475 -6.140360942340743e-19 0.7071067811865476
  outer loop
    vertex -43.0 134.0 15.249999999999977
    vertex -43.0 106.50000000000001 15.249999999999977
    vertex -43.0 119.00000000000001 15.249999999999975
  endloop
endfacet
facet normal 0.5000000000000008 -0.5000000000000002 0.7071067811865469
  outer loop
    vertex -43.0 134.0 15.249999999999977
    vertex -35.07106781186548 149.0 20.24999999999998
    vertex -48.0 136.07106781186545 20.24999999999998
  endloop
endfacet
facet normal 0.5000000000000008 -0.5000000000000002 0.7071067811865469
  outer loop
    vertex -35.07106781186548 149.0 20.24999999999998
    vertex -43.0 134.0 15.249999999999977
    vertex -33.0 144.0 15.249999999999977
  endloop
endfacet
facet normal 0.7071067811865474 5.453273640870372e-21 0.7071067811865477
  outer loop
    vertex 92.00000000000003 94.00000000000001 15.249999999999977
    vertex 87.00000000000001 154.42893218813452 20.24999999999998
    vertex 87.00000000000001 96.04896972286578 20.24999999999998
  endloop
endfacet
facet normal 0.7071067811865474 5.453273640870372e-21 0.7071067811865477
  outer loop
    vertex 87.00000000000001 154.42893218813452 20.24999999999998
    vertex 92.00000000000003 94.00000000000001 15.249999999999977
    vertex 92.00000000000003 156.5 15.249999999999977
  endloop
endfacet
facet normal 0.5702144409522806 0.4181572566983388 0.7071067811865459
  outer loop
    vertex -18.033691745912737 63.999999999999986 20.24999999999997
    vertex -43.0 106.50000000000001 15.249999999999977
    vertex -48.0 104.86314761920991 20.24999999999998
  endloop
endfacet
facet normal 0.5702144409522806 0.4181572566983388 0.7071067811865459
  outer loop
    vertex -43.0 106.50000000000001 15.249999999999977
    vertex -18.033691745912737 63.999999999999986 20.24999999999997
    vertex -15.50000000000001 69.00000000000001 15.249999999999972
  endloop
endfacet
facet normal 0.5037639544351334 -0.4962074951186067 0.7071067811865439
  outer loop
    vertex 42.750000000000014 44.00000000000001 15.24999999999997
    vertex 87.00000000000001 96.04896972286578 20.24999999999998
    vertex 40.65676482297723 49.000000000000014 20.24999999999998
  endloop
endfacet
facet normal 0.5037639544351334 -0.4962074951186067 0.7071067811865439
  outer loop
    vertex 87.00000000000001 96.04896972286578 20.24999999999998
    vertex 42.750000000000014 44.00000000000001 15.24999999999997
    vertex 92.00000000000003 94.00000000000001 15.249999999999977
  endloop
endfacet
facet normal 0.5000000000000003 0.49999999999999994 0.7071067811865475
  outer loop
    vertex 87.00000000000001 154.42893218813452 20.24999999999998
    vertex 79.50000000000003 169.0 15.249999999999977
    vertex 77.42893218813455 164.00000000000003 20.24999999999998
  endloop
endfacet
facet normal 0.5000000000000003 0.49999999999999994 0.7071067811865475
  outer loop
    vertex 79.50000000000003 169.0 15.249999999999977
    vertex 87.00000000000001 154.42893218813452 20.24999999999998
    vertex 92.00000000000003 156.5 15.249999999999977
  endloop
endfacet
facet normal -7.164043790691357e-18 0.7071067811865482 0.7071067811865468
  outer loop
    vertex -53.42893218813452 164.00000000000003 20.24999999999998
    vertex 79.50000000000003 169.0 15.249999999999977
    vertex -55.5 169.0 15.249999999999975
  endloop
endfacet
facet normal -7.164043790691357e-18 0.7071067811865482 0.7071067811865468
  outer loop
    vertex 79.50000000000003 169.0 15.249999999999977
    vertex -53.42893218813452 164.00000000000003 20.24999999999998
    vertex 77.42893218813455 164.00000000000003 20.24999999999998
  endloop
endfacet
facet normal 1.2739905769444455e-17 -0.7071067811865476 0.7071067811865475
  outer loop
    vertex 40.65676482297723 49.000000000000014 20.24999999999998
    vertex 27.32106781186552 44.00000000000001 15.249999999999984
    vertex 42.750000000000014 44.00000000000001 15.24999999999997
  endloop
endfacet
facet normal 1.2739905769444455e-17 -0.7071067811865476 0.7071067811865475
  outer loop
    vertex 27.32106781186552 44.00000000000001 15.249999999999984
    vertex 40.65676482297723 49.000000000000014 20.24999999999998
    vertex -3.3210678118654657 44.00000000000001 15.249999999999984
  endloop
endfacet
facet normal 1.2739905769444455e-17 -0.7071067811865476 0.7071067811865475
  outer loop
    vertex -3.3210678118654657 44.00000000000001 15.249999999999984
    vertex -16.656764822977216 49.000000000000014 20.24999999999998
    vertex -18.75 44.00000000000001 15.249999999999972
  endloop
endfacet
facet normal 1.2739905769444455e-17 -0.7071067811865476 0.7071067811865475
  outer loop
    vertex -16.656764822977216 49.000000000000014 20.24999999999998
    vertex -3.3210678118654657 44.00000000000001 15.249999999999984
    vertex 40.65676482297723 49.000000000000014 20.24999999999998
  endloop
endfacet
facet normal 1.2739905769444455e-17 -0.7071067811865476 0.7071067811865475
  outer loop
    vertex -16.656764822977216 49.000000000000014 20.24999999999998
    vertex 40.65676482297723 49.000000000000014 20.24999999999998
    vertex 27.32106781186552 49.000000000000014 20.249999999999982
  endloop
endfacet
facet normal 1.2739905769444455e-17 -0.7071067811865476 0.7071067811865475
  outer loop
    vertex -16.656764822977216 49.000000000000014 20.24999999999998
    vertex 27.32106781186552 49.000000000000014 20.249999999999982
    vertex -3.3210678118654657 49.000000000000014 20.249999999999982
  endloop
endfacet
facet normal 0.4999999999999951 0.49999999999999833 -0.7071067811865521
  outer loop
    vertex 79.50000000000003 169.0 -0.24999999999999403
    vertex 87.00000000000004 154.4289321881345 -5.25000000000001
    vertex 77.4289321881345 163.99999999999986 -5.25000000000001
  endloop
endfacet
facet normal 0.4999999999999951 0.49999999999999833 -0.7071067811865521
  outer loop
    vertex 87.00000000000004 154.4289321881345 -5.25000000000001
    vertex 79.50000000000003 169.0 -0.24999999999999403
    vertex 92.00000000000003 156.5 -0.2499999999999939
  endloop
endfacet
facet normal 7.164043790691647e-18 0.707106781186538 -0.7071067811865571
  outer loop
    vertex 79.50000000000003 169.0 -0.24999999999999403
    vertex -53.42893218813455 163.99999999999986 -5.25000000000001
    vertex -55.5 169.0 -0.24999999999999628
  endloop
endfacet
facet normal 7.164043790691647e-18 0.707106781186538 -0.7071067811865571
  outer loop
    vertex -53.42893218813455 163.99999999999986 -5.25000000000001
    vertex 79.50000000000003 169.0 -0.24999999999999403
    vertex 77.4289321881345 163.99999999999986 -5.25000000000001
  endloop
endfacet
facet normal 0.4999999999999986 -0.49999999999999956 -0.7071067811865489
  outer loop
    vertex -35.07106781186553 148.99999999999997 -5.25000000000001
    vertex -43.0 134.0 -0.24999999999999478
    vertex -48.00000000000005 136.0710678118655 -5.25000000000001
  endloop
endfacet
facet normal 0.4999999999999986 -0.49999999999999956 -0.7071067811865489
  outer loop
    vertex -43.0 134.0 -0.24999999999999478
    vertex -35.07106781186553 148.99999999999997 -5.25000000000001
    vertex -33.0 144.0 -0.2499999999999939
  endloop
endfacet
facet normal 0.70710678118655 -7.634583097218513e-20 -0.707106781186545
  outer loop
    vertex 87.00000000000004 96.04896972286579 -5.25000000000001
    vertex 92.00000000000003 156.5 -0.2499999999999939
    vertex 92.00000000000003 94.00000000000001 -0.2499999999999939
  endloop
endfacet
facet normal 0.70710678118655 -7.634583097218513e-20 -0.707106781186545
  outer loop
    vertex 92.00000000000003 156.5 -0.2499999999999939
    vertex 87.00000000000004 96.04896972286579 -5.25000000000001
    vertex 87.00000000000004 154.4289321881345 -5.25000000000001
  endloop
endfacet
facet normal 0.7071067811865452 -1.8421082827021936e-18 -0.7071067811865499
  outer loop
    vertex -43.0 134.0 -0.24999999999999478
    vertex -48.00000000000005 104.86314761920993 -5.25000000000001
    vertex -48.00000000000005 136.0710678118655 -5.25000000000001
  endloop
endfacet
facet normal 0.7071067811865452 -1.8421082827021936e-18 -0.7071067811865499
  outer loop
    vertex -48.00000000000005 104.86314761920993 -5.25000000000001
    vertex -43.0 134.0 -0.24999999999999478
    vertex -43.0 106.50000000000001 -0.24999999999999506
  endloop
endfacet
facet normal 0.7071067811865452 -1.8421082827021936e-18 -0.7071067811865499
  outer loop
    vertex -43.0 106.50000000000001 -0.24999999999999506
    vertex -43.0 134.0 -0.24999999999999478
    vertex -43.0 119.00000000000001 -0.24999999999999614
  endloop
endfacet
facet normal -0.5000000000000027 -0.5000000000000022 -0.707106781186544
  outer loop
    vertex 59.07106781186549 148.99999999999997 -5.25000000000001
    vertex 67.00000000000003 134.0 -0.2499999999999939
    vertex 57.00000000000002 144.0 -0.2499999999999939
  endloop
endfacet
facet normal -0.5000000000000027 -0.5000000000000022 -0.707106781186544
  outer loop
    vertex 67.00000000000003 134.0 -0.2499999999999939
    vertex 59.07106781186549 148.99999999999997 -5.25000000000001
    vertex 71.99999999999993 136.0710678118655 -5.25000000000001
  endloop
endfacet
facet normal -0.7071067811865498 6.856128284984275e-18 -0.7071067811865452
  outer loop
    vertex -68.0 156.5 -0.24999999999999645
    vertex -63.00000000000002 96.04896972286579 -5.25000000000001
    vertex -68.0 94.00000000000001 -0.2499999999999973
  endloop
endfacet
facet normal -0.7071067811865498 6.856128284984275e-18 -0.7071067811865452
  outer loop
    vertex -63.00000000000002 96.04896972286579 -5.25000000000001
    vertex -68.0 156.5 -0.24999999999999645
    vertex -63.00000000000002 154.4289321881345 -5.25000000000001
  endloop
endfacet
facet normal -0.4999999999999973 0.4999999999999989 -0.7071067811865502
  outer loop
    vertex -55.5 169.0 -0.24999999999999628
    vertex -63.00000000000002 154.4289321881345 -5.25000000000001
    vertex -68.0 156.5 -0.24999999999999645
  endloop
endfacet
facet normal -0.4999999999999973 0.4999999999999989 -0.7071067811865502
  outer loop
    vertex -63.00000000000002 154.4289321881345 -5.25000000000001
    vertex -55.5 169.0 -0.24999999999999628
    vertex -53.42893218813455 163.99999999999986 -5.25000000000001
  endloop
endfacet
facet normal -1.2190433088138112e-31 -0.7071067811865508 -0.7071067811865442
  outer loop
    vertex 57.00000000000002 144.0 -0.2499999999999939
    vertex -35.07106781186553 148.99999999999997 -5.25000000000001
    vertex 59.07106781186549 148.99999999999997 -5.25000000000001
  endloop
endfacet
facet normal -1.2190433088138112e-31 -0.7071067811865508 -0.7071067811865442
  outer loop
    vertex -35.07106781186553 148.99999999999997 -5.25000000000001
    vertex 57.00000000000002 144.0 -0.2499999999999939
    vertex -33.0 144.0 -0.2499999999999939
  endloop
endfacet
facet normal -0.7071067811865548 1.8443263849166722e-19 -0.7071067811865402
  outer loop
    vertex 67.00000000000003 106.50000000000001 -0.2499999999999939
    vertex 71.99999999999993 136.0710678118655 -5.25000000000001
    vertex 71.99999999999993 104.86314761920993 -5.25000000000001
  endloop
endfacet
facet normal -0.7071067811865548 1.8443263849166722e-19 -0.7071067811865402
  outer loop
    vertex 71.99999999999993 136.0710678118655 -5.25000000000001
    vertex 67.00000000000003 106.50000000000001 -0.2499999999999939
    vertex 67.00000000000003 134.0 -0.2499999999999939
  endloop
endfacet
facet normal 0.5037639544351322 -0.49620749511860485 -0.7071067811865459
  outer loop
    vertex 92.00000000000003 94.00000000000001 -0.2499999999999939
    vertex 82.14999999999999 83.99999999999999 -0.2500000000000046
    vertex 87.00000000000004 96.04896972286579 -5.25000000000001
  endloop
endfacet
facet normal -1.198305542939574e-16 -0.3832822576440092 -0.9236312635328622
  outer loop
    vertex 71.99999999999993 96.04896972286579 -5.25000000000001
    vertex 82.14999999999999 83.99999999999999 -0.2500000000000046
    vertex 50.50000000000002 84.0 -0.25000000000000555
  endloop
endfacet
facet normal -1.198305542939574e-16 -0.3832822576440092 -0.9236312635328622
  outer loop
    vertex 82.14999999999999 83.99999999999999 -0.2500000000000046
    vertex 71.99999999999993 96.04896972286579 -5.25000000000001
    vertex 87.00000000000004 96.04896972286579 -5.25000000000001
  endloop
endfacet
facet normal -0.7071067811865549 0.0 -0.7071067811865402
  outer loop
    vertex 67.00000000000003 106.50000000000001 -0.2499999999999939
    vertex 71.99999999999993 104.86314761920993 -5.25000000000001
    vertex 71.99999999999993 96.04896972286579 -5.25000000000001
  endloop
endfacet
facet normal -0.354597808510012 0.2600383929073426 -0.8981316320083952
  outer loop
    vertex 71.99999999999993 96.04896972286579 -5.25000000000001
    vertex 50.50000000000002 84.0 -0.25000000000000555
    vertex 67.00000000000003 106.50000000000001 -0.2499999999999939
  endloop
endfacet
facet normal 0.0 0.0 -1.0
  outer loop
    vertex -53.42893218813455 163.99999999999986 -5.25000000000001
    vertex -35.07106781186553 148.99999999999997 -5.25000000000001
    vertex -48.00000000000005 136.0710678118655 -5.25000000000001
  endloop
endfacet
facet normal 0.0 0.0 -1.0
  outer loop
    vertex -35.07106781186553 148.99999999999997 -5.25000000000001
    vertex -53.42893218813455 163.99999999999986 -5.25000000000001
    vertex 77.4289321881345 163.99999999999986 -5.25000000000001
  endloop
endfacet
facet normal 0.0 0.0 -1.0
  outer loop
    vertex -35.07106781186553 148.99999999999997 -5.25000000000001
    vertex 77.4289321881345 163.99999999999986 -5.25000000000001
    vertex 59.07106781186549 148.99999999999997 -5.25000000000001
  endloop
endfacet
facet normal 0.0 0.0 -1.0
  outer loop
    vertex 59.07106781186549 148.99999999999997 -5.25000000000001
    vertex 77.4289321881345 163.99999999999986 -5.25000000000001
    vertex 71.99999999999993 136.0710678118655 -5.25000000000001
  endloop
endfacet
facet normal 0.0 0.0 -1.0
  outer loop
    vertex 71.99999999999993 136.0710678118655 -5.25000000000001
    vertex 77.4289321881345 163.99999999999986 -5.25000000000001
    vertex 71.99999999999993 104.86314761920993 -5.25000000000001
  endloop
endfacet
facet normal 0.0 0.0 -1.0
  outer loop
    vertex 71.99999999999993 104.86314761920993 -5.25000000000001
    vertex 77.4289321881345 163.99999999999986 -5.25000000000001
    vertex 71.99999999999993 96.04896972286579 -5.25000000000001
  endloop
endfacet
facet normal 0.0 0.0 -1.0
  outer loop
    vertex 71.99999999999993 96.04896972286579 -5.25000000000001
    vertex 77.4289321881345 163.99999999999986 -5.25000000000001
    vertex 87.00000000000004 96.04896972286579 -5.25000000000001
  endloop
endfacet
facet normal 0.0 0.0 -1.0
  outer loop
    vertex 87.00000000000004 96.04896972286579 -5.25000000000001
    vertex 77.4289321881345 163.99999999999986 -5.25000000000001
    vertex 87.00000000000004 154.4289321881345 -5.25000000000001
  endloop
endfacet
facet normal 0.0 0.0 -1.0
  outer loop
    vertex -53.42893218813455 163.99999999999986 -5.25000000000001
    vertex -63.00000000000002 96.04896972286579 -5.25000000000001
    vertex -63.00000000000002 154.4289321881345 -5.25000000000001
  endloop
endfacet
facet normal 0.0 0.0 -1.0
  outer loop
    vertex -63.00000000000002 96.04896972286579 -5.25000000000001
    vertex -53.42893218813455 163.99999999999986 -5.25000000000001
    vertex -48.00000000000005 96.04896972286579 -5.25000000000001
  endloop
endfacet
facet normal 0.0 0.0 -1.0
  outer loop
    vertex -48.00000000000005 96.04896972286579 -5.25000000000001
    vertex -53.42893218813455 163.99999999999986 -5.25000000000001
    vertex -48.00000000000005 136.0710678118655 -5.25000000000001
  endloop
endfacet
facet normal 0.0 0.0 -1.0
  outer loop
    vertex -48.00000000000005 96.04896972286579 -5.25000000000001
    vertex -48.00000000000005 136.0710678118655 -5.25000000000001
    vertex -48.00000000000005 104.86314761920993 -5.25000000000001
  endloop
endfacet
facet normal 0.7071067811865452 0.0 -0.7071067811865499
  outer loop
    vertex -43.0 106.50000000000001 -0.24999999999999506
    vertex -48.00000000000005 96.04896972286579 -5.25000000000001
    vertex -48.00000000000005 104.86314761920993 -5.25000000000001
  endloop
endfacet
facet normal 0.35459780851000894 0.26003839290734027 -0.8981316320083971
  outer loop
    vertex -26.500000000000004 84.0 -0.2500000000000054
    vertex -48.00000000000005 96.04896972286579 -5.25000000000001
    vertex -43.0 106.50000000000001 -0.24999999999999506
  endloop
endfacet
facet normal -2.90516808119928e-18 6.652814444745527e-17 -1.0
  outer loop
    vertex -26.500000000000004 84.0 -0.2500000000000054
    vertex -18.75 44.00000000000001 -0.24999999999999953
    vertex -58.14999999999999 84.0 -0.2500000000000057
  endloop
endfacet
facet normal -2.90516808119928e-18 6.652814444745527e-17 -1.0
  outer loop
    vertex -18.75 44.00000000000001 -0.24999999999999953
    vertex -26.500000000000004 84.0 -0.2500000000000054
    vertex -15.50000000000001 69.00000000000001 -0.24999999999999858
  endloop
endfacet
facet normal -2.90516808119928e-18 6.652814444745527e-17 -1.0
  outer loop
    vertex -18.75 44.00000000000001 -0.24999999999999953
    vertex -15.50000000000001 69.00000000000001 -0.24999999999999858
    vertex -3.3210678118655053 44.00000000000001 -0.25000000000001366
  endloop
endfacet
facet normal -2.90516808119928e-18 6.652814444745527e-17 -1.0
  outer loop
    vertex -3.3210678118655053 44.00000000000001 -0.25000000000001366
    vertex -15.50000000000001 69.00000000000001 -0.24999999999999858
    vertex 39.50000000000004 69.00000000000001 -0.2499999999999998
  endloop
endfacet
facet normal -2.90516808119928e-18 6.652814444745527e-17 -1.0
  outer loop
    vertex -3.3210678118655053 44.00000000000001 -0.25000000000001366
    vertex 39.50000000000004 69.00000000000001 -0.2499999999999998
    vertex 27.32106781186549 44.00000000000001 -0.25000000000001366
  endloop
endfacet
facet normal -2.90516808119928e-18 6.652814444745527e-17 -1.0
  outer loop
    vertex 27.32106781186549 44.00000000000001 -0.25000000000001366
    vertex 39.50000000000004 69.00000000000001 -0.2499999999999998
    vertex 42.750000000000014 44.00000000000001 -0.2500000000000024
  endloop
endfacet
facet normal -2.90516808119928e-18 6.652814444745527e-17 -1.0
  outer loop
    vertex 42.750000000000014 44.00000000000001 -0.2500000000000024
    vertex 39.50000000000004 69.00000000000001 -0.2499999999999998
    vertex 50.50000000000002 84.0 -0.25000000000000555
  endloop
endfacet
facet normal -2.90516808119928e-18 6.652814444745527e-17 -1.0
  outer loop
    vertex 42.750000000000014 44.00000000000001 -0.2500000000000024
    vertex 50.50000000000002 84.0 -0.25000000000000555
    vertex 82.14999999999999 83.99999999999999 -0.2500000000000046
  endloop
endfacet
facet normal -0.5037639544351323 -0.4962074951186046 -0.7071067811865462
  outer loop
    vertex -58.14999999999999 84.0 -0.2500000000000057
    vertex -68.0 94.00000000000001 -0.2499999999999973
    vertex -63.00000000000002 96.04896972286579 -5.25000000000001
  endloop
endfacet
facet normal 1.4978819286744734e-17 -0.3832822576440093 -0.923631263532862
  outer loop
    vertex -48.00000000000005 96.04896972286579 -5.25000000000001
    vertex -58.14999999999999 84.0 -0.2500000000000057
    vertex -63.00000000000002 96.04896972286579 -5.25000000000001
  endloop
endfacet
facet normal 1.4978819286744734e-17 -0.3832822576440093 -0.923631263532862
  outer loop
    vertex -58.14999999999999 84.0 -0.2500000000000057
    vertex -48.00000000000005 96.04896972286579 -5.25000000000001
    vertex -26.500000000000004 84.0 -0.2500000000000054
  endloop
endfacet
endsolid Carry Handle
