solid Platform Stand
facet normal -0.9673309612377575 -0.2076688753377187 -0.14541131196300786
  outer loop
    vertex 0.0 4.924038765061177 7.632950336665048
    vertex 1.9999999999999962 -0.9442021232735094 2.7089115716040286
    vertex 1.9999999999999962 -5.0 8.501191224999676
  endloop
endfacet
facet normal 0.9673309612377575 -0.2076688753377187 -0.14541131196300783
  outer loop
    vertex 53.80000000000001 4.924038765061177 7.632950336665048
    vertex 51.80000000000002 -5.0 8.501191224999676
    vertex 51.80000000000002 -0.9442021232735094 2.7089115716040286
  endloop
endfacet
facet normal 0.0 -0.9848077530121971 0.1736481776669933
  outer loop
    vertex 53.80000000000001 49.155583556100005 174.40445710973083
    vertex 0.0 19.475880136706213 6.082494695740156
    vertex 53.80000000000001 19.475880136706213 6.082494695740156
  endloop
endfacet
facet normal 0.0 -0.9848077530121971 0.1736481776669933
  outer loop
    vertex 0.0 19.475880136706213 6.082494695740156
    vertex 53.80000000000001 49.155583556100005 174.40445710973083
    vertex 0.0 49.155583556100005 174.40445710973083
  endloop
endfacet
facet normal -0.0 0.17364817766700227 0.9848077530121955
  outer loop
    vertex 53.80000000000001 49.155583556100005 174.40445710973083
    vertex 0.0 50.140391309112225 174.2308089320638
    vertex 0.0 49.155583556100005 174.40445710973083
  endloop
endfacet
facet normal -0.0 0.17364817766700227 0.9848077530121955
  outer loop
    vertex 0.0 50.140391309112225 174.2308089320638
    vertex 53.80000000000001 49.155583556100005 174.40445710973083
    vertex 53.80000000000001 50.140391309112225 174.2308089320638
  endloop
endfacet
facet normal -0.0 0.1736481776669267 0.9848077530122088
  outer loop
    vertex 53.80000000000001 6.082494695740206 8.444109912010353
    vertex 0.0 19.475880136706213 6.082494695740156
    vertex 0.0 6.082494695740206 8.444109912010353
  endloop
endfacet
facet normal -0.0 0.1736481776669267 0.9848077530122088
  outer loop
    vertex 0.0 19.475880136706213 6.082494695740156
    vertex 53.80000000000001 6.082494695740206 8.444109912010353
    vertex 53.80000000000001 19.475880136706213 6.082494695740156
  endloop
endfacet
facet normal -0.0 0.17364817766691532 0.9848077530122109
  outer loop
    vertex 53.80000000000001 7.30301879909796 21.124816552932316
    vertex 0.0 8.583268878013808 20.89907392196533
    vertex 0.0 7.30301879909796 21.124816552932316
  endloop
endfacet
facet normal -0.0 0.17364817766691532 0.9848077530122109
  outer loop
    vertex 0.0 8.583268878013808 20.89907392196533
    vertex 53.80000000000001 7.30301879909796 21.124816552932316
    vertex 53.80000000000001 8.583268878013808 20.89907392196533
  endloop
endfacet
facet normal -0.0 0.9848077530122092 -0.17364817766692384
  outer loop
    vertex 0.0 6.4297910510740515 10.413725418034758
    vertex 53.80000000000001 6.082494695740206 8.444109912010353
    vertex 0.0 6.082494695740206 8.444109912010353
  endloop
endfacet
facet normal -0.0 0.9848077530122092 -0.17364817766692384
  outer loop
    vertex 53.80000000000001 6.082494695740206 8.444109912010353
    vertex 0.0 6.4297910510740515 10.413725418034758
    vertex 53.80000000000001 6.4297910510740515 10.413725418034758
  endloop
endfacet
facet normal -0.0 0.9848077530122092 -0.17364817766692323
  outer loop
    vertex 0.0 8.583268878013808 20.89907392196533
    vertex 53.80000000000001 7.22013068332845 13.168333060819421
    vertex 0.0 7.22013068332845 13.168333060819421
  endloop
endfacet
facet normal -0.0 0.9848077530122092 -0.17364817766692323
  outer loop
    vertex 53.80000000000001 7.22013068332845 13.168333060819421
    vertex 0.0 8.583268878013808 20.89907392196533
    vertex 53.80000000000001 8.583268878013808 20.89907392196533
  endloop
endfacet
facet normal -0.0 0.9612183583889049 -0.27578844699540783
  outer loop
    vertex 0.0 7.22013068332845 13.168333060819421
    vertex 53.80000000000001 6.4297910510740515 10.413725418034758
    vertex 0.0 6.4297910510740515 10.413725418034758
  endloop
endfacet
facet normal -0.0 0.9612183583889049 -0.27578844699540783
  outer loop
    vertex 53.80000000000001 6.4297910510740515 10.413725418034758
    vertex 0.0 7.22013068332845 13.168333060819421
    vertex 53.80000000000001 7.22013068332845 13.168333060819421
  endloop
endfacet
facet normal -5.474998467107144e-19 -0.20452013209152095 0.9788623578263019
  outer loop
    vertex 2.0000000000000018 2.031683678703151 20.023441935242577
    vertex 53.80000000000001 7.30301879909796 21.124816552932316
    vertex 0.0 7.30301879909796 21.124816552932316
  endloop
endfacet
facet normal -5.474998467107144e-19 -0.20452013209152095 0.9788623578263019
  outer loop
    vertex 53.80000000000001 7.30301879909796 21.124816552932316
    vertex 2.0000000000000018 2.031683678703151 20.023441935242577
    vertex 51.80000000000002 2.031683678703151 20.023441935242577
  endloop
endfacet
facet normal -1.2424288924525514e-17 -0.8191520442889828 -0.5735764363510589
  outer loop
    vertex 51.80000000000002 -0.9442021232735094 2.7089115716040286
    vertex 1.9999999999999962 0.952598179507207 7.049916206369744e-16
    vertex 51.80000000000002 0.952598179507207 -1.4099832412739487e-15
  endloop
endfacet
facet normal -1.2424288924525514e-17 -0.8191520442889828 -0.5735764363510589
  outer loop
    vertex 1.9999999999999962 0.952598179507207 7.049916206369744e-16
    vertex 51.80000000000002 -0.9442021232735094 2.7089115716040286
    vertex 1.9999999999999962 -0.9442021232735094 2.7089115716040286
  endloop
endfacet
facet normal 0.0 -0.819152044288983 -0.5735764363510587
  outer loop
    vertex 51.80000000000002 -5.0 8.501191224999676
    vertex 1.9999999999999962 -0.9442021232735094 2.7089115716040286
    vertex 51.80000000000002 -0.9442021232735094 2.7089115716040286
  endloop
endfacet
facet normal 0.0 -0.819152044288983 -0.5735764363510587
  outer loop
    vertex 1.9999999999999962 -0.9442021232735094 2.7089115716040286
    vertex 51.80000000000002 -5.0 8.501191224999676
    vertex 1.9999999999999962 -5.0 8.501191224999676
  endloop
endfacet
facet normal 1.0 -0.0 -0.0
  outer loop
    vertex 51.80000000000002 19.418798823716845 0.0
    vertex 51.80000000000002 -0.9442021232735094 2.7089115716040286
    vertex 51.80000000000002 0.952598179507207 -1.4099832412739487e-15
  endloop
endfacet
facet normal -1.0 3.05419239927098e-16 2.1385685411124111e-16
  outer loop
    vertex 2.0000000000000018 19.418798823716845 0.0
    vertex 1.9999999999999962 0.952598179507207 7.049916206369744e-16
    vertex 1.9999999999999962 -0.9442021232735094 2.7089115716040286
  endloop
endfacet
facet normal -1.0 0.0 0.0
  outer loop
    vertex 0.0 6.082494695740206 8.444109912010353
    vertex 0.0 20.287039712051484 4.924038765061026
    vertex 0.0 4.924038765061177 7.632950336665048
  endloop
endfacet
facet normal -1.0 0.0 0.0
  outer loop
    vertex 0.0 20.287039712051484 4.924038765061026
    vertex 0.0 6.082494695740206 8.444109912010353
    vertex 0.0 19.475880136706213 6.082494695740156
  endloop
endfacet
facet normal -1.0 0.0 0.0
  outer loop
    vertex 0.0 20.287039712051484 4.924038765061026
    vertex 0.0 19.475880136706213 6.082494695740156
    vertex 0.0 20.46068788971848 5.908846518073219
  endloop
endfacet
facet normal -1.0 0.0 0.0
  outer loop
    vertex 0.0 7.30301879909796 21.124816552932316
    vertex 0.0 6.082494695740206 8.444109912010353
    vertex 0.0 4.924038765061177 7.632950336665048
  endloop
endfacet
facet normal -1.0 0.0 0.0
  outer loop
    vertex 0.0 6.082494695740206 8.444109912010353
    vertex 0.0 7.30301879909796 21.124816552932316
    vertex 0.0 6.4297910510740515 10.413725418034758
  endloop
endfacet
facet normal -1.0 0.0 0.0
  outer loop
    vertex 0.0 6.4297910510740515 10.413725418034758
    vertex 0.0 7.30301879909796 21.124816552932316
    vertex 0.0 7.22013068332845 13.168333060819421
  endloop
endfacet
facet normal -1.0 0.0 0.0
  outer loop
    vertex 0.0 7.22013068332845 13.168333060819421
    vertex 0.0 7.30301879909796 21.124816552932316
    vertex 0.0 8.583268878013808 20.89907392196533
  endloop
endfacet
facet normal 1.0 -0.0 -0.0
  outer loop
    vertex 53.80000000000001 20.46068788971848 5.908846518073219
    vertex 53.80000000000001 49.155583556100005 174.40445710973083
    vertex 53.80000000000001 19.475880136706213 6.082494695740156
  endloop
endfacet
facet normal 1.0 -0.0 -0.0
  outer loop
    vertex 53.80000000000001 49.155583556100005 174.40445710973083
    vertex 53.80000000000001 20.46068788971848 5.908846518073219
    vertex 53.80000000000001 50.140391309112225 174.2308089320638
  endloop
endfacet
facet normal 1.0 -0.0 -0.0
  outer loop
    vertex 53.80000000000001 20.287039712051484 4.924038765061026
    vertex 53.80000000000001 6.082494695740206 8.444109912010353
    vertex 53.80000000000001 4.924038765061177 7.632950336665048
  endloop
endfacet
facet normal 1.0 -0.0 -0.0
  outer loop
    vertex 53.80000000000001 6.082494695740206 8.444109912010353
    vertex 53.80000000000001 20.287039712051484 4.924038765061026
    vertex 53.80000000000001 19.475880136706213 6.082494695740156
  endloop
endfacet
facet normal 1.0 -0.0 -0.0
  outer loop
    vertex 53.80000000000001 19.475880136706213 6.082494695740156
    vertex 53.80000000000001 20.287039712051484 4.924038765061026
    vertex 53.80000000000001 20.46068788971848 5.908846518073219
  endloop
endfacet
facet normal 1.0 -0.0 -0.0
  outer loop
    vertex 53.80000000000001 6.082494695740206 8.444109912010353
    vertex 53.80000000000001 7.30301879909796 21.124816552932316
    vertex 53.80000000000001 4.924038765061177 7.632950336665048
  endloop
endfacet
facet normal 1.0 -0.0 -0.0
  outer loop
    vertex 53.80000000000001 7.30301879909796 21.124816552932316
    vertex 53.80000000000001 6.082494695740206 8.444109912010353
    vertex 53.80000000000001 6.4297910510740515 10.413725418034758
  endloop
endfacet
facet normal 1.0 -0.0 -0.0
  outer loop
    vertex 53.80000000000001 7.30301879909796 21.124816552932316
    vertex 53.80000000000001 6.4297910510740515 10.413725418034758
    vertex 53.80000000000001 7.22013068332845 13.168333060819421
  endloop
endfacet
facet normal 1.0 -0.0 -0.0
  outer loop
    vertex 53.80000000000001 7.30301879909796 21.124816552932316
    vertex 53.80000000000001 7.22013068332845 13.168333060819421
    vertex 53.80000000000001 8.583268878013808 20.89907392196533
  endloop
endfacet
facet normal -1.0 0.0 0.0
  outer loop
    vertex 0.0 49.155583556100005 174.40445710973083
    vertex 0.0 20.46068788971848 5.908846518073219
    vertex 0.0 19.475880136706213 6.082494695740156
  endloop
endfacet
facet normal -1.0 0.0 0.0
  outer loop
    vertex 0.0 20.46068788971848 5.908846518073219
    vertex 0.0 49.155583556100005 174.40445710973083
    vertex 0.0 50.140391309112225 174.2308089320638
  endloop
endfacet
facet normal 4.365623430139419e-35 -3.778916561223366e-19 -1.0
  outer loop
    vertex 2.000000000000005 170.0 -5.690337949339639e-17
    vertex 51.80000000000002 19.418798823716845 0.0
    vertex 2.0000000000000018 19.418798823716845 0.0
  endloop
endfacet
facet normal 4.365623430139419e-35 -3.778916561223366e-19 -1.0
  outer loop
    vertex 51.80000000000002 19.418798823716845 0.0
    vertex 2.000000000000005 170.0 -5.690337949339639e-17
    vertex 51.80000000000002 170.0 -5.690337949339639e-17
  endloop
endfacet
facet normal 0.9264922121558641 1.1098868359922268e-19 -0.3763139391711836
  outer loop
    vertex 51.80000000000002 170.0 -5.690337949339639e-17
    vertex 53.80000000000001 20.287039712051484 4.924038765061026
    vertex 51.80000000000002 19.418798823716845 0.0
  endloop
endfacet
facet normal 0.9264922121558641 1.1098868359922268e-19 -0.3763139391711836
  outer loop
    vertex 53.80000000000001 20.287039712051484 4.924038765061026
    vertex 51.80000000000002 170.0 -5.690337949339639e-17
    vertex 53.80000000000001 175.0 4.924038765061026
  endloop
endfacet
facet normal 1.0 -0.0 -0.0
  outer loop
    vertex 53.80000000000001 175.0 4.924038765061026
    vertex 53.80000000000001 20.46068788971848 5.908846518073219
    vertex 53.80000000000001 20.287039712051484 4.924038765061026
  endloop
endfacet
facet normal 1.0 -0.0 -0.0
  outer loop
    vertex 53.80000000000001 20.46068788971848 5.908846518073219
    vertex 53.80000000000001 175.0 4.924038765061026
    vertex 53.80000000000001 175.0 5.908846518073219
  endloop
endfacet
facet normal -7.21301868062032e-20 0.7016738431598629 -0.7124982932086702
  outer loop
    vertex 53.80000000000001 175.0 4.924038765061026
    vertex 2.000000000000005 170.0 -5.690337949339639e-17
    vertex 0.0 175.0 4.924038765061026
  endloop
endfacet
facet normal -7.21301868062032e-20 0.7016738431598629 -0.7124982932086702
  outer loop
    vertex 2.000000000000005 170.0 -5.690337949339639e-17
    vertex 53.80000000000001 175.0 4.924038765061026
    vertex 51.80000000000002 170.0 -5.690337949339639e-17
  endloop
endfacet
facet normal -0.0 1.0 -0.0
  outer loop
    vertex 0.0 175.0 5.908846518073219
    vertex 53.80000000000001 175.0 4.924038765061026
    vertex 0.0 175.0 4.924038765061026
  endloop
endfacet
facet normal -0.0 1.0 -0.0
  outer loop
    vertex 53.80000000000001 175.0 4.924038765061026
    vertex 0.0 175.0 5.908846518073219
    vertex 53.80000000000001 175.0 5.908846518073219
  endloop
endfacet
facet normal -1.0 0.0 0.0
  outer loop
    vertex 0.0 20.46068788971848 5.908846518073219
    vertex 0.0 175.0 4.924038765061026
    vertex 0.0 20.287039712051484 4.924038765061026
  endloop
endfacet
facet normal -1.0 0.0 0.0
  outer loop
    vertex 0.0 175.0 4.924038765061026
    vertex 0.0 20.46068788971848 5.908846518073219
    vertex 0.0 175.0 5.908846518073219
  endloop
endfacet
facet normal -0.9264922121558637 9.101072055136256e-18 -0.3763139391711848
  outer loop
    vertex 0.0 20.287039712051484 4.924038765061026
    vertex 2.000000000000005 170.0 -5.690337949339639e-17
    vertex 2.0000000000000018 19.418798823716845 0.0
  endloop
endfacet
facet normal -0.9264922121558637 9.101072055136256e-18 -0.3763139391711848
  outer loop
    vertex 2.000000000000005 170.0 -5.690337949339639e-17
    vertex 0.0 20.287039712051484 4.924038765061026
    vertex 0.0 175.0 4.924038765061026
  endloop
endfacet
facet normal 2.063877342056236e-16 0.17364817766700166 0.9848077530121955
  outer loop
    vertex 53.80000000000001 50.140391309112225 174.2308089320638
    vertex 0.0 55.064430074173174 173.36256804372883
    vertex 0.0 50.140391309112225 174.2308089320638
  endloop
endfacet
facet normal 2.063877342056236e-16 0.17364817766700166 0.9848077530121955
  outer loop
    vertex 0.0 55.064430074173174 173.36256804372883
    vertex 53.80000000000001 50.140391309112225 174.2308089320638
    vertex 53.80000000000001 55.064430074173174 173.3625680437288
  endloop
endfacet
facet normal -1.0 0.0 0.0
  outer loop
    vertex 5.639932965095795e-15 39.097307636791015 82.80851685302694
    vertex 2.255973186038318e-14 42.81245307339326 86.19045437472968
    vertex 5.639932965095795e-15 92.72524301045195 10.908846518073219
  endloop
endfacet
facet normal -1.0 0.0 0.0
  outer loop
    vertex 2.255973186038318e-14 42.81245307339326 86.19045437472968
    vertex 5.639932965095795e-15 39.097307636791015 82.80851685302694
    vertex -2.255973186038318e-14 40.5752693724804 91.19045437472967
  endloop
endfacet
facet normal -1.0 0.0 0.0
  outer loop
    vertex 5.639932965095795e-15 92.72524301045195 10.908846518073219
    vertex 2.255973186038318e-14 42.81245307339326 86.19045437472968
    vertex 2.255973186038318e-14 94.5187904464999 16.86709546764452
  endloop
endfacet
facet normal -1.0 0.0 0.0
  outer loop
    vertex 0.0 50.140391309112225 174.2308089320638
    vertex 5.639932965095795e-15 26.419455852689918 10.908846518073219
    vertex 0.0 20.46068788971848 5.908846518073219
  endloop
endfacet
facet normal -1.0 0.0 0.0
  outer loop
    vertex 5.639932965095795e-15 26.419455852689918 10.908846518073219
    vertex 0.0 50.140391309112225 174.2308089320638
    vertex 5.639932965095795e-15 39.097307636791015 82.80851685302694
  endloop
endfacet
facet normal -1.0 0.0 0.0
  outer loop
    vertex 5.639932965095795e-15 39.097307636791015 82.80851685302694
    vertex 0.0 50.140391309112225 174.2308089320638
    vertex -2.255973186038318e-14 40.5752693724804 91.19045437472967
  endloop
endfacet
facet normal -1.0 0.0 0.0
  outer loop
    vertex -2.255973186038318e-14 40.5752693724804 91.19045437472967
    vertex 0.0 50.140391309112225 174.2308089320638
    vertex -2.255973186038318e-14 53.84944798872823 166.47206223138613
  endloop
endfacet
facet normal -1.0 0.0 0.0
  outer loop
    vertex -2.255973186038318e-14 53.84944798872823 166.47206223138613
    vertex 0.0 50.140391309112225 174.2308089320638
    vertex 0.0 55.064430074173174 173.36256804372883
  endloop
endfacet
facet normal -1.0 0.0 0.0
  outer loop
    vertex -2.255973186038318e-14 53.84944798872823 166.47206223138613
    vertex 0.0 55.064430074173174 173.36256804372883
    vertex -2.255973186038318e-14 94.5187904464999 91.19045437472967
  endloop
endfacet
facet normal -1.0 0.0 0.0
  outer loop
    vertex -2.255973186038318e-14 94.5187904464999 91.19045437472967
    vertex 0.0 55.064430074173174 173.36256804372883
    vertex 0.0 101.78252565155945 89.63570728090102
  endloop
endfacet
facet normal -1.0 0.0 0.0
  outer loop
    vertex -2.255973186038318e-14 94.5187904464999 91.19045437472967
    vertex 0.0 101.78252565155945 89.63570728090102
    vertex 2.255973186038318e-14 95.54746859914054 86.19045437472968
  endloop
endfacet
facet normal -1.0 0.0 0.0
  outer loop
    vertex 2.255973186038318e-14 95.54746859914054 86.19045437472968
    vertex 0.0 101.78252565155945 89.63570728090102
    vertex 2.8199664825478975e-15 99.5187904464999 83.42263723253623
  endloop
endfacet
facet normal -1.0 0.0 0.0
  outer loop
    vertex 2.8199664825478975e-15 99.5187904464999 83.42263723253623
    vertex 0.0 101.78252565155945 89.63570728090102
    vertex -1.6919798895287383e-14 165.268667377125 10.908846518073219
  endloop
endfacet
facet normal -1.0 0.0 0.0
  outer loop
    vertex -1.6919798895287383e-14 165.268667377125 10.908846518073219
    vertex 0.0 101.78252565155945 89.63570728090102
    vertex 0.0 175.0 5.908846518073219
  endloop
endfacet
facet normal -1.0 0.0 0.0
  outer loop
    vertex 5.639932965095795e-15 26.419455852689918 10.908846518073219
    vertex 0.0 175.0 5.908846518073219
    vertex 0.0 20.46068788971848 5.908846518073219
  endloop
endfacet
facet normal -1.0 0.0 0.0
  outer loop
    vertex 0.0 175.0 5.908846518073219
    vertex 5.639932965095795e-15 26.419455852689918 10.908846518073219
    vertex 5.639932965095795e-15 92.72524301045195 10.908846518073219
  endloop
endfacet
facet normal -1.0 0.0 0.0
  outer loop
    vertex 0.0 175.0 5.908846518073219
    vertex 5.639932965095795e-15 92.72524301045195 10.908846518073219
    vertex 2.8199664825478975e-15 99.5187904464999 10.908846518073219
  endloop
endfacet
facet normal -1.0 0.0 0.0
  outer loop
    vertex 2.8199664825478975e-15 99.5187904464999 10.908846518073219
    vertex 5.639932965095795e-15 92.72524301045195 10.908846518073219
    vertex 2.255973186038318e-14 94.5187904464999 16.86709546764452
  endloop
endfacet
facet normal -1.0 0.0 0.0
  outer loop
    vertex 2.8199664825478975e-15 99.5187904464999 10.908846518073219
    vertex 2.255973186038318e-14 94.5187904464999 16.86709546764452
    vertex 2.255973186038318e-14 95.54746859914054 86.19045437472968
  endloop
endfacet
facet normal -1.0 0.0 0.0
  outer loop
    vertex 2.8199664825478975e-15 99.5187904464999 10.908846518073219
    vertex 2.255973186038318e-14 95.54746859914054 86.19045437472968
    vertex 2.8199664825478975e-15 99.5187904464999 83.42263723253623
  endloop
endfacet
facet normal -1.0 0.0 0.0
  outer loop
    vertex 0.0 175.0 5.908846518073219
    vertex 2.8199664825478975e-15 99.5187904464999 10.908846518073219
    vertex -1.6919798895287383e-14 165.268667377125 10.908846518073219
  endloop
endfacet
facet normal -1.0 0.0 0.0
  outer loop
    vertex -2.255973186038318e-14 94.5187904464999 91.19045437472967
    vertex 2.255973186038318e-14 42.81245307339326 86.19045437472968
    vertex -2.255973186038318e-14 40.5752693724804 91.19045437472967
  endloop
endfacet
facet normal -1.0 0.0 0.0
  outer loop
    vertex 2.255973186038318e-14 42.81245307339326 86.19045437472968
    vertex -2.255973186038318e-14 94.5187904464999 91.19045437472967
    vertex 2.255973186038318e-14 95.54746859914054 86.19045437472968
  endloop
endfacet
facet normal 6.516069280963443e-17 0.7527706096227312 0.6582829249556925
  outer loop
    vertex 0.0 101.78252565155945 89.63570728090102
    vertex 53.80000000000001 175.0 5.908846518073219
    vertex 0.0 175.0 5.908846518073219
  endloop
endfacet
facet normal 6.516069280963443e-17 0.7527706096227312 0.6582829249556925
  outer loop
    vertex 53.80000000000001 175.0 5.908846518073219
    vertex 0.0 101.78252565155945 89.63570728090102
    vertex 53.80000000000001 101.78252565155945 89.635707280901
  endloop
endfacet
facet normal 0.0 -0.9998899226087347 0.014837205447758904
  outer loop
    vertex 53.80000000000001 95.54746859914054 86.19045437472968
    vertex 2.255973186038318e-14 94.5187904464999 16.86709546764452
    vertex 53.80000000000001 94.5187904464999 16.86709546764452
  endloop
endfacet
facet normal 0.0 -0.9998899226087347 0.014837205447758904
  outer loop
    vertex 2.255973186038318e-14 94.5187904464999 16.86709546764452
    vertex 53.80000000000001 95.54746859914054 86.19045437472968
    vertex 2.255973186038318e-14 95.54746859914054 86.19045437472968
  endloop
endfacet
facet normal 0.0 0.0 -1.0
  outer loop
    vertex 53.80000000000001 95.54746859914054 86.19045437472968
    vertex 2.255973186038318e-14 42.81245307339326 86.19045437472968
    vertex 2.255973186038318e-14 95.54746859914054 86.19045437472968
  endloop
endfacet
facet normal 0.0 0.0 -1.0
  outer loop
    vertex 2.255973186038318e-14 42.81245307339326 86.19045437472968
    vertex 53.80000000000001 95.54746859914054 86.19045437472968
    vertex 53.80000000000001 42.81245307339326 86.19045437472968
  endloop
endfacet
facet normal 0.0 0.8015855735978149 0.5978800617179522
  outer loop
    vertex 2.255973186038318e-14 42.81245307339326 86.19045437472968
    vertex 53.80000000000001 94.5187904464999 16.86709546764452
    vertex 2.255973186038318e-14 94.5187904464999 16.86709546764452
  endloop
endfacet
facet normal 0.0 0.8015855735978149 0.5978800617179522
  outer loop
    vertex 53.80000000000001 94.5187904464999 16.86709546764452
    vertex 2.255973186038318e-14 42.81245307339326 86.19045437472968
    vertex 53.80000000000001 42.81245307339326 86.19045437472968
  endloop
endfacet
facet normal 6.570484627312228e-33 -0.8015855735978148 -0.5978800617179522
  outer loop
    vertex 53.80000000000001 39.097307636791015 82.80851685302694
    vertex 5.639932965095795e-15 92.72524301045195 10.908846518073219
    vertex 53.80000000000001 92.72524301045195 10.908846518073219
  endloop
endfacet
facet normal 6.570484627312228e-33 -0.8015855735978148 -0.5978800617179522
  outer loop
    vertex 5.639932965095795e-15 92.72524301045195 10.908846518073219
    vertex 53.80000000000001 39.097307636791015 82.80851685302694
    vertex 5.639932965095795e-15 39.097307636791015 82.80851685302694
  endloop
endfacet
facet normal -1.9083303742281357e-33 0.9848077530121971 -0.1736481776669931
  outer loop
    vertex 5.639932965095795e-15 39.097307636791015 82.80851685302694
    vertex 53.80000000000001 26.419455852689918 10.908846518073219
    vertex 5.639932965095795e-15 26.419455852689918 10.908846518073219
  endloop
endfacet
facet normal -1.9083303742281357e-33 0.9848077530121971 -0.1736481776669931
  outer loop
    vertex 53.80000000000001 26.419455852689918 10.908846518073219
    vertex 5.639932965095795e-15 39.097307636791015 82.80851685302694
    vertex 53.80000000000001 39.097307636791015 82.80851685302694
  endloop
endfacet
facet normal -0.0 -2.126485939936376e-17 1.0
  outer loop
    vertex 53.80000000000001 26.419455852689918 10.908846518073219
    vertex 5.639932965095795e-15 92.72524301045195 10.908846518073219
    vertex 5.639932965095795e-15 26.419455852689918 10.908846518073219
  endloop
endfacet
facet normal -0.0 -2.126485939936376e-17 1.0
  outer loop
    vertex 5.639932965095795e-15 92.72524301045195 10.908846518073219
    vertex 53.80000000000001 26.419455852689918 10.908846518073219
    vertex 53.80000000000001 92.72524301045195 10.908846518073219
  endloop
endfacet
facet normal -0.0 0.9848077530121971 -0.17364817766699306
  outer loop
    vertex -2.255973186038318e-14 53.84944798872823 166.47206223138613
    vertex 53.80000000000001 40.5752693724804 91.19045437472967
    vertex -2.255973186038318e-14 40.5752693724804 91.19045437472967
  endloop
endfacet
facet normal -0.0 0.9848077530121971 -0.17364817766699306
  outer loop
    vertex 53.80000000000001 40.5752693724804 91.19045437472967
    vertex -2.255973186038318e-14 53.84944798872823 166.47206223138613
    vertex 53.80000000000001 53.84944798872823 166.47206223138613
  endloop
endfacet
facet normal -0.0 -0.0 1.0
  outer loop
    vertex 53.80000000000001 40.5752693724804 91.19045437472967
    vertex -2.255973186038318e-14 94.5187904464999 91.19045437472967
    vertex -2.255973186038318e-14 40.5752693724804 91.19045437472967
  endloop
endfacet
facet normal -0.0 -0.0 1.0
  outer loop
    vertex -2.255973186038318e-14 94.5187904464999 91.19045437472967
    vertex 53.80000000000001 40.5752693724804 91.19045437472967
    vertex 53.80000000000001 94.5187904464999 91.19045437472967
  endloop
endfacet
facet normal 0.0 -0.8798209785212053 -0.4753052132619512
  outer loop
    vertex 53.80000000000001 53.84944798872823 166.47206223138613
    vertex -2.255973186038318e-14 94.5187904464999 91.19045437472967
    vertex 53.80000000000001 94.5187904464999 91.19045437472967
  endloop
endfacet
facet normal 0.0 -0.8798209785212053 -0.4753052132619512
  outer loop
    vertex -2.255973186038318e-14 94.5187904464999 91.19045437472967
    vertex 53.80000000000001 53.84944798872823 166.47206223138613
    vertex -2.255973186038318e-14 53.84944798872823 166.47206223138613
  endloop
endfacet
facet normal 1.4469594033974874e-16 0.873256176546145 0.4872613776239691
  outer loop
    vertex 0.0 101.78252565155945 89.63570728090102
    vertex 53.80000000000001 55.064430074173174 173.3625680437288
    vertex 53.80000000000001 101.78252565155945 89.635707280901
  endloop
endfacet
facet normal 1.4469594033974874e-16 0.873256176546145 0.4872613776239691
  outer loop
    vertex 53.80000000000001 55.064430074173174 173.3625680437288
    vertex 0.0 101.78252565155945 89.63570728090102
    vertex 0.0 55.064430074173174 173.36256804372883
  endloop
endfacet
facet normal -0.0 -0.0 1.0
  outer loop
    vertex 2.8199664825478975e-15 99.5187904464999 10.908846518073219
    vertex 53.80000000000001 165.268667377125 10.908846518073219
    vertex -1.6919798895287383e-14 165.268667377125 10.908846518073219
  endloop
endfacet
facet normal -0.0 -0.0 1.0
  outer loop
    vertex 53.80000000000001 165.268667377125 10.908846518073219
    vertex 2.8199664825478975e-15 99.5187904464999 10.908846518073219
    vertex 53.80000000000001 99.5187904464999 10.908846518073219
  endloop
endfacet
facet normal -0.0 1.0 -0.0
  outer loop
    vertex 2.8199664825478975e-15 99.5187904464999 83.42263723253623
    vertex 53.80000000000001 99.5187904464999 10.908846518073219
    vertex 2.8199664825478975e-15 99.5187904464999 10.908846518073219
  endloop
endfacet
facet normal -0.0 1.0 -0.0
  outer loop
    vertex 53.80000000000001 99.5187904464999 10.908846518073219
    vertex 2.8199664825478975e-15 99.5187904464999 83.42263723253623
    vertex 53.80000000000001 99.5187904464999 83.42263723253623
  endloop
endfacet
facet normal -2.052013854857406e-17 -0.7408127981626841 -0.6717115438031226
  outer loop
    vertex 53.80000000000001 99.5187904464999 83.42263723253623
    vertex -1.6919798895287383e-14 165.268667377125 10.908846518073219
    vertex 53.80000000000001 165.268667377125 10.908846518073219
  endloop
endfacet
facet normal -2.052013854857406e-17 -0.7408127981626841 -0.6717115438031226
  outer loop
    vertex -1.6919798895287383e-14 165.268667377125 10.908846518073219
    vertex 53.80000000000001 99.5187904464999 83.42263723253623
    vertex 2.8199664825478975e-15 99.5187904464999 83.42263723253623
  endloop
endfacet
facet normal 1.0 -0.0 -0.0
  outer loop
    vertex 53.80000000000001 26.419455852689918 10.908846518073219
    vertex 53.80000000000001 50.140391309112225 174.2308089320638
    vertex 53.80000000000001 20.46068788971848 5.908846518073219
  endloop
endfacet
facet normal 1.0 -0.0 -0.0
  outer loop
    vertex 53.80000000000001 50.140391309112225 174.2308089320638
    vertex 53.80000000000001 26.419455852689918 10.908846518073219
    vertex 53.80000000000001 39.097307636791015 82.80851685302694
  endloop
endfacet
facet normal 1.0 -0.0 -0.0
  outer loop
    vertex 53.80000000000001 50.140391309112225 174.2308089320638
    vertex 53.80000000000001 39.097307636791015 82.80851685302694
    vertex 53.80000000000001 40.5752693724804 91.19045437472967
  endloop
endfacet
facet normal 1.0 -0.0 -0.0
  outer loop
    vertex 53.80000000000001 50.140391309112225 174.2308089320638
    vertex 53.80000000000001 40.5752693724804 91.19045437472967
    vertex 53.80000000000001 53.84944798872823 166.47206223138613
  endloop
endfacet
facet normal 1.0 -0.0 -0.0
  outer loop
    vertex 53.80000000000001 42.81245307339326 86.19045437472968
    vertex 53.80000000000001 94.5187904464999 91.19045437472967
    vertex 53.80000000000001 40.5752693724804 91.19045437472967
  endloop
endfacet
facet normal 1.0 -0.0 -0.0
  outer loop
    vertex 53.80000000000001 94.5187904464999 91.19045437472967
    vertex 53.80000000000001 42.81245307339326 86.19045437472968
    vertex 53.80000000000001 95.54746859914054 86.19045437472968
  endloop
endfacet
facet normal 1.0 -0.0 -0.0
  outer loop
    vertex 53.80000000000001 175.0 5.908846518073219
    vertex 53.80000000000001 26.419455852689918 10.908846518073219
    vertex 53.80000000000001 20.46068788971848 5.908846518073219
  endloop
endfacet
facet normal 1.0 -0.0 -0.0
  outer loop
    vertex 53.80000000000001 26.419455852689918 10.908846518073219
    vertex 53.80000000000001 175.0 5.908846518073219
    vertex 53.80000000000001 92.72524301045195 10.908846518073219
  endloop
endfacet
facet normal 1.0 -0.0 -0.0
  outer loop
    vertex 53.80000000000001 92.72524301045195 10.908846518073219
    vertex 53.80000000000001 175.0 5.908846518073219
    vertex 53.80000000000001 99.5187904464999 10.908846518073219
  endloop
endfacet
facet normal 1.0 -0.0 -0.0
  outer loop
    vertex 53.80000000000001 92.72524301045195 10.908846518073219
    vertex 53.80000000000001 99.5187904464999 10.908846518073219
    vertex 53.80000000000001 94.5187904464999 16.86709546764452
  endloop
endfacet
facet normal 1.0 -0.0 -0.0
  outer loop
    vertex 53.80000000000001 94.5187904464999 16.86709546764452
    vertex 53.80000000000001 99.5187904464999 10.908846518073219
    vertex 53.80000000000001 95.54746859914054 86.19045437472968
  endloop
endfacet
facet normal 1.0 -0.0 -0.0
  outer loop
    vertex 53.80000000000001 99.5187904464999 10.908846518073219
    vertex 53.80000000000001 175.0 5.908846518073219
    vertex 53.80000000000001 165.268667377125 10.908846518073219
  endloop
endfacet
facet normal 1.0 -0.0 -0.0
  outer loop
    vertex 53.80000000000001 94.5187904464999 91.19045437472967
    vertex 53.80000000000001 55.064430074173174 173.3625680437288
    vertex 53.80000000000001 53.84944798872823 166.47206223138613
  endloop
endfacet
facet normal 1.0 -0.0 -0.0
  outer loop
    vertex 53.80000000000001 55.064430074173174 173.3625680437288
    vertex 53.80000000000001 94.5187904464999 91.19045437472967
    vertex 53.80000000000001 101.78252565155945 89.635707280901
  endloop
endfacet
facet normal 1.0 -0.0 -0.0
  outer loop
    vertex 53.80000000000001 101.78252565155945 89.635707280901
    vertex 53.80000000000001 94.5187904464999 91.19045437472967
    vertex 53.80000000000001 95.54746859914054 86.19045437472968
  endloop
endfacet
facet normal 1.0 -0.0 -0.0
  outer loop
    vertex 53.80000000000001 101.78252565155945 89.635707280901
    vertex 53.80000000000001 95.54746859914054 86.19045437472968
    vertex 53.80000000000001 99.5187904464999 83.42263723253623
  endloop
endfacet
facet normal 1.0 -0.0 -0.0
  outer loop
    vertex 53.80000000000001 99.5187904464999 83.42263723253623
    vertex 53.80000000000001 95.54746859914054 86.19045437472968
    vertex 53.80000000000001 99.5187904464999 10.908846518073219
  endloop
endfacet
facet normal 1.0 -0.0 -0.0
  outer loop
    vertex 53.80000000000001 101.78252565155945 89.635707280901
    vertex 53.80000000000001 99.5187904464999 83.42263723253623
    vertex 53.80000000000001 165.268667377125 10.908846518073219
  endloop
endfacet
facet normal 1.0 -0.0 -0.0
  outer loop
    vertex 53.80000000000001 101.78252565155945 89.635707280901
    vertex 53.80000000000001 165.268667377125 10.908846518073219
    vertex 53.80000000000001 175.0 5.908846518073219
  endloop
endfacet
facet normal 1.0 -0.0 -0.0
  outer loop
    vertex 53.80000000000001 39.097307636791015 82.80851685302694
    vertex 53.80000000000001 42.81245307339326 86.19045437472968
    vertex 53.80000000000001 40.5752693724804 91.19045437472967
  endloop
endfacet
facet normal 1.0 -0.0 -0.0
  outer loop
    vertex 53.80000000000001 42.81245307339326 86.19045437472968
    vertex 53.80000000000001 39.097307636791015 82.80851685302694
    vertex 53.80000000000001 92.72524301045195 10.908846518073219
  endloop
endfacet
facet normal 1.0 -0.0 -0.0
  outer loop
    vertex 53.80000000000001 42.81245307339326 86.19045437472968
    vertex 53.80000000000001 92.72524301045195 10.908846518073219
    vertex 53.80000000000001 94.5187904464999 16.86709546764452
  endloop
endfacet
facet normal 1.0 -0.0 -0.0
  outer loop
    vertex 53.80000000000001 55.064430074173174 173.3625680437288
    vertex 53.80000000000001 50.140391309112225 174.2308089320638
    vertex 53.80000000000001 53.84944798872823 166.47206223138613
  endloop
endfacet
facet normal -2.1234687368583556e-17 1.908870249544363e-17 -1.0
  outer loop
    vertex 2.0000000000000018 19.418798823716845 0.0
    vertex 51.80000000000002 0.952598179507207 -1.4099832412739487e-15
    vertex 1.9999999999999962 0.952598179507207 7.049916206369744e-16
  endloop
endfacet
facet normal -2.1234687368583556e-17 1.908870249544363e-17 -1.0
  outer loop
    vertex 51.80000000000002 0.952598179507207 -1.4099832412739487e-15
    vertex 2.0000000000000018 19.418798823716845 0.0
    vertex 51.80000000000002 19.418798823716845 0.0
  endloop
endfacet
facet normal -0.942772437937473 -0.04397008781941479 -0.3305249788481748
  outer loop
    vertex 2.0000000000000018 19.418798823716845 0.0
    vertex 1.9999999999999962 -0.9442021232735094 2.7089115716040286
    vertex 0.0 4.924038765061177 7.632950336665048
  endloop
endfacet
facet normal -0.928476690885259 -0.06449131415137747 -0.36574841746997055
  outer loop
    vertex 0.0 20.287039712051484 4.924038765061026
    vertex 2.0000000000000018 19.418798823716845 0.0
    vertex 0.0 4.924038765061177 7.632950336665048
  endloop
endfacet
facet normal 4.8040534545439196e-18 -0.8536011399893265 0.5209271482740387
  outer loop
    vertex 51.80000000000002 2.031683678703151 20.023441935242577
    vertex 1.9999999999999962 -5.0 8.501191224999676
    vertex 51.80000000000002 -5.0 8.501191224999676
  endloop
endfacet
facet normal 4.8040534545439196e-18 -0.8536011399893265 0.5209271482740387
  outer loop
    vertex 1.9999999999999962 -5.0 8.501191224999676
    vertex 51.80000000000002 2.031683678703151 20.023441935242577
    vertex 2.0000000000000018 2.031683678703151 20.023441935242577
  endloop
endfacet
facet normal 0.9427724379374732 -0.043970087819415 -0.3305249788481745
  outer loop
    vertex 51.80000000000002 19.418798823716845 0.0
    vertex 53.80000000000001 4.924038765061177 7.632950336665048
    vertex 51.80000000000002 -0.9442021232735094 2.7089115716040286
  endloop
endfacet
facet normal 0.9284766908852592 -0.06449131415137735 -0.36574841746996967
  outer loop
    vertex 53.80000000000001 20.287039712051484 4.924038765061026
    vertex 53.80000000000001 4.924038765061177 7.632950336665048
    vertex 51.80000000000002 19.418798823716845 0.0
  endloop
endfacet
facet normal -0.9757915862762405 -0.186684696773629 0.1139280656512556
  outer loop
    vertex 0.0 4.924038765061177 7.632950336665048
    vertex 1.9999999999999962 -5.0 8.501191224999676
    vertex 2.0000000000000018 2.031683678703151 20.023441935242577
  endloop
endfacet
facet normal -0.9284766908852576 -0.36574841746997416 0.0644913141513752
  outer loop
    vertex 0.0 7.30301879909796 21.124816552932316
    vertex 0.0 4.924038765061177 7.632950336665048
    vertex 2.0000000000000018 2.031683678703151 20.023441935242577
  endloop
endfacet
facet normal 0.9757915862762405 -0.18668469677362903 0.11392806565125514
  outer loop
    vertex 53.80000000000001 4.924038765061177 7.632950336665048
    vertex 51.80000000000002 2.031683678703151 20.023441935242577
    vertex 51.80000000000002 -5.0 8.501191224999676
  endloop
endfacet
facet normal 0.928476690885258 -0.3657484174699733 0.06449131415137505
  outer loop
    vertex 53.80000000000001 7.30301879909796 21.124816552932316
    vertex 51.80000000000002 2.031683678703151 20.023441935242577
    vertex 53.80000000000001 4.924038765061177 7.632950336665048
  endloop
endfacet
endsolid Platform Stand
