solid Platform corner leg
facet normal -0.0 -0.0 1.0
  outer loop
    vertex -7.049916206369744e-16 -7.049916206369744e-16 -0.030000000000000086
    vertex 9.339230023773139 10.93022028144287 -0.029999999999997265
    vertex -5.287437154777307e-16 52.79999999999999 -0.030000000000000086
  endloop
endfacet
facet normal -0.0 -0.0 1.0
  outer loop
    vertex 9.339230023773139 10.93022028144287 -0.029999999999997265
    vertex -7.049916206369744e-16 -7.049916206369744e-16 -0.030000000000000086
    vertex 9.564005974408554 10.38756313292354 -0.029999999999997265
  endloop
endfacet
facet normal -0.0 -0.0 1.0
  outer loop
    vertex 9.564005974408554 10.38756313292354 -0.029999999999997265
    vertex -7.049916206369744e-16 -7.049916206369744e-16 -0.030000000000000086
    vertex 9.921572875253808 9.921572875253808 -0.029999999999997265
  endloop
endfacet
facet normal -0.0 -0.0 1.0
  outer loop
    vertex 9.921572875253808 9.921572875253808 -0.029999999999997265
    vertex -7.049916206369744e-16 -7.049916206369744e-16 -0.030000000000000086
    vertex 10.38756313292354 9.564005974408552 -0.029999999999997265
  endloop
endfacet
facet normal -0.0 -0.0 1.0
  outer loop
    vertex 10.38756313292354 9.564005974408552 -0.029999999999997265
    vertex -7.049916206369744e-16 -7.049916206369744e-16 -0.030000000000000086
    vertex 10.93022028144287 9.339230023773135 -0.029999999999997265
  endloop
endfacet
facet normal -0.0 -0.0 1.0
  outer loop
    vertex 10.93022028144287 9.339230023773135 -0.029999999999997265
    vertex -7.049916206369744e-16 -7.049916206369744e-16 -0.030000000000000086
    vertex 52.800000000000004 -7.049916206369744e-16 -0.030000000000000086
  endloop
endfacet
facet normal -0.0 -0.0 1.0
  outer loop
    vertex -5.287437154777307e-16 52.79999999999999 -0.030000000000000086
    vertex 9.339230023773139 10.93022028144287 -0.029999999999997265
    vertex 9.262563132923542 11.512563132923539 -0.029999999999997265
  endloop
endfacet
facet normal -0.0 -0.0 1.0
  outer loop
    vertex 10.93022028144287 9.339230023773135 -0.029999999999997265
    vertex 52.800000000000004 -7.049916206369744e-16 -0.030000000000000086
    vertex 11.512563132923542 9.262563132923539 -0.029999999999997265
  endloop
endfacet
facet normal -0.0 -0.0 1.0
  outer loop
    vertex 11.512563132923542 9.262563132923539 -0.029999999999997265
    vertex 52.800000000000004 -7.049916206369744e-16 -0.030000000000000086
    vertex 12.094905984404212 9.339230023773135 -0.029999999999997265
  endloop
endfacet
facet normal -0.0 -0.0 1.0
  outer loop
    vertex 12.094905984404212 9.339230023773135 -0.029999999999997265
    vertex 52.800000000000004 -7.049916206369744e-16 -0.030000000000000086
    vertex 12.63756313292354 9.564005974408552 -0.029999999999997265
  endloop
endfacet
facet normal -0.0 -0.0 1.0
  outer loop
    vertex 12.63756313292354 9.564005974408552 -0.029999999999997265
    vertex 52.800000000000004 -7.049916206369744e-16 -0.030000000000000086
    vertex 13.103553390593273 9.921572875253808 -0.029999999999997265
  endloop
endfacet
facet normal -0.0 -0.0 1.0
  outer loop
    vertex 13.103553390593273 9.921572875253808 -0.029999999999997265
    vertex 52.800000000000004 -7.049916206369744e-16 -0.030000000000000086
    vertex 13.461120291438528 10.387563132923539 -0.029999999999997265
  endloop
endfacet
facet normal -0.0 -0.0 1.0
  outer loop
    vertex 13.461120291438528 10.387563132923539 -0.029999999999997265
    vertex 52.800000000000004 -7.049916206369744e-16 -0.030000000000000086
    vertex 13.685896242073945 10.930220281442866 -0.029999999999997265
  endloop
endfacet
facet normal -0.0 -0.0 1.0
  outer loop
    vertex 13.685896242073945 10.930220281442866 -0.029999999999997265
    vertex 52.800000000000004 -7.049916206369744e-16 -0.030000000000000086
    vertex 13.762563132923542 11.512563132923539 -0.029999999999997265
  endloop
endfacet
facet normal -0.0 -0.0 1.0
  outer loop
    vertex 13.762563132923542 11.512563132923539 -0.029999999999997265
    vertex 52.800000000000004 -7.049916206369744e-16 -0.030000000000000086
    vertex 19.000000000000004 18.999999999999996 -0.030000000000000086
  endloop
endfacet
facet normal -0.0 -0.0 1.0
  outer loop
    vertex 19.000000000000004 18.999999999999996 -0.030000000000000086
    vertex 52.800000000000004 -7.049916206369744e-16 -0.030000000000000086
    vertex 52.800000000000004 18.999999999999996 -0.030000000000000086
  endloop
endfacet
facet normal -0.0 -0.0 1.0
  outer loop
    vertex -5.287437154777307e-16 52.79999999999999 -0.030000000000000086
    vertex 9.339230023773139 12.094905984404212 -0.029999999999997265
    vertex 19.000000000000004 52.79999999999999 -0.030000000000000086
  endloop
endfacet
facet normal -0.0 -0.0 1.0
  outer loop
    vertex 9.339230023773139 12.094905984404212 -0.029999999999997265
    vertex -5.287437154777307e-16 52.79999999999999 -0.030000000000000086
    vertex 9.262563132923542 11.512563132923539 -0.029999999999997265
  endloop
endfacet
facet normal -0.0 -0.0 1.0
  outer loop
    vertex 19.000000000000004 52.79999999999999 -0.030000000000000086
    vertex 9.339230023773139 12.094905984404212 -0.029999999999997265
    vertex 9.564005974408555 12.63756313292354 -0.029999999999997265
  endloop
endfacet
facet normal -0.0 -0.0 1.0
  outer loop
    vertex 19.000000000000004 52.79999999999999 -0.030000000000000086
    vertex 9.564005974408555 12.63756313292354 -0.029999999999997265
    vertex 9.92157287525381 13.103553390593271 -0.029999999999997265
  endloop
endfacet
facet normal -0.0 -0.0 1.0
  outer loop
    vertex 19.000000000000004 52.79999999999999 -0.030000000000000086
    vertex 9.92157287525381 13.103553390593271 -0.029999999999997265
    vertex 10.387563132923542 13.461120291438528 -0.029999999999997265
  endloop
endfacet
facet normal -0.0 -0.0 1.0
  outer loop
    vertex 19.000000000000004 52.79999999999999 -0.030000000000000086
    vertex 10.387563132923542 13.461120291438528 -0.029999999999997265
    vertex 10.930220281442871 13.685896242073941 -0.029999999999997265
  endloop
endfacet
facet normal -0.0 -0.0 1.0
  outer loop
    vertex 19.000000000000004 52.79999999999999 -0.030000000000000086
    vertex 10.930220281442871 13.685896242073941 -0.029999999999997265
    vertex 11.512563132923542 13.762563132923539 -0.029999999999997265
  endloop
endfacet
facet normal -0.0 -0.0 1.0
  outer loop
    vertex 19.000000000000004 52.79999999999999 -0.030000000000000086
    vertex 11.512563132923542 13.762563132923539 -0.029999999999997265
    vertex 12.094905984404214 13.685896242073941 -0.029999999999997265
  endloop
endfacet
facet normal -0.0 -0.0 1.0
  outer loop
    vertex 19.000000000000004 52.79999999999999 -0.030000000000000086
    vertex 12.094905984404214 13.685896242073941 -0.029999999999997265
    vertex 12.637563132923542 13.461120291438528 -0.029999999999997265
  endloop
endfacet
facet normal -0.0 -0.0 1.0
  outer loop
    vertex 19.000000000000004 52.79999999999999 -0.030000000000000086
    vertex 12.637563132923542 13.461120291438528 -0.029999999999997265
    vertex 13.103553390593273 13.103553390593271 -0.029999999999997265
  endloop
endfacet
facet normal -0.0 -0.0 1.0
  outer loop
    vertex 19.000000000000004 52.79999999999999 -0.030000000000000086
    vertex 13.103553390593273 13.103553390593271 -0.029999999999997265
    vertex 13.46112029143853 12.637563132923539 -0.029999999999997265
  endloop
endfacet
facet normal -0.0 -0.0 1.0
  outer loop
    vertex 19.000000000000004 52.79999999999999 -0.030000000000000086
    vertex 13.46112029143853 12.637563132923539 -0.029999999999997265
    vertex 13.685896242073948 12.094905984404212 -0.029999999999997265
  endloop
endfacet
facet normal -0.0 -0.0 1.0
  outer loop
    vertex 19.000000000000004 52.79999999999999 -0.030000000000000086
    vertex 13.685896242073948 12.094905984404212 -0.029999999999997265
    vertex 13.762563132923542 11.512563132923539 -0.029999999999997265
  endloop
endfacet
facet normal -0.0 -0.0 1.0
  outer loop
    vertex 19.000000000000004 52.79999999999999 -0.030000000000000086
    vertex 13.762563132923542 11.512563132923539 -0.029999999999997265
    vertex 19.000000000000004 18.999999999999996 -0.030000000000000086
  endloop
endfacet
facet normal -0.0 -0.0 1.0
  outer loop
    vertex -1.0000000000000002 -1.0000000000000002 16.570000000000004
    vertex 10.700000000000001 10.700000000000001 16.570000000000004
    vertex -0.9999999999999978 50.8 16.570000000000004
  endloop
endfacet
facet normal -0.0 -0.0 1.0
  outer loop
    vertex 10.700000000000001 10.700000000000001 16.570000000000004
    vertex -1.0000000000000002 -1.0000000000000002 16.570000000000004
    vertex 50.79999999999999 -1.0000000000000007 16.570000000000004
  endloop
endfacet
facet normal -0.0 -0.0 1.0
  outer loop
    vertex -0.9999999999999978 50.8 16.570000000000004
    vertex 10.700000000000001 10.700000000000001 16.570000000000004
    vertex 10.7 50.8 16.570000000000004
  endloop
endfacet
facet normal -0.0 -0.0 1.0
  outer loop
    vertex 10.700000000000001 10.700000000000001 16.570000000000004
    vertex 50.79999999999999 -1.0000000000000007 16.570000000000004
    vertex 50.79999999999999 10.7 16.570000000000004
  endloop
endfacet
facet normal -0.7071067811865466 1.7695971986835813e-17 0.7071067811865485
  outer loop
    vertex -1.0000000000000002 -1.0000000000000002 16.570000000000004
    vertex -3.0000000000000004 50.8 14.570000000000007
    vertex -3.0000000000000004 -0.9999999999999981 14.570000000000007
  endloop
endfacet
facet normal -0.7071067811865466 1.7695971986835813e-17 0.7071067811865485
  outer loop
    vertex -3.0000000000000004 50.8 14.570000000000007
    vertex -1.0000000000000002 -1.0000000000000002 16.570000000000004
    vertex -0.9999999999999978 50.8 16.570000000000004
  endloop
endfacet
facet normal 0.7071067811865472 1.2222046735912892e-17 0.7071067811865479
  outer loop
    vertex 10.700000000000001 10.700000000000001 16.570000000000004
    vertex 12.7 50.8 14.570000000000007
    vertex 10.7 50.8 16.570000000000004
  endloop
endfacet
facet normal 0.7071067811865472 1.2222046735912892e-17 0.7071067811865479
  outer loop
    vertex 12.7 50.8 14.570000000000007
    vertex 10.700000000000001 10.700000000000001 16.570000000000004
    vertex 12.7 12.7 14.570000000000007
  endloop
endfacet
facet normal 1.3362771097931433e-17 0.7071067811865472 0.7071067811865479
  outer loop
    vertex 50.79999999999999 10.7 16.570000000000004
    vertex 12.7 12.7 14.570000000000007
    vertex 10.700000000000001 10.700000000000001 16.570000000000004
  endloop
endfacet
facet normal 1.3362771097931433e-17 0.7071067811865472 0.7071067811865479
  outer loop
    vertex 12.7 12.7 14.570000000000007
    vertex 50.79999999999999 10.7 16.570000000000004
    vertex 50.79999999999999 12.7 14.570000000000007
  endloop
endfacet
facet normal 1.1318319759398581e-31 -8.161480331186156e-32 -1.0
  outer loop
    vertex 6.0 28.799999999999997 -23.03
    vertex 7.761856803337992 12.902599833592586 -23.03
    vertex 6.0 6.0 -23.03
  endloop
endfacet
facet normal 1.1318319759398581e-31 -8.161480331186156e-32 -1.0
  outer loop
    vertex 7.761856803337992 12.902599833592586 -23.03
    vertex 6.0 28.799999999999997 -23.03
    vertex 15.0 28.799999999999997 -23.03
  endloop
endfacet
facet normal 1.1318319759398581e-31 -8.161480331186156e-32 -1.0
  outer loop
    vertex 6.0 6.0 -23.03
    vertex 7.761856803337992 12.902599833592586 -23.03
    vertex 7.52989105082636 11.884481250906108 -23.03
  endloop
endfacet
facet normal 1.1318319759398581e-31 -8.161480331186156e-32 -1.0
  outer loop
    vertex 7.761856803337992 12.902599833592586 -23.03
    vertex 15.0 28.799999999999997 -23.03
    vertex 8.249426993875602 13.82598971227273 -23.03
  endloop
endfacet
facet normal 1.1318319759398581e-31 -8.161480331186156e-32 -1.0
  outer loop
    vertex 8.249426993875602 13.82598971227273 -23.03
    vertex 15.0 28.799999999999997 -23.03
    vertex 8.95937451970189 14.591723392688415 -23.03
  endloop
endfacet
facet normal 1.1318319759398581e-31 -8.161480331186156e-32 -1.0
  outer loop
    vertex 8.95937451970189 14.591723392688415 -23.03
    vertex 15.0 28.799999999999997 -23.03
    vertex 9.843317630175553 15.147617389954044 -23.03
  endloop
endfacet
facet normal 1.1318319759398581e-31 -8.161480331186156e-32 -1.0
  outer loop
    vertex 9.843317630175553 15.147617389954044 -23.03
    vertex 15.0 28.799999999999997 -23.03
    vertex 10.841017063102871 15.455788446814237 -23.03
  endloop
endfacet
facet normal 1.1318319759398581e-31 -8.161480331186156e-32 -1.0
  outer loop
    vertex 10.841017063102871 15.455788446814237 -23.03
    vertex 15.0 28.799999999999997 -23.03
    vertex 11.884481250906113 15.49523521502072 -23.03
  endloop
endfacet
facet normal 1.1318319759398581e-31 -8.161480331186156e-32 -1.0
  outer loop
    vertex 11.884481250906113 15.49523521502072 -23.03
    vertex 15.0 28.799999999999997 -23.03
    vertex 12.90259983359259 15.263269462509086 -23.03
  endloop
endfacet
facet normal 1.1318319759398581e-31 -8.161480331186156e-32 -1.0
  outer loop
    vertex 12.90259983359259 15.263269462509086 -23.03
    vertex 15.0 28.799999999999997 -23.03
    vertex 13.825989712272738 14.775699271971476 -23.03
  endloop
endfacet
facet normal 1.1318319759398581e-31 -8.161480331186156e-32 -1.0
  outer loop
    vertex 13.825989712272738 14.775699271971476 -23.03
    vertex 15.0 28.799999999999997 -23.03
    vertex 14.59172339268842 14.06575174614519 -23.03
  endloop
endfacet
facet normal 1.1318319759398581e-31 -8.161480331186156e-32 -1.0
  outer loop
    vertex 14.59172339268842 14.06575174614519 -23.03
    vertex 15.0 28.799999999999997 -23.03
    vertex 15.000000000000004 14.999999999999998 -23.03
  endloop
endfacet
facet normal 1.1318319759398581e-31 -8.161480331186156e-32 -1.0
  outer loop
    vertex 14.59172339268842 14.06575174614519 -23.03
    vertex 15.000000000000004 14.999999999999998 -23.03
    vertex 15.147617389954048 13.181808635671528 -23.03
  endloop
endfacet
facet normal 1.1318319759398581e-31 -8.161480331186156e-32 -1.0
  outer loop
    vertex 15.147617389954048 13.181808635671528 -23.03
    vertex 15.000000000000004 14.999999999999998 -23.03
    vertex 28.799999999999997 14.999999999999998 -23.03
  endloop
endfacet
facet normal 1.1318319759398581e-31 -8.161480331186156e-32 -1.0
  outer loop
    vertex 15.147617389954048 13.181808635671528 -23.03
    vertex 28.799999999999997 14.999999999999998 -23.03
    vertex 15.45578844681424 12.18410920274421 -23.03
  endloop
endfacet
facet normal 1.1318319759398581e-31 -8.161480331186156e-32 -1.0
  outer loop
    vertex 15.45578844681424 12.18410920274421 -23.03
    vertex 28.799999999999997 14.999999999999998 -23.03
    vertex 15.495235215020722 11.14064501494097 -23.03
  endloop
endfacet
facet normal 1.1318319759398581e-31 -8.161480331186156e-32 -1.0
  outer loop
    vertex 6.0 6.0 -23.03
    vertex 11.140645014940972 7.529891050826358 -23.03
    vertex 28.799999999999997 6.0 -23.03
  endloop
endfacet
facet normal 1.1318319759398581e-31 -8.161480331186156e-32 -1.0
  outer loop
    vertex 11.140645014940972 7.529891050826358 -23.03
    vertex 6.0 6.0 -23.03
    vertex 10.122526432254492 7.76185680333799 -23.03
  endloop
endfacet
facet normal 1.1318319759398581e-31 -8.161480331186156e-32 -1.0
  outer loop
    vertex 10.122526432254492 7.76185680333799 -23.03
    vertex 6.0 6.0 -23.03
    vertex 9.199136553574348 8.249426993875602 -23.03
  endloop
endfacet
facet normal 1.1318319759398581e-31 -8.161480331186156e-32 -1.0
  outer loop
    vertex 9.199136553574348 8.249426993875602 -23.03
    vertex 6.0 6.0 -23.03
    vertex 8.433402873158666 8.959374519701889 -23.03
  endloop
endfacet
facet normal 1.1318319759398581e-31 -8.161480331186156e-32 -1.0
  outer loop
    vertex 8.433402873158666 8.959374519701889 -23.03
    vertex 6.0 6.0 -23.03
    vertex 7.877508875893036 9.84331763017555 -23.03
  endloop
endfacet
facet normal 1.1318319759398581e-31 -8.161480331186156e-32 -1.0
  outer loop
    vertex 7.877508875893036 9.84331763017555 -23.03
    vertex 6.0 6.0 -23.03
    vertex 7.569337819032843 10.841017063102866 -23.03
  endloop
endfacet
facet normal 1.1318319759398581e-31 -8.161480331186156e-32 -1.0
  outer loop
    vertex 7.569337819032843 10.841017063102866 -23.03
    vertex 6.0 6.0 -23.03
    vertex 7.52989105082636 11.884481250906108 -23.03
  endloop
endfacet
facet normal 1.1318319759398581e-31 -8.161480331186156e-32 -1.0
  outer loop
    vertex 28.799999999999997 6.0 -23.03
    vertex 11.140645014940972 7.529891050826358 -23.03
    vertex 12.184109202744215 7.569337819032841 -23.03
  endloop
endfacet
facet normal 1.1318319759398581e-31 -8.161480331186156e-32 -1.0
  outer loop
    vertex 28.799999999999997 6.0 -23.03
    vertex 12.184109202744215 7.569337819032841 -23.03
    vertex 13.181808635671532 7.877508875893033 -23.03
  endloop
endfacet
facet normal 1.1318319759398581e-31 -8.161480331186156e-32 -1.0
  outer loop
    vertex 28.799999999999997 6.0 -23.03
    vertex 13.181808635671532 7.877508875893033 -23.03
    vertex 14.065751746145192 8.433402873158663 -23.03
  endloop
endfacet
facet normal 1.1318319759398581e-31 -8.161480331186156e-32 -1.0
  outer loop
    vertex 28.799999999999997 6.0 -23.03
    vertex 14.065751746145192 8.433402873158663 -23.03
    vertex 14.77569927197148 9.199136553574347 -23.03
  endloop
endfacet
facet normal 1.1318319759398581e-31 -8.161480331186156e-32 -1.0
  outer loop
    vertex 28.799999999999997 6.0 -23.03
    vertex 14.77569927197148 9.199136553574347 -23.03
    vertex 15.263269462509092 10.12252643225449 -23.03
  endloop
endfacet
facet normal 1.1318319759398581e-31 -8.161480331186156e-32 -1.0
  outer loop
    vertex 28.799999999999997 6.0 -23.03
    vertex 15.263269462509092 10.12252643225449 -23.03
    vertex 15.495235215020722 11.14064501494097 -23.03
  endloop
endfacet
facet normal 1.1318319759398581e-31 -8.161480331186156e-32 -1.0
  outer loop
    vertex 28.799999999999997 6.0 -23.03
    vertex 15.495235215020722 11.14064501494097 -23.03
    vertex 28.799999999999997 14.999999999999998 -23.03
  endloop
endfacet
facet normal -0.7071067811865474 -5.113567230330566e-18 -0.7071067811865477
  outer loop
    vertex 6.0 28.799999999999997 -23.03
    vertex 3.9999999999999996 3.9999999999999996 -21.03
    vertex 3.9999999999999996 30.8 -21.03
  endloop
endfacet
facet normal -0.7071067811865474 -5.113567230330566e-18 -0.7071067811865477
  outer loop
    vertex 3.9999999999999996 3.9999999999999996 -21.03
    vertex 6.0 28.799999999999997 -23.03
    vertex 6.0 6.0 -23.03
  endloop
endfacet
facet normal 2.5567836151652817e-18 -0.7071067811865474 -0.7071067811865477
  outer loop
    vertex 6.0 6.0 -23.03
    vertex 30.8 3.9999999999999996 -21.03
    vertex 3.9999999999999996 3.9999999999999996 -21.03
  endloop
endfacet
facet normal 2.5567836151652817e-18 -0.7071067811865474 -0.7071067811865477
  outer loop
    vertex 30.8 3.9999999999999996 -21.03
    vertex 6.0 6.0 -23.03
    vertex 28.799999999999997 6.0 -23.03
  endloop
endfacet
facet normal -2.1256493388440084e-32 0.707106781186547 -0.707106781186548
  outer loop
    vertex 17.0 30.8 -21.03
    vertex 6.0 28.799999999999997 -23.03
    vertex 3.9999999999999996 30.8 -21.03
  endloop
endfacet
facet normal -2.1256493388440084e-32 0.707106781186547 -0.707106781186548
  outer loop
    vertex 6.0 28.799999999999997 -23.03
    vertex 17.0 30.8 -21.03
    vertex 15.0 28.799999999999997 -23.03
  endloop
endfacet
facet normal 0.0 0.7071067811865476 -0.7071067811865476
  outer loop
    vertex 17.000000000000004 16.999999999999996 -21.03
    vertex 28.799999999999997 14.999999999999998 -23.03
    vertex 15.000000000000004 14.999999999999998 -23.03
  endloop
endfacet
facet normal 0.0 0.7071067811865476 -0.7071067811865476
  outer loop
    vertex 28.799999999999997 14.999999999999998 -23.03
    vertex 17.000000000000004 16.999999999999996 -21.03
    vertex 30.8 16.999999999999996 -21.03
  endloop
endfacet
facet normal 0.7071067811865475 1.4661554599954412e-16 -0.7071067811865476
  outer loop
    vertex 17.0 30.8 -21.03
    vertex 15.000000000000004 14.999999999999998 -23.03
    vertex 15.0 28.799999999999997 -23.03
  endloop
endfacet
facet normal 0.7071067811865475 1.4661554599954412e-16 -0.7071067811865476
  outer loop
    vertex 15.000000000000004 14.999999999999998 -23.03
    vertex 17.0 30.8 -21.03
    vertex 17.000000000000004 16.999999999999996 -21.03
  endloop
endfacet
facet normal -2.5250615762600697e-18 -0.9635179096299408 -0.2676438637860947
  outer loop
    vertex 50.8 -1.0000000000000002 -3.0299999999999994
    vertex 3.9999999999999996 3.9999999999999996 -21.03
    vertex 30.8 3.9999999999999996 -21.03
  endloop
endfacet
facet normal -2.5250615762600697e-18 -0.9635179096299408 -0.2676438637860947
  outer loop
    vertex 3.9999999999999996 3.9999999999999996 -21.03
    vertex 50.8 -1.0000000000000002 -3.0299999999999994
    vertex -0.9999999999999974 -1.0000000000000002 -3.03
  endloop
endfacet
facet normal -0.9635179096299408 -4.2926046796421194e-17 -0.26764386378609456
  outer loop
    vertex -1.0000000000000002 50.8 -3.0300000000000002
    vertex 3.9999999999999996 3.9999999999999996 -21.03
    vertex -0.9999999999999974 -1.0000000000000002 -3.03
  endloop
endfacet
facet normal -0.9635179096299408 -4.2926046796421194e-17 -0.26764386378609456
  outer loop
    vertex 3.9999999999999996 3.9999999999999996 -21.03
    vertex -1.0000000000000002 50.8 -3.0300000000000002
    vertex 3.9999999999999996 30.8 -21.03
  endloop
endfacet
facet normal 0.6689647316224497 -8.709012273250088e-17 -0.7432941462471663
  outer loop
    vertex 50.8 16.999999999999996 -3.0300000000000002
    vertex 30.8 3.9999999999999996 -21.03
    vertex 30.8 16.999999999999996 -21.03
  endloop
endfacet
facet normal 0.6689647316224497 -8.709012273250088e-17 -0.7432941462471663
  outer loop
    vertex 30.8 3.9999999999999996 -21.03
    vertex 50.8 16.999999999999996 -3.0300000000000002
    vertex 50.8 -1.0000000000000002 -3.0299999999999994
  endloop
endfacet
facet normal -2.1772530683125198e-17 0.6689647316224498 -0.7432941462471663
  outer loop
    vertex 17.000000000000007 50.8 -3.0300000000000002
    vertex 3.9999999999999996 30.8 -21.03
    vertex -1.0000000000000002 50.8 -3.0300000000000002
  endloop
endfacet
facet normal -2.1772530683125198e-17 0.6689647316224498 -0.7432941462471663
  outer loop
    vertex 3.9999999999999996 30.8 -21.03
    vertex 17.000000000000007 50.8 -3.0300000000000002
    vertex 17.0 30.8 -21.03
  endloop
endfacet
facet normal 0.707106781186547 4.605573567495355e-32 -0.707106781186548
  outer loop
    vertex 30.8 16.999999999999996 -21.03
    vertex 28.799999999999997 6.0 -23.03
    vertex 28.799999999999997 14.999999999999998 -23.03
  endloop
endfacet
facet normal 0.707106781186547 4.605573567495355e-32 -0.707106781186548
  outer loop
    vertex 28.799999999999997 6.0 -23.03
    vertex 30.8 16.999999999999996 -21.03
    vertex 30.8 3.9999999999999996 -21.03
  endloop
endfacet
facet normal 1.0 -4.2313883958764434e-17 -1.3315709127556963e-16
  outer loop
    vertex 17.0 30.8 -21.03
    vertex 17.000000000000004 16.999999999999996 -3.0300000000000002
    vertex 17.000000000000004 16.999999999999996 -21.03
  endloop
endfacet
facet normal 1.0 -4.2313883958764434e-17 -1.3315709127556963e-16
  outer loop
    vertex 17.000000000000004 16.999999999999996 -3.0300000000000002
    vertex 17.0 30.8 -21.03
    vertex 17.000000000000007 50.8 -3.0300000000000002
  endloop
endfacet
facet normal -0.0 1.0 -0.0
  outer loop
    vertex 17.000000000000004 16.999999999999996 -3.0300000000000002
    vertex 30.8 16.999999999999996 -21.03
    vertex 17.000000000000004 16.999999999999996 -21.03
  endloop
endfacet
facet normal -0.0 1.0 -0.0
  outer loop
    vertex 30.8 16.999999999999996 -21.03
    vertex 17.000000000000004 16.999999999999996 -3.0300000000000002
    vertex 50.8 16.999999999999996 -3.0300000000000002
  endloop
endfacet
facet normal 0.8320502943378437 -2.2855474388819267e-17 -0.5547001962252291
  outer loop
    vertex 17.000000000000007 50.8 -3.0300000000000002
    vertex 19.000000000000004 18.999999999999996 -0.030000000000000086
    vertex 17.000000000000004 16.999999999999996 -3.0300000000000002
  endloop
endfacet
facet normal 0.8320502943378437 -2.2855474388819267e-17 -0.5547001962252291
  outer loop
    vertex 19.000000000000004 18.999999999999996 -0.030000000000000086
    vertex 17.000000000000007 50.8 -3.0300000000000002
    vertex 19.000000000000004 52.79999999999999 -0.030000000000000086
  endloop
endfacet
facet normal 0.8320502943378437 -2.2855474388819267e-17 -0.5547001962252291
  outer loop
    vertex 19.000000000000004 52.79999999999999 -0.030000000000000086
    vertex 17.000000000000007 50.8 -3.0300000000000002
    vertex 18.333333333333336 52.79999999999999 -1.03
  endloop
endfacet
facet normal -1.7694560817150396e-17 0.8320502943378438 -0.5547001962252289
  outer loop
    vertex 19.000000000000004 18.999999999999996 -0.030000000000000086
    vertex 50.8 16.999999999999996 -3.0300000000000002
    vertex 17.000000000000004 16.999999999999996 -3.0300000000000002
  endloop
endfacet
facet normal -1.7694560817150396e-17 0.8320502943378438 -0.5547001962252289
  outer loop
    vertex 50.8 16.999999999999996 -3.0300000000000002
    vertex 19.000000000000004 18.999999999999996 -0.030000000000000086
    vertex 52.79999999999999 18.333333333333336 -1.0299999999999918
  endloop
endfacet
facet normal -1.7694560817150396e-17 0.8320502943378438 -0.5547001962252289
  outer loop
    vertex 52.79999999999999 18.333333333333336 -1.0299999999999918
    vertex 19.000000000000004 18.999999999999996 -0.030000000000000086
    vertex 52.800000000000004 18.999999999999996 -0.030000000000000086
  endloop
endfacet
facet normal 0.3826834323650908 0.9238795325112865 1.5613532050475735e-31
  outer loop
    vertex 10.38756313292354 9.564005974408552 -0.029999999999997265
    vertex 10.93022028144287 9.339230023773135 -3.0300000000000136
    vertex 10.38756313292354 9.564005974408552 -3.0300000000000136
  endloop
endfacet
facet normal 0.3826834323650908 0.9238795325112865 1.5613532050475735e-31
  outer loop
    vertex 10.93022028144287 9.339230023773135 -3.0300000000000136
    vertex 10.38756313292354 9.564005974408552 -0.029999999999997265
    vertex 10.93022028144287 9.339230023773135 -0.029999999999997265
  endloop
endfacet
facet normal 0.6087614290087203 0.7933533402912354 1.4324418385476274e-31
  outer loop
    vertex 9.921572875253808 9.921572875253808 -0.029999999999997265
    vertex 10.38756313292354 9.564005974408552 -3.0300000000000136
    vertex 9.921572875253808 9.921572875253808 -3.0300000000000136
  endloop
endfacet
facet normal 0.6087614290087203 0.7933533402912354 1.4324418385476274e-31
  outer loop
    vertex 10.38756313292354 9.564005974408552 -3.0300000000000136
    vertex 9.921572875253808 9.921572875253808 -0.029999999999997265
    vertex 10.38756313292354 9.564005974408552 -0.029999999999997265
  endloop
endfacet
facet normal 0.7933533402912354 0.6087614290087203 1.205911927972724e-31
  outer loop
    vertex 9.564005974408554 10.38756313292354 -3.0300000000000136
    vertex 9.921572875253808 9.921572875253808 -0.029999999999997265
    vertex 9.921572875253808 9.921572875253808 -3.0300000000000136
  endloop
endfacet
facet normal 0.7933533402912354 0.6087614290087203 1.205911927972724e-31
  outer loop
    vertex 9.921572875253808 9.921572875253808 -0.029999999999997265
    vertex 9.564005974408554 10.38756313292354 -3.0300000000000136
    vertex 9.564005974408554 10.38756313292354 -0.029999999999997265
  endloop
endfacet
facet normal 0.9238795325112876 0.38268343236508784 8.972011123701648e-32
  outer loop
    vertex 9.339230023773139 10.93022028144287 -3.0300000000000136
    vertex 9.564005974408554 10.38756313292354 -0.029999999999997265
    vertex 9.564005974408554 10.38756313292354 -3.0300000000000136
  endloop
endfacet
facet normal 0.9238795325112876 0.38268343236508784 8.972011123701648e-32
  outer loop
    vertex 9.564005974408554 10.38756313292354 -0.029999999999997265
    vertex 9.339230023773139 10.93022028144287 -3.0300000000000136
    vertex 9.339230023773139 10.93022028144287 -0.029999999999997265
  endloop
endfacet
facet normal 0.9914448613738105 0.13052619222005202 5.273475236545265e-32
  outer loop
    vertex 9.262563132923542 11.512563132923539 -3.0300000000000136
    vertex 9.339230023773139 10.93022028144287 -0.029999999999997265
    vertex 9.339230023773139 10.93022028144287 -3.0300000000000136
  endloop
endfacet
facet normal 0.9914448613738105 0.13052619222005202 5.273475236545265e-32
  outer loop
    vertex 9.339230023773139 10.93022028144287 -0.029999999999997265
    vertex 9.262563132923542 11.512563132923539 -3.0300000000000136
    vertex 9.262563132923542 11.512563132923539 -0.029999999999997265
  endloop
endfacet
facet normal 0.9914448613738105 -0.13052619222005168 1.2155607268481608e-32
  outer loop
    vertex 9.339230023773139 12.094905984404212 -3.0300000000000136
    vertex 9.262563132923542 11.512563132923539 -0.029999999999997265
    vertex 9.262563132923542 11.512563132923539 -3.0300000000000136
  endloop
endfacet
facet normal 0.9914448613738105 -0.13052619222005168 1.2155607268481608e-32
  outer loop
    vertex 9.262563132923542 11.512563132923539 -0.029999999999997265
    vertex 9.339230023773139 12.094905984404212 -3.0300000000000136
    vertex 9.339230023773139 12.094905984404212 -0.029999999999997265
  endloop
endfacet
facet normal 0.9238795325112867 -0.38268343236508984 -2.925192237574557e-32
  outer loop
    vertex 9.564005974408555 12.63756313292354 -3.0300000000000136
    vertex 9.339230023773139 12.094905984404212 -0.029999999999997265
    vertex 9.339230023773139 12.094905984404212 -3.0300000000000136
  endloop
endfacet
facet normal 0.9238795325112867 -0.38268343236508984 -2.925192237574557e-32
  outer loop
    vertex 9.339230023773139 12.094905984404212 -0.029999999999997265
    vertex 9.564005974408555 12.63756313292354 -3.0300000000000136
    vertex 9.564005974408555 12.63756313292354 -0.029999999999997265
  endloop
endfacet
facet normal 0.7933533402912345 -0.6087614290087215 -6.866598185115319e-32
  outer loop
    vertex 9.92157287525381 13.103553390593271 -3.0300000000000136
    vertex 9.564005974408555 12.63756313292354 -0.029999999999997265
    vertex 9.564005974408555 12.63756313292354 -3.0300000000000136
  endloop
endfacet
facet normal 0.7933533402912345 -0.6087614290087215 -6.866598185115319e-32
  outer loop
    vertex 9.564005974408555 12.63756313292354 -0.029999999999997265
    vertex 9.92157287525381 13.103553390593271 -3.0300000000000136
    vertex 9.92157287525381 13.103553390593271 -0.029999999999997265
  endloop
endfacet
facet normal 0.6087614290087219 -0.7933533402912343 -1.034005681393046e-31
  outer loop
    vertex 10.387563132923542 13.461120291438528 -0.029999999999997265
    vertex 9.92157287525381 13.103553390593271 -3.0300000000000136
    vertex 10.387563132923542 13.461120291438528 -3.0300000000000136
  endloop
endfacet
facet normal 0.6087614290087219 -0.7933533402912343 -1.034005681393046e-31
  outer loop
    vertex 9.92157287525381 13.103553390593271 -3.0300000000000136
    vertex 10.387563132923542 13.461120291438528 -0.029999999999997265
    vertex 9.92157287525381 13.103553390593271 -0.029999999999997265
  endloop
endfacet
facet normal 0.3826834323650866 -0.9238795325112881 -1.310885765862814e-31
  outer loop
    vertex 10.930220281442871 13.685896242073941 -0.029999999999997265
    vertex 10.387563132923542 13.461120291438528 -3.0300000000000136
    vertex 10.930220281442871 13.685896242073941 -3.0300000000000136
  endloop
endfacet
facet normal 0.3826834323650866 -0.9238795325112881 -1.310885765862814e-31
  outer loop
    vertex 10.387563132923542 13.461120291438528 -3.0300000000000136
    vertex 10.930220281442871 13.685896242073941 -0.029999999999997265
    vertex 10.387563132923542 13.461120291438528 -0.029999999999997265
  endloop
endfacet
facet normal 0.13052619222005404 -0.9914448613738102 -1.4984311517301793e-31
  outer loop
    vertex 11.512563132923542 13.762563132923539 -0.029999999999997265
    vertex 10.930220281442871 13.685896242073941 -3.0300000000000136
    vertex 11.512563132923542 13.762563132923539 -3.0300000000000136
  endloop
endfacet
facet normal 0.13052619222005404 -0.9914448613738102 -1.4984311517301793e-31
  outer loop
    vertex 10.930220281442871 13.685896242073941 -3.0300000000000136
    vertex 11.512563132923542 13.762563132923539 -0.029999999999997265
    vertex 10.930220281442871 13.685896242073941 -0.029999999999997265
  endloop
endfacet
facet normal -0.13052619222005404 -0.9914448613738102 -1.5838609308816984e-31
  outer loop
    vertex 12.094905984404214 13.685896242073941 -0.029999999999997265
    vertex 11.512563132923542 13.762563132923539 -3.0300000000000136
    vertex 12.094905984404214 13.685896242073941 -3.0300000000000136
  endloop
endfacet
facet normal -0.13052619222005404 -0.9914448613738102 -1.5838609308816984e-31
  outer loop
    vertex 11.512563132923542 13.762563132923539 -3.0300000000000136
    vertex 12.094905984404214 13.685896242073941 -0.029999999999997265
    vertex 11.512563132923542 13.762563132923539 -0.029999999999997265
  endloop
endfacet
facet normal -0.38268343236508573 -0.9238795325112884 -1.5613532050475748e-31
  outer loop
    vertex 12.637563132923542 13.461120291438528 -0.029999999999997265
    vertex 12.094905984404214 13.685896242073941 -3.0300000000000136
    vertex 12.637563132923542 13.461120291438528 -3.0300000000000136
  endloop
endfacet
facet normal -0.38268343236508573 -0.9238795325112884 -1.5613532050475748e-31
  outer loop
    vertex 12.094905984404214 13.685896242073941 -3.0300000000000136
    vertex 12.637563132923542 13.461120291438528 -0.029999999999997265
    vertex 12.094905984404214 13.685896242073941 -0.029999999999997265
  endloop
endfacet
facet normal -0.608761429008723 -0.7933533402912334 -1.4324418385476253e-31
  outer loop
    vertex 13.103553390593273 13.103553390593271 -0.029999999999997265
    vertex 12.637563132923542 13.461120291438528 -3.0300000000000136
    vertex 13.103553390593273 13.103553390593271 -3.0300000000000136
  endloop
endfacet
facet normal -0.608761429008723 -0.7933533402912334 -1.4324418385476253e-31
  outer loop
    vertex 12.637563132923542 13.461120291438528 -3.0300000000000136
    vertex 13.103553390593273 13.103553390593271 -0.029999999999997265
    vertex 12.637563132923542 13.461120291438528 -0.029999999999997265
  endloop
endfacet
facet normal -0.7933533402912343 -0.6087614290087219 -1.2059119279727264e-31
  outer loop
    vertex 13.103553390593273 13.103553390593271 -0.029999999999997265
    vertex 13.46112029143853 12.637563132923539 -3.0300000000000136
    vertex 13.46112029143853 12.637563132923539 -0.029999999999997265
  endloop
endfacet
facet normal -0.7933533402912343 -0.6087614290087219 -1.2059119279727264e-31
  outer loop
    vertex 13.46112029143853 12.637563132923539 -3.0300000000000136
    vertex 13.103553390593273 13.103553390593271 -0.029999999999997265
    vertex 13.103553390593273 13.103553390593271 -3.0300000000000136
  endloop
endfacet
facet normal -0.9238795325112865 -0.3826834323650908 -8.972011123701689e-32
  outer loop
    vertex 13.46112029143853 12.637563132923539 -0.029999999999997265
    vertex 13.685896242073948 12.094905984404212 -3.0300000000000136
    vertex 13.685896242073948 12.094905984404212 -0.029999999999997265
  endloop
endfacet
facet normal -0.9238795325112865 -0.3826834323650908 -8.972011123701689e-32
  outer loop
    vertex 13.685896242073948 12.094905984404212 -3.0300000000000136
    vertex 13.46112029143853 12.637563132923539 -0.029999999999997265
    vertex 13.46112029143853 12.637563132923539 -3.0300000000000136
  endloop
endfacet
facet normal -0.9914448613738108 -0.13052619222004933 -5.273475236545224e-32
  outer loop
    vertex 13.685896242073948 12.094905984404212 -0.029999999999997265
    vertex 13.762563132923542 11.512563132923539 -3.0300000000000136
    vertex 13.762563132923542 11.512563132923539 -0.029999999999997265
  endloop
endfacet
facet normal -0.9914448613738108 -0.13052619222004933 -5.273475236545224e-32
  outer loop
    vertex 13.762563132923542 11.512563132923539 -3.0300000000000136
    vertex 13.685896242073948 12.094905984404212 -0.029999999999997265
    vertex 13.685896242073948 12.094905984404212 -3.0300000000000136
  endloop
endfacet
facet normal -0.9914448613738103 0.13052619222005374 -1.2155607268481279e-32
  outer loop
    vertex 13.762563132923542 11.512563132923539 -0.029999999999997265
    vertex 13.685896242073945 10.930220281442866 -3.0300000000000136
    vertex 13.685896242073945 10.930220281442866 -0.029999999999997265
  endloop
endfacet
facet normal -0.9914448613738103 0.13052619222005374 -1.2155607268481279e-32
  outer loop
    vertex 13.685896242073945 10.930220281442866 -3.0300000000000136
    vertex 13.762563132923542 11.512563132923539 -0.029999999999997265
    vertex 13.762563132923542 11.512563132923539 -3.0300000000000136
  endloop
endfacet
facet normal -0.9238795325112865 0.3826834323650908 2.9251922375745716e-32
  outer loop
    vertex 13.685896242073945 10.930220281442866 -0.029999999999997265
    vertex 13.461120291438528 10.387563132923539 -3.0300000000000136
    vertex 13.461120291438528 10.387563132923539 -0.029999999999997265
  endloop
endfacet
facet normal -0.9238795325112865 0.3826834323650908 2.9251922375745716e-32
  outer loop
    vertex 13.461120291438528 10.387563132923539 -3.0300000000000136
    vertex 13.685896242073945 10.930220281442866 -0.029999999999997265
    vertex 13.685896242073945 10.930220281442866 -3.0300000000000136
  endloop
endfacet
facet normal -0.7933533402912357 0.60876142900872 6.866598185115292e-32
  outer loop
    vertex 13.461120291438528 10.387563132923539 -0.029999999999997265
    vertex 13.103553390593273 9.921572875253808 -3.0300000000000136
    vertex 13.103553390593273 9.921572875253808 -0.029999999999997265
  endloop
endfacet
facet normal -0.7933533402912357 0.60876142900872 6.866598185115292e-32
  outer loop
    vertex 13.103553390593273 9.921572875253808 -3.0300000000000136
    vertex 13.461120291438528 10.387563132923539 -0.029999999999997265
    vertex 13.461120291438528 10.387563132923539 -3.0300000000000136
  endloop
endfacet
facet normal -0.6087614290087208 0.7933533402912352 1.0340056813930477e-31
  outer loop
    vertex 12.63756313292354 9.564005974408552 -0.029999999999997265
    vertex 13.103553390593273 9.921572875253808 -3.0300000000000136
    vertex 12.63756313292354 9.564005974408552 -3.0300000000000136
  endloop
endfacet
facet normal -0.6087614290087208 0.7933533402912352 1.0340056813930477e-31
  outer loop
    vertex 13.103553390593273 9.921572875253808 -3.0300000000000136
    vertex 12.63756313292354 9.564005974408552 -0.029999999999997265
    vertex 13.103553390593273 9.921572875253808 -0.029999999999997265
  endloop
endfacet
facet normal -0.3826834323650887 0.9238795325112874 1.3108857658628123e-31
  outer loop
    vertex 12.094905984404212 9.339230023773135 -0.029999999999997265
    vertex 12.63756313292354 9.564005974408552 -3.0300000000000136
    vertex 12.094905984404212 9.339230023773135 -3.0300000000000136
  endloop
endfacet
facet normal -0.3826834323650887 0.9238795325112874 1.3108857658628123e-31
  outer loop
    vertex 12.63756313292354 9.564005974408552 -3.0300000000000136
    vertex 12.094905984404212 9.339230023773135 -0.029999999999997265
    vertex 12.63756313292354 9.564005974408552 -0.029999999999997265
  endloop
endfacet
facet normal -0.13052619222005202 0.9914448613738105 1.4984311517301802e-31
  outer loop
    vertex 11.512563132923542 9.262563132923539 -0.029999999999997265
    vertex 12.094905984404212 9.339230023773135 -3.0300000000000136
    vertex 11.512563132923542 9.262563132923539 -3.0300000000000136
  endloop
endfacet
facet normal -0.13052619222005202 0.9914448613738105 1.4984311517301802e-31
  outer loop
    vertex 12.094905984404212 9.339230023773135 -3.0300000000000136
    vertex 11.512563132923542 9.262563132923539 -0.029999999999997265
    vertex 12.094905984404212 9.339230023773135 -0.029999999999997265
  endloop
endfacet
facet normal 0.13052619222005138 0.9914448613738106 1.5838609308816982e-31
  outer loop
    vertex 10.93022028144287 9.339230023773135 -0.029999999999997265
    vertex 11.512563132923542 9.262563132923539 -3.0300000000000136
    vertex 10.93022028144287 9.339230023773135 -3.0300000000000136
  endloop
endfacet
facet normal 0.13052619222005138 0.9914448613738106 1.5838609308816982e-31
  outer loop
    vertex 11.512563132923542 9.262563132923539 -3.0300000000000136
    vertex 10.93022028144287 9.339230023773135 -0.029999999999997265
    vertex 11.512563132923542 9.262563132923539 -0.029999999999997265
  endloop
endfacet
facet normal -2.5886103394184767e-32 -4.659498610953259e-32 -1.0
  outer loop
    vertex 7.761856803337992 12.902599833592586 -3.0300000000000096
    vertex 7.569337819032843 10.841017063102866 -3.0300000000000096
    vertex 7.52989105082636 11.884481250906108 -3.0300000000000096
  endloop
endfacet
facet normal -2.5886103394184767e-32 -4.659498610953259e-32 -1.0
  outer loop
    vertex 7.569337819032843 10.841017063102866 -3.0300000000000096
    vertex 7.761856803337992 12.902599833592586 -3.0300000000000096
    vertex 7.877508875893036 9.84331763017555 -3.0300000000000096
  endloop
endfacet
facet normal -2.5886103394184767e-32 -4.659498610953259e-32 -1.0
  outer loop
    vertex 7.877508875893036 9.84331763017555 -3.0300000000000096
    vertex 7.761856803337992 12.902599833592586 -3.0300000000000096
    vertex 8.249426993875602 13.82598971227273 -3.0300000000000096
  endloop
endfacet
facet normal -2.5886103394184767e-32 -4.659498610953259e-32 -1.0
  outer loop
    vertex 7.877508875893036 9.84331763017555 -3.0300000000000096
    vertex 8.249426993875602 13.82598971227273 -3.0300000000000096
    vertex 8.433402873158666 8.959374519701889 -3.0300000000000096
  endloop
endfacet
facet normal -2.5886103394184767e-32 -4.659498610953259e-32 -1.0
  outer loop
    vertex 8.433402873158666 8.959374519701889 -3.0300000000000096
    vertex 8.249426993875602 13.82598971227273 -3.0300000000000096
    vertex 8.95937451970189 14.591723392688415 -3.0300000000000096
  endloop
endfacet
facet normal -2.5886103394184767e-32 -4.659498610953259e-32 -1.0
  outer loop
    vertex 8.433402873158666 8.959374519701889 -3.0300000000000096
    vertex 8.95937451970189 14.591723392688415 -3.0300000000000096
    vertex 9.199136553574348 8.249426993875602 -3.0300000000000096
  endloop
endfacet
facet normal -2.5886103394184767e-32 -4.659498610953259e-32 -1.0
  outer loop
    vertex 9.199136553574348 8.249426993875602 -3.0300000000000096
    vertex 8.95937451970189 14.591723392688415 -3.0300000000000096
    vertex 9.262563132923542 11.512563132923539 -3.0300000000000136
  endloop
endfacet
facet normal -2.5886103394184767e-32 -4.659498610953259e-32 -1.0
  outer loop
    vertex 9.262563132923542 11.512563132923539 -3.0300000000000136
    vertex 8.95937451970189 14.591723392688415 -3.0300000000000096
    vertex 9.339230023773139 12.094905984404212 -3.0300000000000136
  endloop
endfacet
facet normal -2.5886103394184767e-32 -4.659498610953259e-32 -1.0
  outer loop
    vertex 9.339230023773139 12.094905984404212 -3.0300000000000136
    vertex 8.95937451970189 14.591723392688415 -3.0300000000000096
    vertex 9.843317630175553 15.147617389954044 -3.0300000000000096
  endloop
endfacet
facet normal -2.5886103394184767e-32 -4.659498610953259e-32 -1.0
  outer loop
    vertex 9.339230023773139 12.094905984404212 -3.0300000000000136
    vertex 9.843317630175553 15.147617389954044 -3.0300000000000096
    vertex 9.564005974408555 12.63756313292354 -3.0300000000000136
  endloop
endfacet
facet normal -2.5886103394184767e-32 -4.659498610953259e-32 -1.0
  outer loop
    vertex 9.564005974408555 12.63756313292354 -3.0300000000000136
    vertex 9.843317630175553 15.147617389954044 -3.0300000000000096
    vertex 9.92157287525381 13.103553390593271 -3.0300000000000136
  endloop
endfacet
facet normal -2.5886103394184767e-32 -4.659498610953259e-32 -1.0
  outer loop
    vertex 9.92157287525381 13.103553390593271 -3.0300000000000136
    vertex 9.843317630175553 15.147617389954044 -3.0300000000000096
    vertex 10.841017063102871 15.455788446814237 -3.0300000000000096
  endloop
endfacet
facet normal -2.5886103394184767e-32 -4.659498610953259e-32 -1.0
  outer loop
    vertex 9.92157287525381 13.103553390593271 -3.0300000000000136
    vertex 10.841017063102871 15.455788446814237 -3.0300000000000096
    vertex 10.387563132923542 13.461120291438528 -3.0300000000000136
  endloop
endfacet
facet normal -2.5886103394184767e-32 -4.659498610953259e-32 -1.0
  outer loop
    vertex 10.387563132923542 13.461120291438528 -3.0300000000000136
    vertex 10.841017063102871 15.455788446814237 -3.0300000000000096
    vertex 10.930220281442871 13.685896242073941 -3.0300000000000136
  endloop
endfacet
facet normal -2.5886103394184767e-32 -4.659498610953259e-32 -1.0
  outer loop
    vertex 10.930220281442871 13.685896242073941 -3.0300000000000136
    vertex 10.841017063102871 15.455788446814237 -3.0300000000000096
    vertex 11.884481250906113 15.49523521502072 -3.0300000000000096
  endloop
endfacet
facet normal -2.5886103394184767e-32 -4.659498610953259e-32 -1.0
  outer loop
    vertex 10.930220281442871 13.685896242073941 -3.0300000000000136
    vertex 11.884481250906113 15.49523521502072 -3.0300000000000096
    vertex 11.512563132923542 13.762563132923539 -3.0300000000000136
  endloop
endfacet
facet normal -2.5886103394184767e-32 -4.659498610953259e-32 -1.0
  outer loop
    vertex 11.512563132923542 13.762563132923539 -3.0300000000000136
    vertex 11.884481250906113 15.49523521502072 -3.0300000000000096
    vertex 12.094905984404214 13.685896242073941 -3.0300000000000136
  endloop
endfacet
facet normal -2.5886103394184767e-32 -4.659498610953259e-32 -1.0
  outer loop
    vertex 12.094905984404214 13.685896242073941 -3.0300000000000136
    vertex 11.884481250906113 15.49523521502072 -3.0300000000000096
    vertex 12.90259983359259 15.263269462509086 -3.0300000000000096
  endloop
endfacet
facet normal -2.5886103394184767e-32 -4.659498610953259e-32 -1.0
  outer loop
    vertex 12.094905984404214 13.685896242073941 -3.0300000000000136
    vertex 12.90259983359259 15.263269462509086 -3.0300000000000096
    vertex 12.637563132923542 13.461120291438528 -3.0300000000000136
  endloop
endfacet
facet normal -2.5886103394184767e-32 -4.659498610953259e-32 -1.0
  outer loop
    vertex 12.637563132923542 13.461120291438528 -3.0300000000000136
    vertex 12.90259983359259 15.263269462509086 -3.0300000000000096
    vertex 13.103553390593273 13.103553390593271 -3.0300000000000136
  endloop
endfacet
facet normal -2.5886103394184767e-32 -4.659498610953259e-32 -1.0
  outer loop
    vertex 13.103553390593273 13.103553390593271 -3.0300000000000136
    vertex 12.90259983359259 15.263269462509086 -3.0300000000000096
    vertex 13.825989712272738 14.775699271971476 -3.0300000000000096
  endloop
endfacet
facet normal -2.5886103394184767e-32 -4.659498610953259e-32 -1.0
  outer loop
    vertex 13.103553390593273 13.103553390593271 -3.0300000000000136
    vertex 13.825989712272738 14.775699271971476 -3.0300000000000096
    vertex 13.46112029143853 12.637563132923539 -3.0300000000000136
  endloop
endfacet
facet normal -2.5886103394184767e-32 -4.659498610953259e-32 -1.0
  outer loop
    vertex 13.46112029143853 12.637563132923539 -3.0300000000000136
    vertex 13.825989712272738 14.775699271971476 -3.0300000000000096
    vertex 13.685896242073948 12.094905984404212 -3.0300000000000136
  endloop
endfacet
facet normal -2.5886103394184767e-32 -4.659498610953259e-32 -1.0
  outer loop
    vertex 13.685896242073948 12.094905984404212 -3.0300000000000136
    vertex 13.825989712272738 14.775699271971476 -3.0300000000000096
    vertex 13.762563132923542 11.512563132923539 -3.0300000000000136
  endloop
endfacet
facet normal -2.5886103394184767e-32 -4.659498610953259e-32 -1.0
  outer loop
    vertex 9.199136553574348 8.249426993875602 -3.0300000000000096
    vertex 9.339230023773139 10.93022028144287 -3.0300000000000136
    vertex 10.122526432254492 7.76185680333799 -3.0300000000000096
  endloop
endfacet
facet normal -2.5886103394184767e-32 -4.659498610953259e-32 -1.0
  outer loop
    vertex 9.339230023773139 10.93022028144287 -3.0300000000000136
    vertex 9.199136553574348 8.249426993875602 -3.0300000000000096
    vertex 9.262563132923542 11.512563132923539 -3.0300000000000136
  endloop
endfacet
facet normal -2.5886103394184767e-32 -4.659498610953259e-32 -1.0
  outer loop
    vertex 10.122526432254492 7.76185680333799 -3.0300000000000096
    vertex 9.339230023773139 10.93022028144287 -3.0300000000000136
    vertex 9.564005974408554 10.38756313292354 -3.0300000000000136
  endloop
endfacet
facet normal -2.5886103394184767e-32 -4.659498610953259e-32 -1.0
  outer loop
    vertex 10.122526432254492 7.76185680333799 -3.0300000000000096
    vertex 9.564005974408554 10.38756313292354 -3.0300000000000136
    vertex 9.921572875253808 9.921572875253808 -3.0300000000000136
  endloop
endfacet
facet normal -2.5886103394184767e-32 -4.659498610953259e-32 -1.0
  outer loop
    vertex 10.122526432254492 7.76185680333799 -3.0300000000000096
    vertex 9.921572875253808 9.921572875253808 -3.0300000000000136
    vertex 10.38756313292354 9.564005974408552 -3.0300000000000136
  endloop
endfacet
facet normal -2.5886103394184767e-32 -4.659498610953259e-32 -1.0
  outer loop
    vertex 10.122526432254492 7.76185680333799 -3.0300000000000096
    vertex 10.38756313292354 9.564005974408552 -3.0300000000000136
    vertex 11.140645014940972 7.529891050826358 -3.0300000000000096
  endloop
endfacet
facet normal -2.5886103394184767e-32 -4.659498610953259e-32 -1.0
  outer loop
    vertex 11.140645014940972 7.529891050826358 -3.0300000000000096
    vertex 10.38756313292354 9.564005974408552 -3.0300000000000136
    vertex 10.93022028144287 9.339230023773135 -3.0300000000000136
  endloop
endfacet
facet normal -2.5886103394184767e-32 -4.659498610953259e-32 -1.0
  outer loop
    vertex 11.140645014940972 7.529891050826358 -3.0300000000000096
    vertex 10.93022028144287 9.339230023773135 -3.0300000000000136
    vertex 11.512563132923542 9.262563132923539 -3.0300000000000136
  endloop
endfacet
facet normal -2.5886103394184767e-32 -4.659498610953259e-32 -1.0
  outer loop
    vertex 11.140645014940972 7.529891050826358 -3.0300000000000096
    vertex 11.512563132923542 9.262563132923539 -3.0300000000000136
    vertex 12.184109202744215 7.569337819032841 -3.0300000000000096
  endloop
endfacet
facet normal -2.5886103394184767e-32 -4.659498610953259e-32 -1.0
  outer loop
    vertex 12.184109202744215 7.569337819032841 -3.0300000000000096
    vertex 11.512563132923542 9.262563132923539 -3.0300000000000136
    vertex 12.094905984404212 9.339230023773135 -3.0300000000000136
  endloop
endfacet
facet normal -2.5886103394184767e-32 -4.659498610953259e-32 -1.0
  outer loop
    vertex 12.184109202744215 7.569337819032841 -3.0300000000000096
    vertex 12.094905984404212 9.339230023773135 -3.0300000000000136
    vertex 12.63756313292354 9.564005974408552 -3.0300000000000136
  endloop
endfacet
facet normal -2.5886103394184767e-32 -4.659498610953259e-32 -1.0
  outer loop
    vertex 12.184109202744215 7.569337819032841 -3.0300000000000096
    vertex 12.63756313292354 9.564005974408552 -3.0300000000000136
    vertex 13.181808635671532 7.877508875893033 -3.0300000000000096
  endloop
endfacet
facet normal -2.5886103394184767e-32 -4.659498610953259e-32 -1.0
  outer loop
    vertex 13.181808635671532 7.877508875893033 -3.0300000000000096
    vertex 12.63756313292354 9.564005974408552 -3.0300000000000136
    vertex 13.103553390593273 9.921572875253808 -3.0300000000000136
  endloop
endfacet
facet normal -2.5886103394184767e-32 -4.659498610953259e-32 -1.0
  outer loop
    vertex 13.181808635671532 7.877508875893033 -3.0300000000000096
    vertex 13.103553390593273 9.921572875253808 -3.0300000000000136
    vertex 13.461120291438528 10.387563132923539 -3.0300000000000136
  endloop
endfacet
facet normal -2.5886103394184767e-32 -4.659498610953259e-32 -1.0
  outer loop
    vertex 13.181808635671532 7.877508875893033 -3.0300000000000096
    vertex 13.461120291438528 10.387563132923539 -3.0300000000000136
    vertex 14.065751746145192 8.433402873158663 -3.0300000000000096
  endloop
endfacet
facet normal -2.5886103394184767e-32 -4.659498610953259e-32 -1.0
  outer loop
    vertex 14.065751746145192 8.433402873158663 -3.0300000000000096
    vertex 13.461120291438528 10.387563132923539 -3.0300000000000136
    vertex 13.685896242073945 10.930220281442866 -3.0300000000000136
  endloop
endfacet
facet normal -2.5886103394184767e-32 -4.659498610953259e-32 -1.0
  outer loop
    vertex 14.065751746145192 8.433402873158663 -3.0300000000000096
    vertex 13.685896242073945 10.930220281442866 -3.0300000000000136
    vertex 13.762563132923542 11.512563132923539 -3.0300000000000136
  endloop
endfacet
facet normal -2.5886103394184767e-32 -4.659498610953259e-32 -1.0
  outer loop
    vertex 14.065751746145192 8.433402873158663 -3.0300000000000096
    vertex 13.762563132923542 11.512563132923539 -3.0300000000000136
    vertex 13.825989712272738 14.775699271971476 -3.0300000000000096
  endloop
endfacet
facet normal -2.5886103394184767e-32 -4.659498610953259e-32 -1.0
  outer loop
    vertex 14.065751746145192 8.433402873158663 -3.0300000000000096
    vertex 13.825989712272738 14.775699271971476 -3.0300000000000096
    vertex 14.59172339268842 14.06575174614519 -3.0300000000000096
  endloop
endfacet
facet normal -2.5886103394184767e-32 -4.659498610953259e-32 -1.0
  outer loop
    vertex 14.065751746145192 8.433402873158663 -3.0300000000000096
    vertex 14.59172339268842 14.06575174614519 -3.0300000000000096
    vertex 14.77569927197148 9.199136553574347 -3.0300000000000096
  endloop
endfacet
facet normal -2.5886103394184767e-32 -4.659498610953259e-32 -1.0
  outer loop
    vertex 14.77569927197148 9.199136553574347 -3.0300000000000096
    vertex 14.59172339268842 14.06575174614519 -3.0300000000000096
    vertex 15.147617389954048 13.181808635671528 -3.0300000000000096
  endloop
endfacet
facet normal -2.5886103394184767e-32 -4.659498610953259e-32 -1.0
  outer loop
    vertex 14.77569927197148 9.199136553574347 -3.0300000000000096
    vertex 15.147617389954048 13.181808635671528 -3.0300000000000096
    vertex 15.263269462509092 10.12252643225449 -3.0300000000000096
  endloop
endfacet
facet normal -2.5886103394184767e-32 -4.659498610953259e-32 -1.0
  outer loop
    vertex 15.263269462509092 10.12252643225449 -3.0300000000000096
    vertex 15.147617389954048 13.181808635671528 -3.0300000000000096
    vertex 15.45578844681424 12.18410920274421 -3.0300000000000096
  endloop
endfacet
facet normal -2.5886103394184767e-32 -4.659498610953259e-32 -1.0
  outer loop
    vertex 15.263269462509092 10.12252643225449 -3.0300000000000096
    vertex 15.45578844681424 12.18410920274421 -3.0300000000000096
    vertex 15.495235215020722 11.14064501494097 -3.0300000000000096
  endloop
endfacet
facet normal -0.5323586666885786 0.8465189011484381 -0.0
  outer loop
    vertex 13.181808635671532 7.877508875893033 -3.0300000000000096
    vertex 14.065751746145192 8.433402873158663 -23.03
    vertex 13.181808635671532 7.877508875893033 -23.03
  endloop
endfacet
facet normal -0.5323586666885786 0.8465189011484381 -0.0
  outer loop
    vertex 14.065751746145192 8.433402873158663 -23.03
    vertex 13.181808635671532 7.877508875893033 -3.0300000000000096
    vertex 14.065751746145192 8.433402873158663 -3.0300000000000096
  endloop
endfacet
facet normal -0.2951237713468391 0.9554590308255078 -0.0
  outer loop
    vertex 12.184109202744215 7.569337819032841 -3.0300000000000096
    vertex 13.181808635671532 7.877508875893033 -23.03
    vertex 12.184109202744215 7.569337819032841 -23.03
  endloop
endfacet
facet normal -0.2951237713468391 0.9554590308255078 -0.0
  outer loop
    vertex 13.181808635671532 7.877508875893033 -23.03
    vertex 12.184109202744215 7.569337819032841 -3.0300000000000096
    vertex 13.181808635671532 7.877508875893033 -3.0300000000000096
  endloop
endfacet
facet normal -0.03777667870290319 0.9992862065225245 -0.0
  outer loop
    vertex 11.140645014940972 7.529891050826358 -3.0300000000000096
    vertex 12.184109202744215 7.569337819032841 -23.03
    vertex 11.140645014940972 7.529891050826358 -23.03
  endloop
endfacet
facet normal -0.03777667870290319 0.9992862065225245 -0.0
  outer loop
    vertex 12.184109202744215 7.569337819032841 -23.03
    vertex 11.140645014940972 7.529891050826358 -3.0300000000000096
    vertex 12.184109202744215 7.569337819032841 -3.0300000000000096
  endloop
endfacet
facet normal 0.22214483216572026 0.9750136786435686 0.0
  outer loop
    vertex 10.122526432254492 7.76185680333799 -3.0300000000000096
    vertex 11.140645014940972 7.529891050826358 -23.03
    vertex 10.122526432254492 7.76185680333799 -23.03
  endloop
endfacet
facet normal 0.22214483216572026 0.9750136786435686 0.0
  outer loop
    vertex 11.140645014940972 7.529891050826358 -23.03
    vertex 10.122526432254492 7.76185680333799 -3.0300000000000096
    vertex 11.140645014940972 7.529891050826358 -3.0300000000000096
  endloop
endfacet
facet normal 0.46692753983394636 0.8842955798513404 0.0
  outer loop
    vertex 9.199136553574348 8.249426993875602 -3.0300000000000096
    vertex 10.122526432254492 7.76185680333799 -23.03
    vertex 9.199136553574348 8.249426993875602 -23.03
  endloop
endfacet
facet normal 0.46692753983394636 0.8842955798513404 0.0
  outer loop
    vertex 10.122526432254492 7.76185680333799 -23.03
    vertex 9.199136553574348 8.249426993875602 -3.0300000000000096
    vertex 10.122526432254492 7.76185680333799 -3.0300000000000096
  endloop
endfacet
facet normal 0.6798899072967292 0.7333141986597866 0.0
  outer loop
    vertex 8.433402873158666 8.959374519701889 -3.0300000000000096
    vertex 9.199136553574348 8.249426993875602 -23.03
    vertex 8.433402873158666 8.959374519701889 -23.03
  endloop
endfacet
facet normal 0.6798899072967292 0.7333141986597866 0.0
  outer loop
    vertex 9.199136553574348 8.249426993875602 -23.03
    vertex 8.433402873158666 8.959374519701889 -3.0300000000000096
    vertex 9.199136553574348 8.249426993875602 -3.0300000000000096
  endloop
endfacet
facet normal 0.8465189011484381 0.5323586666885786 0.0
  outer loop
    vertex 7.877508875893036 9.84331763017555 -23.03
    vertex 8.433402873158666 8.959374519701889 -3.0300000000000096
    vertex 8.433402873158666 8.959374519701889 -23.03
  endloop
endfacet
facet normal 0.8465189011484381 0.5323586666885786 0.0
  outer loop
    vertex 8.433402873158666 8.959374519701889 -3.0300000000000096
    vertex 7.877508875893036 9.84331763017555 -23.03
    vertex 7.877508875893036 9.84331763017555 -3.0300000000000096
  endloop
endfacet
facet normal 0.9554590308255078 0.2951237713468391 0.0
  outer loop
    vertex 7.569337819032843 10.841017063102866 -23.03
    vertex 7.877508875893036 9.84331763017555 -3.0300000000000096
    vertex 7.877508875893036 9.84331763017555 -23.03
  endloop
endfacet
facet normal 0.9554590308255078 0.2951237713468391 0.0
  outer loop
    vertex 7.877508875893036 9.84331763017555 -3.0300000000000096
    vertex 7.569337819032843 10.841017063102866 -23.03
    vertex 7.569337819032843 10.841017063102866 -3.0300000000000096
  endloop
endfacet
facet normal 0.9992862065225245 0.03777667870290459 0.0
  outer loop
    vertex 7.52989105082636 11.884481250906108 -23.03
    vertex 7.569337819032843 10.841017063102866 -3.0300000000000096
    vertex 7.569337819032843 10.841017063102866 -23.03
  endloop
endfacet
facet normal 0.9992862065225245 0.03777667870290459 0.0
  outer loop
    vertex 7.569337819032843 10.841017063102866 -3.0300000000000096
    vertex 7.52989105082636 11.884481250906108 -23.03
    vertex 7.52989105082636 11.884481250906108 -3.0300000000000096
  endloop
endfacet
facet normal 0.9750136786435682 -0.22214483216572184 -0.0
  outer loop
    vertex 7.761856803337992 12.902599833592586 -23.03
    vertex 7.52989105082636 11.884481250906108 -3.0300000000000096
    vertex 7.52989105082636 11.884481250906108 -23.03
  endloop
endfacet
facet normal 0.9750136786435682 -0.22214483216572184 -0.0
  outer loop
    vertex 7.52989105082636 11.884481250906108 -3.0300000000000096
    vertex 7.761856803337992 12.902599833592586 -23.03
    vertex 7.761856803337992 12.902599833592586 -3.0300000000000096
  endloop
endfacet
facet normal 0.8842955798513411 -0.46692753983394536 -0.0
  outer loop
    vertex 8.249426993875602 13.82598971227273 -23.03
    vertex 7.761856803337992 12.902599833592586 -3.0300000000000096
    vertex 7.761856803337992 12.902599833592586 -23.03
  endloop
endfacet
facet normal 0.8842955798513411 -0.46692753983394536 -0.0
  outer loop
    vertex 7.761856803337992 12.902599833592586 -3.0300000000000096
    vertex 8.249426993875602 13.82598971227273 -23.03
    vertex 8.249426993875602 13.82598971227273 -3.0300000000000096
  endloop
endfacet
facet normal 0.7333141986597865 -0.6798899072967293 -0.0
  outer loop
    vertex 8.95937451970189 14.591723392688415 -23.03
    vertex 8.249426993875602 13.82598971227273 -3.0300000000000096
    vertex 8.249426993875602 13.82598971227273 -23.03
  endloop
endfacet
facet normal 0.7333141986597865 -0.6798899072967293 -0.0
  outer loop
    vertex 8.249426993875602 13.82598971227273 -3.0300000000000096
    vertex 8.95937451970189 14.591723392688415 -23.03
    vertex 8.95937451970189 14.591723392688415 -3.0300000000000096
  endloop
endfacet
facet normal 0.5323586666885796 -0.8465189011484374 -0.0
  outer loop
    vertex 9.843317630175553 15.147617389954044 -3.0300000000000096
    vertex 8.95937451970189 14.591723392688415 -23.03
    vertex 9.843317630175553 15.147617389954044 -23.03
  endloop
endfacet
facet normal 0.5323586666885796 -0.8465189011484374 -0.0
  outer loop
    vertex 8.95937451970189 14.591723392688415 -23.03
    vertex 9.843317630175553 15.147617389954044 -3.0300000000000096
    vertex 8.95937451970189 14.591723392688415 -3.0300000000000096
  endloop
endfacet
facet normal 0.2951237713468383 -0.955459030825508 -0.0
  outer loop
    vertex 10.841017063102871 15.455788446814237 -3.0300000000000096
    vertex 9.843317630175553 15.147617389954044 -23.03
    vertex 10.841017063102871 15.455788446814237 -23.03
  endloop
endfacet
facet normal 0.2951237713468383 -0.955459030825508 -0.0
  outer loop
    vertex 9.843317630175553 15.147617389954044 -23.03
    vertex 10.841017063102871 15.455788446814237 -3.0300000000000096
    vertex 9.843317630175553 15.147617389954044 -3.0300000000000096
  endloop
endfacet
facet normal 0.03777667870290324 -0.9992862065225245 -0.0
  outer loop
    vertex 11.884481250906113 15.49523521502072 -3.0300000000000096
    vertex 10.841017063102871 15.455788446814237 -23.03
    vertex 11.884481250906113 15.49523521502072 -23.03
  endloop
endfacet
facet normal 0.03777667870290324 -0.9992862065225245 -0.0
  outer loop
    vertex 10.841017063102871 15.455788446814237 -23.03
    vertex 11.884481250906113 15.49523521502072 -3.0300000000000096
    vertex 10.841017063102871 15.455788446814237 -3.0300000000000096
  endloop
endfacet
facet normal -0.22214483216572312 -0.9750136786435679 -0.0
  outer loop
    vertex 12.90259983359259 15.263269462509086 -3.0300000000000096
    vertex 11.884481250906113 15.49523521502072 -23.03
    vertex 12.90259983359259 15.263269462509086 -23.03
  endloop
endfacet
facet normal -0.22214483216572312 -0.9750136786435679 -0.0
  outer loop
    vertex 11.884481250906113 15.49523521502072 -23.03
    vertex 12.90259983359259 15.263269462509086 -3.0300000000000096
    vertex 11.884481250906113 15.49523521502072 -3.0300000000000096
  endloop
endfacet
facet normal -0.46692753983394425 -0.8842955798513417 -0.0
  outer loop
    vertex 13.825989712272738 14.775699271971476 -3.0300000000000096
    vertex 12.90259983359259 15.263269462509086 -23.03
    vertex 13.825989712272738 14.775699271971476 -23.03
  endloop
endfacet
facet normal -0.46692753983394425 -0.8842955798513417 -0.0
  outer loop
    vertex 12.90259983359259 15.263269462509086 -23.03
    vertex 13.825989712272738 14.775699271971476 -3.0300000000000096
    vertex 12.90259983359259 15.263269462509086 -3.0300000000000096
  endloop
endfacet
facet normal -0.6798899072967292 -0.7333141986597866 -0.0
  outer loop
    vertex 14.59172339268842 14.06575174614519 -3.0300000000000096
    vertex 13.825989712272738 14.775699271971476 -23.03
    vertex 14.59172339268842 14.06575174614519 -23.03
  endloop
endfacet
facet normal -0.6798899072967292 -0.7333141986597866 -0.0
  outer loop
    vertex 13.825989712272738 14.775699271971476 -23.03
    vertex 14.59172339268842 14.06575174614519 -3.0300000000000096
    vertex 13.825989712272738 14.775699271971476 -3.0300000000000096
  endloop
endfacet
facet normal -0.8465189011484388 -0.5323586666885777 -0.0
  outer loop
    vertex 14.59172339268842 14.06575174614519 -3.0300000000000096
    vertex 15.147617389954048 13.181808635671528 -23.03
    vertex 15.147617389954048 13.181808635671528 -3.0300000000000096
  endloop
endfacet
facet normal -0.8465189011484388 -0.5323586666885777 -0.0
  outer loop
    vertex 15.147617389954048 13.181808635671528 -23.03
    vertex 14.59172339268842 14.06575174614519 -3.0300000000000096
    vertex 14.59172339268842 14.06575174614519 -23.03
  endloop
endfacet
facet normal -0.955459030825508 -0.2951237713468383 -0.0
  outer loop
    vertex 15.147617389954048 13.181808635671528 -3.0300000000000096
    vertex 15.45578844681424 12.18410920274421 -23.03
    vertex 15.45578844681424 12.18410920274421 -3.0300000000000096
  endloop
endfacet
facet normal -0.955459030825508 -0.2951237713468383 -0.0
  outer loop
    vertex 15.45578844681424 12.18410920274421 -23.03
    vertex 15.147617389954048 13.181808635671528 -3.0300000000000096
    vertex 15.147617389954048 13.181808635671528 -23.03
  endloop
endfacet
facet normal -0.9992862065225245 -0.03777667870290329 -0.0
  outer loop
    vertex 15.45578844681424 12.18410920274421 -3.0300000000000096
    vertex 15.495235215020722 11.14064501494097 -23.03
    vertex 15.495235215020722 11.14064501494097 -3.0300000000000096
  endloop
endfacet
facet normal -0.9992862065225245 -0.03777667870290329 -0.0
  outer loop
    vertex 15.495235215020722 11.14064501494097 -23.03
    vertex 15.45578844681424 12.18410920274421 -3.0300000000000096
    vertex 15.45578844681424 12.18410920274421 -23.03
  endloop
endfacet
facet normal -0.9750136786435686 0.22214483216572026 -0.0
  outer loop
    vertex 15.495235215020722 11.14064501494097 -3.0300000000000096
    vertex 15.263269462509092 10.12252643225449 -23.03
    vertex 15.263269462509092 10.12252643225449 -3.0300000000000096
  endloop
endfacet
facet normal -0.9750136786435686 0.22214483216572026 -0.0
  outer loop
    vertex 15.263269462509092 10.12252643225449 -23.03
    vertex 15.495235215020722 11.14064501494097 -3.0300000000000096
    vertex 15.495235215020722 11.14064501494097 -23.03
  endloop
endfacet
facet normal -0.8842955798513399 0.46692753983394747 -0.0
  outer loop
    vertex 15.263269462509092 10.12252643225449 -3.0300000000000096
    vertex 14.77569927197148 9.199136553574347 -23.03
    vertex 14.77569927197148 9.199136553574347 -3.0300000000000096
  endloop
endfacet
facet normal -0.8842955798513399 0.46692753983394747 -0.0
  outer loop
    vertex 14.77569927197148 9.199136553574347 -23.03
    vertex 15.263269462509092 10.12252643225449 -3.0300000000000096
    vertex 15.263269462509092 10.12252643225449 -23.03
  endloop
endfacet
facet normal -0.7333141986597873 0.6798899072967285 -0.0
  outer loop
    vertex 14.77569927197148 9.199136553574347 -3.0300000000000096
    vertex 14.065751746145192 8.433402873158663 -23.03
    vertex 14.065751746145192 8.433402873158663 -3.0300000000000096
  endloop
endfacet
facet normal -0.7333141986597873 0.6798899072967285 -0.0
  outer loop
    vertex 14.065751746145192 8.433402873158663 -23.03
    vertex 14.77569927197148 9.199136553574347 -3.0300000000000096
    vertex 14.77569927197148 9.199136553574347 -23.03
  endloop
endfacet
facet normal 8.411205690901683e-18 0.7071067811865482 -0.7071067811865468
  outer loop
    vertex -1.0000000000000009 52.79999999999999 -1.0300000000000005
    vertex 17.000000000000007 50.8 -3.0300000000000002
    vertex -1.0000000000000002 50.8 -3.0300000000000002
  endloop
endfacet
facet normal 8.411205690901683e-18 0.7071067811865482 -0.7071067811865468
  outer loop
    vertex 17.000000000000007 50.8 -3.0300000000000002
    vertex -1.0000000000000009 52.79999999999999 -1.0300000000000005
    vertex 18.333333333333336 52.79999999999999 -1.03
  endloop
endfacet
facet normal 0.5773502691896253 0.5773502691896261 0.5773502691896261
  outer loop
    vertex 10.7 50.8 16.570000000000004
    vertex 12.7 50.8 14.570000000000007
    vertex 10.7 52.79999999999999 14.570000000000007
  endloop
endfacet
facet normal -0.0 0.7071067811865476 0.7071067811865476
  outer loop
    vertex -0.9999999999999978 50.8 16.570000000000004
    vertex 10.7 52.79999999999999 14.570000000000007
    vertex -1.0000000000000009 52.79999999999999 14.570000000000007
  endloop
endfacet
facet normal -0.0 0.7071067811865476 0.7071067811865476
  outer loop
    vertex 10.7 52.79999999999999 14.570000000000007
    vertex -0.9999999999999978 50.8 16.570000000000004
    vertex 10.7 50.8 16.570000000000004
  endloop
endfacet
facet normal -0.5773502691896247 0.5773502691896258 0.5773502691896267
  outer loop
    vertex -0.9999999999999978 50.8 16.570000000000004
    vertex -1.0000000000000009 52.79999999999999 14.570000000000007
    vertex -3.0000000000000004 50.8 14.570000000000007
  endloop
endfacet
facet normal -0.5773502691896256 0.5773502691896263 -0.5773502691896256
  outer loop
    vertex -3.0 50.8 -1.03
    vertex -1.0000000000000009 52.79999999999999 -1.0300000000000005
    vertex -1.0000000000000002 50.8 -3.0300000000000002
  endloop
endfacet
facet normal 0.577350269189625 0.5773502691896257 0.5773502691896266
  outer loop
    vertex 52.79999999999999 10.7 14.570000000000007
    vertex 50.79999999999999 12.7 14.570000000000007
    vertex 50.79999999999999 10.7 16.570000000000004
  endloop
endfacet
facet normal 0.7071067811865496 -1.3219187478945294e-17 -0.7071067811865456
  outer loop
    vertex 50.8 -1.0000000000000002 -3.0299999999999994
    vertex 52.79999999999999 18.333333333333336 -1.0299999999999918
    vertex 52.79999999999999 -1.0000000000000009 -1.0299999999999918
  endloop
endfacet
facet normal 0.7071067811865496 -1.3219187478945294e-17 -0.7071067811865456
  outer loop
    vertex 52.79999999999999 18.333333333333336 -1.0299999999999918
    vertex 50.8 -1.0000000000000002 -3.0299999999999994
    vertex 50.8 16.999999999999996 -3.0300000000000002
  endloop
endfacet
facet normal 0.5773502691896277 -0.5773502691896248 -0.5773502691896248
  outer loop
    vertex 50.8 -1.0000000000000002 -3.0299999999999994
    vertex 52.79999999999999 -1.0000000000000009 -1.0299999999999918
    vertex 50.8 -3.0 -1.0299999999999996
  endloop
endfacet
facet normal 0.5773502691896255 -0.5773502691896246 0.5773502691896272
  outer loop
    vertex 52.79999999999999 -1.0000000000000009 14.570000000000007
    vertex 50.79999999999999 -1.0000000000000007 16.570000000000004
    vertex 50.8 -3.0 14.570000000000007
  endloop
endfacet
facet normal 0.7071067811865466 -0.0 0.7071067811865486
  outer loop
    vertex 52.79999999999999 -1.0000000000000009 14.570000000000007
    vertex 50.79999999999999 10.7 16.570000000000004
    vertex 50.79999999999999 -1.0000000000000007 16.570000000000004
  endloop
endfacet
facet normal 0.7071067811865466 -0.0 0.7071067811865486
  outer loop
    vertex 50.79999999999999 10.7 16.570000000000004
    vertex 52.79999999999999 -1.0000000000000009 14.570000000000007
    vertex 52.79999999999999 10.7 14.570000000000007
  endloop
endfacet
facet normal 0.7071067811865466 -0.0 0.7071067811865486
  outer loop
    vertex 52.79999999999999 10.7 14.570000000000007
    vertex 52.79999999999999 -1.0000000000000009 14.570000000000007
    vertex 52.79999999999999 -7.049916206369744e-16 14.570000000000007
  endloop
endfacet
facet normal -2.3594629315781078e-18 -0.707106781186547 0.707106781186548
  outer loop
    vertex 50.8 -3.0 14.570000000000007
    vertex -1.0000000000000002 -1.0000000000000002 16.570000000000004
    vertex -1.0000000000000002 -3.0 14.570000000000007
  endloop
endfacet
facet normal -2.3594629315781078e-18 -0.707106781186547 0.707106781186548
  outer loop
    vertex -1.0000000000000002 -1.0000000000000002 16.570000000000004
    vertex 50.8 -3.0 14.570000000000007
    vertex 50.79999999999999 -1.0000000000000007 16.570000000000004
  endloop
endfacet
facet normal -0.7071067811865472 -1.7695971986835828e-17 -0.7071067811865478
  outer loop
    vertex -3.0 50.8 -1.03
    vertex -0.9999999999999974 -1.0000000000000002 -3.03
    vertex -3.0000000000000004 -0.9999999999999981 -1.0300000000000005
  endloop
endfacet
facet normal -0.7071067811865472 -1.7695971986835828e-17 -0.7071067811865478
  outer loop
    vertex -0.9999999999999974 -1.0000000000000002 -3.03
    vertex -3.0 50.8 -1.03
    vertex -1.0000000000000002 50.8 -3.0300000000000002
  endloop
endfacet
facet normal 7.078388794734336e-18 -0.7071067811865476 -0.7071067811865476
  outer loop
    vertex 50.8 -1.0000000000000002 -3.0299999999999994
    vertex -1.0000000000000002 -3.0 -1.0300000000000005
    vertex -0.9999999999999974 -1.0000000000000002 -3.03
  endloop
endfacet
facet normal 7.078388794734336e-18 -0.7071067811865476 -0.7071067811865476
  outer loop
    vertex -1.0000000000000002 -3.0 -1.0300000000000005
    vertex 50.8 -1.0000000000000002 -3.0299999999999994
    vertex 50.8 -3.0 -1.0299999999999996
  endloop
endfacet
facet normal -0.5773502691896258 -0.5773502691896254 -0.5773502691896263
  outer loop
    vertex -0.9999999999999974 -1.0000000000000002 -3.03
    vertex -1.0000000000000002 -3.0 -1.0300000000000005
    vertex -3.0000000000000004 -0.9999999999999981 -1.0300000000000005
  endloop
endfacet
facet normal -0.5773502691896258 -0.5773502691896254 0.5773502691896263
  outer loop
    vertex -1.0000000000000002 -1.0000000000000002 16.570000000000004
    vertex -3.0000000000000004 -0.9999999999999981 14.570000000000007
    vertex -1.0000000000000002 -3.0 14.570000000000007
  endloop
endfacet
facet normal 0.0 0.0 -1.0
  outer loop
    vertex 12.7 50.8 13.270000000000001
    vertex 10.700000000000003 10.7 13.270000000000001
    vertex 10.7 52.79999999999999 13.270000000000001
  endloop
endfacet
facet normal 0.0 0.0 -1.0
  outer loop
    vertex 10.700000000000003 10.7 13.270000000000001
    vertex 12.7 50.8 13.270000000000001
    vertex 12.7 12.7 13.270000000000001
  endloop
endfacet
facet normal 0.0 0.0 -1.0
  outer loop
    vertex 10.700000000000003 10.7 13.270000000000001
    vertex 12.7 12.7 13.270000000000001
    vertex 52.79999999999999 10.7 13.270000000000001
  endloop
endfacet
facet normal 0.0 0.0 -1.0
  outer loop
    vertex 52.79999999999999 10.7 13.270000000000001
    vertex 12.7 12.7 13.270000000000001
    vertex 50.79999999999999 12.7 13.270000000000001
  endloop
endfacet
facet normal 0.0 0.0 -1.0
  outer loop
    vertex 10.7 52.79999999999999 13.270000000000001
    vertex 4.85 4.85 13.270000000000001
    vertex 4.85 52.79999999999999 13.270000000000001
  endloop
endfacet
facet normal 0.0 0.0 -1.0
  outer loop
    vertex 4.85 4.85 13.270000000000001
    vertex 10.7 52.79999999999999 13.270000000000001
    vertex 10.700000000000003 10.7 13.270000000000001
  endloop
endfacet
facet normal 0.0 0.0 -1.0
  outer loop
    vertex 4.85 4.85 13.270000000000001
    vertex 10.700000000000003 10.7 13.270000000000001
    vertex 52.79999999999999 4.85 13.270000000000001
  endloop
endfacet
facet normal 0.0 0.0 -1.0
  outer loop
    vertex 52.79999999999999 4.85 13.270000000000001
    vertex 10.700000000000003 10.7 13.270000000000001
    vertex 52.79999999999999 10.7 13.270000000000001
  endloop
endfacet
facet normal 0.0 0.0 -1.0
  outer loop
    vertex -7.049916206369744e-16 -7.049916206369744e-16 13.57
    vertex 1.999999999999999 1.9999999999999991 13.57
    vertex 52.79999999999999 -7.049916206369744e-16 13.57
  endloop
endfacet
facet normal 0.0 0.0 -1.0
  outer loop
    vertex 1.999999999999999 1.9999999999999991 13.57
    vertex -7.049916206369744e-16 -7.049916206369744e-16 13.57
    vertex -5.287437154777307e-16 52.79999999999999 13.57
  endloop
endfacet
facet normal 0.0 0.0 -1.0
  outer loop
    vertex 1.999999999999999 1.9999999999999991 13.57
    vertex -5.287437154777307e-16 52.79999999999999 13.57
    vertex 1.9999999999999984 52.79999999999999 13.57
  endloop
endfacet
facet normal 0.0 0.0 -1.0
  outer loop
    vertex 52.79999999999999 -7.049916206369744e-16 13.57
    vertex 1.999999999999999 1.9999999999999991 13.57
    vertex 52.79999999999999 1.9999999999999991 13.57
  endloop
endfacet
facet normal -0.10468478451804256 -5.661438417109716e-19 -0.9945054529214061
  outer loop
    vertex 4.85 52.79999999999999 13.270000000000001
    vertex 1.999999999999999 1.9999999999999991 13.57
    vertex 1.9999999999999984 52.79999999999999 13.57
  endloop
endfacet
facet normal -0.10468478451804256 -5.661438417109716e-19 -0.9945054529214061
  outer loop
    vertex 1.999999999999999 1.9999999999999991 13.57
    vertex 4.85 52.79999999999999 13.270000000000001
    vertex 4.85 4.85 13.270000000000001
  endloop
endfacet
facet normal 0.0 -0.10468478451804257 -0.9945054529214061
  outer loop
    vertex 4.85 4.85 13.270000000000001
    vertex 52.79999999999999 1.9999999999999991 13.57
    vertex 1.999999999999999 1.9999999999999991 13.57
  endloop
endfacet
facet normal 0.0 -0.10468478451804257 -0.9945054529214061
  outer loop
    vertex 52.79999999999999 1.9999999999999991 13.57
    vertex 4.85 4.85 13.270000000000001
    vertex 52.79999999999999 4.85 13.270000000000001
  endloop
endfacet
facet normal 0.707106781186547 0.707106781186548 -5.853370300043e-17
  outer loop
    vertex 50.79999999999999 12.7 14.570000000000007
    vertex 52.79999999999999 10.7 13.270000000000001
    vertex 50.79999999999999 12.7 13.270000000000001
  endloop
endfacet
facet normal 0.707106781186547 0.707106781186548 -5.853370300043e-17
  outer loop
    vertex 52.79999999999999 10.7 13.270000000000001
    vertex 50.79999999999999 12.7 14.570000000000007
    vertex 52.79999999999999 10.7 14.570000000000007
  endloop
endfacet
facet normal 0.707106781186547 0.707106781186548 -0.0
  outer loop
    vertex 10.7 52.79999999999999 14.570000000000007
    vertex 12.7 50.8 13.270000000000001
    vertex 10.7 52.79999999999999 13.270000000000001
  endloop
endfacet
facet normal 0.707106781186547 0.707106781186548 -0.0
  outer loop
    vertex 12.7 50.8 13.270000000000001
    vertex 10.7 52.79999999999999 14.570000000000007
    vertex 12.7 50.8 14.570000000000007
  endloop
endfacet
facet normal 1.0 -2.4128597087926892e-17 3.561003188271413e-16
  outer loop
    vertex 52.79999999999999 -1.0000000000000009 -1.0299999999999918
    vertex 52.800000000000004 -7.049916206369744e-16 -0.030000000000000086
    vertex 52.79999999999999 -1.0000000000000009 14.570000000000007
  endloop
endfacet
facet normal 1.0 -2.4128597087926892e-17 3.561003188271413e-16
  outer loop
    vertex 52.800000000000004 -7.049916206369744e-16 -0.030000000000000086
    vertex 52.79999999999999 -1.0000000000000009 -1.0299999999999918
    vertex 52.79999999999999 18.333333333333336 -1.0299999999999918
  endloop
endfacet
facet normal 1.0 -2.4128597087926892e-17 3.561003188271413e-16
  outer loop
    vertex 52.800000000000004 -7.049916206369744e-16 -0.030000000000000086
    vertex 52.79999999999999 18.333333333333336 -1.0299999999999918
    vertex 52.800000000000004 18.999999999999996 -0.030000000000000086
  endloop
endfacet
facet normal 1.0 -2.4128597087926892e-17 3.561003188271413e-16
  outer loop
    vertex 52.800000000000004 -7.049916206369744e-16 -0.030000000000000086
    vertex 52.79999999999999 -7.049916206369744e-16 14.570000000000007
    vertex 52.79999999999999 -1.0000000000000009 14.570000000000007
  endloop
endfacet
facet normal 1.0 -2.4128597087926892e-17 3.561003188271413e-16
  outer loop
    vertex 52.79999999999999 -7.049916206369744e-16 14.570000000000007
    vertex 52.800000000000004 -7.049916206369744e-16 -0.030000000000000086
    vertex 52.79999999999999 -7.049916206369744e-16 13.57
  endloop
endfacet
facet normal 1.0 -2.4128597087926892e-17 3.561003188271413e-16
  outer loop
    vertex 52.79999999999999 -7.049916206369744e-16 14.570000000000007
    vertex 52.79999999999999 -7.049916206369744e-16 13.57
    vertex 52.79999999999999 1.9999999999999991 13.57
  endloop
endfacet
facet normal 1.0 -2.4128597087926892e-17 3.561003188271413e-16
  outer loop
    vertex 52.79999999999999 -7.049916206369744e-16 14.570000000000007
    vertex 52.79999999999999 1.9999999999999991 13.57
    vertex 52.79999999999999 10.7 14.570000000000007
  endloop
endfacet
facet normal 1.0 -2.4128597087926892e-17 3.561003188271413e-16
  outer loop
    vertex 52.79999999999999 10.7 14.570000000000007
    vertex 52.79999999999999 1.9999999999999991 13.57
    vertex 52.79999999999999 4.85 13.270000000000001
  endloop
endfacet
facet normal 1.0 -2.4128597087926892e-17 3.561003188271413e-16
  outer loop
    vertex 52.79999999999999 10.7 14.570000000000007
    vertex 52.79999999999999 4.85 13.270000000000001
    vertex 52.79999999999999 10.7 13.270000000000001
  endloop
endfacet
facet normal -0.0 1.0 -0.0
  outer loop
    vertex -1.0000000000000009 52.79999999999999 -1.0300000000000005
    vertex -5.287437154777307e-16 52.79999999999999 -0.030000000000000086
    vertex 18.333333333333336 52.79999999999999 -1.03
  endloop
endfacet
facet normal -0.0 1.0 -0.0
  outer loop
    vertex -5.287437154777307e-16 52.79999999999999 -0.030000000000000086
    vertex -1.0000000000000009 52.79999999999999 -1.0300000000000005
    vertex -1.0000000000000009 52.79999999999999 14.570000000000007
  endloop
endfacet
facet normal -0.0 1.0 -0.0
  outer loop
    vertex -5.287437154777307e-16 52.79999999999999 -0.030000000000000086
    vertex -1.0000000000000009 52.79999999999999 14.570000000000007
    vertex -5.287437154777307e-16 52.79999999999999 13.57
  endloop
endfacet
facet normal -0.0 1.0 -0.0
  outer loop
    vertex -5.287437154777307e-16 52.79999999999999 13.57
    vertex -1.0000000000000009 52.79999999999999 14.570000000000007
    vertex 1.9999999999999984 52.79999999999999 13.57
  endloop
endfacet
facet normal -0.0 1.0 -0.0
  outer loop
    vertex 1.9999999999999984 52.79999999999999 13.57
    vertex 10.7 52.79999999999999 13.270000000000001
    vertex 4.85 52.79999999999999 13.270000000000001
  endloop
endfacet
facet normal -0.0 1.0 -0.0
  outer loop
    vertex 10.7 52.79999999999999 13.270000000000001
    vertex 1.9999999999999984 52.79999999999999 13.57
    vertex 10.7 52.79999999999999 14.570000000000007
  endloop
endfacet
facet normal -0.0 1.0 -0.0
  outer loop
    vertex 10.7 52.79999999999999 14.570000000000007
    vertex 1.9999999999999984 52.79999999999999 13.57
    vertex -1.0000000000000009 52.79999999999999 14.570000000000007
  endloop
endfacet
facet normal -0.0 1.0 -0.0
  outer loop
    vertex 19.000000000000004 52.79999999999999 -0.030000000000000086
    vertex 18.333333333333336 52.79999999999999 -1.03
    vertex -5.287437154777307e-16 52.79999999999999 -0.030000000000000086
  endloop
endfacet
facet normal -1.0 3.4024692115684094e-18 -1.1297942638413045e-17
  outer loop
    vertex -3.0000000000000004 50.8 14.570000000000007
    vertex -3.0000000000000004 -0.9999999999999981 -1.0300000000000005
    vertex -3.0000000000000004 -0.9999999999999981 14.570000000000007
  endloop
endfacet
facet normal -1.0 3.4024692115684094e-18 -1.1297942638413045e-17
  outer loop
    vertex -3.0000000000000004 -0.9999999999999981 -1.0300000000000005
    vertex -3.0000000000000004 50.8 14.570000000000007
    vertex -3.0 50.8 -1.03
  endloop
endfacet
facet normal 1.0 -0.0 -0.0
  outer loop
    vertex 12.7 50.8 13.270000000000001
    vertex 12.7 12.7 14.570000000000007
    vertex 12.7 12.7 13.270000000000001
  endloop
endfacet
facet normal 1.0 -0.0 -0.0
  outer loop
    vertex 12.7 12.7 14.570000000000007
    vertex 12.7 50.8 13.270000000000001
    vertex 12.7 50.8 14.570000000000007
  endloop
endfacet
facet normal -0.0 1.0 -0.0
  outer loop
    vertex 12.7 12.7 14.570000000000007
    vertex 50.79999999999999 12.7 13.270000000000001
    vertex 12.7 12.7 13.270000000000001
  endloop
endfacet
facet normal -0.0 1.0 -0.0
  outer loop
    vertex 50.79999999999999 12.7 13.270000000000001
    vertex 12.7 12.7 14.570000000000007
    vertex 50.79999999999999 12.7 14.570000000000007
  endloop
endfacet
facet normal -0.7071067811865479 -0.7071067811865472 0.0
  outer loop
    vertex -3.0000000000000004 -0.9999999999999981 14.570000000000007
    vertex -1.0000000000000002 -3.0 -1.0300000000000005
    vertex -1.0000000000000002 -3.0 14.570000000000007
  endloop
endfacet
facet normal -0.7071067811865479 -0.7071067811865472 0.0
  outer loop
    vertex -1.0000000000000002 -3.0 -1.0300000000000005
    vertex -3.0000000000000004 -0.9999999999999981 14.570000000000007
    vertex -3.0000000000000004 -0.9999999999999981 -1.0300000000000005
  endloop
endfacet
facet normal 1.0 -3.3380285068038566e-18 -0.0
  outer loop
    vertex -5.287437154777307e-16 52.79999999999999 -0.030000000000000086
    vertex -7.049916206369744e-16 -7.049916206369744e-16 13.57
    vertex -7.049916206369744e-16 -7.049916206369744e-16 -0.030000000000000086
  endloop
endfacet
facet normal 1.0 -3.3380285068038566e-18 -0.0
  outer loop
    vertex -7.049916206369744e-16 -7.049916206369744e-16 13.57
    vertex -5.287437154777307e-16 52.79999999999999 -0.030000000000000086
    vertex -5.287437154777307e-16 52.79999999999999 13.57
  endloop
endfacet
facet normal -0.0 1.0 -0.0
  outer loop
    vertex -7.049916206369744e-16 -7.049916206369744e-16 13.57
    vertex 52.800000000000004 -7.049916206369744e-16 -0.030000000000000086
    vertex -7.049916206369744e-16 -7.049916206369744e-16 -0.030000000000000086
  endloop
endfacet
facet normal -0.0 1.0 -0.0
  outer loop
    vertex 52.800000000000004 -7.049916206369744e-16 -0.030000000000000086
    vertex -7.049916206369744e-16 -7.049916206369744e-16 13.57
    vertex 52.79999999999999 -7.049916206369744e-16 13.57
  endloop
endfacet
facet normal -0.707106781186547 0.707106781186548 -6.503744777826717e-18
  outer loop
    vertex -3.0 50.8 -1.03
    vertex -1.0000000000000009 52.79999999999999 14.570000000000007
    vertex -1.0000000000000009 52.79999999999999 -1.0300000000000005
  endloop
endfacet
facet normal -0.707106781186547 0.707106781186548 -6.503744777826717e-18
  outer loop
    vertex -1.0000000000000009 52.79999999999999 14.570000000000007
    vertex -3.0 50.8 -1.03
    vertex -3.0000000000000004 50.8 14.570000000000007
  endloop
endfacet
facet normal 0.707106781186548 -0.707106781186547 -3.2754705048755147e-32
  outer loop
    vertex 52.79999999999999 -1.0000000000000009 -1.0299999999999918
    vertex 50.8 -3.0 14.570000000000007
    vertex 50.8 -3.0 -1.0299999999999996
  endloop
endfacet
facet normal 0.707106781186548 -0.707106781186547 -3.2754705048755147e-32
  outer loop
    vertex 50.8 -3.0 14.570000000000007
    vertex 52.79999999999999 -1.0000000000000009 -1.0299999999999918
    vertex 52.79999999999999 -1.0000000000000009 14.570000000000007
  endloop
endfacet
facet normal 0.0 -1.0 0.0
  outer loop
    vertex 50.8 -3.0 -1.0299999999999996
    vertex -1.0000000000000002 -3.0 14.570000000000007
    vertex -1.0000000000000002 -3.0 -1.0300000000000005
  endloop
endfacet
facet normal 0.0 -1.0 0.0
  outer loop
    vertex -1.0000000000000002 -3.0 14.570000000000007
    vertex 50.8 -3.0 -1.0299999999999996
    vertex 50.8 -3.0 14.570000000000007
  endloop
endfacet
endsolid Platform corner leg
