<?xml version="1.0" encoding="UTF-8" standalone="no"?>
<!-- Created with Inkscape (http://www.inkscape.org/) -->

<svg
   width="121.50613mm"
   height="137.08836mm"
   viewBox="0 0 121.50613 137.08836"
   version="1.1"
   id="svg1"
   xml:space="preserve"
   inkscape:version="1.3.2 (091e20e, 2023-11-25, custom)"
   sodipodi:docname="icon.svg"
   xmlns:inkscape="http://www.inkscape.org/namespaces/inkscape"
   xmlns:sodipodi="http://sodipodi.sourceforge.net/DTD/sodipodi-0.dtd"
   xmlns="http://www.w3.org/2000/svg"
   xmlns:svg="http://www.w3.org/2000/svg"><sodipodi:namedview
     id="namedview1"
     pagecolor="#ffffff"
     bordercolor="#000000"
     borderopacity="0.25"
     inkscape:showpageshadow="2"
     inkscape:pageopacity="0.0"
     inkscape:pagecheckerboard="0"
     inkscape:deskcolor="#d1d1d1"
     inkscape:document-units="mm"
     inkscape:zoom="1.4324567"
     inkscape:cx="160.91237"
     inkscape:cy="252.7127"
     inkscape:window-width="2560"
     inkscape:window-height="1351"
     inkscape:window-x="2551"
     inkscape:window-y="-9"
     inkscape:window-maximized="1"
     inkscape:current-layer="layer2" /><defs
     id="defs1"><linearGradient
       id="swatch8"
       inkscape:swatch="solid"><stop
         style="stop-color:#000000;stop-opacity:1;"
         offset="0"
         id="stop8" /></linearGradient></defs><g
     inkscape:groupmode="layer"
     id="layer2"
     inkscape:label="Icon"
     transform="translate(0.07393055,1.346934)"><circle
       style="display:none;fill:#000000;fill-opacity:1;stroke-width:0.691144;stroke-linejoin:bevel"
       id="path3"
       cx="58.252178"
       cy="73.151451"
       r="82.5" /><path
       style="fill:#c4c4c4;fill-opacity:1;stroke:#323232;stroke-width:4;stroke-linejoin:bevel;stroke-dasharray:none;stroke-opacity:1"
       d="M 77.580475,15.411609 78.364116,48.324537 119.76649,110.624 104.35488,133.61082 14.497361,133.74143 1.5672824,115.84829 27.035619,79.278363 l -13.71372,35.133247 7.052771,7.5752 71.180737,-3.78761 6.138525,-9.6649 L 71.703166,53.418205 72.74802,12.015831 81.106858,9.273087 80.192612,6.0079157 73.401055,4.701847 44.536939,4.7018469 38.920844,5.8773086 38.431407,9.2395968 42.055409,13.583113 41.7512,49.839893 37.759299,12.430134 33.043534,8.7506595 31.998679,3.7875989 36.831135,0.65303428 83.19657,0.914248 86.461739,4.4406333 86.331134,10.317942 Z"
       id="path1"
       sodipodi:nodetypes="ccccccccccccccccccccccccccccc" /></g></svg>
