solid ESPLCD Button
facet normal -0.7040625922196375 -0.09269159872356718 0.7040625922196362
  outer loop
    vertex -1.6903701960058732 -0.45293332892940075 4.982599999999916
    vertex -2.749999999999995 0.0 3.982599999999918
    vertex -2.656296022294934 -0.7117523740319348 3.982599999999918
  endloop
endfacet
facet normal -0.7040625922196375 -0.09269159872356718 0.7040625922196362
  outer loop
    vertex -2.749999999999995 0.0 3.982599999999918
    vertex -1.6903701960058732 -0.45293332892940075 4.982599999999916
    vertex -1.749999999999997 1.127986593019159e-14 4.982599999999916
  endloop
endfacet
facet normal 0.38268343236510166 0.9238795325112817 -0.0
  outer loop
    vertex -1.3750000000000036 -2.3815698604072035 0.49999999999999906
    vertex -0.7117523740319348 -2.656296022294945 -2.5046333740767123e-30
    vertex -1.3750000000000036 -2.3815698604072035 -2.5046333740767123e-30
  endloop
endfacet
facet normal 0.38268343236510166 0.9238795325112817 -0.0
  outer loop
    vertex -0.7117523740319348 -2.656296022294945 -2.5046333740767123e-30
    vertex -1.3750000000000036 -2.3815698604072035 0.49999999999999906
    vertex -0.7117523740319348 -2.656296022294945 0.49999999999999906
  endloop
endfacet
facet normal 0.0 0.0 -1.0
  outer loop
    vertex -2.65629602229494 0.7117523740319348 0.49999999999999906
    vertex -2.65629602229494 -0.7117523740319348 0.49999999999999906
    vertex -2.7500000000000004 0.0 0.49999999999999906
  endloop
endfacet
facet normal 0.0 0.0 -1.0
  outer loop
    vertex -2.65629602229494 -0.7117523740319348 0.49999999999999906
    vertex -2.65629602229494 0.7117523740319348 0.49999999999999906
    vertex -2.3815698604072093 1.3749999999999918 0.49999999999999906
  endloop
endfacet
facet normal 0.0 0.0 -1.0
  outer loop
    vertex -2.65629602229494 -0.7117523740319348 0.49999999999999906
    vertex -2.3815698604072093 1.3749999999999918 0.49999999999999906
    vertex -2.3815698604072093 -1.3749999999999918 0.49999999999999906
  endloop
endfacet
facet normal 0.0 0.0 -1.0
  outer loop
    vertex -2.3815698604072093 -1.3749999999999918 0.49999999999999906
    vertex -2.3815698604072093 1.3749999999999918 0.49999999999999906
    vertex -1.944543648263005 1.9445436482629992 0.49999999999999906
  endloop
endfacet
facet normal 0.0 0.0 -1.0
  outer loop
    vertex -2.3815698604072093 -1.3749999999999918 0.49999999999999906
    vertex -1.944543648263005 1.9445436482629992 0.49999999999999906
    vertex -1.9445436482630105 -1.9445436482629992 0.49999999999999906
  endloop
endfacet
facet normal 0.0 0.0 -1.0
  outer loop
    vertex -1.9445436482630105 -1.9445436482629992 0.49999999999999906
    vertex -1.944543648263005 1.9445436482629992 0.49999999999999906
    vertex -1.3750000000000036 -2.3815698604072035 0.49999999999999906
  endloop
endfacet
facet normal 0.0 0.0 -1.0
  outer loop
    vertex -1.3750000000000036 -2.3815698604072035 0.49999999999999906
    vertex -1.944543648263005 1.9445436482629992 0.49999999999999906
    vertex -1.3750000000000036 2.381569860407226 0.49999999999999906
  endloop
endfacet
facet normal 0.0 0.0 -1.0
  outer loop
    vertex -1.3750000000000036 -2.3815698604072035 0.49999999999999906
    vertex -1.3750000000000036 2.381569860407226 0.49999999999999906
    vertex -0.7117523740319348 2.656296022294945 0.49999999999999906
  endloop
endfacet
facet normal 0.0 0.0 -1.0
  outer loop
    vertex -1.3750000000000036 -2.3815698604072035 0.49999999999999906
    vertex -0.7117523740319348 2.656296022294945 0.49999999999999906
    vertex -0.7117523740319348 -2.656296022294945 0.49999999999999906
  endloop
endfacet
facet normal 0.0 0.0 -1.0
  outer loop
    vertex -0.7117523740319348 -2.656296022294945 0.49999999999999906
    vertex -0.7117523740319348 2.656296022294945 0.49999999999999906
    vertex 0.0 2.750000000000029 0.49999999999999906
  endloop
endfacet
facet normal 0.0 0.0 -1.0
  outer loop
    vertex -0.7117523740319348 -2.656296022294945 0.49999999999999906
    vertex 0.0 2.750000000000029 0.49999999999999906
    vertex 0.0 -2.750000000000006 0.49999999999999906
  endloop
endfacet
facet normal 0.0 0.0 -1.0
  outer loop
    vertex 0.0 -2.750000000000006 0.49999999999999906
    vertex 0.0 2.750000000000029 0.49999999999999906
    vertex 0.7117523740319264 2.656296022294945 0.49999999999999906
  endloop
endfacet
facet normal 0.0 0.0 -1.0
  outer loop
    vertex 0.0 -2.750000000000006 0.49999999999999906
    vertex 0.7117523740319264 2.656296022294945 0.49999999999999906
    vertex 0.7117523740319264 -2.656296022294945 0.49999999999999906
  endloop
endfacet
facet normal 0.0 0.0 -1.0
  outer loop
    vertex 0.7117523740319264 -2.656296022294945 0.49999999999999906
    vertex 0.7117523740319264 2.656296022294945 0.49999999999999906
    vertex 1.3749999999999947 2.381569860407226 0.49999999999999906
  endloop
endfacet
facet normal 0.0 0.0 -1.0
  outer loop
    vertex 0.7117523740319264 -2.656296022294945 0.49999999999999906
    vertex 1.3749999999999947 2.381569860407226 0.49999999999999906
    vertex 1.3749999999999947 -2.3815698604072035 0.49999999999999906
  endloop
endfacet
facet normal 0.0 0.0 -1.0
  outer loop
    vertex 1.3749999999999947 -2.3815698604072035 0.49999999999999906
    vertex 1.3749999999999947 2.381569860407226 0.49999999999999906
    vertex 1.944543648263005 1.9445436482629992 0.49999999999999906
  endloop
endfacet
facet normal 0.0 0.0 -1.0
  outer loop
    vertex 1.3749999999999947 -2.3815698604072035 0.49999999999999906
    vertex 1.944543648263005 1.9445436482629992 0.49999999999999906
    vertex 1.944543648263005 -1.9445436482629992 0.49999999999999906
  endloop
endfacet
facet normal 0.0 0.0 -1.0
  outer loop
    vertex 1.944543648263005 -1.9445436482629992 0.49999999999999906
    vertex 1.944543648263005 1.9445436482629992 0.49999999999999906
    vertex 2.3815698604072093 1.3749999999999918 0.49999999999999906
  endloop
endfacet
facet normal 0.0 0.0 -1.0
  outer loop
    vertex 1.944543648263005 -1.9445436482629992 0.49999999999999906
    vertex 2.3815698604072093 1.3749999999999918 0.49999999999999906
    vertex 2.3815698604072093 -1.375000000000003 0.49999999999999906
  endloop
endfacet
facet normal 0.0 0.0 -1.0
  outer loop
    vertex 2.3815698604072093 -1.375000000000003 0.49999999999999906
    vertex 2.3815698604072093 1.3749999999999918 0.49999999999999906
    vertex 2.65629602229494 0.7117523740319348 0.49999999999999906
  endloop
endfacet
facet normal 0.0 0.0 -1.0
  outer loop
    vertex 2.3815698604072093 -1.375000000000003 0.49999999999999906
    vertex 2.65629602229494 0.7117523740319348 0.49999999999999906
    vertex 2.65629602229494 -0.7117523740319348 0.49999999999999906
  endloop
endfacet
facet normal 0.0 0.0 -1.0
  outer loop
    vertex 2.65629602229494 -0.7117523740319348 0.49999999999999906
    vertex 2.65629602229494 0.7117523740319348 0.49999999999999906
    vertex 2.749999999999998 0.0 0.49999999999999906
  endloop
endfacet
facet normal 0.43230457532180827 -0.5633902913547525 0.7040625922196394
  outer loop
    vertex 1.374999999999972 -2.3815698604072035 3.982599999999918
    vertex 1.2374368670764386 -1.2374368670764613 4.982599999999916
    vertex 0.8749999999999702 -1.5155444566227587 4.982599999999916
  endloop
endfacet
facet normal 0.43230457532180827 -0.5633902913547525 0.7040625922196394
  outer loop
    vertex 1.2374368670764386 -1.2374368670764613 4.982599999999916
    vertex 1.374999999999972 -2.3815698604072035 3.982599999999918
    vertex 1.9445436482629936 -1.9445436482630105 3.982599999999918
  endloop
endfacet
facet normal 0.6087614290087033 -0.7933533402912485 0.0
  outer loop
    vertex 1.9445436482629936 -1.9445436482630105 3.982599999999918
    vertex 1.374999999999972 -2.3815698604072035 0.9999999999999756
    vertex 1.9445436482629936 -1.9445436482630105 0.9999999999999756
  endloop
endfacet
facet normal 0.6087614290087033 -0.7933533402912485 0.0
  outer loop
    vertex 1.374999999999972 -2.3815698604072035 0.9999999999999756
    vertex 1.9445436482629936 -1.9445436482630105 3.982599999999918
    vertex 1.374999999999972 -2.3815698604072035 3.982599999999918
  endloop
endfacet
facet normal 0.3826834323650963 -0.9238795325112841 0.0
  outer loop
    vertex 1.374999999999972 -2.3815698604072035 3.982599999999918
    vertex 0.7117523740318925 -2.656296022294945 0.9999999999999756
    vertex 1.374999999999972 -2.3815698604072035 0.9999999999999756
  endloop
endfacet
facet normal 0.3826834323650963 -0.9238795325112841 0.0
  outer loop
    vertex 0.7117523740318925 -2.656296022294945 0.9999999999999756
    vertex 1.374999999999972 -2.3815698604072035 3.982599999999918
    vertex 0.7117523740318925 -2.656296022294945 3.982599999999918
  endloop
endfacet
facet normal -0.3826834323650883 -0.9238795325112875 0.0
  outer loop
    vertex -0.7117523740319348 -2.656296022294934 3.982599999999918
    vertex -1.3750000000000036 -2.3815698604072035 0.9999999999999756
    vertex -0.7117523740319348 -2.656296022294934 0.9999999999999756
  endloop
endfacet
facet normal -0.3826834323650883 -0.9238795325112875 0.0
  outer loop
    vertex -1.3750000000000036 -2.3815698604072035 0.9999999999999756
    vertex -0.7117523740319348 -2.656296022294934 3.982599999999918
    vertex -1.3750000000000036 -2.3815698604072035 3.982599999999918
  endloop
endfacet
facet normal 0.9238795325112817 -0.38268343236510194 -0.0
  outer loop
    vertex 2.6562960222949283 -0.7117523740319348 0.9999999999999756
    vertex 2.3815698604071867 -1.375000000000003 3.982599999999918
    vertex 2.3815698604071867 -1.375000000000003 0.9999999999999756
  endloop
endfacet
facet normal 0.9238795325112817 -0.38268343236510194 -0.0
  outer loop
    vertex 2.3815698604071867 -1.375000000000003 3.982599999999918
    vertex 2.6562960222949283 -0.7117523740319348 0.9999999999999756
    vertex 2.6562960222949283 -0.7117523740319348 3.982599999999918
  endloop
endfacet
facet normal -0.13052619222004933 -0.9914448613738107 0.0
  outer loop
    vertex 0.0 -2.749999999999995 3.982599999999918
    vertex -0.7117523740319348 -2.656296022294934 0.9999999999999756
    vertex 0.0 -2.749999999999995 0.9999999999999756
  endloop
endfacet
facet normal -0.13052619222004933 -0.9914448613738107 0.0
  outer loop
    vertex -0.7117523740319348 -2.656296022294934 0.9999999999999756
    vertex 0.0 -2.749999999999995 3.982599999999918
    vertex -0.7117523740319348 -2.656296022294934 3.982599999999918
  endloop
endfacet
facet normal -0.27175801689780893 0.6560818900783159 0.7040625922196371
  outer loop
    vertex -0.8749999999999928 1.5155444566227811 4.982599999999916
    vertex -0.7117523740319348 2.656296022294945 3.982599999999918
    vertex -1.3749999999999922 2.381569860407226 3.982599999999918
  endloop
endfacet
facet normal -0.27175801689780893 0.6560818900783159 0.7040625922196371
  outer loop
    vertex -0.7117523740319348 2.656296022294945 3.982599999999918
    vertex -0.8749999999999928 1.5155444566227811 4.982599999999916
    vertex -0.452933328929412 1.6903701960058846 4.982599999999916
  endloop
endfacet
facet normal -0.6560818900783147 0.27175801689781653 0.7040625922196352
  outer loop
    vertex -1.6903701960058732 0.452933328929412 4.982599999999916
    vertex -2.3815698604072035 1.3749999999999918 3.982599999999918
    vertex -2.656296022294934 0.7117523740319348 3.982599999999918
  endloop
endfacet
facet normal -0.6560818900783147 0.27175801689781653 0.7040625922196352
  outer loop
    vertex -2.3815698604072035 1.3749999999999918 3.982599999999918
    vertex -1.6903701960058732 0.452933328929412 4.982599999999916
    vertex -1.5155444566227707 0.8749999999999928 4.982599999999916
  endloop
endfacet
facet normal 0.09269159872358573 0.7040625922196313 0.7040625922196398
  outer loop
    vertex 0.4529333289293838 1.6903701960058846 4.982599999999916
    vertex 0.0 2.750000000000029 3.982599999999918
    vertex 0.0 1.750000000000008 4.982599999999916
  endloop
endfacet
facet normal 0.09269159872358573 0.7040625922196313 0.7040625922196398
  outer loop
    vertex 0.0 2.750000000000029 3.982599999999918
    vertex 0.4529333289293838 1.6903701960058846 4.982599999999916
    vertex 0.711752374031915 2.656296022294945 3.982599999999918
  endloop
endfacet
facet normal 0.5633902913547457 -0.43230457532181726 0.7040625922196392
  outer loop
    vertex 1.9445436482629936 -1.9445436482630105 3.982599999999918
    vertex 1.5155444566227418 -0.875000000000004 4.982599999999916
    vertex 1.2374368670764386 -1.2374368670764613 4.982599999999916
  endloop
endfacet
facet normal 0.5633902913547457 -0.43230457532181726 0.7040625922196392
  outer loop
    vertex 1.5155444566227418 -0.875000000000004 4.982599999999916
    vertex 1.9445436482629936 -1.9445436482630105 3.982599999999918
    vertex 2.3815698604071867 -1.375000000000003 3.982599999999918
  endloop
endfacet
facet normal 0.09269159872356475 -0.7040625922196367 0.7040625922196374
  outer loop
    vertex 0.7117523740318925 -2.656296022294945 3.982599999999918
    vertex 0.0 -1.749999999999997 4.982599999999916
    vertex 0.0 -2.749999999999995 3.982599999999918
  endloop
endfacet
facet normal 0.09269159872356475 -0.7040625922196367 0.7040625922196374
  outer loop
    vertex 0.0 -1.749999999999997 4.982599999999916
    vertex 0.7117523740318925 -2.656296022294945 3.982599999999918
    vertex 0.4529333289293838 -1.6903701960058732 4.982599999999916
  endloop
endfacet
facet normal -0.923879532511285 -0.382683432365094 0.0
  outer loop
    vertex -2.656296022294934 -0.7117523740319348 3.982599999999918
    vertex -2.3815698604072035 -1.3749999999999918 0.9999999999999756
    vertex -2.3815698604072035 -1.3749999999999918 3.982599999999918
  endloop
endfacet
facet normal -0.923879532511285 -0.382683432365094 0.0
  outer loop
    vertex -2.3815698604072035 -1.3749999999999918 0.9999999999999756
    vertex -2.656296022294934 -0.7117523740319348 3.982599999999918
    vertex -2.656296022294934 -0.7117523740319348 0.9999999999999756
  endloop
endfacet
facet normal -0.09269159872358235 0.7040625922196321 0.7040625922196397
  outer loop
    vertex -0.452933328929412 1.6903701960058846 4.982599999999916
    vertex 0.0 2.750000000000029 3.982599999999918
    vertex -0.7117523740319348 2.656296022294945 3.982599999999918
  endloop
endfacet
facet normal -0.09269159872358235 0.7040625922196321 0.7040625922196397
  outer loop
    vertex 0.0 2.750000000000029 3.982599999999918
    vertex -0.452933328929412 1.6903701960058846 4.982599999999916
    vertex 0.0 1.750000000000008 4.982599999999916
  endloop
endfacet
facet normal -0.6087614290087229 -0.7933533402912334 0.0
  outer loop
    vertex -1.3750000000000036 -2.3815698604072035 3.982599999999918
    vertex -1.9445436482630105 -1.9445436482629992 0.9999999999999756
    vertex -1.3750000000000036 -2.3815698604072035 0.9999999999999756
  endloop
endfacet
facet normal -0.6087614290087229 -0.7933533402912334 0.0
  outer loop
    vertex -1.9445436482630105 -1.9445436482629992 0.9999999999999756
    vertex -1.3750000000000036 -2.3815698604072035 3.982599999999918
    vertex -1.9445436482630105 -1.9445436482629992 3.982599999999918
  endloop
endfacet
facet normal 0.9914448613738109 -0.13052619222004752 -0.0
  outer loop
    vertex 2.7499999999999867 -1.127986593019159e-14 0.9999999999999756
    vertex 2.6562960222949283 -0.7117523740319348 3.982599999999918
    vertex 2.6562960222949283 -0.7117523740319348 0.9999999999999756
  endloop
endfacet
facet normal 0.9914448613738109 -0.13052619222004752 -0.0
  outer loop
    vertex 2.6562960222949283 -0.7117523740319348 3.982599999999918
    vertex 2.7499999999999867 -1.127986593019159e-14 0.9999999999999756
    vertex 2.7499999999999867 -1.127986593019159e-14 3.982599999999918
  endloop
endfacet
facet normal -0.6560818900783149 -0.2717580168978145 0.7040625922196359
  outer loop
    vertex -2.3815698604072035 -1.3749999999999918 3.982599999999918
    vertex -1.6903701960058732 -0.45293332892940075 4.982599999999916
    vertex -2.656296022294934 -0.7117523740319348 3.982599999999918
  endloop
endfacet
facet normal -0.6560818900783149 -0.2717580168978145 0.7040625922196359
  outer loop
    vertex -1.6903701960058732 -0.45293332892940075 4.982599999999916
    vertex -2.3815698604072035 -1.3749999999999918 3.982599999999918
    vertex -1.5155444566227707 -0.8749999999999928 4.982599999999916
  endloop
endfacet
facet normal -0.5633902913547467 0.43230457532182465 0.7040625922196339
  outer loop
    vertex -1.5155444566227707 0.8749999999999928 4.982599999999916
    vertex -1.9445436482629992 1.9445436482629992 3.982599999999918
    vertex -2.3815698604072035 1.3749999999999918 3.982599999999918
  endloop
endfacet
facet normal -0.5633902913547467 0.43230457532182465 0.7040625922196339
  outer loop
    vertex -1.9445436482629992 1.9445436482629992 3.982599999999918
    vertex -1.5155444566227707 0.8749999999999928 4.982599999999916
    vertex -1.2374368670764613 1.2374368670764613 4.982599999999916
  endloop
endfacet
facet normal 0.2717580168978081 0.6560818900783154 0.7040625922196379
  outer loop
    vertex 0.8749999999999702 1.5155444566227811 4.982599999999916
    vertex 0.711752374031915 2.656296022294945 3.982599999999918
    vertex 0.4529333289293838 1.6903701960058846 4.982599999999916
  endloop
endfacet
facet normal 0.2717580168978081 0.6560818900783154 0.7040625922196379
  outer loop
    vertex 0.711752374031915 2.656296022294945 3.982599999999918
    vertex 0.8749999999999702 1.5155444566227811 4.982599999999916
    vertex 1.374999999999972 2.381569860407226 3.982599999999918
  endloop
endfacet
facet normal 0.6560818900783065 0.27175801689782436 0.7040625922196398
  outer loop
    vertex 1.6903701960058564 0.45293332892940075 4.982599999999916
    vertex 2.3815698604071867 1.3749999999999918 3.982599999999918
    vertex 1.5155444566227418 0.8749999999999928 4.982599999999916
  endloop
endfacet
facet normal 0.6560818900783065 0.27175801689782436 0.7040625922196398
  outer loop
    vertex 2.3815698604071867 1.3749999999999918 3.982599999999918
    vertex 1.6903701960058564 0.45293332892940075 4.982599999999916
    vertex 2.6562960222949283 0.7117523740319348 3.982599999999918
  endloop
endfacet
facet normal 0.9914448613738116 0.13052619222004347 -0.0
  outer loop
    vertex 2.6562960222949283 0.7117523740319348 0.9999999999999756
    vertex 2.7499999999999867 -1.127986593019159e-14 3.982599999999918
    vertex 2.7499999999999867 -1.127986593019159e-14 0.9999999999999756
  endloop
endfacet
facet normal 0.9914448613738116 0.13052619222004347 -0.0
  outer loop
    vertex 2.7499999999999867 -1.127986593019159e-14 3.982599999999918
    vertex 2.6562960222949283 0.7117523740319348 0.9999999999999756
    vertex 2.6562960222949283 0.7117523740319348 3.982599999999918
  endloop
endfacet
facet normal -0.9914448613738107 -0.13052619222004933 0.0
  outer loop
    vertex -2.749999999999995 0.0 3.982599999999918
    vertex -2.656296022294934 -0.7117523740319348 0.9999999999999756
    vertex -2.656296022294934 -0.7117523740319348 3.982599999999918
  endloop
endfacet
facet normal -0.9914448613738107 -0.13052619222004933 0.0
  outer loop
    vertex -2.656296022294934 -0.7117523740319348 0.9999999999999756
    vertex -2.749999999999995 0.0 3.982599999999918
    vertex -2.749999999999995 0.0 0.9999999999999756
  endloop
endfacet
facet normal -0.7933533402912413 -0.6087614290087128 0.0
  outer loop
    vertex -2.3815698604072035 -1.3749999999999918 3.982599999999918
    vertex -1.9445436482630105 -1.9445436482629992 0.9999999999999756
    vertex -1.9445436482630105 -1.9445436482629992 3.982599999999918
  endloop
endfacet
facet normal -0.7933533402912413 -0.6087614290087128 0.0
  outer loop
    vertex -1.9445436482630105 -1.9445436482629992 0.9999999999999756
    vertex -2.3815698604072035 -1.3749999999999918 3.982599999999918
    vertex -2.3815698604072035 -1.3749999999999918 0.9999999999999756
  endloop
endfacet
facet normal 0.27175801689782025 -0.6560818900783101 0.7040625922196382
  outer loop
    vertex 0.7117523740318925 -2.656296022294945 3.982599999999918
    vertex 0.8749999999999702 -1.5155444566227587 4.982599999999916
    vertex 0.4529333289293838 -1.6903701960058732 4.982599999999916
  endloop
endfacet
facet normal 0.27175801689782025 -0.6560818900783101 0.7040625922196382
  outer loop
    vertex 0.8749999999999702 -1.5155444566227587 4.982599999999916
    vertex 0.7117523740318925 -2.656296022294945 3.982599999999918
    vertex 1.374999999999972 -2.3815698604072035 3.982599999999918
  endloop
endfacet
facet normal 0.43230457532183075 0.5633902913547373 0.7040625922196377
  outer loop
    vertex 1.2374368670764386 1.2374368670764613 4.982599999999916
    vertex 1.374999999999972 2.381569860407226 3.982599999999918
    vertex 0.8749999999999702 1.5155444566227811 4.982599999999916
  endloop
endfacet
facet normal 0.43230457532183075 0.5633902913547373 0.7040625922196377
  outer loop
    vertex 1.374999999999972 2.381569860407226 3.982599999999918
    vertex 1.2374368670764386 1.2374368670764613 4.982599999999916
    vertex 1.9445436482629936 1.9445436482629992 3.982599999999918
  endloop
endfacet
facet normal -0.0926915987235673 -0.704062592219638 0.7040625922196356
  outer loop
    vertex 0.0 -1.749999999999997 4.982599999999916
    vertex -0.7117523740319348 -2.656296022294934 3.982599999999918
    vertex 0.0 -2.749999999999995 3.982599999999918
  endloop
endfacet
facet normal -0.0926915987235673 -0.704062592219638 0.7040625922196356
  outer loop
    vertex -0.7117523740319348 -2.656296022294934 3.982599999999918
    vertex 0.0 -1.749999999999997 4.982599999999916
    vertex -0.452933328929412 -1.6903701960058732 4.982599999999916
  endloop
endfacet
facet normal -0.7933533402912278 0.6087614290087303 0.0
  outer loop
    vertex 2.3815698604072093 -1.375000000000003 0.49999999999999906
    vertex 1.944543648263005 -1.9445436482629992 -2.5046333740767123e-30
    vertex 1.944543648263005 -1.9445436482629992 0.49999999999999906
  endloop
endfacet
facet normal -0.7933533402912278 0.6087614290087303 0.0
  outer loop
    vertex 1.944543648263005 -1.9445436482629992 -2.5046333740767123e-30
    vertex 2.3815698604072093 -1.375000000000003 0.49999999999999906
    vertex 2.3815698604072093 -1.375000000000003 -2.5046333740767123e-30
  endloop
endfacet
facet normal 0.13052619222004933 0.9914448613738107 -0.0
  outer loop
    vertex -0.7117523740319348 -2.656296022294945 0.49999999999999906
    vertex 0.0 -2.750000000000006 -2.5046333740767123e-30
    vertex -0.7117523740319348 -2.656296022294945 -2.5046333740767123e-30
  endloop
endfacet
facet normal 0.13052619222004933 0.9914448613738107 -0.0
  outer loop
    vertex 0.0 -2.750000000000006 -2.5046333740767123e-30
    vertex -0.7117523740319348 -2.656296022294945 0.49999999999999906
    vertex 0.0 -2.750000000000006 0.49999999999999906
  endloop
endfacet
facet normal -0.7933533402912336 -0.6087614290087227 0.0
  outer loop
    vertex 1.944543648263005 1.9445436482629992 0.49999999999999906
    vertex 2.3815698604072093 1.3749999999999918 -2.5046333740767123e-30
    vertex 2.3815698604072093 1.3749999999999918 0.49999999999999906
  endloop
endfacet
facet normal -0.7933533402912336 -0.6087614290087227 0.0
  outer loop
    vertex 2.3815698604072093 1.3749999999999918 -2.5046333740767123e-30
    vertex 1.944543648263005 1.9445436482629992 0.49999999999999906
    vertex 1.944543648263005 1.9445436482629992 -2.5046333740767123e-30
  endloop
endfacet
facet normal -0.9914448613738112 -0.13052619222004544 0.0
  outer loop
    vertex 2.65629602229494 0.7117523740319348 0.49999999999999906
    vertex 2.749999999999998 0.0 -2.5046333740767123e-30
    vertex 2.749999999999998 0.0 0.49999999999999906
  endloop
endfacet
facet normal -0.9914448613738112 -0.13052619222004544 0.0
  outer loop
    vertex 2.749999999999998 0.0 -2.5046333740767123e-30
    vertex 2.65629602229494 0.7117523740319348 0.49999999999999906
    vertex 2.65629602229494 0.7117523740319348 -2.5046333740767123e-30
  endloop
endfacet
facet normal -0.9914448613738112 0.13052619222004544 0.0
  outer loop
    vertex 2.749999999999998 0.0 0.49999999999999906
    vertex 2.65629602229494 -0.7117523740319348 -2.5046333740767123e-30
    vertex 2.65629602229494 -0.7117523740319348 0.49999999999999906
  endloop
endfacet
facet normal -0.9914448613738112 0.13052619222004544 0.0
  outer loop
    vertex 2.65629602229494 -0.7117523740319348 -2.5046333740767123e-30
    vertex 2.749999999999998 0.0 0.49999999999999906
    vertex 2.749999999999998 0.0 -2.5046333740767123e-30
  endloop
endfacet
facet normal 0.7933533402912336 -0.6087614290087227 -0.0
  outer loop
    vertex -1.944543648263005 1.9445436482629992 -2.5046333740767123e-30
    vertex -2.3815698604072093 1.3749999999999918 0.49999999999999906
    vertex -2.3815698604072093 1.3749999999999918 -2.5046333740767123e-30
  endloop
endfacet
facet normal 0.7933533402912336 -0.6087614290087227 -0.0
  outer loop
    vertex -2.3815698604072093 1.3749999999999918 0.49999999999999906
    vertex -1.944543648263005 1.9445436482629992 -2.5046333740767123e-30
    vertex -1.944543648263005 1.9445436482629992 0.49999999999999906
  endloop
endfacet
facet normal -0.6087614290087405 -0.7933533402912198 0.0
  outer loop
    vertex 1.944543648263005 1.9445436482629992 0.49999999999999906
    vertex 1.3749999999999947 2.381569860407226 -2.5046333740767123e-30
    vertex 1.944543648263005 1.9445436482629992 -2.5046333740767123e-30
  endloop
endfacet
facet normal -0.6087614290087405 -0.7933533402912198 0.0
  outer loop
    vertex 1.3749999999999947 2.381569860407226 -2.5046333740767123e-30
    vertex 1.944543648263005 1.9445436482629992 0.49999999999999906
    vertex 1.3749999999999947 2.381569860407226 0.49999999999999906
  endloop
endfacet
facet normal 0.7933533402912375 0.6087614290087177 -0.0
  outer loop
    vertex -2.3815698604072093 -1.3749999999999918 -2.5046333740767123e-30
    vertex -1.9445436482630105 -1.9445436482629992 0.49999999999999906
    vertex -1.9445436482630105 -1.9445436482629992 -2.5046333740767123e-30
  endloop
endfacet
facet normal 0.7933533402912375 0.6087614290087177 -0.0
  outer loop
    vertex -1.9445436482630105 -1.9445436482629992 0.49999999999999906
    vertex -2.3815698604072093 -1.3749999999999918 -2.5046333740767123e-30
    vertex -2.3815698604072093 -1.3749999999999918 0.49999999999999906
  endloop
endfacet
facet normal -0.6087614290087207 0.7933533402912352 -0.0
  outer loop
    vertex 1.3749999999999947 -2.3815698604072035 0.49999999999999906
    vertex 1.944543648263005 -1.9445436482629992 -2.5046333740767123e-30
    vertex 1.3749999999999947 -2.3815698604072035 -2.5046333740767123e-30
  endloop
endfacet
facet normal -0.6087614290087207 0.7933533402912352 -0.0
  outer loop
    vertex 1.944543648263005 -1.9445436482629992 -2.5046333740767123e-30
    vertex 1.3749999999999947 -2.3815698604072035 0.49999999999999906
    vertex 1.944543648263005 -1.9445436482629992 0.49999999999999906
  endloop
endfacet
facet normal -0.13052619222005085 0.9914448613738105 -0.0
  outer loop
    vertex 0.0 -2.750000000000006 0.49999999999999906
    vertex 0.7117523740319264 -2.656296022294945 -2.5046333740767123e-30
    vertex 0.0 -2.750000000000006 -2.5046333740767123e-30
  endloop
endfacet
facet normal -0.13052619222005085 0.9914448613738105 -0.0
  outer loop
    vertex 0.7117523740319264 -2.656296022294945 -2.5046333740767123e-30
    vertex 0.0 -2.750000000000006 0.49999999999999906
    vertex 0.7117523740319264 -2.656296022294945 0.49999999999999906
  endloop
endfacet
facet normal -0.923879532511285 -0.382683432365094 0.0
  outer loop
    vertex 2.3815698604072093 1.3749999999999918 0.49999999999999906
    vertex 2.65629602229494 0.7117523740319348 -2.5046333740767123e-30
    vertex 2.65629602229494 0.7117523740319348 0.49999999999999906
  endloop
endfacet
facet normal -0.923879532511285 -0.382683432365094 0.0
  outer loop
    vertex 2.65629602229494 0.7117523740319348 -2.5046333740767123e-30
    vertex 2.3815698604072093 1.3749999999999918 0.49999999999999906
    vertex 2.3815698604072093 1.3749999999999918 -2.5046333740767123e-30
  endloop
endfacet
facet normal 0.13052619222008022 -0.9914448613738068 0.0
  outer loop
    vertex 0.0 2.750000000000029 0.49999999999999906
    vertex -0.7117523740319348 2.656296022294945 -2.5046333740767123e-30
    vertex 0.0 2.750000000000029 -2.5046333740767123e-30
  endloop
endfacet
facet normal 0.13052619222008022 -0.9914448613738068 0.0
  outer loop
    vertex -0.7117523740319348 2.656296022294945 -2.5046333740767123e-30
    vertex 0.0 2.750000000000029 0.49999999999999906
    vertex -0.7117523740319348 2.656296022294945 0.49999999999999906
  endloop
endfacet
facet normal 0.9914448613738107 0.13052619222004933 -0.0
  outer loop
    vertex -2.7500000000000004 0.0 -2.5046333740767123e-30
    vertex -2.65629602229494 -0.7117523740319348 0.49999999999999906
    vertex -2.65629602229494 -0.7117523740319348 -2.5046333740767123e-30
  endloop
endfacet
facet normal 0.9914448613738107 0.13052619222004933 -0.0
  outer loop
    vertex -2.65629602229494 -0.7117523740319348 0.49999999999999906
    vertex -2.7500000000000004 0.0 -2.5046333740767123e-30
    vertex -2.7500000000000004 0.0 0.49999999999999906
  endloop
endfacet
facet normal 0.9914448613738107 -0.13052619222004933 -0.0
  outer loop
    vertex -2.65629602229494 0.7117523740319348 -2.5046333740767123e-30
    vertex -2.7500000000000004 0.0 0.49999999999999906
    vertex -2.7500000000000004 0.0 -2.5046333740767123e-30
  endloop
endfacet
facet normal 0.9914448613738107 -0.13052619222004933 -0.0
  outer loop
    vertex -2.7500000000000004 0.0 0.49999999999999906
    vertex -2.65629602229494 0.7117523740319348 -2.5046333740767123e-30
    vertex -2.65629602229494 0.7117523740319348 0.49999999999999906
  endloop
endfacet
facet normal -0.13052619222008174 -0.9914448613738066 0.0
  outer loop
    vertex 0.7117523740319264 2.656296022294945 0.49999999999999906
    vertex 0.0 2.750000000000029 -2.5046333740767123e-30
    vertex 0.7117523740319264 2.656296022294945 -2.5046333740767123e-30
  endloop
endfacet
facet normal -0.13052619222008174 -0.9914448613738066 0.0
  outer loop
    vertex 0.0 2.750000000000029 -2.5046333740767123e-30
    vertex 0.7117523740319264 2.656296022294945 0.49999999999999906
    vertex 0.0 2.750000000000029 0.49999999999999906
  endloop
endfacet
facet normal -0.3826834323651019 0.9238795325112817 -0.0
  outer loop
    vertex 0.7117523740319264 -2.656296022294945 0.49999999999999906
    vertex 1.3749999999999947 -2.3815698604072035 -2.5046333740767123e-30
    vertex 0.7117523740319264 -2.656296022294945 -2.5046333740767123e-30
  endloop
endfacet
facet normal -0.3826834323651019 0.9238795325112817 -0.0
  outer loop
    vertex 1.3749999999999947 -2.3815698604072035 -2.5046333740767123e-30
    vertex 0.7117523740319264 -2.656296022294945 0.49999999999999906
    vertex 1.3749999999999947 -2.3815698604072035 0.49999999999999906
  endloop
endfacet
facet normal 0.923879532511285 -0.382683432365094 -0.0
  outer loop
    vertex -2.3815698604072093 1.3749999999999918 -2.5046333740767123e-30
    vertex -2.65629602229494 0.7117523740319348 0.49999999999999906
    vertex -2.65629602229494 0.7117523740319348 -2.5046333740767123e-30
  endloop
endfacet
facet normal 0.923879532511285 -0.382683432365094 -0.0
  outer loop
    vertex -2.65629602229494 0.7117523740319348 0.49999999999999906
    vertex -2.3815698604072093 1.3749999999999918 -2.5046333740767123e-30
    vertex -2.3815698604072093 1.3749999999999918 0.49999999999999906
  endloop
endfacet
facet normal 0.6087614290087465 -0.7933533402912153 0.0
  outer loop
    vertex -1.3750000000000036 2.381569860407226 0.49999999999999906
    vertex -1.944543648263005 1.9445436482629992 -2.5046333740767123e-30
    vertex -1.3750000000000036 2.381569860407226 -2.5046333740767123e-30
  endloop
endfacet
facet normal 0.6087614290087465 -0.7933533402912153 0.0
  outer loop
    vertex -1.944543648263005 1.9445436482629992 -2.5046333740767123e-30
    vertex -1.3750000000000036 2.381569860407226 0.49999999999999906
    vertex -1.944543648263005 1.9445436482629992 0.49999999999999906
  endloop
endfacet
facet normal 0.923879532511285 0.382683432365094 -0.0
  outer loop
    vertex -2.65629602229494 -0.7117523740319348 -2.5046333740767123e-30
    vertex -2.3815698604072093 -1.3749999999999918 0.49999999999999906
    vertex -2.3815698604072093 -1.3749999999999918 -2.5046333740767123e-30
  endloop
endfacet
facet normal 0.923879532511285 0.382683432365094 -0.0
  outer loop
    vertex -2.3815698604072093 -1.3749999999999918 0.49999999999999906
    vertex -2.65629602229494 -0.7117523740319348 -2.5046333740767123e-30
    vertex -2.65629602229494 -0.7117523740319348 0.49999999999999906
  endloop
endfacet
facet normal -0.38268343236507507 -0.923879532511293 0.0
  outer loop
    vertex 1.3749999999999947 2.381569860407226 0.49999999999999906
    vertex 0.7117523740319264 2.656296022294945 -2.5046333740767123e-30
    vertex 1.3749999999999947 2.381569860407226 -2.5046333740767123e-30
  endloop
endfacet
facet normal -0.38268343236507507 -0.923879532511293 0.0
  outer loop
    vertex 0.7117523740319264 2.656296022294945 -2.5046333740767123e-30
    vertex 1.3749999999999947 2.381569860407226 0.49999999999999906
    vertex 0.7117523740319264 2.656296022294945 0.49999999999999906
  endloop
endfacet
facet normal 0.38268343236507485 -0.923879532511293 0.0
  outer loop
    vertex -0.7117523740319348 2.656296022294945 0.49999999999999906
    vertex -1.3750000000000036 2.381569860407226 -2.5046333740767123e-30
    vertex -0.7117523740319348 2.656296022294945 -2.5046333740767123e-30
  endloop
endfacet
facet normal 0.38268343236507485 -0.923879532511293 0.0
  outer loop
    vertex -1.3750000000000036 2.381569860407226 -2.5046333740767123e-30
    vertex -0.7117523740319348 2.656296022294945 0.49999999999999906
    vertex -1.3750000000000036 2.381569860407226 0.49999999999999906
  endloop
endfacet
facet normal -0.9238795325112873 0.38268343236508845 0.0
  outer loop
    vertex 2.65629602229494 -0.7117523740319348 0.49999999999999906
    vertex 2.3815698604072093 -1.375000000000003 -2.5046333740767123e-30
    vertex 2.3815698604072093 -1.375000000000003 0.49999999999999906
  endloop
endfacet
facet normal -0.9238795325112873 0.38268343236508845 0.0
  outer loop
    vertex 2.3815698604072093 -1.375000000000003 -2.5046333740767123e-30
    vertex 2.65629602229494 -0.7117523740319348 0.49999999999999906
    vertex 2.65629602229494 -0.7117523740319348 -2.5046333740767123e-30
  endloop
endfacet
facet normal 0.6087614290087229 0.7933533402912334 -0.0
  outer loop
    vertex -1.9445436482630105 -1.9445436482629992 0.49999999999999906
    vertex -1.3750000000000036 -2.3815698604072035 -2.5046333740767123e-30
    vertex -1.9445436482630105 -1.9445436482629992 -2.5046333740767123e-30
  endloop
endfacet
facet normal 0.6087614290087229 0.7933533402912334 -0.0
  outer loop
    vertex -1.3750000000000036 -2.3815698604072035 -2.5046333740767123e-30
    vertex -1.9445436482630105 -1.9445436482629992 0.49999999999999906
    vertex -1.3750000000000036 -2.3815698604072035 0.49999999999999906
  endloop
endfacet
facet normal -0.0 -0.0 1.0
  outer loop
    vertex -3.6222218485840063 -0.9705714191344463 0.9999999999999756
    vertex -3.6222218485840063 0.9705714191344575 0.9999999999999756
    vertex -3.7500000000000044 0.0 0.9999999999999756
  endloop
endfacet
facet normal -0.0 -0.0 1.0
  outer loop
    vertex -3.6222218485840063 0.9705714191344575 0.9999999999999756
    vertex -3.6222218485840063 -0.9705714191344463 0.9999999999999756
    vertex -3.247595264191648 -1.8750000000000022 0.9999999999999756
  endloop
endfacet
facet normal -0.0 -0.0 1.0
  outer loop
    vertex -3.6222218485840063 0.9705714191344575 0.9999999999999756
    vertex -3.247595264191648 -1.8750000000000022 0.9999999999999756
    vertex -3.247595264191637 1.8750000000000022 0.9999999999999756
  endloop
endfacet
facet normal -0.0 -0.0 1.0
  outer loop
    vertex -3.247595264191637 1.8750000000000022 0.9999999999999756
    vertex -3.247595264191648 -1.8750000000000022 0.9999999999999756
    vertex -2.65165042944956 -2.6516504294495484 0.9999999999999756
  endloop
endfacet
facet normal -0.0 -0.0 1.0
  outer loop
    vertex -3.247595264191637 1.8750000000000022 0.9999999999999756
    vertex -2.65165042944956 -2.6516504294495484 0.9999999999999756
    vertex -2.749999999999995 0.0 0.9999999999999756
  endloop
endfacet
facet normal -0.0 -0.0 1.0
  outer loop
    vertex -2.749999999999995 0.0 0.9999999999999756
    vertex -2.65165042944956 -2.6516504294495484 0.9999999999999756
    vertex -2.656296022294934 -0.7117523740319348 0.9999999999999756
  endloop
endfacet
facet normal -0.0 -0.0 1.0
  outer loop
    vertex -2.656296022294934 -0.7117523740319348 0.9999999999999756
    vertex -2.65165042944956 -2.6516504294495484 0.9999999999999756
    vertex -2.3815698604072035 -1.3749999999999918 0.9999999999999756
  endloop
endfacet
facet normal -0.0 -0.0 1.0
  outer loop
    vertex -2.3815698604072035 -1.3749999999999918 0.9999999999999756
    vertex -2.65165042944956 -2.6516504294495484 0.9999999999999756
    vertex -1.8750000000000022 -3.247595264191637 0.9999999999999756
  endloop
endfacet
facet normal -0.0 -0.0 1.0
  outer loop
    vertex -2.3815698604072035 -1.3749999999999918 0.9999999999999756
    vertex -1.8750000000000022 -3.247595264191637 0.9999999999999756
    vertex -1.9445436482630105 -1.9445436482629992 0.9999999999999756
  endloop
endfacet
facet normal -0.0 -0.0 1.0
  outer loop
    vertex -1.9445436482630105 -1.9445436482629992 0.9999999999999756
    vertex -1.8750000000000022 -3.247595264191637 0.9999999999999756
    vertex -1.3750000000000036 -2.3815698604072035 0.9999999999999756
  endloop
endfacet
facet normal -0.0 -0.0 1.0
  outer loop
    vertex -1.3750000000000036 -2.3815698604072035 0.9999999999999756
    vertex -1.8750000000000022 -3.247595264191637 0.9999999999999756
    vertex -0.9705714191344575 -3.6222218485840063 0.9999999999999756
  endloop
endfacet
facet normal -0.0 -0.0 1.0
  outer loop
    vertex -1.3750000000000036 -2.3815698604072035 0.9999999999999756
    vertex -0.9705714191344575 -3.6222218485840063 0.9999999999999756
    vertex -0.7117523740319348 -2.656296022294934 0.9999999999999756
  endloop
endfacet
facet normal -0.0 -0.0 1.0
  outer loop
    vertex -0.7117523740319348 -2.656296022294934 0.9999999999999756
    vertex -0.9705714191344575 -3.6222218485840063 0.9999999999999756
    vertex 0.0 -3.7499999999999933 0.9999999999999756
  endloop
endfacet
facet normal -0.0 -0.0 1.0
  outer loop
    vertex -0.7117523740319348 -2.656296022294934 0.9999999999999756
    vertex 0.0 -3.7499999999999933 0.9999999999999756
    vertex 0.0 -2.749999999999995 0.9999999999999756
  endloop
endfacet
facet normal -0.0 -0.0 1.0
  outer loop
    vertex 0.0 -2.749999999999995 0.9999999999999756
    vertex 0.0 -3.7499999999999933 0.9999999999999756
    vertex 0.9705714191344237 -3.6222218485840063 0.9999999999999756
  endloop
endfacet
facet normal -0.0 -0.0 1.0
  outer loop
    vertex 0.0 -2.749999999999995 0.9999999999999756
    vertex 0.9705714191344237 -3.6222218485840063 0.9999999999999756
    vertex 0.7117523740318925 -2.656296022294945 0.9999999999999756
  endloop
endfacet
facet normal -0.0 -0.0 1.0
  outer loop
    vertex 0.7117523740318925 -2.656296022294945 0.9999999999999756
    vertex 0.9705714191344237 -3.6222218485840063 0.9999999999999756
    vertex 1.374999999999972 -2.3815698604072035 0.9999999999999756
  endloop
endfacet
facet normal -0.0 -0.0 1.0
  outer loop
    vertex 1.374999999999972 -2.3815698604072035 0.9999999999999756
    vertex 0.9705714191344237 -3.6222218485840063 0.9999999999999756
    vertex 1.874999999999974 -3.247595264191637 0.9999999999999756
  endloop
endfacet
facet normal -0.0 -0.0 1.0
  outer loop
    vertex 1.374999999999972 -2.3815698604072035 0.9999999999999756
    vertex 1.874999999999974 -3.247595264191637 0.9999999999999756
    vertex 1.9445436482629936 -1.9445436482630105 0.9999999999999756
  endloop
endfacet
facet normal -0.0 -0.0 1.0
  outer loop
    vertex 1.9445436482629936 -1.9445436482630105 0.9999999999999756
    vertex 1.874999999999974 -3.247595264191637 0.9999999999999756
    vertex 2.6516504294495316 -2.6516504294495484 0.9999999999999756
  endloop
endfacet
facet normal -0.0 -0.0 1.0
  outer loop
    vertex 1.9445436482629936 -1.9445436482630105 0.9999999999999756
    vertex 2.6516504294495316 -2.6516504294495484 0.9999999999999756
    vertex 2.3815698604071867 -1.375000000000003 0.9999999999999756
  endloop
endfacet
facet normal -0.0 -0.0 1.0
  outer loop
    vertex 2.3815698604071867 -1.375000000000003 0.9999999999999756
    vertex 2.6516504294495316 -2.6516504294495484 0.9999999999999756
    vertex 2.6562960222949283 -0.7117523740319348 0.9999999999999756
  endloop
endfacet
facet normal -0.0 -0.0 1.0
  outer loop
    vertex 2.6562960222949283 -0.7117523740319348 0.9999999999999756
    vertex 2.6516504294495316 -2.6516504294495484 0.9999999999999756
    vertex 3.2475952641916344 -1.8750000000000022 0.9999999999999756
  endloop
endfacet
facet normal -0.0 -0.0 1.0
  outer loop
    vertex 2.6562960222949283 -0.7117523740319348 0.9999999999999756
    vertex 3.2475952641916344 -1.8750000000000022 0.9999999999999756
    vertex 2.7499999999999867 -1.127986593019159e-14 0.9999999999999756
  endloop
endfacet
facet normal -0.0 -0.0 1.0
  outer loop
    vertex -2.749999999999995 0.0 0.9999999999999756
    vertex -2.6516504294495484 2.651650429449571 0.9999999999999756
    vertex -3.247595264191637 1.8750000000000022 0.9999999999999756
  endloop
endfacet
facet normal -0.0 -0.0 1.0
  outer loop
    vertex -2.6516504294495484 2.651650429449571 0.9999999999999756
    vertex -2.749999999999995 0.0 0.9999999999999756
    vertex -2.656296022294934 0.7117523740319348 0.9999999999999756
  endloop
endfacet
facet normal -0.0 -0.0 1.0
  outer loop
    vertex -2.6516504294495484 2.651650429449571 0.9999999999999756
    vertex -2.656296022294934 0.7117523740319348 0.9999999999999756
    vertex -2.3815698604072035 1.3749999999999918 0.9999999999999756
  endloop
endfacet
facet normal -0.0 -0.0 1.0
  outer loop
    vertex -2.6516504294495484 2.651650429449571 0.9999999999999756
    vertex -2.3815698604072035 1.3749999999999918 0.9999999999999756
    vertex -1.874999999999991 3.2475952641916708 0.9999999999999756
  endloop
endfacet
facet normal -0.0 -0.0 1.0
  outer loop
    vertex -1.874999999999991 3.2475952641916708 0.9999999999999756
    vertex -2.3815698604072035 1.3749999999999918 0.9999999999999756
    vertex -1.9445436482629992 1.9445436482629992 0.9999999999999756
  endloop
endfacet
facet normal -0.0 -0.0 1.0
  outer loop
    vertex -1.874999999999991 3.2475952641916708 0.9999999999999756
    vertex -1.9445436482629992 1.9445436482629992 0.9999999999999756
    vertex -1.3749999999999922 2.381569860407226 0.9999999999999756
  endloop
endfacet
facet normal -0.0 -0.0 1.0
  outer loop
    vertex -1.874999999999991 3.2475952641916708 0.9999999999999756
    vertex -1.3749999999999922 2.381569860407226 0.9999999999999756
    vertex -0.9705714191344463 3.622221848584037 0.9999999999999756
  endloop
endfacet
facet normal -0.0 -0.0 1.0
  outer loop
    vertex -0.9705714191344463 3.622221848584037 0.9999999999999756
    vertex -1.3749999999999922 2.381569860407226 0.9999999999999756
    vertex -0.7117523740319348 2.656296022294945 0.9999999999999756
  endloop
endfacet
facet normal -0.0 -0.0 1.0
  outer loop
    vertex -0.9705714191344463 3.622221848584037 0.9999999999999756
    vertex -0.7117523740319348 2.656296022294945 0.9999999999999756
    vertex 0.0 3.7500000000000355 0.9999999999999756
  endloop
endfacet
facet normal -0.0 -0.0 1.0
  outer loop
    vertex 0.0 3.7500000000000355 0.9999999999999756
    vertex -0.7117523740319348 2.656296022294945 0.9999999999999756
    vertex 0.0 2.750000000000029 0.9999999999999756
  endloop
endfacet
facet normal -0.0 -0.0 1.0
  outer loop
    vertex 0.0 3.7500000000000355 0.9999999999999756
    vertex 0.0 2.750000000000029 0.9999999999999756
    vertex 0.711752374031915 2.656296022294945 0.9999999999999756
  endloop
endfacet
facet normal -0.0 -0.0 1.0
  outer loop
    vertex 0.0 3.7500000000000355 0.9999999999999756
    vertex 0.711752374031915 2.656296022294945 0.9999999999999756
    vertex 0.9705714191344237 3.622221848584037 0.9999999999999756
  endloop
endfacet
facet normal -0.0 -0.0 1.0
  outer loop
    vertex 0.9705714191344237 3.622221848584037 0.9999999999999756
    vertex 0.711752374031915 2.656296022294945 0.9999999999999756
    vertex 1.374999999999972 2.381569860407226 0.9999999999999756
  endloop
endfacet
facet normal -0.0 -0.0 1.0
  outer loop
    vertex 0.9705714191344237 3.622221848584037 0.9999999999999756
    vertex 1.374999999999972 2.381569860407226 0.9999999999999756
    vertex 1.8749999999999967 3.2475952641916708 0.9999999999999756
  endloop
endfacet
facet normal -0.0 -0.0 1.0
  outer loop
    vertex 1.8749999999999967 3.2475952641916708 0.9999999999999756
    vertex 1.374999999999972 2.381569860407226 0.9999999999999756
    vertex 1.9445436482629936 1.9445436482629992 0.9999999999999756
  endloop
endfacet
facet normal -0.0 -0.0 1.0
  outer loop
    vertex 1.8749999999999967 3.2475952641916708 0.9999999999999756
    vertex 1.9445436482629936 1.9445436482629992 0.9999999999999756
    vertex 2.6516504294495316 2.651650429449571 0.9999999999999756
  endloop
endfacet
facet normal -0.0 -0.0 1.0
  outer loop
    vertex 2.6516504294495316 2.651650429449571 0.9999999999999756
    vertex 1.9445436482629936 1.9445436482629992 0.9999999999999756
    vertex 2.3815698604071867 1.3749999999999918 0.9999999999999756
  endloop
endfacet
facet normal -0.0 -0.0 1.0
  outer loop
    vertex 2.6516504294495316 2.651650429449571 0.9999999999999756
    vertex 2.3815698604071867 1.3749999999999918 0.9999999999999756
    vertex 2.6562960222949283 0.7117523740319348 0.9999999999999756
  endloop
endfacet
facet normal -0.0 -0.0 1.0
  outer loop
    vertex 2.6516504294495316 2.651650429449571 0.9999999999999756
    vertex 2.6562960222949283 0.7117523740319348 0.9999999999999756
    vertex 3.2475952641916344 1.8750000000000022 0.9999999999999756
  endloop
endfacet
facet normal -0.0 -0.0 1.0
  outer loop
    vertex 3.2475952641916344 1.8750000000000022 0.9999999999999756
    vertex 2.6562960222949283 0.7117523740319348 0.9999999999999756
    vertex 2.7499999999999867 -1.127986593019159e-14 0.9999999999999756
  endloop
endfacet
facet normal -0.0 -0.0 1.0
  outer loop
    vertex 3.2475952641916344 1.8750000000000022 0.9999999999999756
    vertex 2.7499999999999867 -1.127986593019159e-14 0.9999999999999756
    vertex 3.2475952641916344 -1.8750000000000022 0.9999999999999756
  endloop
endfacet
facet normal -0.0 -0.0 1.0
  outer loop
    vertex 3.2475952641916344 1.8750000000000022 0.9999999999999756
    vertex 3.2475952641916344 -1.8750000000000022 0.9999999999999756
    vertex 3.6222218485840174 -0.9705714191344463 0.9999999999999756
  endloop
endfacet
facet normal -0.0 -0.0 1.0
  outer loop
    vertex 3.2475952641916344 1.8750000000000022 0.9999999999999756
    vertex 3.6222218485840174 -0.9705714191344463 0.9999999999999756
    vertex 3.6222218485840174 0.9705714191344463 0.9999999999999756
  endloop
endfacet
facet normal -0.0 -0.0 1.0
  outer loop
    vertex 3.6222218485840174 0.9705714191344463 0.9999999999999756
    vertex 3.6222218485840174 -0.9705714191344463 0.9999999999999756
    vertex 3.7499999999999933 0.0 0.9999999999999756
  endloop
endfacet
facet normal 0.13052619222004852 -0.9914448613738109 0.0
  outer loop
    vertex 0.9705714191344237 -3.6222218485840063 0.9999999999999756
    vertex 0.0 -3.7499999999999933 -2.5046333740767123e-30
    vertex 0.9705714191344237 -3.6222218485840063 -2.5046333740767123e-30
  endloop
endfacet
facet normal 0.13052619222004852 -0.9914448613738109 0.0
  outer loop
    vertex 0.0 -3.7499999999999933 -2.5046333740767123e-30
    vertex 0.9705714191344237 -3.6222218485840063 0.9999999999999756
    vertex 0.0 -3.7499999999999933 0.9999999999999756
  endloop
endfacet
facet normal -0.7933533402912342 -0.6087614290087219 0.0
  outer loop
    vertex -3.247595264191648 -1.8750000000000022 0.9999999999999756
    vertex -2.65165042944956 -2.6516504294495484 -2.5046333740767123e-30
    vertex -2.65165042944956 -2.6516504294495484 0.9999999999999756
  endloop
endfacet
facet normal -0.7933533402912342 -0.6087614290087219 0.0
  outer loop
    vertex -2.65165042944956 -2.6516504294495484 -2.5046333740767123e-30
    vertex -3.247595264191648 -1.8750000000000022 0.9999999999999756
    vertex -3.247595264191648 -1.8750000000000022 -2.5046333740767123e-30
  endloop
endfacet
facet normal 0.9238795325112801 -0.3826834323651058 -0.0
  outer loop
    vertex 3.6222218485840174 -0.9705714191344463 -2.5046333740767123e-30
    vertex 3.2475952641916344 -1.8750000000000022 0.9999999999999756
    vertex 3.2475952641916344 -1.8750000000000022 -2.5046333740767123e-30
  endloop
endfacet
facet normal 0.9238795325112801 -0.3826834323651058 -0.0
  outer loop
    vertex 3.2475952641916344 -1.8750000000000022 0.9999999999999756
    vertex 3.6222218485840174 -0.9705714191344463 -2.5046333740767123e-30
    vertex 3.6222218485840174 -0.9705714191344463 0.9999999999999756
  endloop
endfacet
facet normal 0.7933533402912273 -0.608761429008731 -0.0
  outer loop
    vertex 3.2475952641916344 -1.8750000000000022 -2.5046333740767123e-30
    vertex 2.6516504294495316 -2.6516504294495484 0.9999999999999756
    vertex 2.6516504294495316 -2.6516504294495484 -2.5046333740767123e-30
  endloop
endfacet
facet normal 0.7933533402912273 -0.608761429008731 -0.0
  outer loop
    vertex 2.6516504294495316 -2.6516504294495484 0.9999999999999756
    vertex 3.2475952641916344 -1.8750000000000022 -2.5046333740767123e-30
    vertex 3.2475952641916344 -1.8750000000000022 0.9999999999999756
  endloop
endfacet
facet normal -0.38268343236509755 -0.9238795325112835 0.0
  outer loop
    vertex -0.9705714191344575 -3.6222218485840063 0.9999999999999756
    vertex -1.8750000000000022 -3.247595264191637 -2.5046333740767123e-30
    vertex -0.9705714191344575 -3.6222218485840063 -2.5046333740767123e-30
  endloop
endfacet
facet normal -0.38268343236509755 -0.9238795325112835 0.0
  outer loop
    vertex -1.8750000000000022 -3.247595264191637 -2.5046333740767123e-30
    vertex -0.9705714191344575 -3.6222218485840063 0.9999999999999756
    vertex -1.8750000000000022 -3.247595264191637 0.9999999999999756
  endloop
endfacet
facet normal -0.9238795325112835 0.38268343236509755 0.0
  outer loop
    vertex -3.247595264191637 1.8750000000000022 0.9999999999999756
    vertex -3.6222218485840063 0.9705714191344575 -2.5046333740767123e-30
    vertex -3.6222218485840063 0.9705714191344575 0.9999999999999756
  endloop
endfacet
facet normal -0.9238795325112835 0.38268343236509755 0.0
  outer loop
    vertex -3.6222218485840063 0.9705714191344575 -2.5046333740767123e-30
    vertex -3.247595264191637 1.8750000000000022 0.9999999999999756
    vertex -3.247595264191637 1.8750000000000022 -2.5046333740767123e-30
  endloop
endfacet
facet normal -0.7933533402912426 0.6087614290087109 0.0
  outer loop
    vertex -2.6516504294495484 2.651650429449571 0.9999999999999756
    vertex -3.247595264191637 1.8750000000000022 -2.5046333740767123e-30
    vertex -3.247595264191637 1.8750000000000022 0.9999999999999756
  endloop
endfacet
facet normal -0.7933533402912426 0.6087614290087109 0.0
  outer loop
    vertex -3.247595264191637 1.8750000000000022 -2.5046333740767123e-30
    vertex -2.6516504294495484 2.651650429449571 0.9999999999999756
    vertex -2.6516504294495484 2.651650429449571 -2.5046333740767123e-30
  endloop
endfacet
facet normal 0.7933533402912357 0.6087614290087199 -0.0
  outer loop
    vertex 2.6516504294495316 2.651650429449571 -2.5046333740767123e-30
    vertex 3.2475952641916344 1.8750000000000022 0.9999999999999756
    vertex 3.2475952641916344 1.8750000000000022 -2.5046333740767123e-30
  endloop
endfacet
facet normal 0.7933533402912357 0.6087614290087199 -0.0
  outer loop
    vertex 3.2475952641916344 1.8750000000000022 0.9999999999999756
    vertex 2.6516504294495316 2.651650429449571 -2.5046333740767123e-30
    vertex 2.6516504294495316 2.651650429449571 0.9999999999999756
  endloop
endfacet
facet normal -0.13052619222005687 0.9914448613738098 -0.0
  outer loop
    vertex -0.9705714191344463 3.622221848584037 0.9999999999999756
    vertex 0.0 3.7500000000000355 -2.5046333740767123e-30
    vertex -0.9705714191344463 3.622221848584037 -2.5046333740767123e-30
  endloop
endfacet
facet normal -0.13052619222005687 0.9914448613738098 -0.0
  outer loop
    vertex 0.0 3.7500000000000355 -2.5046333740767123e-30
    vertex -0.9705714191344463 3.622221848584037 0.9999999999999756
    vertex 0.0 3.7500000000000355 0.9999999999999756
  endloop
endfacet
facet normal 0.38268343236509555 -0.9238795325112844 0.0
  outer loop
    vertex 1.874999999999974 -3.247595264191637 0.9999999999999756
    vertex 0.9705714191344237 -3.6222218485840063 -2.5046333740767123e-30
    vertex 1.874999999999974 -3.247595264191637 -2.5046333740767123e-30
  endloop
endfacet
facet normal 0.38268343236509555 -0.9238795325112844 0.0
  outer loop
    vertex 0.9705714191344237 -3.6222218485840063 -2.5046333740767123e-30
    vertex 1.874999999999974 -3.247595264191637 0.9999999999999756
    vertex 0.9705714191344237 -3.6222218485840063 0.9999999999999756
  endloop
endfacet
facet normal -0.9238795325112894 -0.3826834323650838 0.0
  outer loop
    vertex -3.6222218485840063 -0.9705714191344463 0.9999999999999756
    vertex -3.247595264191648 -1.8750000000000022 -2.5046333740767123e-30
    vertex -3.247595264191648 -1.8750000000000022 0.9999999999999756
  endloop
endfacet
facet normal -0.9238795325112894 -0.3826834323650838 0.0
  outer loop
    vertex -3.247595264191648 -1.8750000000000022 -2.5046333740767123e-30
    vertex -3.6222218485840063 -0.9705714191344463 0.9999999999999756
    vertex -3.6222218485840063 -0.9705714191344463 -2.5046333740767123e-30
  endloop
endfacet
facet normal -0.6087614290087164 -0.7933533402912383 0.0
  outer loop
    vertex -1.8750000000000022 -3.247595264191637 0.9999999999999756
    vertex -2.65165042944956 -2.6516504294495484 -2.5046333740767123e-30
    vertex -1.8750000000000022 -3.247595264191637 -2.5046333740767123e-30
  endloop
endfacet
facet normal -0.6087614290087164 -0.7933533402912383 0.0
  outer loop
    vertex -2.65165042944956 -2.6516504294495484 -2.5046333740767123e-30
    vertex -1.8750000000000022 -3.247595264191637 0.9999999999999756
    vertex -2.65165042944956 -2.6516504294495484 0.9999999999999756
  endloop
endfacet
facet normal -0.6087614290087237 0.7933533402912328 -0.0
  outer loop
    vertex -2.6516504294495484 2.651650429449571 0.9999999999999756
    vertex -1.874999999999991 3.2475952641916708 -2.5046333740767123e-30
    vertex -2.6516504294495484 2.651650429449571 -2.5046333740767123e-30
  endloop
endfacet
facet normal -0.6087614290087237 0.7933533402912328 -0.0
  outer loop
    vertex -1.874999999999991 3.2475952641916708 -2.5046333740767123e-30
    vertex -2.6516504294495484 2.651650429449571 0.9999999999999756
    vertex -1.874999999999991 3.2475952641916708 0.9999999999999756
  endloop
endfacet
facet normal -0.13052619222004402 -0.9914448613738114 0.0
  outer loop
    vertex 0.0 -3.7499999999999933 0.9999999999999756
    vertex -0.9705714191344575 -3.6222218485840063 -2.5046333740767123e-30
    vertex 0.0 -3.7499999999999933 -2.5046333740767123e-30
  endloop
endfacet
facet normal -0.13052619222004402 -0.9914448613738114 0.0
  outer loop
    vertex -0.9705714191344575 -3.6222218485840063 -2.5046333740767123e-30
    vertex 0.0 -3.7499999999999933 0.9999999999999756
    vertex -0.9705714191344575 -3.6222218485840063 0.9999999999999756
  endloop
endfacet
facet normal 0.6087614290087164 -0.7933533402912383 0.0
  outer loop
    vertex 2.6516504294495316 -2.6516504294495484 0.9999999999999756
    vertex 1.874999999999974 -3.247595264191637 -2.5046333740767123e-30
    vertex 2.6516504294495316 -2.6516504294495484 -2.5046333740767123e-30
  endloop
endfacet
facet normal 0.6087614290087164 -0.7933533402912383 0.0
  outer loop
    vertex 1.874999999999974 -3.247595264191637 -2.5046333740767123e-30
    vertex 2.6516504294495316 -2.6516504294495484 0.9999999999999756
    vertex 1.874999999999974 -3.247595264191637 0.9999999999999756
  endloop
endfacet
facet normal 0.38268343236508495 0.9238795325112888 -0.0
  outer loop
    vertex 0.9705714191344237 3.622221848584037 0.9999999999999756
    vertex 1.8749999999999967 3.2475952641916708 -2.5046333740767123e-30
    vertex 0.9705714191344237 3.622221848584037 -2.5046333740767123e-30
  endloop
endfacet
facet normal 0.38268343236508495 0.9238795325112888 -0.0
  outer loop
    vertex 1.8749999999999967 3.2475952641916708 -2.5046333740767123e-30
    vertex 0.9705714191344237 3.622221848584037 0.9999999999999756
    vertex 1.8749999999999967 3.2475952641916708 0.9999999999999756
  endloop
endfacet
facet normal 0.9914448613738127 0.1305261922200342 -0.0
  outer loop
    vertex 3.6222218485840174 0.9705714191344463 -2.5046333740767123e-30
    vertex 3.7499999999999933 0.0 0.9999999999999756
    vertex 3.7499999999999933 0.0 -2.5046333740767123e-30
  endloop
endfacet
facet normal 0.9914448613738127 0.1305261922200342 -0.0
  outer loop
    vertex 3.7499999999999933 0.0 0.9999999999999756
    vertex 3.6222218485840174 0.9705714191344463 -2.5046333740767123e-30
    vertex 3.6222218485840174 0.9705714191344463 0.9999999999999756
  endloop
endfacet
facet normal 0.0 0.0 -1.0
  outer loop
    vertex -2.6516504294495484 2.651650429449571 -2.5046333740767123e-30
    vertex -2.7500000000000004 0.0 -2.5046333740767123e-30
    vertex -3.247595264191637 1.8750000000000022 -2.5046333740767123e-30
  endloop
endfacet
facet normal 0.0 0.0 -1.0
  outer loop
    vertex -2.7500000000000004 0.0 -2.5046333740767123e-30
    vertex -2.6516504294495484 2.651650429449571 -2.5046333740767123e-30
    vertex -2.65629602229494 0.7117523740319348 -2.5046333740767123e-30
  endloop
endfacet
facet normal 0.0 0.0 -1.0
  outer loop
    vertex -2.65629602229494 0.7117523740319348 -2.5046333740767123e-30
    vertex -2.6516504294495484 2.651650429449571 -2.5046333740767123e-30
    vertex -2.3815698604072093 1.3749999999999918 -2.5046333740767123e-30
  endloop
endfacet
facet normal 0.0 0.0 -1.0
  outer loop
    vertex -2.3815698604072093 1.3749999999999918 -2.5046333740767123e-30
    vertex -2.6516504294495484 2.651650429449571 -2.5046333740767123e-30
    vertex -1.874999999999991 3.2475952641916708 -2.5046333740767123e-30
  endloop
endfacet
facet normal 0.0 0.0 -1.0
  outer loop
    vertex -2.3815698604072093 1.3749999999999918 -2.5046333740767123e-30
    vertex -1.874999999999991 3.2475952641916708 -2.5046333740767123e-30
    vertex -1.944543648263005 1.9445436482629992 -2.5046333740767123e-30
  endloop
endfacet
facet normal 0.0 0.0 -1.0
  outer loop
    vertex -1.944543648263005 1.9445436482629992 -2.5046333740767123e-30
    vertex -1.874999999999991 3.2475952641916708 -2.5046333740767123e-30
    vertex -1.3750000000000036 2.381569860407226 -2.5046333740767123e-30
  endloop
endfacet
facet normal 0.0 0.0 -1.0
  outer loop
    vertex -1.3750000000000036 2.381569860407226 -2.5046333740767123e-30
    vertex -1.874999999999991 3.2475952641916708 -2.5046333740767123e-30
    vertex -0.9705714191344463 3.622221848584037 -2.5046333740767123e-30
  endloop
endfacet
facet normal 0.0 0.0 -1.0
  outer loop
    vertex -1.3750000000000036 2.381569860407226 -2.5046333740767123e-30
    vertex -0.9705714191344463 3.622221848584037 -2.5046333740767123e-30
    vertex -0.7117523740319348 2.656296022294945 -2.5046333740767123e-30
  endloop
endfacet
facet normal 0.0 0.0 -1.0
  outer loop
    vertex -0.7117523740319348 2.656296022294945 -2.5046333740767123e-30
    vertex -0.9705714191344463 3.622221848584037 -2.5046333740767123e-30
    vertex 0.0 3.7500000000000355 -2.5046333740767123e-30
  endloop
endfacet
facet normal 0.0 0.0 -1.0
  outer loop
    vertex -0.7117523740319348 2.656296022294945 -2.5046333740767123e-30
    vertex 0.0 3.7500000000000355 -2.5046333740767123e-30
    vertex 0.0 2.750000000000029 -2.5046333740767123e-30
  endloop
endfacet
facet normal 0.0 0.0 -1.0
  outer loop
    vertex 0.0 2.750000000000029 -2.5046333740767123e-30
    vertex 0.0 3.7500000000000355 -2.5046333740767123e-30
    vertex 0.9705714191344237 3.622221848584037 -2.5046333740767123e-30
  endloop
endfacet
facet normal 0.0 0.0 -1.0
  outer loop
    vertex 0.0 2.750000000000029 -2.5046333740767123e-30
    vertex 0.9705714191344237 3.622221848584037 -2.5046333740767123e-30
    vertex 0.7117523740319264 2.656296022294945 -2.5046333740767123e-30
  endloop
endfacet
facet normal 0.0 0.0 -1.0
  outer loop
    vertex 0.7117523740319264 2.656296022294945 -2.5046333740767123e-30
    vertex 0.9705714191344237 3.622221848584037 -2.5046333740767123e-30
    vertex 1.3749999999999947 2.381569860407226 -2.5046333740767123e-30
  endloop
endfacet
facet normal 0.0 0.0 -1.0
  outer loop
    vertex 1.3749999999999947 2.381569860407226 -2.5046333740767123e-30
    vertex 0.9705714191344237 3.622221848584037 -2.5046333740767123e-30
    vertex 1.8749999999999967 3.2475952641916708 -2.5046333740767123e-30
  endloop
endfacet
facet normal 0.0 0.0 -1.0
  outer loop
    vertex 1.3749999999999947 2.381569860407226 -2.5046333740767123e-30
    vertex 1.8749999999999967 3.2475952641916708 -2.5046333740767123e-30
    vertex 1.944543648263005 1.9445436482629992 -2.5046333740767123e-30
  endloop
endfacet
facet normal 0.0 0.0 -1.0
  outer loop
    vertex 1.944543648263005 1.9445436482629992 -2.5046333740767123e-30
    vertex 1.8749999999999967 3.2475952641916708 -2.5046333740767123e-30
    vertex 2.6516504294495316 2.651650429449571 -2.5046333740767123e-30
  endloop
endfacet
facet normal 0.0 0.0 -1.0
  outer loop
    vertex 1.944543648263005 1.9445436482629992 -2.5046333740767123e-30
    vertex 2.6516504294495316 2.651650429449571 -2.5046333740767123e-30
    vertex 2.3815698604072093 1.3749999999999918 -2.5046333740767123e-30
  endloop
endfacet
facet normal 0.0 0.0 -1.0
  outer loop
    vertex 2.3815698604072093 1.3749999999999918 -2.5046333740767123e-30
    vertex 2.6516504294495316 2.651650429449571 -2.5046333740767123e-30
    vertex 2.65629602229494 0.7117523740319348 -2.5046333740767123e-30
  endloop
endfacet
facet normal 0.0 0.0 -1.0
  outer loop
    vertex 2.65629602229494 0.7117523740319348 -2.5046333740767123e-30
    vertex 2.6516504294495316 2.651650429449571 -2.5046333740767123e-30
    vertex 3.2475952641916344 1.8750000000000022 -2.5046333740767123e-30
  endloop
endfacet
facet normal 0.0 0.0 -1.0
  outer loop
    vertex 2.65629602229494 0.7117523740319348 -2.5046333740767123e-30
    vertex 3.2475952641916344 1.8750000000000022 -2.5046333740767123e-30
    vertex 2.749999999999998 0.0 -2.5046333740767123e-30
  endloop
endfacet
facet normal 0.0 0.0 -1.0
  outer loop
    vertex -3.6222218485840063 0.9705714191344575 -2.5046333740767123e-30
    vertex -3.6222218485840063 -0.9705714191344463 -2.5046333740767123e-30
    vertex -3.7500000000000044 0.0 -2.5046333740767123e-30
  endloop
endfacet
facet normal 0.0 0.0 -1.0
  outer loop
    vertex -3.6222218485840063 -0.9705714191344463 -2.5046333740767123e-30
    vertex -3.6222218485840063 0.9705714191344575 -2.5046333740767123e-30
    vertex -3.247595264191637 1.8750000000000022 -2.5046333740767123e-30
  endloop
endfacet
facet normal 0.0 0.0 -1.0
  outer loop
    vertex -3.6222218485840063 -0.9705714191344463 -2.5046333740767123e-30
    vertex -3.247595264191637 1.8750000000000022 -2.5046333740767123e-30
    vertex -3.247595264191648 -1.8750000000000022 -2.5046333740767123e-30
  endloop
endfacet
facet normal 0.0 0.0 -1.0
  outer loop
    vertex -3.247595264191648 -1.8750000000000022 -2.5046333740767123e-30
    vertex -3.247595264191637 1.8750000000000022 -2.5046333740767123e-30
    vertex -2.65165042944956 -2.6516504294495484 -2.5046333740767123e-30
  endloop
endfacet
facet normal 0.0 0.0 -1.0
  outer loop
    vertex -2.65165042944956 -2.6516504294495484 -2.5046333740767123e-30
    vertex -3.247595264191637 1.8750000000000022 -2.5046333740767123e-30
    vertex -2.7500000000000004 0.0 -2.5046333740767123e-30
  endloop
endfacet
facet normal 0.0 0.0 -1.0
  outer loop
    vertex -2.65165042944956 -2.6516504294495484 -2.5046333740767123e-30
    vertex -2.7500000000000004 0.0 -2.5046333740767123e-30
    vertex -2.65629602229494 -0.7117523740319348 -2.5046333740767123e-30
  endloop
endfacet
facet normal 0.0 0.0 -1.0
  outer loop
    vertex -2.65165042944956 -2.6516504294495484 -2.5046333740767123e-30
    vertex -2.65629602229494 -0.7117523740319348 -2.5046333740767123e-30
    vertex -2.3815698604072093 -1.3749999999999918 -2.5046333740767123e-30
  endloop
endfacet
facet normal 0.0 0.0 -1.0
  outer loop
    vertex -2.65165042944956 -2.6516504294495484 -2.5046333740767123e-30
    vertex -2.3815698604072093 -1.3749999999999918 -2.5046333740767123e-30
    vertex -1.8750000000000022 -3.247595264191637 -2.5046333740767123e-30
  endloop
endfacet
facet normal 0.0 0.0 -1.0
  outer loop
    vertex -1.8750000000000022 -3.247595264191637 -2.5046333740767123e-30
    vertex -2.3815698604072093 -1.3749999999999918 -2.5046333740767123e-30
    vertex -1.9445436482630105 -1.9445436482629992 -2.5046333740767123e-30
  endloop
endfacet
facet normal 0.0 0.0 -1.0
  outer loop
    vertex -1.8750000000000022 -3.247595264191637 -2.5046333740767123e-30
    vertex -1.9445436482630105 -1.9445436482629992 -2.5046333740767123e-30
    vertex -1.3750000000000036 -2.3815698604072035 -2.5046333740767123e-30
  endloop
endfacet
facet normal 0.0 0.0 -1.0
  outer loop
    vertex -1.8750000000000022 -3.247595264191637 -2.5046333740767123e-30
    vertex -1.3750000000000036 -2.3815698604072035 -2.5046333740767123e-30
    vertex -0.9705714191344575 -3.6222218485840063 -2.5046333740767123e-30
  endloop
endfacet
facet normal 0.0 0.0 -1.0
  outer loop
    vertex -0.9705714191344575 -3.6222218485840063 -2.5046333740767123e-30
    vertex -1.3750000000000036 -2.3815698604072035 -2.5046333740767123e-30
    vertex -0.7117523740319348 -2.656296022294945 -2.5046333740767123e-30
  endloop
endfacet
facet normal 0.0 0.0 -1.0
  outer loop
    vertex -0.9705714191344575 -3.6222218485840063 -2.5046333740767123e-30
    vertex -0.7117523740319348 -2.656296022294945 -2.5046333740767123e-30
    vertex 0.0 -3.7499999999999933 -2.5046333740767123e-30
  endloop
endfacet
facet normal 0.0 0.0 -1.0
  outer loop
    vertex 0.0 -3.7499999999999933 -2.5046333740767123e-30
    vertex -0.7117523740319348 -2.656296022294945 -2.5046333740767123e-30
    vertex 0.0 -2.750000000000006 -2.5046333740767123e-30
  endloop
endfacet
facet normal 0.0 0.0 -1.0
  outer loop
    vertex 0.0 -3.7499999999999933 -2.5046333740767123e-30
    vertex 0.0 -2.750000000000006 -2.5046333740767123e-30
    vertex 0.7117523740319264 -2.656296022294945 -2.5046333740767123e-30
  endloop
endfacet
facet normal 0.0 0.0 -1.0
  outer loop
    vertex 0.0 -3.7499999999999933 -2.5046333740767123e-30
    vertex 0.7117523740319264 -2.656296022294945 -2.5046333740767123e-30
    vertex 0.9705714191344237 -3.6222218485840063 -2.5046333740767123e-30
  endloop
endfacet
facet normal 0.0 0.0 -1.0
  outer loop
    vertex 0.9705714191344237 -3.6222218485840063 -2.5046333740767123e-30
    vertex 0.7117523740319264 -2.656296022294945 -2.5046333740767123e-30
    vertex 1.3749999999999947 -2.3815698604072035 -2.5046333740767123e-30
  endloop
endfacet
facet normal 0.0 0.0 -1.0
  outer loop
    vertex 0.9705714191344237 -3.6222218485840063 -2.5046333740767123e-30
    vertex 1.3749999999999947 -2.3815698604072035 -2.5046333740767123e-30
    vertex 1.874999999999974 -3.247595264191637 -2.5046333740767123e-30
  endloop
endfacet
facet normal 0.0 0.0 -1.0
  outer loop
    vertex 1.874999999999974 -3.247595264191637 -2.5046333740767123e-30
    vertex 1.3749999999999947 -2.3815698604072035 -2.5046333740767123e-30
    vertex 1.944543648263005 -1.9445436482629992 -2.5046333740767123e-30
  endloop
endfacet
facet normal 0.0 0.0 -1.0
  outer loop
    vertex 1.874999999999974 -3.247595264191637 -2.5046333740767123e-30
    vertex 1.944543648263005 -1.9445436482629992 -2.5046333740767123e-30
    vertex 2.6516504294495316 -2.6516504294495484 -2.5046333740767123e-30
  endloop
endfacet
facet normal 0.0 0.0 -1.0
  outer loop
    vertex 2.6516504294495316 -2.6516504294495484 -2.5046333740767123e-30
    vertex 1.944543648263005 -1.9445436482629992 -2.5046333740767123e-30
    vertex 2.3815698604072093 -1.375000000000003 -2.5046333740767123e-30
  endloop
endfacet
facet normal 0.0 0.0 -1.0
  outer loop
    vertex 2.6516504294495316 -2.6516504294495484 -2.5046333740767123e-30
    vertex 2.3815698604072093 -1.375000000000003 -2.5046333740767123e-30
    vertex 2.65629602229494 -0.7117523740319348 -2.5046333740767123e-30
  endloop
endfacet
facet normal 0.0 0.0 -1.0
  outer loop
    vertex 2.6516504294495316 -2.6516504294495484 -2.5046333740767123e-30
    vertex 2.65629602229494 -0.7117523740319348 -2.5046333740767123e-30
    vertex 3.2475952641916344 -1.8750000000000022 -2.5046333740767123e-30
  endloop
endfacet
facet normal 0.0 0.0 -1.0
  outer loop
    vertex 3.2475952641916344 -1.8750000000000022 -2.5046333740767123e-30
    vertex 2.65629602229494 -0.7117523740319348 -2.5046333740767123e-30
    vertex 2.749999999999998 0.0 -2.5046333740767123e-30
  endloop
endfacet
facet normal 0.0 0.0 -1.0
  outer loop
    vertex 3.2475952641916344 -1.8750000000000022 -2.5046333740767123e-30
    vertex 2.749999999999998 0.0 -2.5046333740767123e-30
    vertex 3.2475952641916344 1.8750000000000022 -2.5046333740767123e-30
  endloop
endfacet
facet normal 0.0 0.0 -1.0
  outer loop
    vertex 3.2475952641916344 -1.8750000000000022 -2.5046333740767123e-30
    vertex 3.2475952641916344 1.8750000000000022 -2.5046333740767123e-30
    vertex 3.6222218485840174 0.9705714191344463 -2.5046333740767123e-30
  endloop
endfacet
facet normal 0.0 0.0 -1.0
  outer loop
    vertex 3.2475952641916344 -1.8750000000000022 -2.5046333740767123e-30
    vertex 3.6222218485840174 0.9705714191344463 -2.5046333740767123e-30
    vertex 3.6222218485840174 -0.9705714191344463 -2.5046333740767123e-30
  endloop
endfacet
facet normal 0.0 0.0 -1.0
  outer loop
    vertex 3.6222218485840174 -0.9705714191344463 -2.5046333740767123e-30
    vertex 3.6222218485840174 0.9705714191344463 -2.5046333740767123e-30
    vertex 3.7499999999999933 0.0 -2.5046333740767123e-30
  endloop
endfacet
facet normal -0.99144486137381 0.13052619222005538 0.0
  outer loop
    vertex -3.6222218485840063 0.9705714191344575 0.9999999999999756
    vertex -3.7500000000000044 0.0 -2.5046333740767123e-30
    vertex -3.7500000000000044 0.0 0.9999999999999756
  endloop
endfacet
facet normal -0.99144486137381 0.13052619222005538 0.0
  outer loop
    vertex -3.7500000000000044 0.0 -2.5046333740767123e-30
    vertex -3.6222218485840063 0.9705714191344575 0.9999999999999756
    vertex -3.6222218485840063 0.9705714191344575 -2.5046333740767123e-30
  endloop
endfacet
facet normal -0.9914448613738098 -0.13052619222005687 0.0
  outer loop
    vertex -3.7500000000000044 0.0 0.9999999999999756
    vertex -3.6222218485840063 -0.9705714191344463 -2.5046333740767123e-30
    vertex -3.6222218485840063 -0.9705714191344463 0.9999999999999756
  endloop
endfacet
facet normal -0.9914448613738098 -0.13052619222005687 0.0
  outer loop
    vertex -3.6222218485840063 -0.9705714191344463 -2.5046333740767123e-30
    vertex -3.7500000000000044 0.0 0.9999999999999756
    vertex -3.7500000000000044 0.0 -2.5046333740767123e-30
  endloop
endfacet
facet normal 0.6087614290087348 0.7933533402912244 -0.0
  outer loop
    vertex 1.8749999999999967 3.2475952641916708 0.9999999999999756
    vertex 2.6516504294495316 2.651650429449571 -2.5046333740767123e-30
    vertex 1.8749999999999967 3.2475952641916708 -2.5046333740767123e-30
  endloop
endfacet
facet normal 0.6087614290087348 0.7933533402912244 -0.0
  outer loop
    vertex 2.6516504294495316 2.651650429449571 -2.5046333740767123e-30
    vertex 1.8749999999999967 3.2475952641916708 0.9999999999999756
    vertex 2.6516504294495316 2.651650429449571 0.9999999999999756
  endloop
endfacet
facet normal -0.9914448613738107 0.13052619222004933 0.0
  outer loop
    vertex -2.656296022294934 0.7117523740319348 3.982599999999918
    vertex -2.749999999999995 0.0 0.9999999999999756
    vertex -2.749999999999995 0.0 3.982599999999918
  endloop
endfacet
facet normal -0.9914448613738107 0.13052619222004933 0.0
  outer loop
    vertex -2.749999999999995 0.0 0.9999999999999756
    vertex -2.656296022294934 0.7117523740319348 3.982599999999918
    vertex -2.656296022294934 0.7117523740319348 0.9999999999999756
  endloop
endfacet
facet normal 0.9238795325112801 0.3826834323651058 -0.0
  outer loop
    vertex 3.2475952641916344 1.8750000000000022 -2.5046333740767123e-30
    vertex 3.6222218485840174 0.9705714191344463 0.9999999999999756
    vertex 3.6222218485840174 0.9705714191344463 -2.5046333740767123e-30
  endloop
endfacet
facet normal 0.9238795325112801 0.3826834323651058 -0.0
  outer loop
    vertex 3.6222218485840174 0.9705714191344463 0.9999999999999756
    vertex 3.2475952641916344 1.8750000000000022 -2.5046333740767123e-30
    vertex 3.2475952641916344 1.8750000000000022 0.9999999999999756
  endloop
endfacet
facet normal -0.0 -0.0 1.0
  outer loop
    vertex -1.6903701960058732 -0.45293332892940075 4.982599999999916
    vertex -1.6903701960058732 0.452933328929412 4.982599999999916
    vertex -1.749999999999997 1.127986593019159e-14 4.982599999999916
  endloop
endfacet
facet normal -0.0 -0.0 1.0
  outer loop
    vertex -1.6903701960058732 0.452933328929412 4.982599999999916
    vertex -1.6903701960058732 -0.45293332892940075 4.982599999999916
    vertex -1.5155444566227707 -0.8749999999999928 4.982599999999916
  endloop
endfacet
facet normal -0.0 -0.0 1.0
  outer loop
    vertex -1.6903701960058732 0.452933328929412 4.982599999999916
    vertex -1.5155444566227707 -0.8749999999999928 4.982599999999916
    vertex -1.5155444566227707 0.8749999999999928 4.982599999999916
  endloop
endfacet
facet normal -0.0 -0.0 1.0
  outer loop
    vertex -1.5155444566227707 0.8749999999999928 4.982599999999916
    vertex -1.5155444566227707 -0.8749999999999928 4.982599999999916
    vertex -1.2374368670764613 -1.23743686707645 4.982599999999916
  endloop
endfacet
facet normal -0.0 -0.0 1.0
  outer loop
    vertex -1.5155444566227707 0.8749999999999928 4.982599999999916
    vertex -1.2374368670764613 -1.23743686707645 4.982599999999916
    vertex -1.2374368670764613 1.2374368670764613 4.982599999999916
  endloop
endfacet
facet normal -0.0 -0.0 1.0
  outer loop
    vertex -1.2374368670764613 1.2374368670764613 4.982599999999916
    vertex -1.2374368670764613 -1.23743686707645 4.982599999999916
    vertex -0.8749999999999928 -1.5155444566227587 4.982599999999916
  endloop
endfacet
facet normal -0.0 -0.0 1.0
  outer loop
    vertex -1.2374368670764613 1.2374368670764613 4.982599999999916
    vertex -0.8749999999999928 -1.5155444566227587 4.982599999999916
    vertex -0.8749999999999928 1.5155444566227811 4.982599999999916
  endloop
endfacet
facet normal -0.0 -0.0 1.0
  outer loop
    vertex -0.8749999999999928 1.5155444566227811 4.982599999999916
    vertex -0.8749999999999928 -1.5155444566227587 4.982599999999916
    vertex -0.452933328929412 -1.6903701960058732 4.982599999999916
  endloop
endfacet
facet normal -0.0 -0.0 1.0
  outer loop
    vertex -0.8749999999999928 1.5155444566227811 4.982599999999916
    vertex -0.452933328929412 -1.6903701960058732 4.982599999999916
    vertex -0.452933328929412 1.6903701960058846 4.982599999999916
  endloop
endfacet
facet normal -0.0 -0.0 1.0
  outer loop
    vertex -0.452933328929412 1.6903701960058846 4.982599999999916
    vertex -0.452933328929412 -1.6903701960058732 4.982599999999916
    vertex 0.0 -1.749999999999997 4.982599999999916
  endloop
endfacet
facet normal -0.0 -0.0 1.0
  outer loop
    vertex -0.452933328929412 1.6903701960058846 4.982599999999916
    vertex 0.0 -1.749999999999997 4.982599999999916
    vertex 0.0 1.750000000000008 4.982599999999916
  endloop
endfacet
facet normal -0.0 -0.0 1.0
  outer loop
    vertex 0.0 1.750000000000008 4.982599999999916
    vertex 0.0 -1.749999999999997 4.982599999999916
    vertex 0.4529333289293838 -1.6903701960058732 4.982599999999916
  endloop
endfacet
facet normal -0.0 -0.0 1.0
  outer loop
    vertex 0.0 1.750000000000008 4.982599999999916
    vertex 0.4529333289293838 -1.6903701960058732 4.982599999999916
    vertex 0.4529333289293838 1.6903701960058846 4.982599999999916
  endloop
endfacet
facet normal -0.0 -0.0 1.0
  outer loop
    vertex 0.4529333289293838 1.6903701960058846 4.982599999999916
    vertex 0.4529333289293838 -1.6903701960058732 4.982599999999916
    vertex 0.8749999999999702 -1.5155444566227587 4.982599999999916
  endloop
endfacet
facet normal -0.0 -0.0 1.0
  outer loop
    vertex 0.4529333289293838 1.6903701960058846 4.982599999999916
    vertex 0.8749999999999702 -1.5155444566227587 4.982599999999916
    vertex 0.8749999999999702 1.5155444566227811 4.982599999999916
  endloop
endfacet
facet normal -0.0 -0.0 1.0
  outer loop
    vertex 0.8749999999999702 1.5155444566227811 4.982599999999916
    vertex 0.8749999999999702 -1.5155444566227587 4.982599999999916
    vertex 1.2374368670764386 -1.2374368670764613 4.982599999999916
  endloop
endfacet
facet normal -0.0 -0.0 1.0
  outer loop
    vertex 0.8749999999999702 1.5155444566227811 4.982599999999916
    vertex 1.2374368670764386 -1.2374368670764613 4.982599999999916
    vertex 1.2374368670764386 1.2374368670764613 4.982599999999916
  endloop
endfacet
facet normal -0.0 -0.0 1.0
  outer loop
    vertex 1.2374368670764386 1.2374368670764613 4.982599999999916
    vertex 1.2374368670764386 -1.2374368670764613 4.982599999999916
    vertex 1.5155444566227418 -0.875000000000004 4.982599999999916
  endloop
endfacet
facet normal -0.0 -0.0 1.0
  outer loop
    vertex 1.2374368670764386 1.2374368670764613 4.982599999999916
    vertex 1.5155444566227418 -0.875000000000004 4.982599999999916
    vertex 1.5155444566227418 0.8749999999999928 4.982599999999916
  endloop
endfacet
facet normal -0.0 -0.0 1.0
  outer loop
    vertex 1.5155444566227418 0.8749999999999928 4.982599999999916
    vertex 1.5155444566227418 -0.875000000000004 4.982599999999916
    vertex 1.6903701960058564 -0.4529333289294233 4.982599999999916
  endloop
endfacet
facet normal -0.0 -0.0 1.0
  outer loop
    vertex 1.5155444566227418 0.8749999999999928 4.982599999999916
    vertex 1.6903701960058564 -0.4529333289294233 4.982599999999916
    vertex 1.6903701960058564 0.45293332892940075 4.982599999999916
  endloop
endfacet
facet normal -0.0 -0.0 1.0
  outer loop
    vertex 1.6903701960058564 0.45293332892940075 4.982599999999916
    vertex 1.6903701960058564 -0.4529333289294233 4.982599999999916
    vertex 1.7499999999999771 -1.127986593019159e-14 4.982599999999916
  endloop
endfacet
facet normal -0.7933533402912336 0.6087614290087227 0.0
  outer loop
    vertex -1.9445436482629992 1.9445436482629992 3.982599999999918
    vertex -2.3815698604072035 1.3749999999999918 0.9999999999999756
    vertex -2.3815698604072035 1.3749999999999918 3.982599999999918
  endloop
endfacet
facet normal -0.7933533402912336 0.6087614290087227 0.0
  outer loop
    vertex -2.3815698604072035 1.3749999999999918 0.9999999999999756
    vertex -1.9445436482629992 1.9445436482629992 3.982599999999918
    vertex -1.9445436482629992 1.9445436482629992 0.9999999999999756
  endloop
endfacet
facet normal 0.6560818900783085 -0.27175801689782386 0.7040625922196382
  outer loop
    vertex 2.3815698604071867 -1.375000000000003 3.982599999999918
    vertex 1.6903701960058564 -0.4529333289294233 4.982599999999916
    vertex 1.5155444566227418 -0.875000000000004 4.982599999999916
  endloop
endfacet
facet normal 0.6560818900783085 -0.27175801689782386 0.7040625922196382
  outer loop
    vertex 1.6903701960058564 -0.4529333289294233 4.982599999999916
    vertex 2.3815698604071867 -1.375000000000003 3.982599999999918
    vertex 2.6562960222949283 -0.7117523740319348 3.982599999999918
  endloop
endfacet
facet normal 0.13052619222005984 0.9914448613738094 -0.0
  outer loop
    vertex 0.0 3.7500000000000355 0.9999999999999756
    vertex 0.9705714191344237 3.622221848584037 -2.5046333740767123e-30
    vertex 0.0 3.7500000000000355 -2.5046333740767123e-30
  endloop
endfacet
facet normal 0.13052619222005984 0.9914448613738094 -0.0
  outer loop
    vertex 0.9705714191344237 3.622221848584037 -2.5046333740767123e-30
    vertex 0.0 3.7500000000000355 0.9999999999999756
    vertex 0.9705714191344237 3.622221848584037 0.9999999999999756
  endloop
endfacet
facet normal 0.608761429008733 0.7933533402912257 -0.0
  outer loop
    vertex 1.374999999999972 2.381569860407226 3.982599999999918
    vertex 1.9445436482629936 1.9445436482629992 0.9999999999999756
    vertex 1.374999999999972 2.381569860407226 0.9999999999999756
  endloop
endfacet
facet normal 0.608761429008733 0.7933533402912257 -0.0
  outer loop
    vertex 1.9445436482629936 1.9445436482629992 0.9999999999999756
    vertex 1.374999999999972 2.381569860407226 3.982599999999918
    vertex 1.9445436482629936 1.9445436482629992 3.982599999999918
  endloop
endfacet
facet normal 0.9914448613738127 -0.1305261922200342 -0.0
  outer loop
    vertex 3.7499999999999933 0.0 -2.5046333740767123e-30
    vertex 3.6222218485840174 -0.9705714191344463 0.9999999999999756
    vertex 3.6222218485840174 -0.9705714191344463 -2.5046333740767123e-30
  endloop
endfacet
facet normal 0.9914448613738127 -0.1305261922200342 -0.0
  outer loop
    vertex 3.6222218485840174 -0.9705714191344463 0.9999999999999756
    vertex 3.7499999999999933 0.0 -2.5046333740767123e-30
    vertex 3.7499999999999933 0.0 0.9999999999999756
  endloop
endfacet
facet normal -0.38268343236509517 0.9238795325112846 -0.0
  outer loop
    vertex -1.874999999999991 3.2475952641916708 0.9999999999999756
    vertex -0.9705714191344463 3.622221848584037 -2.5046333740767123e-30
    vertex -1.874999999999991 3.2475952641916708 -2.5046333740767123e-30
  endloop
endfacet
facet normal -0.38268343236509517 0.9238795325112846 -0.0
  outer loop
    vertex -0.9705714191344463 3.622221848584037 -2.5046333740767123e-30
    vertex -1.874999999999991 3.2475952641916708 0.9999999999999756
    vertex -0.9705714191344463 3.622221848584037 0.9999999999999756
  endloop
endfacet
facet normal -0.271758016897817 -0.6560818900783116 0.704062592219638
  outer loop
    vertex -0.7117523740319348 -2.656296022294934 3.982599999999918
    vertex -0.8749999999999928 -1.5155444566227587 4.982599999999916
    vertex -1.3750000000000036 -2.3815698604072035 3.982599999999918
  endloop
endfacet
facet normal -0.271758016897817 -0.6560818900783116 0.704062592219638
  outer loop
    vertex -0.8749999999999928 -1.5155444566227587 4.982599999999916
    vertex -0.7117523740319348 -2.656296022294934 3.982599999999918
    vertex -0.452933328929412 -1.6903701960058732 4.982599999999916
  endloop
endfacet
facet normal 0.7933533402912413 0.6087614290087128 -0.0
  outer loop
    vertex 1.9445436482629936 1.9445436482629992 0.9999999999999756
    vertex 2.3815698604071867 1.3749999999999918 3.982599999999918
    vertex 2.3815698604071867 1.3749999999999918 0.9999999999999756
  endloop
endfacet
facet normal 0.7933533402912413 0.6087614290087128 -0.0
  outer loop
    vertex 2.3815698604071867 1.3749999999999918 3.982599999999918
    vertex 1.9445436482629936 1.9445436482629992 0.9999999999999756
    vertex 1.9445436482629936 1.9445436482629992 3.982599999999918
  endloop
endfacet
facet normal 0.7040625922196347 -0.09269159872356456 0.7040625922196393
  outer loop
    vertex 2.6562960222949283 -0.7117523740319348 3.982599999999918
    vertex 1.7499999999999771 -1.127986593019159e-14 4.982599999999916
    vertex 1.6903701960058564 -0.4529333289294233 4.982599999999916
  endloop
endfacet
facet normal 0.7040625922196347 -0.09269159872356456 0.7040625922196393
  outer loop
    vertex 1.7499999999999771 -1.127986593019159e-14 4.982599999999916
    vertex 2.6562960222949283 -0.7117523740319348 3.982599999999918
    vertex 2.7499999999999867 -1.127986593019159e-14 3.982599999999918
  endloop
endfacet
facet normal -0.13052619222008022 0.9914448613738066 -0.0
  outer loop
    vertex -0.7117523740319348 2.656296022294945 3.982599999999918
    vertex 0.0 2.750000000000029 0.9999999999999756
    vertex -0.7117523740319348 2.656296022294945 0.9999999999999756
  endloop
endfacet
facet normal -0.13052619222008022 0.9914448613738066 -0.0
  outer loop
    vertex 0.0 2.750000000000029 0.9999999999999756
    vertex -0.7117523740319348 2.656296022294945 3.982599999999918
    vertex 0.0 2.750000000000029 3.982599999999918
  endloop
endfacet
facet normal -0.4323045753218369 0.5633902913547353 0.7040625922196356
  outer loop
    vertex -1.2374368670764613 1.2374368670764613 4.982599999999916
    vertex -1.3749999999999922 2.381569860407226 3.982599999999918
    vertex -1.9445436482629992 1.9445436482629992 3.982599999999918
  endloop
endfacet
facet normal -0.4323045753218369 0.5633902913547353 0.7040625922196356
  outer loop
    vertex -1.3749999999999922 2.381569860407226 3.982599999999918
    vertex -1.2374368670764613 1.2374368670764613 4.982599999999916
    vertex -0.8749999999999928 1.5155444566227811 4.982599999999916
  endloop
endfacet
facet normal -0.923879532511285 0.382683432365094 0.0
  outer loop
    vertex -2.3815698604072035 1.3749999999999918 3.982599999999918
    vertex -2.656296022294934 0.7117523740319348 0.9999999999999756
    vertex -2.656296022294934 0.7117523740319348 3.982599999999918
  endloop
endfacet
facet normal -0.923879532511285 0.382683432365094 0.0
  outer loop
    vertex -2.656296022294934 0.7117523740319348 0.9999999999999756
    vertex -2.3815698604072035 1.3749999999999918 3.982599999999918
    vertex -2.3815698604072035 1.3749999999999918 0.9999999999999756
  endloop
endfacet
facet normal -0.5633902913547466 -0.43230457532182054 0.7040625922196366
  outer loop
    vertex -1.9445436482630105 -1.9445436482629992 3.982599999999918
    vertex -1.5155444566227707 -0.8749999999999928 4.982599999999916
    vertex -2.3815698604072035 -1.3749999999999918 3.982599999999918
  endloop
endfacet
facet normal -0.5633902913547466 -0.43230457532182054 0.7040625922196366
  outer loop
    vertex -1.5155444566227707 -0.8749999999999928 4.982599999999916
    vertex -1.9445436482630105 -1.9445436482629992 3.982599999999918
    vertex -1.2374368670764613 -1.23743686707645 4.982599999999916
  endloop
endfacet
facet normal 0.7933533402912413 -0.6087614290087128 -0.0
  outer loop
    vertex 2.3815698604071867 -1.375000000000003 0.9999999999999756
    vertex 1.9445436482629936 -1.9445436482630105 3.982599999999918
    vertex 1.9445436482629936 -1.9445436482630105 0.9999999999999756
  endloop
endfacet
facet normal 0.7933533402912413 -0.6087614290087128 -0.0
  outer loop
    vertex 1.9445436482629936 -1.9445436482630105 3.982599999999918
    vertex 2.3815698604071867 -1.375000000000003 0.9999999999999756
    vertex 2.3815698604071867 -1.375000000000003 3.982599999999918
  endloop
endfacet
facet normal -0.4323045753218212 -0.5633902913547422 0.7040625922196397
  outer loop
    vertex -1.3750000000000036 -2.3815698604072035 3.982599999999918
    vertex -1.2374368670764613 -1.23743686707645 4.982599999999916
    vertex -1.9445436482630105 -1.9445436482629992 3.982599999999918
  endloop
endfacet
facet normal -0.4323045753218212 -0.5633902913547422 0.7040625922196397
  outer loop
    vertex -1.2374368670764613 -1.23743686707645 4.982599999999916
    vertex -1.3750000000000036 -2.3815698604072035 3.982599999999918
    vertex -0.8749999999999928 -1.5155444566227587 4.982599999999916
  endloop
endfacet
facet normal -0.7040625922196383 0.09269159872356793 0.7040625922196354
  outer loop
    vertex -1.749999999999997 1.127986593019159e-14 4.982599999999916
    vertex -2.656296022294934 0.7117523740319348 3.982599999999918
    vertex -2.749999999999995 0.0 3.982599999999918
  endloop
endfacet
facet normal -0.7040625922196383 0.09269159872356793 0.7040625922196354
  outer loop
    vertex -2.656296022294934 0.7117523740319348 3.982599999999918
    vertex -1.749999999999997 1.127986593019159e-14 4.982599999999916
    vertex -1.6903701960058732 0.452933328929412 4.982599999999916
  endloop
endfacet
facet normal 0.1305261922200415 -0.9914448613738118 0.0
  outer loop
    vertex 0.7117523740318925 -2.656296022294945 3.982599999999918
    vertex 0.0 -2.749999999999995 0.9999999999999756
    vertex 0.7117523740318925 -2.656296022294945 0.9999999999999756
  endloop
endfacet
facet normal 0.1305261922200415 -0.9914448613738118 0.0
  outer loop
    vertex 0.0 -2.749999999999995 0.9999999999999756
    vertex 0.7117523740318925 -2.656296022294945 3.982599999999918
    vertex 0.0 -2.749999999999995 3.982599999999918
  endloop
endfacet
facet normal -0.3826834323650804 0.9238795325112907 -0.0
  outer loop
    vertex -1.3749999999999922 2.381569860407226 3.982599999999918
    vertex -0.7117523740319348 2.656296022294945 0.9999999999999756
    vertex -1.3749999999999922 2.381569860407226 0.9999999999999756
  endloop
endfacet
facet normal -0.3826834323650804 0.9238795325112907 -0.0
  outer loop
    vertex -0.7117523740319348 2.656296022294945 0.9999999999999756
    vertex -1.3749999999999922 2.381569860407226 3.982599999999918
    vertex -0.7117523740319348 2.656296022294945 3.982599999999918
  endloop
endfacet
facet normal 0.5633902913547486 0.4323045753218155 0.7040625922196381
  outer loop
    vertex 1.5155444566227418 0.8749999999999928 4.982599999999916
    vertex 1.9445436482629936 1.9445436482629992 3.982599999999918
    vertex 1.2374368670764386 1.2374368670764613 4.982599999999916
  endloop
endfacet
facet normal 0.5633902913547486 0.4323045753218155 0.7040625922196381
  outer loop
    vertex 1.9445436482629936 1.9445436482629992 3.982599999999918
    vertex 1.5155444566227418 0.8749999999999928 4.982599999999916
    vertex 2.3815698604071867 1.3749999999999918 3.982599999999918
  endloop
endfacet
facet normal -0.6087614290087426 0.7933533402912182 -0.0
  outer loop
    vertex -1.9445436482629992 1.9445436482629992 3.982599999999918
    vertex -1.3749999999999922 2.381569860407226 0.9999999999999756
    vertex -1.9445436482629992 1.9445436482629992 0.9999999999999756
  endloop
endfacet
facet normal -0.6087614290087426 0.7933533402912182 -0.0
  outer loop
    vertex -1.3749999999999922 2.381569860407226 0.9999999999999756
    vertex -1.9445436482629992 1.9445436482629992 3.982599999999918
    vertex -1.3749999999999922 2.381569860407226 3.982599999999918
  endloop
endfacet
facet normal 0.9238795325112795 0.3826834323651075 -0.0
  outer loop
    vertex 2.3815698604071867 1.3749999999999918 0.9999999999999756
    vertex 2.6562960222949283 0.7117523740319348 3.982599999999918
    vertex 2.6562960222949283 0.7117523740319348 0.9999999999999756
  endloop
endfacet
facet normal 0.9238795325112795 0.3826834323651075 -0.0
  outer loop
    vertex 2.6562960222949283 0.7117523740319348 3.982599999999918
    vertex 2.3815698604071867 1.3749999999999918 0.9999999999999756
    vertex 2.3815698604071867 1.3749999999999918 3.982599999999918
  endloop
endfacet
facet normal 0.3826834323650806 0.9238795325112907 -0.0
  outer loop
    vertex 0.711752374031915 2.656296022294945 3.982599999999918
    vertex 1.374999999999972 2.381569860407226 0.9999999999999756
    vertex 0.711752374031915 2.656296022294945 0.9999999999999756
  endloop
endfacet
facet normal 0.3826834323650806 0.9238795325112907 -0.0
  outer loop
    vertex 1.374999999999972 2.381569860407226 0.9999999999999756
    vertex 0.711752374031915 2.656296022294945 3.982599999999918
    vertex 1.374999999999972 2.381569860407226 3.982599999999918
  endloop
endfacet
facet normal 0.13052619222008377 0.9914448613738062 -0.0
  outer loop
    vertex 0.0 2.750000000000029 3.982599999999918
    vertex 0.711752374031915 2.656296022294945 0.9999999999999756
    vertex 0.0 2.750000000000029 0.9999999999999756
  endloop
endfacet
facet normal 0.13052619222008377 0.9914448613738062 -0.0
  outer loop
    vertex 0.711752374031915 2.656296022294945 0.9999999999999756
    vertex 0.0 2.750000000000029 3.982599999999918
    vertex 0.711752374031915 2.656296022294945 3.982599999999918
  endloop
endfacet
facet normal 0.7040625922196344 0.0926915987235624 0.7040625922196398
  outer loop
    vertex 1.7499999999999771 -1.127986593019159e-14 4.982599999999916
    vertex 2.6562960222949283 0.7117523740319348 3.982599999999918
    vertex 1.6903701960058564 0.45293332892940075 4.982599999999916
  endloop
endfacet
facet normal 0.7040625922196344 0.0926915987235624 0.7040625922196398
  outer loop
    vertex 2.6562960222949283 0.7117523740319348 3.982599999999918
    vertex 1.7499999999999771 -1.127986593019159e-14 4.982599999999916
    vertex 2.7499999999999867 -1.127986593019159e-14 3.982599999999918
  endloop
endfacet
endsolid ESPLCD Button
