solid Platform edge leg
facet normal -1.1929953347634533e-16 -0.7071067811865475 -0.7071067811865476
  outer loop
    vertex 6.0 6.0 -23.03
    vertex 43.79999999999999 3.9999999999999933 -21.03
    vertex 3.9999999999999996 3.9999999999999996 -21.03
  endloop
endfacet
facet normal -1.1929953347634533e-16 -0.7071067811865475 -0.7071067811865476
  outer loop
    vertex 43.79999999999999 3.9999999999999933 -21.03
    vertex 6.0 6.0 -23.03
    vertex 41.79999999999999 5.999999999999993 -23.03
  endloop
endfacet
facet normal 5.258016475438925e-16 0.7071067811865476 -0.7071067811865476
  outer loop
    vertex 3.9999999999999996 16.999999999999996 -21.03
    vertex 41.79999999999999 14.99999999999997 -23.03
    vertex 6.0 14.999999999999998 -23.03
  endloop
endfacet
facet normal 5.258016475438925e-16 0.7071067811865476 -0.7071067811865476
  outer loop
    vertex 41.79999999999999 14.99999999999997 -23.03
    vertex 3.9999999999999996 16.999999999999996 -21.03
    vertex 43.79999999999999 16.999999999999968 -21.03
  endloop
endfacet
facet normal 0.0 0.0 -1.0
  outer loop
    vertex 6.0 14.999999999999998 -23.03
    vertex 21.9 13.964101615137734 -23.03
    vertex 6.0 6.0 -23.03
  endloop
endfacet
facet normal 0.0 0.0 -1.0
  outer loop
    vertex 21.9 13.964101615137734 -23.03
    vertex 6.0 14.999999999999998 -23.03
    vertex 22.864723819589916 14.363703305156251 -23.03
  endloop
endfacet
facet normal 0.0 0.0 -1.0
  outer loop
    vertex 22.864723819589916 14.363703305156251 -23.03
    vertex 6.0 14.999999999999998 -23.03
    vertex 23.899999999999995 14.499999999999979 -23.03
  endloop
endfacet
facet normal 0.0 0.0 -1.0
  outer loop
    vertex 23.899999999999995 14.499999999999979 -23.03
    vertex 6.0 14.999999999999998 -23.03
    vertex 41.79999999999999 14.99999999999997 -23.03
  endloop
endfacet
facet normal 0.0 0.0 -1.0
  outer loop
    vertex 6.0 6.0 -23.03
    vertex 21.9 13.964101615137734 -23.03
    vertex 21.071572875253807 13.32842712474617 -23.03
  endloop
endfacet
facet normal 0.0 0.0 -1.0
  outer loop
    vertex 6.0 6.0 -23.03
    vertex 21.071572875253807 13.32842712474617 -23.03
    vertex 20.435898384862245 12.49999999999998 -23.03
  endloop
endfacet
facet normal 0.0 0.0 -1.0
  outer loop
    vertex 6.0 6.0 -23.03
    vertex 20.435898384862245 12.49999999999998 -23.03
    vertex 20.036296694843724 11.535276180410067 -23.03
  endloop
endfacet
facet normal 0.0 0.0 -1.0
  outer loop
    vertex 6.0 6.0 -23.03
    vertex 20.036296694843724 11.535276180410067 -23.03
    vertex 19.9 10.49999999999998 -23.03
  endloop
endfacet
facet normal 0.0 0.0 -1.0
  outer loop
    vertex 23.899999999999995 14.499999999999979 -23.03
    vertex 41.79999999999999 14.99999999999997 -23.03
    vertex 24.93527618041008 14.363703305156251 -23.03
  endloop
endfacet
facet normal 0.0 0.0 -1.0
  outer loop
    vertex 24.93527618041008 14.363703305156251 -23.03
    vertex 41.79999999999999 14.99999999999997 -23.03
    vertex 25.9 13.964101615137732 -23.03
  endloop
endfacet
facet normal 0.0 0.0 -1.0
  outer loop
    vertex 25.9 13.964101615137732 -23.03
    vertex 41.79999999999999 14.99999999999997 -23.03
    vertex 26.728427124746187 13.328427124746167 -23.03
  endloop
endfacet
facet normal 0.0 0.0 -1.0
  outer loop
    vertex 26.728427124746187 13.328427124746167 -23.03
    vertex 41.79999999999999 14.99999999999997 -23.03
    vertex 27.364101615137745 12.499999999999979 -23.03
  endloop
endfacet
facet normal 0.0 0.0 -1.0
  outer loop
    vertex 27.364101615137745 12.499999999999979 -23.03
    vertex 41.79999999999999 14.99999999999997 -23.03
    vertex 27.763703305156266 11.535276180410062 -23.03
  endloop
endfacet
facet normal 0.0 0.0 -1.0
  outer loop
    vertex 27.763703305156266 11.535276180410062 -23.03
    vertex 41.79999999999999 14.99999999999997 -23.03
    vertex 27.899999999999995 10.49999999999998 -23.03
  endloop
endfacet
facet normal 0.0 0.0 -1.0
  outer loop
    vertex 6.0 6.0 -23.03
    vertex 23.899999999999995 6.499999999999982 -23.03
    vertex 41.79999999999999 5.999999999999993 -23.03
  endloop
endfacet
facet normal 0.0 0.0 -1.0
  outer loop
    vertex 23.899999999999995 6.499999999999982 -23.03
    vertex 6.0 6.0 -23.03
    vertex 22.864723819589912 6.636296694843709 -23.03
  endloop
endfacet
facet normal 0.0 0.0 -1.0
  outer loop
    vertex 22.864723819589912 6.636296694843709 -23.03
    vertex 6.0 6.0 -23.03
    vertex 21.899999999999995 7.035898384862227 -23.03
  endloop
endfacet
facet normal 0.0 0.0 -1.0
  outer loop
    vertex 21.899999999999995 7.035898384862227 -23.03
    vertex 6.0 6.0 -23.03
    vertex 21.071572875253807 7.671572875253792 -23.03
  endloop
endfacet
facet normal 0.0 0.0 -1.0
  outer loop
    vertex 21.071572875253807 7.671572875253792 -23.03
    vertex 6.0 6.0 -23.03
    vertex 20.43589838486224 8.499999999999982 -23.03
  endloop
endfacet
facet normal 0.0 0.0 -1.0
  outer loop
    vertex 20.43589838486224 8.499999999999982 -23.03
    vertex 6.0 6.0 -23.03
    vertex 20.036296694843724 9.464723819589898 -23.03
  endloop
endfacet
facet normal 0.0 0.0 -1.0
  outer loop
    vertex 20.036296694843724 9.464723819589898 -23.03
    vertex 6.0 6.0 -23.03
    vertex 19.9 10.49999999999998 -23.03
  endloop
endfacet
facet normal 0.0 0.0 -1.0
  outer loop
    vertex 41.79999999999999 5.999999999999993 -23.03
    vertex 23.899999999999995 6.499999999999982 -23.03
    vertex 24.935276180410078 6.636296694843709 -23.03
  endloop
endfacet
facet normal 0.0 0.0 -1.0
  outer loop
    vertex 41.79999999999999 5.999999999999993 -23.03
    vertex 24.935276180410078 6.636296694843709 -23.03
    vertex 25.89999999999999 7.035898384862227 -23.03
  endloop
endfacet
facet normal 0.0 0.0 -1.0
  outer loop
    vertex 41.79999999999999 5.999999999999993 -23.03
    vertex 25.89999999999999 7.035898384862227 -23.03
    vertex 26.728427124746187 7.671572875253792 -23.03
  endloop
endfacet
facet normal 0.0 0.0 -1.0
  outer loop
    vertex 41.79999999999999 5.999999999999993 -23.03
    vertex 26.728427124746187 7.671572875253792 -23.03
    vertex 27.364101615137745 8.49999999999998 -23.03
  endloop
endfacet
facet normal 0.0 0.0 -1.0
  outer loop
    vertex 41.79999999999999 5.999999999999993 -23.03
    vertex 27.364101615137745 8.49999999999998 -23.03
    vertex 27.763703305156266 9.464723819589898 -23.03
  endloop
endfacet
facet normal 0.0 0.0 -1.0
  outer loop
    vertex 41.79999999999999 5.999999999999993 -23.03
    vertex 27.763703305156266 9.464723819589898 -23.03
    vertex 27.899999999999995 10.49999999999998 -23.03
  endloop
endfacet
facet normal 0.0 0.0 -1.0
  outer loop
    vertex 41.79999999999999 5.999999999999993 -23.03
    vertex 27.899999999999995 10.49999999999998 -23.03
    vertex 41.79999999999999 14.99999999999997 -23.03
  endloop
endfacet
facet normal -0.7071067811865475 6.331005316527634e-18 -0.7071067811865477
  outer loop
    vertex 6.0 14.999999999999998 -23.03
    vertex 3.9999999999999996 3.9999999999999996 -21.03
    vertex 3.9999999999999996 16.999999999999996 -21.03
  endloop
endfacet
facet normal -0.7071067811865475 6.331005316527634e-18 -0.7071067811865477
  outer loop
    vertex 3.9999999999999996 3.9999999999999996 -21.03
    vertex 6.0 14.999999999999998 -23.03
    vertex 6.0 6.0 -23.03
  endloop
endfacet
facet normal 0.7071067811865471 -6.3310053165277e-18 -0.707106781186548
  outer loop
    vertex 43.79999999999999 16.999999999999968 -21.03
    vertex 41.79999999999999 5.999999999999993 -23.03
    vertex 41.79999999999999 14.99999999999997 -23.03
  endloop
endfacet
facet normal 0.7071067811865471 -6.3310053165277e-18 -0.707106781186548
  outer loop
    vertex 41.79999999999999 5.999999999999993 -23.03
    vertex 43.79999999999999 16.999999999999968 -21.03
    vertex 43.79999999999999 3.9999999999999933 -21.03
  endloop
endfacet
facet normal 0.9635179096299408 8.710899036934191e-18 -0.26764386378609484
  outer loop
    vertex 43.79999999999999 3.9999999999999933 -21.03
    vertex 48.8 16.999999999999996 -3.0300000000000002
    vertex 48.8 -0.9999999999999996 -3.0299999999999994
  endloop
endfacet
facet normal 0.9635179096299408 8.710899036934191e-18 -0.26764386378609484
  outer loop
    vertex 48.8 16.999999999999996 -3.0300000000000002
    vertex 43.79999999999999 3.9999999999999933 -21.03
    vertex 43.79999999999999 16.999999999999968 -21.03
  endloop
endfacet
facet normal -0.9635179096299408 -2.2648337496028876e-16 -0.2676438637860947
  outer loop
    vertex -1.0000000000000038 16.999999999999996 -3.0300000000000002
    vertex 3.9999999999999996 3.9999999999999996 -21.03
    vertex -0.9999999999999974 -1.0000000000000002 -3.03
  endloop
endfacet
facet normal -0.9635179096299408 -2.2648337496028876e-16 -0.2676438637860947
  outer loop
    vertex 3.9999999999999996 3.9999999999999996 -21.03
    vertex -1.0000000000000038 16.999999999999996 -3.0300000000000002
    vertex 3.9999999999999996 16.999999999999996 -21.03
  endloop
endfacet
facet normal 2.761625411050135e-16 1.0 -7.833240229299715e-16
  outer loop
    vertex -1.0000000000000038 16.999999999999996 -3.0300000000000002
    vertex 43.79999999999999 16.999999999999968 -21.03
    vertex 3.9999999999999996 16.999999999999996 -21.03
  endloop
endfacet
facet normal 2.761625411050135e-16 1.0 -7.833240229299715e-16
  outer loop
    vertex 43.79999999999999 16.999999999999968 -21.03
    vertex -1.0000000000000038 16.999999999999996 -3.0300000000000002
    vertex 48.8 16.999999999999996 -3.0300000000000002
  endloop
endfacet
facet normal -5.00009862689034e-17 -0.9635179096299408 -0.26764386378609456
  outer loop
    vertex 48.8 -0.9999999999999996 -3.0299999999999994
    vertex 3.9999999999999996 3.9999999999999996 -21.03
    vertex 43.79999999999999 3.9999999999999933 -21.03
  endloop
endfacet
facet normal -5.00009862689034e-17 -0.9635179096299408 -0.26764386378609456
  outer loop
    vertex 3.9999999999999996 3.9999999999999996 -21.03
    vertex 48.8 -0.9999999999999996 -3.0299999999999994
    vertex -0.9999999999999974 -1.0000000000000002 -3.03
  endloop
endfacet
facet normal 0.13052619222005438 -0.9914448613738102 -4.271488957575983e-33
  outer loop
    vertex 23.899999999999995 12.749999999999982 -0.030000000000002202
    vertex 23.317657148519324 12.673333109150384 -3.0299999999999994
    vertex 23.899999999999995 12.749999999999982 -3.0299999999999994
  endloop
endfacet
facet normal 0.13052619222005438 -0.9914448613738102 -4.271488957575983e-33
  outer loop
    vertex 23.317657148519324 12.673333109150384 -3.0299999999999994
    vertex 23.899999999999995 12.749999999999982 -0.030000000000002202
    vertex 23.317657148519324 12.673333109150384 -0.030000000000002202
  endloop
endfacet
facet normal -0.13052619222005374 -0.9914448613738103 4.271488957575957e-33
  outer loop
    vertex 24.48234285148067 12.673333109150384 -0.030000000000002202
    vertex 23.899999999999995 12.749999999999982 -3.0299999999999994
    vertex 24.48234285148067 12.673333109150384 -3.0299999999999994
  endloop
endfacet
facet normal -0.13052619222005374 -0.9914448613738103 4.271488957575957e-33
  outer loop
    vertex 23.899999999999995 12.749999999999982 -3.0299999999999994
    vertex 24.48234285148067 12.673333109150384 -0.030000000000002202
    vertex 23.899999999999995 12.749999999999982 -0.030000000000002202
  endloop
endfacet
facet normal -0.3826834323650908 -0.9238795325112865 1.2523371959238165e-32
  outer loop
    vertex 25.024999999999995 12.448557158514967 -0.030000000000002202
    vertex 24.48234285148067 12.673333109150384 -3.0299999999999994
    vertex 25.024999999999995 12.448557158514967 -3.0299999999999994
  endloop
endfacet
facet normal -0.3826834323650908 -0.9238795325112865 1.2523371959238165e-32
  outer loop
    vertex 24.48234285148067 12.673333109150384 -3.0299999999999994
    vertex 25.024999999999995 12.448557158514967 -0.030000000000002202
    vertex 24.48234285148067 12.673333109150384 -0.030000000000002202
  endloop
endfacet
facet normal -0.6087614290087228 -0.7933533402912337 1.9921807857729062e-32
  outer loop
    vertex 25.490990257669726 12.090990257669713 -0.030000000000002202
    vertex 25.024999999999995 12.448557158514967 -3.0299999999999994
    vertex 25.490990257669726 12.090990257669713 -3.0299999999999994
  endloop
endfacet
facet normal -0.6087614290087228 -0.7933533402912337 1.9921807857729062e-32
  outer loop
    vertex 25.024999999999995 12.448557158514967 -3.0299999999999994
    vertex 25.490990257669726 12.090990257669713 -0.030000000000002202
    vertex 25.024999999999995 12.448557158514967 -0.030000000000002202
  endloop
endfacet
facet normal -0.7933533402912343 -0.6087614290087219 2.59626054730597e-32
  outer loop
    vertex 25.490990257669726 12.090990257669713 -0.030000000000002202
    vertex 25.848557158514982 11.62499999999998 -3.0299999999999994
    vertex 25.848557158514982 11.62499999999998 -0.030000000000002202
  endloop
endfacet
facet normal -0.7933533402912343 -0.6087614290087219 2.59626054730597e-32
  outer loop
    vertex 25.848557158514982 11.62499999999998 -3.0299999999999994
    vertex 25.490990257669726 12.090990257669713 -0.030000000000002202
    vertex 25.490990257669726 12.090990257669713 -3.0299999999999994
  endloop
endfacet
facet normal -0.9238795325112865 -0.3826834323650908 3.0234094430635607e-32
  outer loop
    vertex 25.848557158514982 11.62499999999998 -0.030000000000002202
    vertex 26.0733331091504 11.082342851480652 -3.0299999999999994
    vertex 26.0733331091504 11.082342851480652 -0.030000000000002202
  endloop
endfacet
facet normal -0.9238795325112865 -0.3826834323650908 3.0234094430635607e-32
  outer loop
    vertex 26.0733331091504 11.082342851480652 -3.0299999999999994
    vertex 25.848557158514982 11.62499999999998 -0.030000000000002202
    vertex 25.848557158514982 11.62499999999998 -3.0299999999999994
  endloop
endfacet
facet normal -0.9914448613738102 -0.13052619222005404 3.244517981696712e-32
  outer loop
    vertex 26.0733331091504 11.082342851480652 -0.030000000000002202
    vertex 26.15 10.49999999999998 -3.0299999999999994
    vertex 26.15 10.49999999999998 -0.030000000000002202
  endloop
endfacet
facet normal -0.9914448613738102 -0.13052619222005404 3.244517981696712e-32
  outer loop
    vertex 26.15 10.49999999999998 -3.0299999999999994
    vertex 26.0733331091504 11.082342851480652 -0.030000000000002202
    vertex 26.0733331091504 11.082342851480652 -3.0299999999999994
  endloop
endfacet
facet normal -0.9914448613738102 0.13052619222005404 3.244517981696712e-32
  outer loop
    vertex 26.15 10.49999999999998 -0.030000000000002202
    vertex 26.0733331091504 9.917657148519309 -3.0299999999999994
    vertex 26.0733331091504 9.917657148519309 -0.030000000000002202
  endloop
endfacet
facet normal -0.9914448613738102 0.13052619222005404 3.244517981696712e-32
  outer loop
    vertex 26.0733331091504 9.917657148519309 -3.0299999999999994
    vertex 26.15 10.49999999999998 -0.030000000000002202
    vertex 26.15 10.49999999999998 -3.0299999999999994
  endloop
endfacet
facet normal -0.9238795325112867 0.38268343236508984 3.023409443063562e-32
  outer loop
    vertex 26.0733331091504 9.917657148519309 -0.030000000000002202
    vertex 25.848557158514982 9.37499999999998 -3.0299999999999994
    vertex 25.848557158514982 9.37499999999998 -0.030000000000002202
  endloop
endfacet
facet normal -0.9238795325112867 0.38268343236508984 3.023409443063562e-32
  outer loop
    vertex 25.848557158514982 9.37499999999998 -3.0299999999999994
    vertex 26.0733331091504 9.917657148519309 -0.030000000000002202
    vertex 26.0733331091504 9.917657148519309 -3.0299999999999994
  endloop
endfacet
facet normal -0.7933533402912334 0.608761429008723 2.596260547305967e-32
  outer loop
    vertex 25.848557158514982 9.37499999999998 -0.030000000000002202
    vertex 25.490990257669726 8.90900974233025 -3.0299999999999994
    vertex 25.490990257669726 8.90900974233025 -0.030000000000002202
  endloop
endfacet
facet normal -0.7933533402912334 0.608761429008723 2.596260547305967e-32
  outer loop
    vertex 25.490990257669726 8.90900974233025 -3.0299999999999994
    vertex 25.848557158514982 9.37499999999998 -0.030000000000002202
    vertex 25.848557158514982 9.37499999999998 -3.0299999999999994
  endloop
endfacet
facet normal -0.6087614290087228 0.7933533402912337 1.992180785772907e-32
  outer loop
    vertex 25.024999999999995 8.551442841484993 -0.030000000000002202
    vertex 25.490990257669726 8.90900974233025 -3.0299999999999994
    vertex 25.024999999999995 8.551442841484993 -3.0299999999999994
  endloop
endfacet
facet normal -0.6087614290087228 0.7933533402912337 1.992180785772907e-32
  outer loop
    vertex 25.490990257669726 8.90900974233025 -3.0299999999999994
    vertex 25.024999999999995 8.551442841484993 -0.030000000000002202
    vertex 25.490990257669726 8.90900974233025 -0.030000000000002202
  endloop
endfacet
facet normal -0.382683432365089 0.9238795325112872 1.252337195923811e-32
  outer loop
    vertex 24.482342851480666 8.326666890849577 -0.030000000000002202
    vertex 25.024999999999995 8.551442841484993 -3.0299999999999994
    vertex 24.482342851480666 8.326666890849577 -3.0299999999999994
  endloop
endfacet
facet normal -0.382683432365089 0.9238795325112872 1.252337195923811e-32
  outer loop
    vertex 25.024999999999995 8.551442841484993 -3.0299999999999994
    vertex 24.482342851480666 8.326666890849577 -0.030000000000002202
    vertex 25.024999999999995 8.551442841484993 -0.030000000000002202
  endloop
endfacet
facet normal -0.13052619222005202 0.9914448613738105 4.271488957575906e-33
  outer loop
    vertex 23.899999999999995 8.24999999999998 -0.030000000000002202
    vertex 24.482342851480666 8.326666890849577 -3.0299999999999994
    vertex 23.899999999999995 8.24999999999998 -3.0299999999999994
  endloop
endfacet
facet normal -0.13052619222005202 0.9914448613738105 4.271488957575906e-33
  outer loop
    vertex 24.482342851480666 8.326666890849577 -3.0299999999999994
    vertex 23.899999999999995 8.24999999999998 -0.030000000000002202
    vertex 24.482342851480666 8.326666890849577 -0.030000000000002202
  endloop
endfacet
facet normal 0.13052619222005138 0.9914448613738106 -4.27148895757588e-33
  outer loop
    vertex 23.317657148519324 8.326666890849577 -0.030000000000002202
    vertex 23.899999999999995 8.24999999999998 -3.0299999999999994
    vertex 23.317657148519324 8.326666890849577 -3.0299999999999994
  endloop
endfacet
facet normal 0.13052619222005138 0.9914448613738106 -4.27148895757588e-33
  outer loop
    vertex 23.899999999999995 8.24999999999998 -3.0299999999999994
    vertex 23.317657148519324 8.326666890849577 -0.030000000000002202
    vertex 23.899999999999995 8.24999999999998 -0.030000000000002202
  endloop
endfacet
facet normal 0.3826834323650908 0.9238795325112865 -1.2523371959238165e-32
  outer loop
    vertex 22.774999999999995 8.551442841484993 -0.030000000000002202
    vertex 23.317657148519324 8.326666890849577 -3.0299999999999994
    vertex 22.774999999999995 8.551442841484993 -3.0299999999999994
  endloop
endfacet
facet normal 0.3826834323650908 0.9238795325112865 -1.2523371959238165e-32
  outer loop
    vertex 23.317657148519324 8.326666890849577 -3.0299999999999994
    vertex 22.774999999999995 8.551442841484993 -0.030000000000002202
    vertex 23.317657148519324 8.326666890849577 -0.030000000000002202
  endloop
endfacet
facet normal 0.6087614290087203 0.7933533402912354 -1.992180785772898e-32
  outer loop
    vertex 22.30900974233026 8.90900974233025 -0.030000000000002202
    vertex 22.774999999999995 8.551442841484993 -3.0299999999999994
    vertex 22.30900974233026 8.90900974233025 -3.0299999999999994
  endloop
endfacet
facet normal 0.6087614290087203 0.7933533402912354 -1.992180785772898e-32
  outer loop
    vertex 22.774999999999995 8.551442841484993 -3.0299999999999994
    vertex 22.30900974233026 8.90900974233025 -0.030000000000002202
    vertex 22.774999999999995 8.551442841484993 -0.030000000000002202
  endloop
endfacet
facet normal 0.7933533402912375 0.6087614290087178 -2.5962605473059806e-32
  outer loop
    vertex 21.951442841485008 9.374999999999982 -3.0299999999999994
    vertex 22.30900974233026 8.90900974233025 -0.030000000000002202
    vertex 22.30900974233026 8.90900974233025 -3.0299999999999994
  endloop
endfacet
facet normal 0.7933533402912375 0.6087614290087178 -2.5962605473059806e-32
  outer loop
    vertex 22.30900974233026 8.90900974233025 -0.030000000000002202
    vertex 21.951442841485008 9.374999999999982 -3.0299999999999994
    vertex 21.951442841485008 9.374999999999982 -0.030000000000002202
  endloop
endfacet
facet normal 0.9238795325112865 0.3826834323650908 -3.0234094430635607e-32
  outer loop
    vertex 21.726666890849593 9.91765714851931 -3.0299999999999994
    vertex 21.951442841485008 9.374999999999982 -0.030000000000002202
    vertex 21.951442841485008 9.374999999999982 -3.0299999999999994
  endloop
endfacet
facet normal 0.9238795325112865 0.3826834323650908 -3.0234094430635607e-32
  outer loop
    vertex 21.951442841485008 9.374999999999982 -0.030000000000002202
    vertex 21.726666890849593 9.91765714851931 -3.0299999999999994
    vertex 21.726666890849593 9.91765714851931 -0.030000000000002202
  endloop
endfacet
facet normal 0.9914448613738102 0.13052619222005438 -3.244517981696712e-32
  outer loop
    vertex 21.649999999999995 10.49999999999998 -3.0299999999999994
    vertex 21.726666890849593 9.91765714851931 -0.030000000000002202
    vertex 21.726666890849593 9.91765714851931 -3.0299999999999994
  endloop
endfacet
facet normal 0.9914448613738102 0.13052619222005438 -3.244517981696712e-32
  outer loop
    vertex 21.726666890849593 9.91765714851931 -0.030000000000002202
    vertex 21.649999999999995 10.49999999999998 -3.0299999999999994
    vertex 21.649999999999995 10.49999999999998 -0.030000000000002202
  endloop
endfacet
facet normal 0.9914448613738103 -0.13052619222005374 -3.2445179816967123e-32
  outer loop
    vertex 21.726666890849593 11.082342851480654 -3.0299999999999994
    vertex 21.649999999999995 10.49999999999998 -0.030000000000002202
    vertex 21.649999999999995 10.49999999999998 -3.0299999999999994
  endloop
endfacet
facet normal 0.9914448613738103 -0.13052619222005374 -3.2445179816967123e-32
  outer loop
    vertex 21.649999999999995 10.49999999999998 -0.030000000000002202
    vertex 21.726666890849593 11.082342851480654 -3.0299999999999994
    vertex 21.726666890849593 11.082342851480654 -0.030000000000002202
  endloop
endfacet
facet normal 0.9238795325112865 -0.3826834323650908 -3.0234094430635607e-32
  outer loop
    vertex 21.951442841485008 11.624999999999982 -3.0299999999999994
    vertex 21.726666890849593 11.082342851480654 -0.030000000000002202
    vertex 21.726666890849593 11.082342851480654 -3.0299999999999994
  endloop
endfacet
facet normal 0.9238795325112865 -0.3826834323650908 -3.0234094430635607e-32
  outer loop
    vertex 21.726666890849593 11.082342851480654 -0.030000000000002202
    vertex 21.951442841485008 11.624999999999982 -3.0299999999999994
    vertex 21.951442841485008 11.624999999999982 -0.030000000000002202
  endloop
endfacet
facet normal 0.7933533402912343 -0.6087614290087219 -2.59626054730597e-32
  outer loop
    vertex 22.309009742330264 12.090990257669715 -3.0299999999999994
    vertex 21.951442841485008 11.624999999999982 -0.030000000000002202
    vertex 21.951442841485008 11.624999999999982 -3.0299999999999994
  endloop
endfacet
facet normal 0.7933533402912343 -0.6087614290087219 -2.59626054730597e-32
  outer loop
    vertex 21.951442841485008 11.624999999999982 -0.030000000000002202
    vertex 22.309009742330264 12.090990257669715 -3.0299999999999994
    vertex 22.309009742330264 12.090990257669715 -0.030000000000002202
  endloop
endfacet
facet normal 0.6087614290087189 -0.7933533402912365 -1.9921807857728936e-32
  outer loop
    vertex 22.775 12.448557158514967 -0.030000000000002202
    vertex 22.309009742330264 12.090990257669715 -3.0299999999999994
    vertex 22.775 12.448557158514967 -3.0299999999999994
  endloop
endfacet
facet normal 0.6087614290087189 -0.7933533402912365 -1.9921807857728936e-32
  outer loop
    vertex 22.309009742330264 12.090990257669715 -3.0299999999999994
    vertex 22.775 12.448557158514967 -0.030000000000002202
    vertex 22.309009742330264 12.090990257669715 -0.030000000000002202
  endloop
endfacet
facet normal 0.3826834323650908 -0.9238795325112865 -1.2523371959238168e-32
  outer loop
    vertex 23.317657148519324 12.673333109150384 -0.030000000000002202
    vertex 22.775 12.448557158514967 -3.0299999999999994
    vertex 23.317657148519324 12.673333109150384 -3.0299999999999994
  endloop
endfacet
facet normal 0.3826834323650908 -0.9238795325112865 -1.2523371959238168e-32
  outer loop
    vertex 22.775 12.448557158514967 -3.0299999999999994
    vertex 23.317657148519324 12.673333109150384 -0.030000000000002202
    vertex 22.775 12.448557158514967 -0.030000000000002202
  endloop
endfacet
facet normal 0.0 0.0 -1.0
  outer loop
    vertex 20.036296694843724 11.535276180410067 -3.0299999999999923
    vertex 20.036296694843724 9.464723819589898 -3.0299999999999923
    vertex 19.9 10.49999999999998 -3.0299999999999923
  endloop
endfacet
facet normal 0.0 0.0 -1.0
  outer loop
    vertex 20.036296694843724 9.464723819589898 -3.0299999999999923
    vertex 20.036296694843724 11.535276180410067 -3.0299999999999923
    vertex 20.435898384862245 12.49999999999998 -3.0299999999999923
  endloop
endfacet
facet normal 0.0 0.0 -1.0
  outer loop
    vertex 20.036296694843724 9.464723819589898 -3.0299999999999923
    vertex 20.435898384862245 12.49999999999998 -3.0299999999999923
    vertex 20.43589838486224 8.499999999999982 -3.0299999999999923
  endloop
endfacet
facet normal 0.0 0.0 -1.0
  outer loop
    vertex 20.43589838486224 8.499999999999982 -3.0299999999999923
    vertex 20.435898384862245 12.49999999999998 -3.0299999999999923
    vertex 21.071572875253807 7.671572875253792 -3.0299999999999923
  endloop
endfacet
facet normal 0.0 0.0 -1.0
  outer loop
    vertex 21.071572875253807 7.671572875253792 -3.0299999999999923
    vertex 20.435898384862245 12.49999999999998 -3.0299999999999923
    vertex 21.071572875253807 13.32842712474617 -3.0299999999999923
  endloop
endfacet
facet normal 0.0 0.0 -1.0
  outer loop
    vertex 21.071572875253807 7.671572875253792 -3.0299999999999923
    vertex 21.071572875253807 13.32842712474617 -3.0299999999999923
    vertex 21.9 13.964101615137734 -3.0299999999999923
  endloop
endfacet
facet normal 0.0 0.0 -1.0
  outer loop
    vertex 21.071572875253807 7.671572875253792 -3.0299999999999923
    vertex 21.9 13.964101615137734 -3.0299999999999923
    vertex 21.649999999999995 10.49999999999998 -3.0299999999999994
  endloop
endfacet
facet normal 0.0 0.0 -1.0
  outer loop
    vertex 21.649999999999995 10.49999999999998 -3.0299999999999994
    vertex 21.9 13.964101615137734 -3.0299999999999923
    vertex 21.726666890849593 11.082342851480654 -3.0299999999999994
  endloop
endfacet
facet normal 0.0 0.0 -1.0
  outer loop
    vertex 21.726666890849593 11.082342851480654 -3.0299999999999994
    vertex 21.9 13.964101615137734 -3.0299999999999923
    vertex 21.951442841485008 11.624999999999982 -3.0299999999999994
  endloop
endfacet
facet normal 0.0 0.0 -1.0
  outer loop
    vertex 21.951442841485008 11.624999999999982 -3.0299999999999994
    vertex 21.9 13.964101615137734 -3.0299999999999923
    vertex 22.864723819589916 14.363703305156251 -3.0299999999999923
  endloop
endfacet
facet normal 0.0 0.0 -1.0
  outer loop
    vertex 21.951442841485008 11.624999999999982 -3.0299999999999994
    vertex 22.864723819589916 14.363703305156251 -3.0299999999999923
    vertex 22.309009742330264 12.090990257669715 -3.0299999999999994
  endloop
endfacet
facet normal 0.0 0.0 -1.0
  outer loop
    vertex 22.309009742330264 12.090990257669715 -3.0299999999999994
    vertex 22.864723819589916 14.363703305156251 -3.0299999999999923
    vertex 22.775 12.448557158514967 -3.0299999999999994
  endloop
endfacet
facet normal 0.0 0.0 -1.0
  outer loop
    vertex 22.775 12.448557158514967 -3.0299999999999994
    vertex 22.864723819589916 14.363703305156251 -3.0299999999999923
    vertex 23.317657148519324 12.673333109150384 -3.0299999999999994
  endloop
endfacet
facet normal 0.0 0.0 -1.0
  outer loop
    vertex 23.317657148519324 12.673333109150384 -3.0299999999999994
    vertex 22.864723819589916 14.363703305156251 -3.0299999999999923
    vertex 23.899999999999995 14.499999999999979 -3.0299999999999923
  endloop
endfacet
facet normal 0.0 0.0 -1.0
  outer loop
    vertex 23.317657148519324 12.673333109150384 -3.0299999999999994
    vertex 23.899999999999995 14.499999999999979 -3.0299999999999923
    vertex 23.899999999999995 12.749999999999982 -3.0299999999999994
  endloop
endfacet
facet normal 0.0 0.0 -1.0
  outer loop
    vertex 23.899999999999995 12.749999999999982 -3.0299999999999994
    vertex 23.899999999999995 14.499999999999979 -3.0299999999999923
    vertex 24.93527618041008 14.363703305156251 -3.0299999999999923
  endloop
endfacet
facet normal 0.0 0.0 -1.0
  outer loop
    vertex 23.899999999999995 12.749999999999982 -3.0299999999999994
    vertex 24.93527618041008 14.363703305156251 -3.0299999999999923
    vertex 24.48234285148067 12.673333109150384 -3.0299999999999994
  endloop
endfacet
facet normal 0.0 0.0 -1.0
  outer loop
    vertex 24.48234285148067 12.673333109150384 -3.0299999999999994
    vertex 24.93527618041008 14.363703305156251 -3.0299999999999923
    vertex 25.024999999999995 12.448557158514967 -3.0299999999999994
  endloop
endfacet
facet normal 0.0 0.0 -1.0
  outer loop
    vertex 25.024999999999995 12.448557158514967 -3.0299999999999994
    vertex 24.93527618041008 14.363703305156251 -3.0299999999999923
    vertex 25.9 13.964101615137732 -3.0299999999999923
  endloop
endfacet
facet normal 0.0 0.0 -1.0
  outer loop
    vertex 25.024999999999995 12.448557158514967 -3.0299999999999994
    vertex 25.9 13.964101615137732 -3.0299999999999923
    vertex 25.490990257669726 12.090990257669713 -3.0299999999999994
  endloop
endfacet
facet normal 0.0 0.0 -1.0
  outer loop
    vertex 25.490990257669726 12.090990257669713 -3.0299999999999994
    vertex 25.9 13.964101615137732 -3.0299999999999923
    vertex 25.848557158514982 11.62499999999998 -3.0299999999999994
  endloop
endfacet
facet normal 0.0 0.0 -1.0
  outer loop
    vertex 25.848557158514982 11.62499999999998 -3.0299999999999994
    vertex 25.9 13.964101615137732 -3.0299999999999923
    vertex 26.0733331091504 11.082342851480652 -3.0299999999999994
  endloop
endfacet
facet normal 0.0 0.0 -1.0
  outer loop
    vertex 26.0733331091504 11.082342851480652 -3.0299999999999994
    vertex 25.9 13.964101615137732 -3.0299999999999923
    vertex 26.728427124746187 13.328427124746167 -3.0299999999999923
  endloop
endfacet
facet normal 0.0 0.0 -1.0
  outer loop
    vertex 26.0733331091504 11.082342851480652 -3.0299999999999994
    vertex 26.728427124746187 13.328427124746167 -3.0299999999999923
    vertex 26.15 10.49999999999998 -3.0299999999999994
  endloop
endfacet
facet normal 0.0 0.0 -1.0
  outer loop
    vertex 21.649999999999995 10.49999999999998 -3.0299999999999994
    vertex 21.899999999999995 7.035898384862227 -3.0299999999999923
    vertex 21.071572875253807 7.671572875253792 -3.0299999999999923
  endloop
endfacet
facet normal 0.0 0.0 -1.0
  outer loop
    vertex 21.899999999999995 7.035898384862227 -3.0299999999999923
    vertex 21.649999999999995 10.49999999999998 -3.0299999999999994
    vertex 21.726666890849593 9.91765714851931 -3.0299999999999994
  endloop
endfacet
facet normal 0.0 0.0 -1.0
  outer loop
    vertex 21.899999999999995 7.035898384862227 -3.0299999999999923
    vertex 21.726666890849593 9.91765714851931 -3.0299999999999994
    vertex 21.951442841485008 9.374999999999982 -3.0299999999999994
  endloop
endfacet
facet normal 0.0 0.0 -1.0
  outer loop
    vertex 21.899999999999995 7.035898384862227 -3.0299999999999923
    vertex 21.951442841485008 9.374999999999982 -3.0299999999999994
    vertex 22.864723819589912 6.636296694843709 -3.0299999999999923
  endloop
endfacet
facet normal 0.0 0.0 -1.0
  outer loop
    vertex 22.864723819589912 6.636296694843709 -3.0299999999999923
    vertex 21.951442841485008 9.374999999999982 -3.0299999999999994
    vertex 22.30900974233026 8.90900974233025 -3.0299999999999994
  endloop
endfacet
facet normal 0.0 0.0 -1.0
  outer loop
    vertex 22.864723819589912 6.636296694843709 -3.0299999999999923
    vertex 22.30900974233026 8.90900974233025 -3.0299999999999994
    vertex 22.774999999999995 8.551442841484993 -3.0299999999999994
  endloop
endfacet
facet normal 0.0 0.0 -1.0
  outer loop
    vertex 22.864723819589912 6.636296694843709 -3.0299999999999923
    vertex 22.774999999999995 8.551442841484993 -3.0299999999999994
    vertex 23.317657148519324 8.326666890849577 -3.0299999999999994
  endloop
endfacet
facet normal 0.0 0.0 -1.0
  outer loop
    vertex 22.864723819589912 6.636296694843709 -3.0299999999999923
    vertex 23.317657148519324 8.326666890849577 -3.0299999999999994
    vertex 23.899999999999995 6.499999999999982 -3.0299999999999923
  endloop
endfacet
facet normal 0.0 0.0 -1.0
  outer loop
    vertex 23.899999999999995 6.499999999999982 -3.0299999999999923
    vertex 23.317657148519324 8.326666890849577 -3.0299999999999994
    vertex 23.899999999999995 8.24999999999998 -3.0299999999999994
  endloop
endfacet
facet normal 0.0 0.0 -1.0
  outer loop
    vertex 23.899999999999995 6.499999999999982 -3.0299999999999923
    vertex 23.899999999999995 8.24999999999998 -3.0299999999999994
    vertex 24.482342851480666 8.326666890849577 -3.0299999999999994
  endloop
endfacet
facet normal 0.0 0.0 -1.0
  outer loop
    vertex 23.899999999999995 6.499999999999982 -3.0299999999999923
    vertex 24.482342851480666 8.326666890849577 -3.0299999999999994
    vertex 24.935276180410078 6.636296694843709 -3.0299999999999923
  endloop
endfacet
facet normal 0.0 0.0 -1.0
  outer loop
    vertex 24.935276180410078 6.636296694843709 -3.0299999999999923
    vertex 24.482342851480666 8.326666890849577 -3.0299999999999994
    vertex 25.024999999999995 8.551442841484993 -3.0299999999999994
  endloop
endfacet
facet normal 0.0 0.0 -1.0
  outer loop
    vertex 24.935276180410078 6.636296694843709 -3.0299999999999923
    vertex 25.024999999999995 8.551442841484993 -3.0299999999999994
    vertex 25.89999999999999 7.035898384862227 -3.0299999999999923
  endloop
endfacet
facet normal 0.0 0.0 -1.0
  outer loop
    vertex 25.89999999999999 7.035898384862227 -3.0299999999999923
    vertex 25.024999999999995 8.551442841484993 -3.0299999999999994
    vertex 25.490990257669726 8.90900974233025 -3.0299999999999994
  endloop
endfacet
facet normal 0.0 0.0 -1.0
  outer loop
    vertex 25.89999999999999 7.035898384862227 -3.0299999999999923
    vertex 25.490990257669726 8.90900974233025 -3.0299999999999994
    vertex 25.848557158514982 9.37499999999998 -3.0299999999999994
  endloop
endfacet
facet normal 0.0 0.0 -1.0
  outer loop
    vertex 25.89999999999999 7.035898384862227 -3.0299999999999923
    vertex 25.848557158514982 9.37499999999998 -3.0299999999999994
    vertex 26.0733331091504 9.917657148519309 -3.0299999999999994
  endloop
endfacet
facet normal 0.0 0.0 -1.0
  outer loop
    vertex 25.89999999999999 7.035898384862227 -3.0299999999999923
    vertex 26.0733331091504 9.917657148519309 -3.0299999999999994
    vertex 26.728427124746187 7.671572875253792 -3.0299999999999923
  endloop
endfacet
facet normal 0.0 0.0 -1.0
  outer loop
    vertex 26.728427124746187 7.671572875253792 -3.0299999999999923
    vertex 26.0733331091504 9.917657148519309 -3.0299999999999994
    vertex 26.15 10.49999999999998 -3.0299999999999994
  endloop
endfacet
facet normal 0.0 0.0 -1.0
  outer loop
    vertex 26.728427124746187 7.671572875253792 -3.0299999999999923
    vertex 26.15 10.49999999999998 -3.0299999999999994
    vertex 26.728427124746187 13.328427124746167 -3.0299999999999923
  endloop
endfacet
facet normal 0.0 0.0 -1.0
  outer loop
    vertex 26.728427124746187 7.671572875253792 -3.0299999999999923
    vertex 26.728427124746187 13.328427124746167 -3.0299999999999923
    vertex 27.364101615137745 12.499999999999979 -3.0299999999999923
  endloop
endfacet
facet normal 0.0 0.0 -1.0
  outer loop
    vertex 26.728427124746187 7.671572875253792 -3.0299999999999923
    vertex 27.364101615137745 12.499999999999979 -3.0299999999999923
    vertex 27.364101615137745 8.49999999999998 -3.0299999999999923
  endloop
endfacet
facet normal 0.0 0.0 -1.0
  outer loop
    vertex 27.364101615137745 8.49999999999998 -3.0299999999999923
    vertex 27.364101615137745 12.499999999999979 -3.0299999999999923
    vertex 27.763703305156266 11.535276180410062 -3.0299999999999923
  endloop
endfacet
facet normal 0.0 0.0 -1.0
  outer loop
    vertex 27.364101615137745 8.49999999999998 -3.0299999999999923
    vertex 27.763703305156266 11.535276180410062 -3.0299999999999923
    vertex 27.763703305156266 9.464723819589898 -3.0299999999999923
  endloop
endfacet
facet normal 0.0 0.0 -1.0
  outer loop
    vertex 27.763703305156266 9.464723819589898 -3.0299999999999923
    vertex 27.763703305156266 11.535276180410062 -3.0299999999999923
    vertex 27.899999999999995 10.49999999999998 -3.0299999999999923
  endloop
endfacet
facet normal -0.9914448613738104 0.13052619222005163 -0.0
  outer loop
    vertex 27.899999999999995 10.49999999999998 -3.0299999999999923
    vertex 27.763703305156266 9.464723819589898 -23.03
    vertex 27.763703305156266 9.464723819589898 -3.0299999999999923
  endloop
endfacet
facet normal -0.9914448613738104 0.13052619222005163 -0.0
  outer loop
    vertex 27.763703305156266 9.464723819589898 -23.03
    vertex 27.899999999999995 10.49999999999998 -3.0299999999999923
    vertex 27.899999999999995 10.49999999999998 -23.03
  endloop
endfacet
facet normal -0.9238795325112861 0.3826834323650913 -0.0
  outer loop
    vertex 27.763703305156266 9.464723819589898 -3.0299999999999923
    vertex 27.364101615137745 8.49999999999998 -23.03
    vertex 27.364101615137745 8.49999999999998 -3.0299999999999923
  endloop
endfacet
facet normal -0.9238795325112861 0.3826834323650913 -0.0
  outer loop
    vertex 27.364101615137745 8.49999999999998 -23.03
    vertex 27.763703305156266 9.464723819589898 -3.0299999999999923
    vertex 27.763703305156266 9.464723819589898 -23.03
  endloop
endfacet
facet normal -0.7933533402912368 0.6087614290087187 -0.0
  outer loop
    vertex 27.364101615137745 8.49999999999998 -3.0299999999999923
    vertex 26.728427124746187 7.671572875253792 -23.03
    vertex 26.728427124746187 7.671572875253792 -3.0299999999999923
  endloop
endfacet
facet normal -0.7933533402912368 0.6087614290087187 -0.0
  outer loop
    vertex 26.728427124746187 7.671572875253792 -23.03
    vertex 27.364101615137745 8.49999999999998 -3.0299999999999923
    vertex 27.364101615137745 8.49999999999998 -23.03
  endloop
endfacet
facet normal -0.6087614290087188 0.7933533402912367 -0.0
  outer loop
    vertex 25.89999999999999 7.035898384862227 -3.0299999999999923
    vertex 26.728427124746187 7.671572875253792 -23.03
    vertex 25.89999999999999 7.035898384862227 -23.03
  endloop
endfacet
facet normal -0.6087614290087188 0.7933533402912367 -0.0
  outer loop
    vertex 26.728427124746187 7.671572875253792 -23.03
    vertex 25.89999999999999 7.035898384862227 -3.0299999999999923
    vertex 26.728427124746187 7.671572875253792 -3.0299999999999923
  endloop
endfacet
facet normal -0.38268343236508995 0.9238795325112867 -0.0
  outer loop
    vertex 24.935276180410078 6.636296694843709 -3.0299999999999923
    vertex 25.89999999999999 7.035898384862227 -23.03
    vertex 24.935276180410078 6.636296694843709 -23.03
  endloop
endfacet
facet normal -0.38268343236508995 0.9238795325112867 -0.0
  outer loop
    vertex 25.89999999999999 7.035898384862227 -23.03
    vertex 24.935276180410078 6.636296694843709 -3.0299999999999923
    vertex 25.89999999999999 7.035898384862227 -3.0299999999999923
  endloop
endfacet
facet normal -0.1305261922200518 0.9914448613738104 -0.0
  outer loop
    vertex 23.899999999999995 6.499999999999982 -3.0299999999999923
    vertex 24.935276180410078 6.636296694843709 -23.03
    vertex 23.899999999999995 6.499999999999982 -23.03
  endloop
endfacet
facet normal -0.1305261922200518 0.9914448613738104 -0.0
  outer loop
    vertex 24.935276180410078 6.636296694843709 -23.03
    vertex 23.899999999999995 6.499999999999982 -3.0299999999999923
    vertex 24.935276180410078 6.636296694843709 -3.0299999999999923
  endloop
endfacet
facet normal 0.1305261922200518 0.9914448613738104 0.0
  outer loop
    vertex 22.864723819589912 6.636296694843709 -3.0299999999999923
    vertex 23.899999999999995 6.499999999999982 -23.03
    vertex 22.864723819589912 6.636296694843709 -23.03
  endloop
endfacet
facet normal 0.1305261922200518 0.9914448613738104 0.0
  outer loop
    vertex 23.899999999999995 6.499999999999982 -23.03
    vertex 22.864723819589912 6.636296694843709 -3.0299999999999923
    vertex 23.899999999999995 6.499999999999982 -3.0299999999999923
  endloop
endfacet
facet normal 0.38268343236508895 0.9238795325112871 0.0
  outer loop
    vertex 21.899999999999995 7.035898384862227 -3.0299999999999923
    vertex 22.864723819589912 6.636296694843709 -23.03
    vertex 21.899999999999995 7.035898384862227 -23.03
  endloop
endfacet
facet normal 0.38268343236508895 0.9238795325112871 0.0
  outer loop
    vertex 22.864723819589912 6.636296694843709 -23.03
    vertex 21.899999999999995 7.035898384862227 -3.0299999999999923
    vertex 22.864723819589912 6.636296694843709 -3.0299999999999923
  endloop
endfacet
facet normal 0.6087614290087213 0.7933533402912347 0.0
  outer loop
    vertex 21.071572875253807 7.671572875253792 -3.0299999999999923
    vertex 21.899999999999995 7.035898384862227 -23.03
    vertex 21.071572875253807 7.671572875253792 -23.03
  endloop
endfacet
facet normal 0.6087614290087213 0.7933533402912347 0.0
  outer loop
    vertex 21.899999999999995 7.035898384862227 -23.03
    vertex 21.071572875253807 7.671572875253792 -3.0299999999999923
    vertex 21.899999999999995 7.035898384862227 -3.0299999999999923
  endloop
endfacet
facet normal 0.7933533402912347 0.6087614290087213 0.0
  outer loop
    vertex 20.43589838486224 8.499999999999982 -23.03
    vertex 21.071572875253807 7.671572875253792 -3.0299999999999923
    vertex 21.071572875253807 7.671572875253792 -23.03
  endloop
endfacet
facet normal 0.7933533402912347 0.6087614290087213 0.0
  outer loop
    vertex 21.071572875253807 7.671572875253792 -3.0299999999999923
    vertex 20.43589838486224 8.499999999999982 -23.03
    vertex 20.43589838486224 8.499999999999982 -3.0299999999999923
  endloop
endfacet
facet normal 0.9238795325112871 0.38268343236508895 0.0
  outer loop
    vertex 20.036296694843724 9.464723819589898 -23.03
    vertex 20.43589838486224 8.499999999999982 -3.0299999999999923
    vertex 20.43589838486224 8.499999999999982 -23.03
  endloop
endfacet
facet normal 0.9238795325112871 0.38268343236508895 0.0
  outer loop
    vertex 20.43589838486224 8.499999999999982 -3.0299999999999923
    vertex 20.036296694843724 9.464723819589898 -23.03
    vertex 20.036296694843724 9.464723819589898 -3.0299999999999923
  endloop
endfacet
facet normal 0.9914448613738104 0.1305261922200518 0.0
  outer loop
    vertex 19.9 10.49999999999998 -23.03
    vertex 20.036296694843724 9.464723819589898 -3.0299999999999923
    vertex 20.036296694843724 9.464723819589898 -23.03
  endloop
endfacet
facet normal 0.9914448613738104 0.1305261922200518 0.0
  outer loop
    vertex 20.036296694843724 9.464723819589898 -3.0299999999999923
    vertex 19.9 10.49999999999998 -23.03
    vertex 19.9 10.49999999999998 -3.0299999999999923
  endloop
endfacet
facet normal 0.9914448613738105 -0.13052619222005143 -0.0
  outer loop
    vertex 20.036296694843724 11.535276180410067 -23.03
    vertex 19.9 10.49999999999998 -3.0299999999999923
    vertex 19.9 10.49999999999998 -23.03
  endloop
endfacet
facet normal 0.9914448613738105 -0.13052619222005143 -0.0
  outer loop
    vertex 19.9 10.49999999999998 -3.0299999999999923
    vertex 20.036296694843724 11.535276180410067 -23.03
    vertex 20.036296694843724 11.535276180410067 -3.0299999999999923
  endloop
endfacet
facet normal 0.9238795325112861 -0.38268343236509184 -0.0
  outer loop
    vertex 20.435898384862245 12.49999999999998 -23.03
    vertex 20.036296694843724 11.535276180410067 -3.0299999999999923
    vertex 20.036296694843724 11.535276180410067 -23.03
  endloop
endfacet
facet normal 0.9238795325112861 -0.38268343236509184 -0.0
  outer loop
    vertex 20.036296694843724 11.535276180410067 -3.0299999999999923
    vertex 20.435898384862245 12.49999999999998 -23.03
    vertex 20.435898384862245 12.49999999999998 -3.0299999999999923
  endloop
endfacet
facet normal 0.7933533402912356 -0.6087614290087203 -0.0
  outer loop
    vertex 21.071572875253807 13.32842712474617 -23.03
    vertex 20.435898384862245 12.49999999999998 -3.0299999999999923
    vertex 20.435898384862245 12.49999999999998 -23.03
  endloop
endfacet
facet normal 0.7933533402912356 -0.6087614290087203 -0.0
  outer loop
    vertex 20.435898384862245 12.49999999999998 -3.0299999999999923
    vertex 21.071572875253807 13.32842712474617 -23.03
    vertex 21.071572875253807 13.32842712474617 -3.0299999999999923
  endloop
endfacet
facet normal 0.60876142900872 -0.7933533402912356 -0.0
  outer loop
    vertex 21.9 13.964101615137734 -3.0299999999999923
    vertex 21.071572875253807 13.32842712474617 -23.03
    vertex 21.9 13.964101615137734 -23.03
  endloop
endfacet
facet normal 0.60876142900872 -0.7933533402912356 -0.0
  outer loop
    vertex 21.071572875253807 13.32842712474617 -23.03
    vertex 21.9 13.964101615137734 -3.0299999999999923
    vertex 21.071572875253807 13.32842712474617 -3.0299999999999923
  endloop
endfacet
facet normal 0.38268343236508895 -0.9238795325112871 -0.0
  outer loop
    vertex 22.864723819589916 14.363703305156251 -3.0299999999999923
    vertex 21.9 13.964101615137734 -23.03
    vertex 22.864723819589916 14.363703305156251 -23.03
  endloop
endfacet
facet normal 0.38268343236508895 -0.9238795325112871 -0.0
  outer loop
    vertex 21.9 13.964101615137734 -23.03
    vertex 22.864723819589916 14.363703305156251 -3.0299999999999923
    vertex 21.9 13.964101615137734 -3.0299999999999923
  endloop
endfacet
facet normal 0.13052619222005216 -0.9914448613738104 -0.0
  outer loop
    vertex 23.899999999999995 14.499999999999979 -3.0299999999999923
    vertex 22.864723819589916 14.363703305156251 -23.03
    vertex 23.899999999999995 14.499999999999979 -23.03
  endloop
endfacet
facet normal 0.13052619222005216 -0.9914448613738104 -0.0
  outer loop
    vertex 22.864723819589916 14.363703305156251 -23.03
    vertex 23.899999999999995 14.499999999999979 -3.0299999999999923
    vertex 22.864723819589916 14.363703305156251 -3.0299999999999923
  endloop
endfacet
facet normal -0.13052619222005143 -0.9914448613738105 -0.0
  outer loop
    vertex 24.93527618041008 14.363703305156251 -3.0299999999999923
    vertex 23.899999999999995 14.499999999999979 -23.03
    vertex 24.93527618041008 14.363703305156251 -23.03
  endloop
endfacet
facet normal -0.13052619222005143 -0.9914448613738105 -0.0
  outer loop
    vertex 23.899999999999995 14.499999999999979 -23.03
    vertex 24.93527618041008 14.363703305156251 -3.0299999999999923
    vertex 23.899999999999995 14.499999999999979 -3.0299999999999923
  endloop
endfacet
facet normal -0.3826834323650913 -0.9238795325112861 -0.0
  outer loop
    vertex 25.9 13.964101615137732 -3.0299999999999923
    vertex 24.93527618041008 14.363703305156251 -23.03
    vertex 25.9 13.964101615137732 -23.03
  endloop
endfacet
facet normal -0.3826834323650913 -0.9238795325112861 -0.0
  outer loop
    vertex 24.93527618041008 14.363703305156251 -23.03
    vertex 25.9 13.964101615137732 -3.0299999999999923
    vertex 24.93527618041008 14.363703305156251 -3.0299999999999923
  endloop
endfacet
facet normal -0.6087614290087213 -0.7933533402912347 -0.0
  outer loop
    vertex 26.728427124746187 13.328427124746167 -3.0299999999999923
    vertex 25.9 13.964101615137732 -23.03
    vertex 26.728427124746187 13.328427124746167 -23.03
  endloop
endfacet
facet normal -0.6087614290087213 -0.7933533402912347 -0.0
  outer loop
    vertex 25.9 13.964101615137732 -23.03
    vertex 26.728427124746187 13.328427124746167 -3.0299999999999923
    vertex 25.9 13.964101615137732 -3.0299999999999923
  endloop
endfacet
facet normal -0.7933533402912368 -0.6087614290087187 -0.0
  outer loop
    vertex 26.728427124746187 13.328427124746167 -3.0299999999999923
    vertex 27.364101615137745 12.499999999999979 -23.03
    vertex 27.364101615137745 12.499999999999979 -3.0299999999999923
  endloop
endfacet
facet normal -0.7933533402912368 -0.6087614290087187 -0.0
  outer loop
    vertex 27.364101615137745 12.499999999999979 -23.03
    vertex 26.728427124746187 13.328427124746167 -3.0299999999999923
    vertex 26.728427124746187 13.328427124746167 -23.03
  endloop
endfacet
facet normal -0.9238795325112861 -0.3826834323650913 -0.0
  outer loop
    vertex 27.364101615137745 12.499999999999979 -3.0299999999999923
    vertex 27.763703305156266 11.535276180410062 -23.03
    vertex 27.763703305156266 11.535276180410062 -3.0299999999999923
  endloop
endfacet
facet normal -0.9238795325112861 -0.3826834323650913 -0.0
  outer loop
    vertex 27.763703305156266 11.535276180410062 -23.03
    vertex 27.364101615137745 12.499999999999979 -3.0299999999999923
    vertex 27.364101615137745 12.499999999999979 -23.03
  endloop
endfacet
facet normal -0.9914448613738105 -0.130526192220052 -0.0
  outer loop
    vertex 27.763703305156266 11.535276180410062 -3.0299999999999923
    vertex 27.899999999999995 10.49999999999998 -23.03
    vertex 27.899999999999995 10.49999999999998 -3.0299999999999923
  endloop
endfacet
facet normal -0.9914448613738105 -0.130526192220052 -0.0
  outer loop
    vertex 27.899999999999995 10.49999999999998 -23.03
    vertex 27.763703305156266 11.535276180410062 -3.0299999999999923
    vertex 27.763703305156266 11.535276180410062 -23.03
  endloop
endfacet
facet normal -0.5773502691896255 -0.5773502691896258 0.577350269189626
  outer loop
    vertex -1.0000000000000002 -1.0000000000000002 16.57
    vertex -3.0 -1.0000000000000009 14.570000000000002
    vertex -1.0000000000000002 -3.0 14.570000000000002
  endloop
endfacet
facet normal 0.0 -1.0 0.0
  outer loop
    vertex 48.8 -3.0 14.570000000000002
    vertex -0.9999999999999974 -3.0 -1.0299999999999996
    vertex 48.8 -3.0 -1.0299999999999996
  endloop
endfacet
facet normal 0.0 -1.0 0.0
  outer loop
    vertex -0.9999999999999974 -3.0 -1.0299999999999996
    vertex 48.8 -3.0 14.570000000000002
    vertex -1.0000000000000002 -3.0 14.570000000000002
  endloop
endfacet
facet normal -2.5527835504780745e-18 -0.7071067811865475 0.7071067811865477
  outer loop
    vertex 48.8 -3.0 14.570000000000002
    vertex -1.0000000000000002 -1.0000000000000002 16.57
    vertex -1.0000000000000002 -3.0 14.570000000000002
  endloop
endfacet
facet normal -2.5527835504780745e-18 -0.7071067811865475 0.7071067811865477
  outer loop
    vertex -1.0000000000000002 -1.0000000000000002 16.57
    vertex 48.8 -3.0 14.570000000000002
    vertex 48.8 -1.0000000000000007 16.57
  endloop
endfacet
facet normal -0.7071067811865472 -0.7071067811865478 -9.755617166740087e-17
  outer loop
    vertex -0.9999999999999974 -3.0 -1.0299999999999996
    vertex -3.0 -1.0000000000000009 14.570000000000002
    vertex -2.9999999999999987 -1.0000000000000009 -1.03
  endloop
endfacet
facet normal -0.7071067811865472 -0.7071067811865478 -9.755617166740087e-17
  outer loop
    vertex -3.0 -1.0000000000000009 14.570000000000002
    vertex -0.9999999999999974 -3.0 -1.0299999999999996
    vertex -1.0000000000000002 -3.0 14.570000000000002
  endloop
endfacet
facet normal 7.658350651434236e-18 -0.7071067811865475 -0.7071067811865477
  outer loop
    vertex 48.8 -0.9999999999999996 -3.0299999999999994
    vertex -0.9999999999999974 -3.0 -1.0299999999999996
    vertex -0.9999999999999974 -1.0000000000000002 -3.03
  endloop
endfacet
facet normal 7.658350651434236e-18 -0.7071067811865475 -0.7071067811865477
  outer loop
    vertex -0.9999999999999974 -3.0 -1.0299999999999996
    vertex 48.8 -0.9999999999999996 -3.0299999999999994
    vertex 48.8 -3.0 -1.0299999999999996
  endloop
endfacet
facet normal -0.5773502691896253 -0.5773502691896261 -0.577350269189626
  outer loop
    vertex -0.9999999999999974 -3.0 -1.0299999999999996
    vertex -2.9999999999999987 -1.0000000000000009 -1.03
    vertex -0.9999999999999974 -1.0000000000000002 -3.03
  endloop
endfacet
facet normal -0.7071067811865477 -1.5908293010101093e-16 -0.7071067811865474
  outer loop
    vertex -3.0 19.000000000000004 -1.0300000000000011
    vertex -0.9999999999999974 -1.0000000000000002 -3.03
    vertex -2.9999999999999987 -1.0000000000000009 -1.03
  endloop
endfacet
facet normal -0.7071067811865477 -1.5908293010101093e-16 -0.7071067811865474
  outer loop
    vertex -0.9999999999999974 -1.0000000000000002 -3.03
    vertex -3.0 19.000000000000004 -1.0300000000000011
    vertex -1.0000000000000038 16.999999999999996 -3.0300000000000002
  endloop
endfacet
facet normal -0.0 -0.0 1.0
  outer loop
    vertex 48.8 -1.0000000000000007 16.57
    vertex -1.0000000000000002 10.700000000000001 16.57
    vertex -1.0000000000000002 -1.0000000000000002 16.57
  endloop
endfacet
facet normal -0.0 -0.0 1.0
  outer loop
    vertex -1.0000000000000002 10.700000000000001 16.57
    vertex 48.8 -1.0000000000000007 16.57
    vertex 48.8 10.7 16.57
  endloop
endfacet
facet normal -0.7071067811865474 -1.5361315601344807e-18 0.7071067811865477
  outer loop
    vertex -1.0000000000000002 -1.0000000000000002 16.57
    vertex -3.0 12.7 14.570000000000002
    vertex -3.0 -1.0000000000000009 14.570000000000002
  endloop
endfacet
facet normal -0.7071067811865474 -1.5361315601344807e-18 0.7071067811865477
  outer loop
    vertex -3.0 12.7 14.570000000000002
    vertex -1.0000000000000002 -1.0000000000000002 16.57
    vertex -1.0000000000000002 10.700000000000001 16.57
  endloop
endfacet
facet normal 0.5773502691896251 -0.5773502691896261 0.5773502691896262
  outer loop
    vertex 50.8 -1.0000000000000009 14.570000000000002
    vertex 48.8 -1.0000000000000007 16.57
    vertex 48.8 -3.0 14.570000000000002
  endloop
endfacet
facet normal -0.0 -0.0 1.0
  outer loop
    vertex -3.0 -7.049916206369744e-16 -0.030000000000000086
    vertex 23.317657148519324 8.326666890849577 -0.030000000000002202
    vertex -3.0 19.000000000000004 -0.030000000000000086
  endloop
endfacet
facet normal -0.0 -0.0 1.0
  outer loop
    vertex 23.317657148519324 8.326666890849577 -0.030000000000002202
    vertex -3.0 -7.049916206369744e-16 -0.030000000000000086
    vertex 50.8 -7.049916206369744e-16 -0.030000000000000086
  endloop
endfacet
facet normal -0.0 -0.0 1.0
  outer loop
    vertex -3.0 19.000000000000004 -0.030000000000000086
    vertex 23.317657148519324 8.326666890849577 -0.030000000000002202
    vertex 22.774999999999995 8.551442841484993 -0.030000000000002202
  endloop
endfacet
facet normal -0.0 -0.0 1.0
  outer loop
    vertex -3.0 19.000000000000004 -0.030000000000000086
    vertex 22.774999999999995 8.551442841484993 -0.030000000000002202
    vertex 22.30900974233026 8.90900974233025 -0.030000000000002202
  endloop
endfacet
facet normal -0.0 -0.0 1.0
  outer loop
    vertex -3.0 19.000000000000004 -0.030000000000000086
    vertex 22.30900974233026 8.90900974233025 -0.030000000000002202
    vertex 21.951442841485008 9.374999999999982 -0.030000000000002202
  endloop
endfacet
facet normal -0.0 -0.0 1.0
  outer loop
    vertex -3.0 19.000000000000004 -0.030000000000000086
    vertex 21.951442841485008 9.374999999999982 -0.030000000000002202
    vertex 21.726666890849593 9.91765714851931 -0.030000000000002202
  endloop
endfacet
facet normal -0.0 -0.0 1.0
  outer loop
    vertex -3.0 19.000000000000004 -0.030000000000000086
    vertex 21.726666890849593 9.91765714851931 -0.030000000000002202
    vertex 21.649999999999995 10.49999999999998 -0.030000000000002202
  endloop
endfacet
facet normal -0.0 -0.0 1.0
  outer loop
    vertex 23.317657148519324 8.326666890849577 -0.030000000000002202
    vertex 50.8 -7.049916206369744e-16 -0.030000000000000086
    vertex 23.899999999999995 8.24999999999998 -0.030000000000002202
  endloop
endfacet
facet normal -0.0 -0.0 1.0
  outer loop
    vertex 23.899999999999995 8.24999999999998 -0.030000000000002202
    vertex 50.8 -7.049916206369744e-16 -0.030000000000000086
    vertex 24.482342851480666 8.326666890849577 -0.030000000000002202
  endloop
endfacet
facet normal -0.0 -0.0 1.0
  outer loop
    vertex 24.482342851480666 8.326666890849577 -0.030000000000002202
    vertex 50.8 -7.049916206369744e-16 -0.030000000000000086
    vertex 25.024999999999995 8.551442841484993 -0.030000000000002202
  endloop
endfacet
facet normal -0.0 -0.0 1.0
  outer loop
    vertex 25.024999999999995 8.551442841484993 -0.030000000000002202
    vertex 50.8 -7.049916206369744e-16 -0.030000000000000086
    vertex 25.490990257669726 8.90900974233025 -0.030000000000002202
  endloop
endfacet
facet normal -0.0 -0.0 1.0
  outer loop
    vertex 25.490990257669726 8.90900974233025 -0.030000000000002202
    vertex 50.8 -7.049916206369744e-16 -0.030000000000000086
    vertex 25.848557158514982 9.37499999999998 -0.030000000000002202
  endloop
endfacet
facet normal -0.0 -0.0 1.0
  outer loop
    vertex 25.848557158514982 9.37499999999998 -0.030000000000002202
    vertex 50.8 -7.049916206369744e-16 -0.030000000000000086
    vertex 26.0733331091504 9.917657148519309 -0.030000000000002202
  endloop
endfacet
facet normal -0.0 -0.0 1.0
  outer loop
    vertex 26.0733331091504 9.917657148519309 -0.030000000000002202
    vertex 50.8 -7.049916206369744e-16 -0.030000000000000086
    vertex 26.15 10.49999999999998 -0.030000000000002202
  endloop
endfacet
facet normal -0.0 -0.0 1.0
  outer loop
    vertex -3.0 19.000000000000004 -0.030000000000000086
    vertex 23.317657148519324 12.673333109150384 -0.030000000000002202
    vertex 50.8 19.000000000000004 -0.030000000000000086
  endloop
endfacet
facet normal -0.0 -0.0 1.0
  outer loop
    vertex 23.317657148519324 12.673333109150384 -0.030000000000002202
    vertex -3.0 19.000000000000004 -0.030000000000000086
    vertex 22.775 12.448557158514967 -0.030000000000002202
  endloop
endfacet
facet normal -0.0 -0.0 1.0
  outer loop
    vertex 22.775 12.448557158514967 -0.030000000000002202
    vertex -3.0 19.000000000000004 -0.030000000000000086
    vertex 22.309009742330264 12.090990257669715 -0.030000000000002202
  endloop
endfacet
facet normal -0.0 -0.0 1.0
  outer loop
    vertex 22.309009742330264 12.090990257669715 -0.030000000000002202
    vertex -3.0 19.000000000000004 -0.030000000000000086
    vertex 21.951442841485008 11.624999999999982 -0.030000000000002202
  endloop
endfacet
facet normal -0.0 -0.0 1.0
  outer loop
    vertex 21.951442841485008 11.624999999999982 -0.030000000000002202
    vertex -3.0 19.000000000000004 -0.030000000000000086
    vertex 21.726666890849593 11.082342851480654 -0.030000000000002202
  endloop
endfacet
facet normal -0.0 -0.0 1.0
  outer loop
    vertex 21.726666890849593 11.082342851480654 -0.030000000000002202
    vertex -3.0 19.000000000000004 -0.030000000000000086
    vertex 21.649999999999995 10.49999999999998 -0.030000000000002202
  endloop
endfacet
facet normal -0.0 -0.0 1.0
  outer loop
    vertex 50.8 19.000000000000004 -0.030000000000000086
    vertex 23.317657148519324 12.673333109150384 -0.030000000000002202
    vertex 23.899999999999995 12.749999999999982 -0.030000000000002202
  endloop
endfacet
facet normal -0.0 -0.0 1.0
  outer loop
    vertex 50.8 19.000000000000004 -0.030000000000000086
    vertex 23.899999999999995 12.749999999999982 -0.030000000000002202
    vertex 24.48234285148067 12.673333109150384 -0.030000000000002202
  endloop
endfacet
facet normal -0.0 -0.0 1.0
  outer loop
    vertex 50.8 19.000000000000004 -0.030000000000000086
    vertex 24.48234285148067 12.673333109150384 -0.030000000000002202
    vertex 25.024999999999995 12.448557158514967 -0.030000000000002202
  endloop
endfacet
facet normal -0.0 -0.0 1.0
  outer loop
    vertex 50.8 19.000000000000004 -0.030000000000000086
    vertex 25.024999999999995 12.448557158514967 -0.030000000000002202
    vertex 25.490990257669726 12.090990257669713 -0.030000000000002202
  endloop
endfacet
facet normal -0.0 -0.0 1.0
  outer loop
    vertex 50.8 19.000000000000004 -0.030000000000000086
    vertex 25.490990257669726 12.090990257669713 -0.030000000000002202
    vertex 25.848557158514982 11.62499999999998 -0.030000000000002202
  endloop
endfacet
facet normal -0.0 -0.0 1.0
  outer loop
    vertex 50.8 19.000000000000004 -0.030000000000000086
    vertex 25.848557158514982 11.62499999999998 -0.030000000000002202
    vertex 26.0733331091504 11.082342851480652 -0.030000000000002202
  endloop
endfacet
facet normal -0.0 -0.0 1.0
  outer loop
    vertex 50.8 19.000000000000004 -0.030000000000000086
    vertex 26.0733331091504 11.082342851480652 -0.030000000000002202
    vertex 26.15 10.49999999999998 -0.030000000000002202
  endloop
endfacet
facet normal -0.0 -0.0 1.0
  outer loop
    vertex 50.8 19.000000000000004 -0.030000000000000086
    vertex 26.15 10.49999999999998 -0.030000000000002202
    vertex 50.8 -7.049916206369744e-16 -0.030000000000000086
  endloop
endfacet
facet normal 0.7071067811865472 -9.64138970309155e-18 -0.7071067811865478
  outer loop
    vertex 50.8 19.000000000000004 -1.0299999999999996
    vertex 48.8 -0.9999999999999996 -3.0299999999999994
    vertex 48.8 16.999999999999996 -3.0300000000000002
  endloop
endfacet
facet normal 0.7071067811865472 -9.64138970309155e-18 -0.7071067811865478
  outer loop
    vertex 48.8 -0.9999999999999996 -3.0299999999999994
    vertex 50.8 19.000000000000004 -1.0299999999999996
    vertex 50.8 -1.0000000000000009 -1.03
  endloop
endfacet
facet normal 9.423803332084473e-18 0.7071067811865461 -0.7071067811865489
  outer loop
    vertex 50.8 19.000000000000004 -1.0299999999999996
    vertex -1.0000000000000038 16.999999999999996 -3.0300000000000002
    vertex -3.0 19.000000000000004 -1.0300000000000011
  endloop
endfacet
facet normal 9.423803332084473e-18 0.7071067811865461 -0.7071067811865489
  outer loop
    vertex -1.0000000000000038 16.999999999999996 -3.0300000000000002
    vertex 50.8 19.000000000000004 -1.0299999999999996
    vertex 48.8 16.999999999999996 -3.0300000000000002
  endloop
endfacet
facet normal -0.0 1.0 -0.0
  outer loop
    vertex -3.0 19.000000000000004 -0.030000000000000086
    vertex 50.8 19.000000000000004 -1.0299999999999996
    vertex -3.0 19.000000000000004 -1.0300000000000011
  endloop
endfacet
facet normal -0.0 1.0 -0.0
  outer loop
    vertex 50.8 19.000000000000004 -1.0299999999999996
    vertex -3.0 19.000000000000004 -0.030000000000000086
    vertex 50.8 19.000000000000004 -0.030000000000000086
  endloop
endfacet
facet normal -0.0 1.0 -0.0
  outer loop
    vertex -3.0 -7.049916206369744e-16 13.57
    vertex 50.8 -7.049916206369744e-16 -0.030000000000000086
    vertex -3.0 -7.049916206369744e-16 -0.030000000000000086
  endloop
endfacet
facet normal -0.0 1.0 -0.0
  outer loop
    vertex 50.8 -7.049916206369744e-16 -0.030000000000000086
    vertex -3.0 -7.049916206369744e-16 13.57
    vertex 50.8 -7.049916206369744e-16 13.57
  endloop
endfacet
facet normal 0.7071067811865471 -0.707106781186548 -1.5467499606356557e-32
  outer loop
    vertex 50.8 -1.0000000000000009 14.570000000000002
    vertex 48.8 -3.0 -1.0299999999999996
    vertex 50.8 -1.0000000000000009 -1.03
  endloop
endfacet
facet normal 0.7071067811865471 -0.707106781186548 -1.5467499606356557e-32
  outer loop
    vertex 48.8 -3.0 -1.0299999999999996
    vertex 50.8 -1.0000000000000009 14.570000000000002
    vertex 48.8 -3.0 14.570000000000002
  endloop
endfacet
facet normal 0.707106781186547 -1.5361315601344784e-18 0.707106781186548
  outer loop
    vertex 50.8 -1.0000000000000009 14.570000000000002
    vertex 48.8 10.7 16.57
    vertex 48.8 -1.0000000000000007 16.57
  endloop
endfacet
facet normal 0.707106781186547 -1.5361315601344784e-18 0.707106781186548
  outer loop
    vertex 48.8 10.7 16.57
    vertex 50.8 -1.0000000000000009 14.570000000000002
    vertex 50.8 12.7 14.570000000000002
  endloop
endfacet
facet normal 9.423803332084446e-18 0.7071067811865476 0.7071067811865475
  outer loop
    vertex -1.0000000000000002 10.700000000000001 16.57
    vertex 50.8 12.7 14.570000000000002
    vertex -3.0 12.7 14.570000000000002
  endloop
endfacet
facet normal 9.423803332084446e-18 0.7071067811865476 0.7071067811865475
  outer loop
    vertex 50.8 12.7 14.570000000000002
    vertex -1.0000000000000002 10.700000000000001 16.57
    vertex 48.8 10.7 16.57
  endloop
endfacet
facet normal 0.5773502691896251 -0.5773502691896261 -0.5773502691896262
  outer loop
    vertex 50.8 -1.0000000000000009 -1.03
    vertex 48.8 -3.0 -1.0299999999999996
    vertex 48.8 -0.9999999999999996 -3.0299999999999994
  endloop
endfacet
facet normal 0.0 0.0 -1.0
  outer loop
    vertex 50.8 10.7 13.57
    vertex -3.0 -7.049916206369744e-16 13.57
    vertex -3.0 10.7 13.57
  endloop
endfacet
facet normal 0.0 0.0 -1.0
  outer loop
    vertex -3.0 -7.049916206369744e-16 13.57
    vertex 50.8 10.7 13.57
    vertex 50.8 -7.049916206369744e-16 13.57
  endloop
endfacet
facet normal 2.294313337346614e-19 -0.14834045293024448 -0.9889363528682977
  outer loop
    vertex 50.8 12.7 13.270000000000001
    vertex -3.0 10.7 13.57
    vertex -3.0 12.7 13.270000000000001
  endloop
endfacet
facet normal 2.294313337346614e-19 -0.14834045293024448 -0.9889363528682977
  outer loop
    vertex -3.0 10.7 13.57
    vertex 50.8 12.7 13.270000000000001
    vertex 50.8 10.7 13.57
  endloop
endfacet
facet normal 1.0 -0.0 -0.0
  outer loop
    vertex 50.8 -1.0000000000000009 -1.03
    vertex 50.8 -7.049916206369744e-16 -0.030000000000000086
    vertex 50.8 -1.0000000000000009 14.570000000000002
  endloop
endfacet
facet normal 1.0 -0.0 -0.0
  outer loop
    vertex 50.8 -7.049916206369744e-16 -0.030000000000000086
    vertex 50.8 -1.0000000000000009 -1.03
    vertex 50.8 19.000000000000004 -1.0299999999999996
  endloop
endfacet
facet normal 1.0 -0.0 -0.0
  outer loop
    vertex 50.8 -7.049916206369744e-16 -0.030000000000000086
    vertex 50.8 19.000000000000004 -1.0299999999999996
    vertex 50.8 19.000000000000004 -0.030000000000000086
  endloop
endfacet
facet normal 1.0 -0.0 -0.0
  outer loop
    vertex 50.8 -1.0000000000000009 14.570000000000002
    vertex 50.8 -7.049916206369744e-16 13.57
    vertex 50.8 12.7 14.570000000000002
  endloop
endfacet
facet normal 1.0 -0.0 -0.0
  outer loop
    vertex 50.8 -7.049916206369744e-16 13.57
    vertex 50.8 -1.0000000000000009 14.570000000000002
    vertex 50.8 -7.049916206369744e-16 -0.030000000000000086
  endloop
endfacet
facet normal 1.0 -0.0 -0.0
  outer loop
    vertex 50.8 12.7 14.570000000000002
    vertex 50.8 -7.049916206369744e-16 13.57
    vertex 50.8 10.7 13.57
  endloop
endfacet
facet normal 1.0 -0.0 -0.0
  outer loop
    vertex 50.8 12.7 14.570000000000002
    vertex 50.8 10.7 13.57
    vertex 50.8 12.7 13.270000000000001
  endloop
endfacet
facet normal -0.0 1.0 -0.0
  outer loop
    vertex -3.0 12.7 14.570000000000002
    vertex 50.8 12.7 13.270000000000001
    vertex -3.0 12.7 13.270000000000001
  endloop
endfacet
facet normal -0.0 1.0 -0.0
  outer loop
    vertex 50.8 12.7 13.270000000000001
    vertex -3.0 12.7 14.570000000000002
    vertex 50.8 12.7 14.570000000000002
  endloop
endfacet
facet normal -1.0 -1.3664282395813837e-17 -4.0135198568210855e-17
  outer loop
    vertex -2.9999999999999987 -1.0000000000000009 -1.03
    vertex -3.0 -7.049916206369744e-16 -0.030000000000000086
    vertex -3.0 19.000000000000004 -1.0300000000000011
  endloop
endfacet
facet normal -1.0 -1.3664282395813837e-17 -4.0135198568210855e-17
  outer loop
    vertex -3.0 -7.049916206369744e-16 -0.030000000000000086
    vertex -2.9999999999999987 -1.0000000000000009 -1.03
    vertex -3.0 -7.049916206369744e-16 13.57
  endloop
endfacet
facet normal -1.0 -1.3664282395813837e-17 -4.0135198568210855e-17
  outer loop
    vertex -3.0 19.000000000000004 -1.0300000000000011
    vertex -3.0 -7.049916206369744e-16 -0.030000000000000086
    vertex -3.0 19.000000000000004 -0.030000000000000086
  endloop
endfacet
facet normal -1.0 -1.3664282395813837e-17 -4.0135198568210855e-17
  outer loop
    vertex -3.0 -1.0000000000000009 14.570000000000002
    vertex -3.0 -7.049916206369744e-16 13.57
    vertex -2.9999999999999987 -1.0000000000000009 -1.03
  endloop
endfacet
facet normal -1.0 -1.3664282395813837e-17 -4.0135198568210855e-17
  outer loop
    vertex -3.0 -7.049916206369744e-16 13.57
    vertex -3.0 -1.0000000000000009 14.570000000000002
    vertex -3.0 12.7 14.570000000000002
  endloop
endfacet
facet normal -1.0 -1.3664282395813837e-17 -4.0135198568210855e-17
  outer loop
    vertex -3.0 -7.049916206369744e-16 13.57
    vertex -3.0 12.7 14.570000000000002
    vertex -3.0 10.7 13.57
  endloop
endfacet
facet normal -1.0 -1.3664282395813837e-17 -4.0135198568210855e-17
  outer loop
    vertex -3.0 10.7 13.57
    vertex -3.0 12.7 14.570000000000002
    vertex -3.0 12.7 13.270000000000001
  endloop
endfacet
endsolid Platform edge leg
