solid ESPLCD Screen
facet normal -0.0 -0.0 1.0
  outer loop
    vertex 36.877778151415995 35.02942858086559 -1.127986593019159e-14
    vertex 36.877778151415995 36.9705714191345 -1.127986593019159e-14
    vertex 36.74999999999999 36.00000000000004 -1.127986593019159e-14
  endloop
endfacet
facet normal -0.0 -0.0 1.0
  outer loop
    vertex 36.877778151415995 36.9705714191345 -1.127986593019159e-14
    vertex 36.877778151415995 35.02942858086559 -1.127986593019159e-14
    vertex 37.25240473580835 34.12500000000004 -1.127986593019159e-14
  endloop
endfacet
facet normal -0.0 -0.0 1.0
  outer loop
    vertex 36.877778151415995 36.9705714191345 -1.127986593019159e-14
    vertex 37.25240473580835 34.12500000000004 -1.127986593019159e-14
    vertex 37.25240473580836 37.87500000000004 -1.127986593019159e-14
  endloop
endfacet
facet normal -0.0 -0.0 1.0
  outer loop
    vertex 37.25240473580836 37.87500000000004 -1.127986593019159e-14
    vertex 37.25240473580835 34.12500000000004 -1.127986593019159e-14
    vertex 37.84834957055044 33.34834957055049 -1.127986593019159e-14
  endloop
endfacet
facet normal -0.0 -0.0 1.0
  outer loop
    vertex 37.25240473580836 37.87500000000004 -1.127986593019159e-14
    vertex 37.84834957055044 33.34834957055049 -1.127986593019159e-14
    vertex 37.75 36.00000000000004 -1.127986593019159e-14
  endloop
endfacet
facet normal -0.0 -0.0 1.0
  outer loop
    vertex 37.75 36.00000000000004 -1.127986593019159e-14
    vertex 37.84834957055044 33.34834957055049 -1.127986593019159e-14
    vertex 37.84370397770506 35.28824762596811 -1.127986593019159e-14
  endloop
endfacet
facet normal -0.0 -0.0 1.0
  outer loop
    vertex 37.84370397770506 35.28824762596811 -1.127986593019159e-14
    vertex 37.84834957055044 33.34834957055049 -1.127986593019159e-14
    vertex 38.11843013959279 34.62500000000004 -1.127986593019159e-14
  endloop
endfacet
facet normal -0.0 -0.0 1.0
  outer loop
    vertex 38.11843013959279 34.62500000000004 -1.127986593019159e-14
    vertex 37.84834957055044 33.34834957055049 -1.127986593019159e-14
    vertex 38.625 32.7524047358084 -1.127986593019159e-14
  endloop
endfacet
facet normal -0.0 -0.0 1.0
  outer loop
    vertex 38.11843013959279 34.62500000000004 -1.127986593019159e-14
    vertex 38.625 32.7524047358084 -1.127986593019159e-14
    vertex 38.555456351736986 34.055456351737035 -1.127986593019159e-14
  endloop
endfacet
facet normal -0.0 -0.0 1.0
  outer loop
    vertex 38.555456351736986 34.055456351737035 -1.127986593019159e-14
    vertex 38.625 32.7524047358084 -1.127986593019159e-14
    vertex 39.12499999999999 33.61843013959284 -1.127986593019159e-14
  endloop
endfacet
facet normal -0.0 -0.0 1.0
  outer loop
    vertex 39.12499999999999 33.61843013959284 -1.127986593019159e-14
    vertex 38.625 32.7524047358084 -1.127986593019159e-14
    vertex 39.52942858086554 32.37777815141604 -1.127986593019159e-14
  endloop
endfacet
facet normal -0.0 -0.0 1.0
  outer loop
    vertex 39.12499999999999 33.61843013959284 -1.127986593019159e-14
    vertex 39.52942858086554 32.37777815141604 -1.127986593019159e-14
    vertex 39.78824762596806 33.343703977705104 -1.127986593019159e-14
  endloop
endfacet
facet normal -0.0 -0.0 1.0
  outer loop
    vertex 39.78824762596806 33.343703977705104 -1.127986593019159e-14
    vertex 39.52942858086554 32.37777815141604 -1.127986593019159e-14
    vertex 40.5 32.25000000000004 -1.127986593019159e-14
  endloop
endfacet
facet normal -0.0 -0.0 1.0
  outer loop
    vertex 39.78824762596806 33.343703977705104 -1.127986593019159e-14
    vertex 40.5 32.25000000000004 -1.127986593019159e-14
    vertex 40.5 33.25000000000004 -1.127986593019159e-14
  endloop
endfacet
facet normal -0.0 -0.0 1.0
  outer loop
    vertex 40.5 33.25000000000004 -1.127986593019159e-14
    vertex 40.5 32.25000000000004 -1.127986593019159e-14
    vertex 41.47057141913443 32.37777815141604 -1.127986593019159e-14
  endloop
endfacet
facet normal -0.0 -0.0 1.0
  outer loop
    vertex 40.5 33.25000000000004 -1.127986593019159e-14
    vertex 41.47057141913443 32.37777815141604 -1.127986593019159e-14
    vertex 41.21175237403193 33.343703977705104 -1.127986593019159e-14
  endloop
endfacet
facet normal -0.0 -0.0 1.0
  outer loop
    vertex 41.21175237403193 33.343703977705104 -1.127986593019159e-14
    vertex 41.47057141913443 32.37777815141604 -1.127986593019159e-14
    vertex 41.875 33.61843013959283 -1.127986593019159e-14
  endloop
endfacet
facet normal -0.0 -0.0 1.0
  outer loop
    vertex 41.875 33.61843013959283 -1.127986593019159e-14
    vertex 41.47057141913443 32.37777815141604 -1.127986593019159e-14
    vertex 42.37499999999998 32.7524047358084 -1.127986593019159e-14
  endloop
endfacet
facet normal -0.0 -0.0 1.0
  outer loop
    vertex 41.875 33.61843013959283 -1.127986593019159e-14
    vertex 42.37499999999998 32.7524047358084 -1.127986593019159e-14
    vertex 42.44454364826301 34.055456351737035 -1.127986593019159e-14
  endloop
endfacet
facet normal -0.0 -0.0 1.0
  outer loop
    vertex 42.44454364826301 34.055456351737035 -1.127986593019159e-14
    vertex 42.37499999999998 32.7524047358084 -1.127986593019159e-14
    vertex 43.15165042944954 33.34834957055049 -1.127986593019159e-14
  endloop
endfacet
facet normal -0.0 -0.0 1.0
  outer loop
    vertex 42.44454364826301 34.055456351737035 -1.127986593019159e-14
    vertex 43.15165042944954 33.34834957055049 -1.127986593019159e-14
    vertex 42.88156986040721 34.625000000000036 -1.127986593019159e-14
  endloop
endfacet
facet normal -0.0 -0.0 1.0
  outer loop
    vertex 42.88156986040721 34.625000000000036 -1.127986593019159e-14
    vertex 43.15165042944954 33.34834957055049 -1.127986593019159e-14
    vertex 43.15629602229494 35.288247625968104 -1.127986593019159e-14
  endloop
endfacet
facet normal -0.0 -0.0 1.0
  outer loop
    vertex 43.15629602229494 35.288247625968104 -1.127986593019159e-14
    vertex 43.15165042944954 33.34834957055049 -1.127986593019159e-14
    vertex 43.747595264191645 34.125000000000036 -1.127986593019159e-14
  endloop
endfacet
facet normal -0.0 -0.0 1.0
  outer loop
    vertex 43.15629602229494 35.288247625968104 -1.127986593019159e-14
    vertex 43.747595264191645 34.125000000000036 -1.127986593019159e-14
    vertex 43.25 36.00000000000004 -1.127986593019159e-14
  endloop
endfacet
facet normal -0.0 -0.0 1.0
  outer loop
    vertex 37.75 36.00000000000004 -1.127986593019159e-14
    vertex 37.848349570550454 38.651650429449596 -1.127986593019159e-14
    vertex 37.25240473580836 37.87500000000004 -1.127986593019159e-14
  endloop
endfacet
facet normal -0.0 -0.0 1.0
  outer loop
    vertex 37.848349570550454 38.651650429449596 -1.127986593019159e-14
    vertex 37.75 36.00000000000004 -1.127986593019159e-14
    vertex 37.84370397770506 36.71175237403197 -1.127986593019159e-14
  endloop
endfacet
facet normal -0.0 -0.0 1.0
  outer loop
    vertex 37.848349570550454 38.651650429449596 -1.127986593019159e-14
    vertex 37.84370397770506 36.71175237403197 -1.127986593019159e-14
    vertex 38.11843013959279 37.375000000000036 -1.127986593019159e-14
  endloop
endfacet
facet normal -0.0 -0.0 1.0
  outer loop
    vertex 37.848349570550454 38.651650429449596 -1.127986593019159e-14
    vertex 38.11843013959279 37.375000000000036 -1.127986593019159e-14
    vertex 38.62500000000001 39.24759526419168 -1.127986593019159e-14
  endloop
endfacet
facet normal -0.0 -0.0 1.0
  outer loop
    vertex 38.62500000000001 39.24759526419168 -1.127986593019159e-14
    vertex 38.11843013959279 37.375000000000036 -1.127986593019159e-14
    vertex 38.55545635173699 37.94454364826304 -1.127986593019159e-14
  endloop
endfacet
facet normal -0.0 -0.0 1.0
  outer loop
    vertex 38.62500000000001 39.24759526419168 -1.127986593019159e-14
    vertex 38.55545635173699 37.94454364826304 -1.127986593019159e-14
    vertex 39.12499999999999 38.38156986040725 -1.127986593019159e-14
  endloop
endfacet
facet normal -0.0 -0.0 1.0
  outer loop
    vertex 38.62500000000001 39.24759526419168 -1.127986593019159e-14
    vertex 39.12499999999999 38.38156986040725 -1.127986593019159e-14
    vertex 39.529428580865556 39.62222184858405 -1.127986593019159e-14
  endloop
endfacet
facet normal -0.0 -0.0 1.0
  outer loop
    vertex 39.529428580865556 39.62222184858405 -1.127986593019159e-14
    vertex 39.12499999999999 38.38156986040725 -1.127986593019159e-14
    vertex 39.78824762596806 38.65629602229498 -1.127986593019159e-14
  endloop
endfacet
facet normal -0.0 -0.0 1.0
  outer loop
    vertex 39.529428580865556 39.62222184858405 -1.127986593019159e-14
    vertex 39.78824762596806 38.65629602229498 -1.127986593019159e-14
    vertex 40.5 39.75000000000004 -1.127986593019159e-14
  endloop
endfacet
facet normal -0.0 -0.0 1.0
  outer loop
    vertex 40.5 39.75000000000004 -1.127986593019159e-14
    vertex 39.78824762596806 38.65629602229498 -1.127986593019159e-14
    vertex 40.5 38.75000000000004 -1.127986593019159e-14
  endloop
endfacet
facet normal -0.0 -0.0 1.0
  outer loop
    vertex 40.5 39.75000000000004 -1.127986593019159e-14
    vertex 40.5 38.75000000000004 -1.127986593019159e-14
    vertex 41.21175237403193 38.65629602229498 -1.127986593019159e-14
  endloop
endfacet
facet normal -0.0 -0.0 1.0
  outer loop
    vertex 40.5 39.75000000000004 -1.127986593019159e-14
    vertex 41.21175237403193 38.65629602229498 -1.127986593019159e-14
    vertex 41.47057141913443 39.62222184858405 -1.127986593019159e-14
  endloop
endfacet
facet normal -0.0 -0.0 1.0
  outer loop
    vertex 41.47057141913443 39.62222184858405 -1.127986593019159e-14
    vertex 41.21175237403193 38.65629602229498 -1.127986593019159e-14
    vertex 41.875 38.381569860407254 -1.127986593019159e-14
  endloop
endfacet
facet normal -0.0 -0.0 1.0
  outer loop
    vertex 41.47057141913443 39.62222184858405 -1.127986593019159e-14
    vertex 41.875 38.381569860407254 -1.127986593019159e-14
    vertex 42.375 39.24759526419168 -1.127986593019159e-14
  endloop
endfacet
facet normal -0.0 -0.0 1.0
  outer loop
    vertex 42.375 39.24759526419168 -1.127986593019159e-14
    vertex 41.875 38.381569860407254 -1.127986593019159e-14
    vertex 42.44454364826301 37.94454364826304 -1.127986593019159e-14
  endloop
endfacet
facet normal -0.0 -0.0 1.0
  outer loop
    vertex 42.375 39.24759526419168 -1.127986593019159e-14
    vertex 42.44454364826301 37.94454364826304 -1.127986593019159e-14
    vertex 43.15165042944954 38.651650429449596 -1.127986593019159e-14
  endloop
endfacet
facet normal -0.0 -0.0 1.0
  outer loop
    vertex 43.15165042944954 38.651650429449596 -1.127986593019159e-14
    vertex 42.44454364826301 37.94454364826304 -1.127986593019159e-14
    vertex 42.88156986040721 37.375000000000036 -1.127986593019159e-14
  endloop
endfacet
facet normal -0.0 -0.0 1.0
  outer loop
    vertex 43.15165042944954 38.651650429449596 -1.127986593019159e-14
    vertex 42.88156986040721 37.375000000000036 -1.127986593019159e-14
    vertex 43.15629602229494 36.71175237403197 -1.127986593019159e-14
  endloop
endfacet
facet normal -0.0 -0.0 1.0
  outer loop
    vertex 43.15165042944954 38.651650429449596 -1.127986593019159e-14
    vertex 43.15629602229494 36.71175237403197 -1.127986593019159e-14
    vertex 43.747595264191645 37.875000000000036 -1.127986593019159e-14
  endloop
endfacet
facet normal -0.0 -0.0 1.0
  outer loop
    vertex 43.747595264191645 37.875000000000036 -1.127986593019159e-14
    vertex 43.15629602229494 36.71175237403197 -1.127986593019159e-14
    vertex 43.25 36.00000000000004 -1.127986593019159e-14
  endloop
endfacet
facet normal -0.0 -0.0 1.0
  outer loop
    vertex 43.747595264191645 37.875000000000036 -1.127986593019159e-14
    vertex 43.25 36.00000000000004 -1.127986593019159e-14
    vertex 43.747595264191645 34.125000000000036 -1.127986593019159e-14
  endloop
endfacet
facet normal -0.0 -0.0 1.0
  outer loop
    vertex 43.747595264191645 37.875000000000036 -1.127986593019159e-14
    vertex 43.747595264191645 34.125000000000036 -1.127986593019159e-14
    vertex 44.122221848584026 35.02942858086559 -1.127986593019159e-14
  endloop
endfacet
facet normal -0.0 -0.0 1.0
  outer loop
    vertex 43.747595264191645 37.875000000000036 -1.127986593019159e-14
    vertex 44.122221848584026 35.02942858086559 -1.127986593019159e-14
    vertex 44.122221848584026 36.970571419134494 -1.127986593019159e-14
  endloop
endfacet
facet normal -0.0 -0.0 1.0
  outer loop
    vertex 44.122221848584026 36.970571419134494 -1.127986593019159e-14
    vertex 44.122221848584026 35.02942858086559 -1.127986593019159e-14
    vertex 44.25 36.00000000000004 -1.127986593019159e-14
  endloop
endfacet
facet normal 0.0 0.0 -1.0
  outer loop
    vertex 37.848349570550454 38.651650429449596 -0.9999999999999869
    vertex 37.75000000000001 36.00000000000004 -0.9999999999999869
    vertex 37.25240473580836 37.87500000000004 -0.9999999999999869
  endloop
endfacet
facet normal 0.0 0.0 -1.0
  outer loop
    vertex 37.75000000000001 36.00000000000004 -0.9999999999999869
    vertex 37.848349570550454 38.651650429449596 -0.9999999999999869
    vertex 37.84370397770507 36.71175237403197 -0.9999999999999869
  endloop
endfacet
facet normal 0.0 0.0 -1.0
  outer loop
    vertex 37.84370397770507 36.71175237403197 -0.9999999999999869
    vertex 37.848349570550454 38.651650429449596 -0.9999999999999869
    vertex 38.118430139592796 37.375000000000036 -0.9999999999999869
  endloop
endfacet
facet normal 0.0 0.0 -1.0
  outer loop
    vertex 38.118430139592796 37.375000000000036 -0.9999999999999869
    vertex 37.848349570550454 38.651650429449596 -0.9999999999999869
    vertex 38.62500000000001 39.24759526419168 -0.9999999999999869
  endloop
endfacet
facet normal 0.0 0.0 -1.0
  outer loop
    vertex 38.118430139592796 37.375000000000036 -0.9999999999999869
    vertex 38.62500000000001 39.24759526419168 -0.9999999999999869
    vertex 38.555456351737 37.94454364826304 -0.9999999999999869
  endloop
endfacet
facet normal 0.0 0.0 -1.0
  outer loop
    vertex 38.555456351737 37.94454364826304 -0.9999999999999869
    vertex 38.62500000000001 39.24759526419168 -0.9999999999999869
    vertex 39.12500000000001 38.38156986040725 -0.9999999999999869
  endloop
endfacet
facet normal 0.0 0.0 -1.0
  outer loop
    vertex 39.12500000000001 38.38156986040725 -0.9999999999999869
    vertex 38.62500000000001 39.24759526419168 -0.9999999999999869
    vertex 39.529428580865556 39.62222184858405 -0.9999999999999869
  endloop
endfacet
facet normal 0.0 0.0 -1.0
  outer loop
    vertex 39.12500000000001 38.38156986040725 -0.9999999999999869
    vertex 39.529428580865556 39.62222184858405 -0.9999999999999869
    vertex 39.78824762596806 38.65629602229498 -0.9999999999999869
  endloop
endfacet
facet normal 0.0 0.0 -1.0
  outer loop
    vertex 39.78824762596806 38.65629602229498 -0.9999999999999869
    vertex 39.529428580865556 39.62222184858405 -0.9999999999999869
    vertex 40.5 39.75000000000004 -0.9999999999999869
  endloop
endfacet
facet normal 0.0 0.0 -1.0
  outer loop
    vertex 39.78824762596806 38.65629602229498 -0.9999999999999869
    vertex 40.5 39.75000000000004 -0.9999999999999869
    vertex 40.5 38.75000000000004 -0.9999999999999869
  endloop
endfacet
facet normal 0.0 0.0 -1.0
  outer loop
    vertex 40.5 38.75000000000004 -0.9999999999999869
    vertex 40.5 39.75000000000004 -0.9999999999999869
    vertex 41.47057141913443 39.62222184858405 -0.9999999999999869
  endloop
endfacet
facet normal 0.0 0.0 -1.0
  outer loop
    vertex 40.5 38.75000000000004 -0.9999999999999869
    vertex 41.47057141913443 39.62222184858405 -0.9999999999999869
    vertex 41.21175237403192 38.65629602229498 -0.9999999999999869
  endloop
endfacet
facet normal 0.0 0.0 -1.0
  outer loop
    vertex 41.21175237403192 38.65629602229498 -0.9999999999999869
    vertex 41.47057141913443 39.62222184858405 -0.9999999999999869
    vertex 41.87499999999998 38.38156986040725 -0.9999999999999869
  endloop
endfacet
facet normal 0.0 0.0 -1.0
  outer loop
    vertex 41.87499999999998 38.38156986040725 -0.9999999999999869
    vertex 41.47057141913443 39.62222184858405 -0.9999999999999869
    vertex 42.375 39.24759526419168 -0.9999999999999869
  endloop
endfacet
facet normal 0.0 0.0 -1.0
  outer loop
    vertex 41.87499999999998 38.38156986040725 -0.9999999999999869
    vertex 42.375 39.24759526419168 -0.9999999999999869
    vertex 42.444543648263 37.94454364826304 -0.9999999999999869
  endloop
endfacet
facet normal 0.0 0.0 -1.0
  outer loop
    vertex 42.444543648263 37.94454364826304 -0.9999999999999869
    vertex 42.375 39.24759526419168 -0.9999999999999869
    vertex 43.15165042944954 38.651650429449596 -0.9999999999999869
  endloop
endfacet
facet normal 0.0 0.0 -1.0
  outer loop
    vertex 42.444543648263 37.94454364826304 -0.9999999999999869
    vertex 43.15165042944954 38.651650429449596 -0.9999999999999869
    vertex 42.88156986040719 37.375000000000036 -0.9999999999999869
  endloop
endfacet
facet normal 0.0 0.0 -1.0
  outer loop
    vertex 42.88156986040719 37.375000000000036 -0.9999999999999869
    vertex 43.15165042944954 38.651650429449596 -0.9999999999999869
    vertex 43.15629602229493 36.71175237403197 -0.9999999999999869
  endloop
endfacet
facet normal 0.0 0.0 -1.0
  outer loop
    vertex 43.15629602229493 36.71175237403197 -0.9999999999999869
    vertex 43.15165042944954 38.651650429449596 -0.9999999999999869
    vertex 43.747595264191645 37.875000000000036 -0.9999999999999869
  endloop
endfacet
facet normal 0.0 0.0 -1.0
  outer loop
    vertex 43.15629602229493 36.71175237403197 -0.9999999999999869
    vertex 43.747595264191645 37.875000000000036 -0.9999999999999869
    vertex 43.24999999999999 36.000000000000036 -0.9999999999999869
  endloop
endfacet
facet normal 0.0 0.0 -1.0
  outer loop
    vertex 36.877778151415995 36.9705714191345 -0.9999999999999869
    vertex 36.877778151415995 35.02942858086559 -0.9999999999999869
    vertex 36.74999999999999 36.00000000000004 -0.9999999999999869
  endloop
endfacet
facet normal 0.0 0.0 -1.0
  outer loop
    vertex 36.877778151415995 35.02942858086559 -0.9999999999999869
    vertex 36.877778151415995 36.9705714191345 -0.9999999999999869
    vertex 37.25240473580836 37.87500000000004 -0.9999999999999869
  endloop
endfacet
facet normal 0.0 0.0 -1.0
  outer loop
    vertex 36.877778151415995 35.02942858086559 -0.9999999999999869
    vertex 37.25240473580836 37.87500000000004 -0.9999999999999869
    vertex 37.25240473580835 34.12500000000004 -0.9999999999999869
  endloop
endfacet
facet normal 0.0 0.0 -1.0
  outer loop
    vertex 37.25240473580835 34.12500000000004 -0.9999999999999869
    vertex 37.25240473580836 37.87500000000004 -0.9999999999999869
    vertex 37.84834957055044 33.34834957055049 -0.9999999999999869
  endloop
endfacet
facet normal 0.0 0.0 -1.0
  outer loop
    vertex 37.84834957055044 33.34834957055049 -0.9999999999999869
    vertex 37.25240473580836 37.87500000000004 -0.9999999999999869
    vertex 37.75000000000001 36.00000000000004 -0.9999999999999869
  endloop
endfacet
facet normal 0.0 0.0 -1.0
  outer loop
    vertex 37.84834957055044 33.34834957055049 -0.9999999999999869
    vertex 37.75000000000001 36.00000000000004 -0.9999999999999869
    vertex 37.84370397770507 35.288247625968104 -0.9999999999999869
  endloop
endfacet
facet normal 0.0 0.0 -1.0
  outer loop
    vertex 37.84834957055044 33.34834957055049 -0.9999999999999869
    vertex 37.84370397770507 35.288247625968104 -0.9999999999999869
    vertex 38.118430139592796 34.62500000000004 -0.9999999999999869
  endloop
endfacet
facet normal 0.0 0.0 -1.0
  outer loop
    vertex 37.84834957055044 33.34834957055049 -0.9999999999999869
    vertex 38.118430139592796 34.62500000000004 -0.9999999999999869
    vertex 38.625 32.7524047358084 -0.9999999999999869
  endloop
endfacet
facet normal 0.0 0.0 -1.0
  outer loop
    vertex 38.625 32.7524047358084 -0.9999999999999869
    vertex 38.118430139592796 34.62500000000004 -0.9999999999999869
    vertex 38.555456351736986 34.05545635173704 -0.9999999999999869
  endloop
endfacet
facet normal 0.0 0.0 -1.0
  outer loop
    vertex 38.625 32.7524047358084 -0.9999999999999869
    vertex 38.555456351736986 34.05545635173704 -0.9999999999999869
    vertex 39.12499999999999 33.61843013959284 -0.9999999999999869
  endloop
endfacet
facet normal 0.0 0.0 -1.0
  outer loop
    vertex 38.625 32.7524047358084 -0.9999999999999869
    vertex 39.12499999999999 33.61843013959284 -0.9999999999999869
    vertex 39.52942858086554 32.37777815141604 -0.9999999999999869
  endloop
endfacet
facet normal 0.0 0.0 -1.0
  outer loop
    vertex 39.52942858086554 32.37777815141604 -0.9999999999999869
    vertex 39.12499999999999 33.61843013959284 -0.9999999999999869
    vertex 39.78824762596806 33.343703977705104 -0.9999999999999869
  endloop
endfacet
facet normal 0.0 0.0 -1.0
  outer loop
    vertex 39.52942858086554 32.37777815141604 -0.9999999999999869
    vertex 39.78824762596806 33.343703977705104 -0.9999999999999869
    vertex 40.5 32.25000000000004 -0.9999999999999869
  endloop
endfacet
facet normal 0.0 0.0 -1.0
  outer loop
    vertex 40.5 32.25000000000004 -0.9999999999999869
    vertex 39.78824762596806 33.343703977705104 -0.9999999999999869
    vertex 40.5 33.25000000000005 -0.9999999999999869
  endloop
endfacet
facet normal 0.0 0.0 -1.0
  outer loop
    vertex 40.5 32.25000000000004 -0.9999999999999869
    vertex 40.5 33.25000000000005 -0.9999999999999869
    vertex 41.211752374031896 33.343703977705104 -0.9999999999999869
  endloop
endfacet
facet normal 0.0 0.0 -1.0
  outer loop
    vertex 40.5 32.25000000000004 -0.9999999999999869
    vertex 41.211752374031896 33.343703977705104 -0.9999999999999869
    vertex 41.47057141913443 32.37777815141604 -0.9999999999999869
  endloop
endfacet
facet normal 0.0 0.0 -1.0
  outer loop
    vertex 41.47057141913443 32.37777815141604 -0.9999999999999869
    vertex 41.211752374031896 33.343703977705104 -0.9999999999999869
    vertex 41.87499999999998 33.61843013959283 -0.9999999999999869
  endloop
endfacet
facet normal 0.0 0.0 -1.0
  outer loop
    vertex 41.47057141913443 32.37777815141604 -0.9999999999999869
    vertex 41.87499999999998 33.61843013959283 -0.9999999999999869
    vertex 42.37499999999998 32.7524047358084 -0.9999999999999869
  endloop
endfacet
facet normal 0.0 0.0 -1.0
  outer loop
    vertex 42.37499999999998 32.7524047358084 -0.9999999999999869
    vertex 41.87499999999998 33.61843013959283 -0.9999999999999869
    vertex 42.444543648263 34.05545635173703 -0.9999999999999869
  endloop
endfacet
facet normal 0.0 0.0 -1.0
  outer loop
    vertex 42.37499999999998 32.7524047358084 -0.9999999999999869
    vertex 42.444543648263 34.05545635173703 -0.9999999999999869
    vertex 43.15165042944954 33.34834957055049 -0.9999999999999869
  endloop
endfacet
facet normal 0.0 0.0 -1.0
  outer loop
    vertex 43.15165042944954 33.34834957055049 -0.9999999999999869
    vertex 42.444543648263 34.05545635173703 -0.9999999999999869
    vertex 42.88156986040719 34.625000000000036 -0.9999999999999869
  endloop
endfacet
facet normal 0.0 0.0 -1.0
  outer loop
    vertex 43.15165042944954 33.34834957055049 -0.9999999999999869
    vertex 42.88156986040719 34.625000000000036 -0.9999999999999869
    vertex 43.15629602229493 35.288247625968104 -0.9999999999999869
  endloop
endfacet
facet normal 0.0 0.0 -1.0
  outer loop
    vertex 43.15165042944954 33.34834957055049 -0.9999999999999869
    vertex 43.15629602229493 35.288247625968104 -0.9999999999999869
    vertex 43.747595264191645 34.125000000000036 -0.9999999999999869
  endloop
endfacet
facet normal 0.0 0.0 -1.0
  outer loop
    vertex 43.747595264191645 34.125000000000036 -0.9999999999999869
    vertex 43.15629602229493 35.288247625968104 -0.9999999999999869
    vertex 43.24999999999999 36.000000000000036 -0.9999999999999869
  endloop
endfacet
facet normal 0.0 0.0 -1.0
  outer loop
    vertex 43.747595264191645 34.125000000000036 -0.9999999999999869
    vertex 43.24999999999999 36.000000000000036 -0.9999999999999869
    vertex 43.747595264191645 37.875000000000036 -0.9999999999999869
  endloop
endfacet
facet normal 0.0 0.0 -1.0
  outer loop
    vertex 43.747595264191645 34.125000000000036 -0.9999999999999869
    vertex 43.747595264191645 37.875000000000036 -0.9999999999999869
    vertex 44.122221848584026 36.970571419134494 -0.9999999999999869
  endloop
endfacet
facet normal 0.0 0.0 -1.0
  outer loop
    vertex 43.747595264191645 34.125000000000036 -0.9999999999999869
    vertex 44.122221848584026 36.970571419134494 -0.9999999999999869
    vertex 44.122221848584026 35.02942858086559 -0.9999999999999869
  endloop
endfacet
facet normal 0.0 0.0 -1.0
  outer loop
    vertex 44.122221848584026 35.02942858086559 -0.9999999999999869
    vertex 44.122221848584026 36.970571419134494 -0.9999999999999869
    vertex 44.25 36.00000000000004 -0.9999999999999869
  endloop
endfacet
facet normal 0.9238795325112803 -0.3826834323651053 -0.0
  outer loop
    vertex 44.122221848584026 35.02942858086559 -0.9999999999999869
    vertex 43.747595264191645 34.125000000000036 -1.127986593019159e-14
    vertex 43.747595264191645 34.125000000000036 -0.9999999999999869
  endloop
endfacet
facet normal 0.9238795325112803 -0.3826834323651053 -0.0
  outer loop
    vertex 43.747595264191645 34.125000000000036 -1.127986593019159e-14
    vertex 44.122221848584026 35.02942858086559 -0.9999999999999869
    vertex 44.122221848584026 35.02942858086559 -1.127986593019159e-14
  endloop
endfacet
facet normal 0.7933533402912252 -0.6087614290087338 -0.0
  outer loop
    vertex 43.747595264191645 34.125000000000036 -0.9999999999999869
    vertex 43.15165042944954 33.34834957055049 -1.127986593019159e-14
    vertex 43.15165042944954 33.34834957055049 -0.9999999999999869
  endloop
endfacet
facet normal 0.7933533402912252 -0.6087614290087338 -0.0
  outer loop
    vertex 43.15165042944954 33.34834957055049 -1.127986593019159e-14
    vertex 43.747595264191645 34.125000000000036 -0.9999999999999869
    vertex 43.747595264191645 34.125000000000036 -1.127986593019159e-14
  endloop
endfacet
facet normal 0.6087614290087165 -0.7933533402912385 0.0
  outer loop
    vertex 43.15165042944954 33.34834957055049 -1.127986593019159e-14
    vertex 42.37499999999998 32.7524047358084 -0.9999999999999869
    vertex 43.15165042944954 33.34834957055049 -0.9999999999999869
  endloop
endfacet
facet normal 0.6087614290087165 -0.7933533402912385 0.0
  outer loop
    vertex 42.37499999999998 32.7524047358084 -0.9999999999999869
    vertex 43.15165042944954 33.34834957055049 -1.127986593019159e-14
    vertex 42.37499999999998 32.7524047358084 -1.127986593019159e-14
  endloop
endfacet
facet normal 0.3826834323650907 -0.9238795325112865 0.0
  outer loop
    vertex 42.37499999999998 32.7524047358084 -1.127986593019159e-14
    vertex 41.47057141913443 32.37777815141604 -0.9999999999999869
    vertex 42.37499999999998 32.7524047358084 -0.9999999999999869
  endloop
endfacet
facet normal 0.3826834323650907 -0.9238795325112865 0.0
  outer loop
    vertex 41.47057141913443 32.37777815141604 -0.9999999999999869
    vertex 42.37499999999998 32.7524047358084 -1.127986593019159e-14
    vertex 41.47057141913443 32.37777815141604 -1.127986593019159e-14
  endloop
endfacet
facet normal 0.13052619222005346 -0.9914448613738103 0.0
  outer loop
    vertex 41.47057141913443 32.37777815141604 -1.127986593019159e-14
    vertex 40.5 32.25000000000004 -0.9999999999999869
    vertex 41.47057141913443 32.37777815141604 -0.9999999999999869
  endloop
endfacet
facet normal 0.13052619222005346 -0.9914448613738103 0.0
  outer loop
    vertex 40.5 32.25000000000004 -0.9999999999999869
    vertex 41.47057141913443 32.37777815141604 -1.127986593019159e-14
    vertex 40.5 32.25000000000004 -1.127986593019159e-14
  endloop
endfacet
facet normal -0.13052619222005538 -0.99144486137381 0.0
  outer loop
    vertex 40.5 32.25000000000004 -1.127986593019159e-14
    vertex 39.52942858086554 32.37777815141604 -0.9999999999999869
    vertex 40.5 32.25000000000004 -0.9999999999999869
  endloop
endfacet
facet normal -0.13052619222005538 -0.99144486137381 0.0
  outer loop
    vertex 39.52942858086554 32.37777815141604 -0.9999999999999869
    vertex 40.5 32.25000000000004 -1.127986593019159e-14
    vertex 39.52942858086554 32.37777815141604 -1.127986593019159e-14
  endloop
endfacet
facet normal -0.38268343236508773 -0.9238795325112876 0.0
  outer loop
    vertex 39.52942858086554 32.37777815141604 -1.127986593019159e-14
    vertex 38.625 32.7524047358084 -0.9999999999999869
    vertex 39.52942858086554 32.37777815141604 -0.9999999999999869
  endloop
endfacet
facet normal -0.38268343236508773 -0.9238795325112876 0.0
  outer loop
    vertex 38.625 32.7524047358084 -0.9999999999999869
    vertex 39.52942858086554 32.37777815141604 -1.127986593019159e-14
    vertex 38.625 32.7524047358084 -1.127986593019159e-14
  endloop
endfacet
facet normal -0.6087614290087165 -0.7933533402912385 0.0
  outer loop
    vertex 38.625 32.7524047358084 -1.127986593019159e-14
    vertex 37.84834957055044 33.34834957055049 -0.9999999999999869
    vertex 38.625 32.7524047358084 -0.9999999999999869
  endloop
endfacet
facet normal -0.6087614290087165 -0.7933533402912385 0.0
  outer loop
    vertex 37.84834957055044 33.34834957055049 -0.9999999999999869
    vertex 38.625 32.7524047358084 -1.127986593019159e-14
    vertex 37.84834957055044 33.34834957055049 -1.127986593019159e-14
  endloop
endfacet
facet normal -0.7933533402912385 -0.6087614290087165 0.0
  outer loop
    vertex 37.25240473580835 34.12500000000004 -1.127986593019159e-14
    vertex 37.84834957055044 33.34834957055049 -0.9999999999999869
    vertex 37.84834957055044 33.34834957055049 -1.127986593019159e-14
  endloop
endfacet
facet normal -0.7933533402912385 -0.6087614290087165 0.0
  outer loop
    vertex 37.84834957055044 33.34834957055049 -0.9999999999999869
    vertex 37.25240473580835 34.12500000000004 -1.127986593019159e-14
    vertex 37.25240473580835 34.12500000000004 -0.9999999999999869
  endloop
endfacet
facet normal -0.9238795325112876 -0.38268343236508773 0.0
  outer loop
    vertex 36.877778151415995 35.02942858086559 -1.127986593019159e-14
    vertex 37.25240473580835 34.12500000000004 -0.9999999999999869
    vertex 37.25240473580835 34.12500000000004 -1.127986593019159e-14
  endloop
endfacet
facet normal -0.9238795325112876 -0.38268343236508773 0.0
  outer loop
    vertex 37.25240473580835 34.12500000000004 -0.9999999999999869
    vertex 36.877778151415995 35.02942858086559 -1.127986593019159e-14
    vertex 36.877778151415995 35.02942858086559 -0.9999999999999869
  endloop
endfacet
facet normal -0.9914448613738098 -0.13052619222005607 0.0
  outer loop
    vertex 36.74999999999999 36.00000000000004 -1.127986593019159e-14
    vertex 36.877778151415995 35.02942858086559 -0.9999999999999869
    vertex 36.877778151415995 35.02942858086559 -1.127986593019159e-14
  endloop
endfacet
facet normal -0.9914448613738098 -0.13052619222005607 0.0
  outer loop
    vertex 36.877778151415995 35.02942858086559 -0.9999999999999869
    vertex 36.74999999999999 36.00000000000004 -1.127986593019159e-14
    vertex 36.74999999999999 36.00000000000004 -0.9999999999999869
  endloop
endfacet
facet normal -0.99144486137381 0.13052619222005538 0.0
  outer loop
    vertex 36.877778151415995 36.9705714191345 -1.127986593019159e-14
    vertex 36.74999999999999 36.00000000000004 -0.9999999999999869
    vertex 36.74999999999999 36.00000000000004 -1.127986593019159e-14
  endloop
endfacet
facet normal -0.99144486137381 0.13052619222005538 0.0
  outer loop
    vertex 36.74999999999999 36.00000000000004 -0.9999999999999869
    vertex 36.877778151415995 36.9705714191345 -1.127986593019159e-14
    vertex 36.877778151415995 36.9705714191345 -0.9999999999999869
  endloop
endfacet
facet normal -0.9238795325112837 0.38268343236509766 0.0
  outer loop
    vertex 37.25240473580836 37.87500000000004 -1.127986593019159e-14
    vertex 36.877778151415995 36.9705714191345 -0.9999999999999869
    vertex 36.877778151415995 36.9705714191345 -1.127986593019159e-14
  endloop
endfacet
facet normal -0.9238795325112837 0.38268343236509766 0.0
  outer loop
    vertex 36.877778151415995 36.9705714191345 -0.9999999999999869
    vertex 37.25240473580836 37.87500000000004 -1.127986593019159e-14
    vertex 37.25240473580836 37.87500000000004 -0.9999999999999869
  endloop
endfacet
facet normal -0.7933533402912363 0.6087614290087193 0.0
  outer loop
    vertex 37.848349570550454 38.651650429449596 -1.127986593019159e-14
    vertex 37.25240473580836 37.87500000000004 -0.9999999999999869
    vertex 37.25240473580836 37.87500000000004 -1.127986593019159e-14
  endloop
endfacet
facet normal -0.7933533402912363 0.6087614290087193 0.0
  outer loop
    vertex 37.25240473580836 37.87500000000004 -0.9999999999999869
    vertex 37.848349570550454 38.651650429449596 -1.127986593019159e-14
    vertex 37.848349570550454 38.651650429449596 -0.9999999999999869
  endloop
endfacet
facet normal -0.6087614290087165 0.7933533402912385 -0.0
  outer loop
    vertex 37.848349570550454 38.651650429449596 -1.127986593019159e-14
    vertex 38.62500000000001 39.24759526419168 -0.9999999999999869
    vertex 37.848349570550454 38.651650429449596 -0.9999999999999869
  endloop
endfacet
facet normal -0.6087614290087165 0.7933533402912385 -0.0
  outer loop
    vertex 38.62500000000001 39.24759526419168 -0.9999999999999869
    vertex 37.848349570550454 38.651650429449596 -1.127986593019159e-14
    vertex 38.62500000000001 39.24759526419168 -1.127986593019159e-14
  endloop
endfacet
facet normal -0.38268343236509267 0.9238795325112855 -0.0
  outer loop
    vertex 38.62500000000001 39.24759526419168 -1.127986593019159e-14
    vertex 39.529428580865556 39.62222184858405 -0.9999999999999869
    vertex 38.62500000000001 39.24759526419168 -0.9999999999999869
  endloop
endfacet
facet normal -0.38268343236509267 0.9238795325112855 -0.0
  outer loop
    vertex 39.529428580865556 39.62222184858405 -0.9999999999999869
    vertex 38.62500000000001 39.24759526419168 -1.127986593019159e-14
    vertex 39.529428580865556 39.62222184858405 -1.127986593019159e-14
  endloop
endfacet
facet normal -0.1305261922200512 0.9914448613738105 -0.0
  outer loop
    vertex 39.529428580865556 39.62222184858405 -1.127986593019159e-14
    vertex 40.5 39.75000000000004 -0.9999999999999869
    vertex 39.529428580865556 39.62222184858405 -0.9999999999999869
  endloop
endfacet
facet normal -0.1305261922200512 0.9914448613738105 -0.0
  outer loop
    vertex 40.5 39.75000000000004 -0.9999999999999869
    vertex 39.529428580865556 39.62222184858405 -1.127986593019159e-14
    vertex 40.5 39.75000000000004 -1.127986593019159e-14
  endloop
endfacet
facet normal 0.13052619222005346 0.9914448613738103 -0.0
  outer loop
    vertex 40.5 39.75000000000004 -1.127986593019159e-14
    vertex 41.47057141913443 39.62222184858405 -0.9999999999999869
    vertex 40.5 39.75000000000004 -0.9999999999999869
  endloop
endfacet
facet normal 0.13052619222005346 0.9914448613738103 -0.0
  outer loop
    vertex 41.47057141913443 39.62222184858405 -0.9999999999999869
    vertex 40.5 39.75000000000004 -1.127986593019159e-14
    vertex 41.47057141913443 39.62222184858405 -1.127986593019159e-14
  endloop
endfacet
facet normal 0.38268343236508257 0.92387953251129 -0.0
  outer loop
    vertex 41.47057141913443 39.62222184858405 -1.127986593019159e-14
    vertex 42.375 39.24759526419168 -0.9999999999999869
    vertex 41.47057141913443 39.62222184858405 -0.9999999999999869
  endloop
endfacet
facet normal 0.38268343236508257 0.92387953251129 -0.0
  outer loop
    vertex 42.375 39.24759526419168 -0.9999999999999869
    vertex 41.47057141913443 39.62222184858405 -1.127986593019159e-14
    vertex 42.375 39.24759526419168 -1.127986593019159e-14
  endloop
endfacet
facet normal 0.6087614290087275 0.79335334029123 -0.0
  outer loop
    vertex 42.375 39.24759526419168 -1.127986593019159e-14
    vertex 43.15165042944954 38.651650429449596 -0.9999999999999869
    vertex 42.375 39.24759526419168 -0.9999999999999869
  endloop
endfacet
facet normal 0.6087614290087275 0.79335334029123 -0.0
  outer loop
    vertex 43.15165042944954 38.651650429449596 -0.9999999999999869
    vertex 42.375 39.24759526419168 -1.127986593019159e-14
    vertex 43.15165042944954 38.651650429449596 -1.127986593019159e-14
  endloop
endfacet
facet normal 0.7933533402912275 0.608761429008731 -0.0
  outer loop
    vertex 43.15165042944954 38.651650429449596 -0.9999999999999869
    vertex 43.747595264191645 37.875000000000036 -1.127986593019159e-14
    vertex 43.747595264191645 37.875000000000036 -0.9999999999999869
  endloop
endfacet
facet normal 0.7933533402912275 0.608761429008731 -0.0
  outer loop
    vertex 43.747595264191645 37.875000000000036 -1.127986593019159e-14
    vertex 43.15165042944954 38.651650429449596 -0.9999999999999869
    vertex 43.15165042944954 38.651650429449596 -1.127986593019159e-14
  endloop
endfacet
facet normal 0.9238795325112795 0.38268343236510743 -0.0
  outer loop
    vertex 43.747595264191645 37.875000000000036 -0.9999999999999869
    vertex 44.122221848584026 36.970571419134494 -1.127986593019159e-14
    vertex 44.122221848584026 36.970571419134494 -0.9999999999999869
  endloop
endfacet
facet normal 0.9238795325112795 0.38268343236510743 -0.0
  outer loop
    vertex 44.122221848584026 36.970571419134494 -1.127986593019159e-14
    vertex 43.747595264191645 37.875000000000036 -0.9999999999999869
    vertex 43.747595264191645 37.875000000000036 -1.127986593019159e-14
  endloop
endfacet
facet normal 0.9914448613738129 0.13052619222003348 -0.0
  outer loop
    vertex 44.122221848584026 36.970571419134494 -0.9999999999999869
    vertex 44.25 36.00000000000004 -1.127986593019159e-14
    vertex 44.25 36.00000000000004 -0.9999999999999869
  endloop
endfacet
facet normal 0.9914448613738129 0.13052619222003348 -0.0
  outer loop
    vertex 44.25 36.00000000000004 -1.127986593019159e-14
    vertex 44.122221848584026 36.970571419134494 -0.9999999999999869
    vertex 44.122221848584026 36.970571419134494 -1.127986593019159e-14
  endloop
endfacet
facet normal 0.9914448613738129 -0.13052619222003348 -0.0
  outer loop
    vertex 44.25 36.00000000000004 -0.9999999999999869
    vertex 44.122221848584026 35.02942858086559 -1.127986593019159e-14
    vertex 44.122221848584026 35.02942858086559 -0.9999999999999869
  endloop
endfacet
facet normal 0.9914448613738129 -0.13052619222003348 -0.0
  outer loop
    vertex 44.122221848584026 35.02942858086559 -1.127986593019159e-14
    vertex 44.25 36.00000000000004 -0.9999999999999869
    vertex 44.25 36.00000000000004 -1.127986593019159e-14
  endloop
endfacet
facet normal 0.0 0.0 -1.0
  outer loop
    vertex 38.80962980399413 36.452933328929454 -4.982599999999927
    vertex 38.80962980399413 35.54706667107064 -4.982599999999927
    vertex 38.75 36.00000000000005 -4.982599999999927
  endloop
endfacet
facet normal 0.0 0.0 -1.0
  outer loop
    vertex 38.80962980399413 35.54706667107064 -4.982599999999927
    vertex 38.80962980399413 36.452933328929454 -4.982599999999927
    vertex 38.98445554337723 36.87500000000004 -4.982599999999927
  endloop
endfacet
facet normal 0.0 0.0 -1.0
  outer loop
    vertex 38.80962980399413 35.54706667107064 -4.982599999999927
    vertex 38.98445554337723 36.87500000000004 -4.982599999999927
    vertex 38.98445554337723 35.12500000000005 -4.982599999999927
  endloop
endfacet
facet normal 0.0 0.0 -1.0
  outer loop
    vertex 38.98445554337723 35.12500000000005 -4.982599999999927
    vertex 38.98445554337723 36.87500000000004 -4.982599999999927
    vertex 39.26256313292354 37.237436867076504 -4.982599999999927
  endloop
endfacet
facet normal 0.0 0.0 -1.0
  outer loop
    vertex 38.98445554337723 35.12500000000005 -4.982599999999927
    vertex 39.26256313292354 37.237436867076504 -4.982599999999927
    vertex 39.26256313292354 34.76256313292359 -4.982599999999927
  endloop
endfacet
facet normal 0.0 0.0 -1.0
  outer loop
    vertex 39.26256313292354 34.76256313292359 -4.982599999999927
    vertex 39.26256313292354 37.237436867076504 -4.982599999999927
    vertex 39.62500000000001 37.515544456622806 -4.982599999999927
  endloop
endfacet
facet normal 0.0 0.0 -1.0
  outer loop
    vertex 39.26256313292354 34.76256313292359 -4.982599999999927
    vertex 39.62500000000001 37.515544456622806 -4.982599999999927
    vertex 39.62500000000001 34.48445554337728 -4.982599999999927
  endloop
endfacet
facet normal 0.0 0.0 -1.0
  outer loop
    vertex 39.62500000000001 34.48445554337728 -4.982599999999927
    vertex 39.62500000000001 37.515544456622806 -4.982599999999927
    vertex 40.04706667107059 37.69037019600591 -4.982599999999927
  endloop
endfacet
facet normal 0.0 0.0 -1.0
  outer loop
    vertex 39.62500000000001 34.48445554337728 -4.982599999999927
    vertex 40.04706667107059 37.69037019600591 -4.982599999999927
    vertex 40.04706667107059 34.30962980399417 -4.982599999999927
  endloop
endfacet
facet normal 0.0 0.0 -1.0
  outer loop
    vertex 40.04706667107059 34.30962980399417 -4.982599999999927
    vertex 40.04706667107059 37.69037019600591 -4.982599999999927
    vertex 40.5 37.750000000000036 -4.982599999999927
  endloop
endfacet
facet normal 0.0 0.0 -1.0
  outer loop
    vertex 40.04706667107059 34.30962980399417 -4.982599999999927
    vertex 40.5 37.750000000000036 -4.982599999999927
    vertex 40.5 34.25000000000004 -4.982599999999927
  endloop
endfacet
facet normal 0.0 0.0 -1.0
  outer loop
    vertex 40.5 34.25000000000004 -4.982599999999927
    vertex 40.5 37.750000000000036 -4.982599999999927
    vertex 40.95293332892938 37.69037019600591 -4.982599999999927
  endloop
endfacet
facet normal 0.0 0.0 -1.0
  outer loop
    vertex 40.5 34.25000000000004 -4.982599999999927
    vertex 40.95293332892938 37.69037019600591 -4.982599999999927
    vertex 40.95293332892938 34.30962980399417 -4.982599999999927
  endloop
endfacet
facet normal 0.0 0.0 -1.0
  outer loop
    vertex 40.95293332892938 34.30962980399417 -4.982599999999927
    vertex 40.95293332892938 37.69037019600591 -4.982599999999927
    vertex 41.37499999999997 37.515544456622806 -4.982599999999927
  endloop
endfacet
facet normal 0.0 0.0 -1.0
  outer loop
    vertex 40.95293332892938 34.30962980399417 -4.982599999999927
    vertex 41.37499999999997 37.515544456622806 -4.982599999999927
    vertex 41.37499999999997 34.48445554337728 -4.982599999999927
  endloop
endfacet
facet normal 0.0 0.0 -1.0
  outer loop
    vertex 41.37499999999997 34.48445554337728 -4.982599999999927
    vertex 41.37499999999997 37.515544456622806 -4.982599999999927
    vertex 41.73743686707645 37.2374368670765 -4.982599999999927
  endloop
endfacet
facet normal 0.0 0.0 -1.0
  outer loop
    vertex 41.37499999999997 34.48445554337728 -4.982599999999927
    vertex 41.73743686707645 37.2374368670765 -4.982599999999927
    vertex 41.73743686707645 34.76256313292358 -4.982599999999927
  endloop
endfacet
facet normal 0.0 0.0 -1.0
  outer loop
    vertex 41.73743686707645 34.76256313292358 -4.982599999999927
    vertex 41.73743686707645 37.2374368670765 -4.982599999999927
    vertex 42.01554445662275 36.875000000000036 -4.982599999999927
  endloop
endfacet
facet normal 0.0 0.0 -1.0
  outer loop
    vertex 41.73743686707645 34.76256313292358 -4.982599999999927
    vertex 42.01554445662275 36.875000000000036 -4.982599999999927
    vertex 42.01554445662275 35.125000000000036 -4.982599999999927
  endloop
endfacet
facet normal 0.0 0.0 -1.0
  outer loop
    vertex 42.01554445662275 35.125000000000036 -4.982599999999927
    vertex 42.01554445662275 36.875000000000036 -4.982599999999927
    vertex 42.19037019600586 36.45293332892945 -4.982599999999927
  endloop
endfacet
facet normal 0.0 0.0 -1.0
  outer loop
    vertex 42.01554445662275 35.125000000000036 -4.982599999999927
    vertex 42.19037019600586 36.45293332892945 -4.982599999999927
    vertex 42.19037019600586 35.547066671070624 -4.982599999999927
  endloop
endfacet
facet normal 0.0 0.0 -1.0
  outer loop
    vertex 42.19037019600586 35.547066671070624 -4.982599999999927
    vertex 42.19037019600586 36.45293332892945 -4.982599999999927
    vertex 42.249999999999986 36.000000000000036 -4.982599999999927
  endloop
endfacet
facet normal -0.9914448613738107 0.13052619222005035 0.0
  outer loop
    vertex 37.84370397770507 36.71175237403197 -0.9999999999999869
    vertex 37.75000000000001 36.00000000000004 -3.982599999999929
    vertex 37.75000000000001 36.00000000000004 -0.9999999999999869
  endloop
endfacet
facet normal -0.9914448613738107 0.13052619222005035 0.0
  outer loop
    vertex 37.75000000000001 36.00000000000004 -3.982599999999929
    vertex 37.84370397770507 36.71175237403197 -0.9999999999999869
    vertex 37.84370397770507 36.71175237403197 -3.982599999999929
  endloop
endfacet
facet normal 0.3826834323650979 0.9238795325112835 -0.0
  outer loop
    vertex 41.21175237403192 38.65629602229498 -0.9999999999999869
    vertex 41.87499999999998 38.38156986040725 -3.982599999999929
    vertex 41.21175237403192 38.65629602229498 -3.982599999999929
  endloop
endfacet
facet normal 0.3826834323650979 0.9238795325112835 -0.0
  outer loop
    vertex 41.87499999999998 38.38156986040725 -3.982599999999929
    vertex 41.21175237403192 38.65629602229498 -0.9999999999999869
    vertex 41.87499999999998 38.38156986040725 -0.9999999999999869
  endloop
endfacet
facet normal -0.7933533402912336 0.6087614290087227 0.0
  outer loop
    vertex 38.555456351737 37.94454364826304 -0.9999999999999869
    vertex 38.118430139592796 37.375000000000036 -3.982599999999929
    vertex 38.118430139592796 37.375000000000036 -0.9999999999999869
  endloop
endfacet
facet normal -0.7933533402912336 0.6087614290087227 0.0
  outer loop
    vertex 38.118430139592796 37.375000000000036 -3.982599999999929
    vertex 38.555456351737 37.94454364826304 -0.9999999999999869
    vertex 38.555456351737 37.94454364826304 -3.982599999999929
  endloop
endfacet
facet normal -0.6087614290087178 0.7933533402912376 -0.0
  outer loop
    vertex 38.555456351737 37.94454364826304 -0.9999999999999869
    vertex 39.12500000000001 38.38156986040725 -3.982599999999929
    vertex 38.555456351737 37.94454364826304 -3.982599999999929
  endloop
endfacet
facet normal -0.6087614290087178 0.7933533402912376 -0.0
  outer loop
    vertex 39.12500000000001 38.38156986040725 -3.982599999999929
    vertex 38.555456351737 37.94454364826304 -0.9999999999999869
    vertex 39.12500000000001 38.38156986040725 -0.9999999999999869
  endloop
endfacet
facet normal 0.608761429008715 0.7933533402912395 -0.0
  outer loop
    vertex 41.87499999999998 38.38156986040725 -0.9999999999999869
    vertex 42.444543648263 37.94454364826304 -3.982599999999929
    vertex 41.87499999999998 38.38156986040725 -3.982599999999929
  endloop
endfacet
facet normal 0.608761429008715 0.7933533402912395 -0.0
  outer loop
    vertex 42.444543648263 37.94454364826304 -3.982599999999929
    vertex 41.87499999999998 38.38156986040725 -0.9999999999999869
    vertex 42.444543648263 37.94454364826304 -0.9999999999999869
  endloop
endfacet
facet normal -0.13052619222004933 0.9914448613738107 -0.0
  outer loop
    vertex 39.78824762596806 38.65629602229498 -0.9999999999999869
    vertex 40.5 38.75000000000004 -3.982599999999929
    vertex 39.78824762596806 38.65629602229498 -3.982599999999929
  endloop
endfacet
facet normal -0.13052619222004933 0.9914448613738107 -0.0
  outer loop
    vertex 40.5 38.75000000000004 -3.982599999999929
    vertex 39.78824762596806 38.65629602229498 -0.9999999999999869
    vertex 40.5 38.75000000000004 -0.9999999999999869
  endloop
endfacet
facet normal -0.9238795325112873 0.3826834323650885 0.0
  outer loop
    vertex 38.118430139592796 37.375000000000036 -0.9999999999999869
    vertex 37.84370397770507 36.71175237403197 -3.982599999999929
    vertex 37.84370397770507 36.71175237403197 -0.9999999999999869
  endloop
endfacet
facet normal -0.9238795325112873 0.3826834323650885 0.0
  outer loop
    vertex 37.84370397770507 36.71175237403197 -3.982599999999929
    vertex 38.118430139592796 37.375000000000036 -0.9999999999999869
    vertex 38.118430139592796 37.375000000000036 -3.982599999999929
  endloop
endfacet
facet normal 0.9238795325112817 0.38268343236510194 -0.0
  outer loop
    vertex 42.88156986040719 37.375000000000036 -3.982599999999929
    vertex 43.15629602229493 36.71175237403197 -0.9999999999999869
    vertex 43.15629602229493 36.71175237403197 -3.982599999999929
  endloop
endfacet
facet normal 0.9238795325112817 0.38268343236510194 -0.0
  outer loop
    vertex 43.15629602229493 36.71175237403197 -0.9999999999999869
    vertex 42.88156986040719 37.375000000000036 -3.982599999999929
    vertex 42.88156986040719 37.375000000000036 -0.9999999999999869
  endloop
endfacet
facet normal 0.1305261922200524 0.9914448613738105 -0.0
  outer loop
    vertex 40.5 38.75000000000004 -0.9999999999999869
    vertex 41.21175237403192 38.65629602229498 -3.982599999999929
    vertex 40.5 38.75000000000004 -3.982599999999929
  endloop
endfacet
facet normal 0.1305261922200524 0.9914448613738105 -0.0
  outer loop
    vertex 41.21175237403192 38.65629602229498 -3.982599999999929
    vertex 40.5 38.75000000000004 -0.9999999999999869
    vertex 41.21175237403192 38.65629602229498 -0.9999999999999869
  endloop
endfacet
facet normal -0.38268343236510083 0.9238795325112824 -0.0
  outer loop
    vertex 39.12500000000001 38.38156986040725 -0.9999999999999869
    vertex 39.78824762596806 38.65629602229498 -3.982599999999929
    vertex 39.12500000000001 38.38156986040725 -3.982599999999929
  endloop
endfacet
facet normal -0.38268343236510083 0.9238795325112824 -0.0
  outer loop
    vertex 39.78824762596806 38.65629602229498 -3.982599999999929
    vertex 39.12500000000001 38.38156986040725 -0.9999999999999869
    vertex 39.78824762596806 38.65629602229498 -0.9999999999999869
  endloop
endfacet
facet normal 0.7933533402912383 0.6087614290087167 -0.0
  outer loop
    vertex 42.444543648263 37.94454364826304 -3.982599999999929
    vertex 42.88156986040719 37.375000000000036 -0.9999999999999869
    vertex 42.88156986040719 37.375000000000036 -3.982599999999929
  endloop
endfacet
facet normal 0.7933533402912383 0.6087614290087167 -0.0
  outer loop
    vertex 42.88156986040719 37.375000000000036 -0.9999999999999869
    vertex 42.444543648263 37.94454364826304 -3.982599999999929
    vertex 42.444543648263 37.94454364826304 -0.9999999999999869
  endloop
endfacet
facet normal 0.7040625922196342 0.09269159872356668 -0.7040625922196396
  outer loop
    vertex 43.15629602229493 36.71175237403197 -3.982599999999929
    vertex 42.249999999999986 36.000000000000036 -4.982599999999927
    vertex 42.19037019600586 36.45293332892945 -4.982599999999927
  endloop
endfacet
facet normal 0.7040625922196342 0.09269159872356668 -0.7040625922196396
  outer loop
    vertex 42.249999999999986 36.000000000000036 -4.982599999999927
    vertex 43.15629602229493 36.71175237403197 -3.982599999999929
    vertex 43.24999999999999 36.000000000000036 -3.982599999999929
  endloop
endfacet
facet normal 0.7040625922196341 -0.0926915987235672 -0.7040625922196395
  outer loop
    vertex 42.249999999999986 36.000000000000036 -4.982599999999927
    vertex 43.15629602229493 35.288247625968104 -3.982599999999929
    vertex 42.19037019600586 35.547066671070624 -4.982599999999927
  endloop
endfacet
facet normal 0.7040625922196341 -0.0926915987235672 -0.7040625922196395
  outer loop
    vertex 43.15629602229493 35.288247625968104 -3.982599999999929
    vertex 42.249999999999986 36.000000000000036 -4.982599999999927
    vertex 43.24999999999999 36.000000000000036 -3.982599999999929
  endloop
endfacet
facet normal 0.6560818900783084 -0.2717580168978229 -0.7040625922196386
  outer loop
    vertex 42.19037019600586 35.547066671070624 -4.982599999999927
    vertex 42.88156986040719 34.625000000000036 -3.982599999999929
    vertex 42.01554445662275 35.125000000000036 -4.982599999999927
  endloop
endfacet
facet normal 0.6560818900783084 -0.2717580168978229 -0.7040625922196386
  outer loop
    vertex 42.88156986040719 34.625000000000036 -3.982599999999929
    vertex 42.19037019600586 35.547066671070624 -4.982599999999927
    vertex 43.15629602229493 35.288247625968104 -3.982599999999929
  endloop
endfacet
facet normal 0.5633902913547476 -0.4323045753218162 -0.7040625922196385
  outer loop
    vertex 42.01554445662275 35.125000000000036 -4.982599999999927
    vertex 42.444543648263 34.05545635173703 -3.982599999999929
    vertex 41.73743686707645 34.76256313292358 -4.982599999999927
  endloop
endfacet
facet normal 0.5633902913547476 -0.4323045753218162 -0.7040625922196385
  outer loop
    vertex 42.444543648263 34.05545635173703 -3.982599999999929
    vertex 42.01554445662275 35.125000000000036 -4.982599999999927
    vertex 42.88156986040719 34.625000000000036 -3.982599999999929
  endloop
endfacet
facet normal 0.43230457532181227 -0.5633902913547497 -0.7040625922196391
  outer loop
    vertex 41.73743686707645 34.76256313292358 -4.982599999999927
    vertex 41.87499999999998 33.61843013959283 -3.982599999999929
    vertex 41.37499999999997 34.48445554337728 -4.982599999999927
  endloop
endfacet
facet normal 0.43230457532181227 -0.5633902913547497 -0.7040625922196391
  outer loop
    vertex 41.87499999999998 33.61843013959283 -3.982599999999929
    vertex 41.73743686707645 34.76256313292358 -4.982599999999927
    vertex 42.444543648263 34.05545635173703 -3.982599999999929
  endloop
endfacet
facet normal 0.2717580168978065 -0.6560818900783153 -0.7040625922196386
  outer loop
    vertex 41.37499999999997 34.48445554337728 -4.982599999999927
    vertex 41.211752374031896 33.343703977705104 -3.982599999999929
    vertex 40.95293332892938 34.30962980399417 -4.982599999999927
  endloop
endfacet
facet normal 0.2717580168978065 -0.6560818900783153 -0.7040625922196386
  outer loop
    vertex 41.211752374031896 33.343703977705104 -3.982599999999929
    vertex 41.37499999999997 34.48445554337728 -4.982599999999927
    vertex 41.87499999999998 33.61843013959283 -3.982599999999929
  endloop
endfacet
facet normal 0.0926915987235708 -0.704062592219636 -0.7040625922196374
  outer loop
    vertex 40.95293332892938 34.30962980399417 -4.982599999999927
    vertex 40.5 33.25000000000005 -3.982599999999929
    vertex 40.5 34.25000000000004 -4.982599999999927
  endloop
endfacet
facet normal 0.0926915987235708 -0.704062592219636 -0.7040625922196374
  outer loop
    vertex 40.5 33.25000000000005 -3.982599999999929
    vertex 40.95293332892938 34.30962980399417 -4.982599999999927
    vertex 41.211752374031896 33.343703977705104 -3.982599999999929
  endloop
endfacet
facet normal -0.09269159872356961 -0.7040625922196367 -0.7040625922196367
  outer loop
    vertex 40.5 33.25000000000005 -3.982599999999929
    vertex 40.04706667107059 34.30962980399417 -4.982599999999927
    vertex 40.5 34.25000000000004 -4.982599999999927
  endloop
endfacet
facet normal -0.09269159872356961 -0.7040625922196367 -0.7040625922196367
  outer loop
    vertex 40.04706667107059 34.30962980399417 -4.982599999999927
    vertex 40.5 33.25000000000005 -3.982599999999929
    vertex 39.78824762596806 33.343703977705104 -3.982599999999929
  endloop
endfacet
facet normal -0.2717580168978127 -0.6560818900783134 -0.7040625922196379
  outer loop
    vertex 39.62500000000001 34.48445554337728 -4.982599999999927
    vertex 39.78824762596806 33.343703977705104 -3.982599999999929
    vertex 39.12499999999999 33.61843013959284 -3.982599999999929
  endloop
endfacet
facet normal -0.2717580168978127 -0.6560818900783134 -0.7040625922196379
  outer loop
    vertex 39.78824762596806 33.343703977705104 -3.982599999999929
    vertex 39.62500000000001 34.48445554337728 -4.982599999999927
    vertex 40.04706667107059 34.30962980399417 -4.982599999999927
  endloop
endfacet
facet normal -0.4323045753218232 -0.5633902913547416 -0.704062592219639
  outer loop
    vertex 39.26256313292354 34.76256313292359 -4.982599999999927
    vertex 39.12499999999999 33.61843013959284 -3.982599999999929
    vertex 38.555456351736986 34.05545635173704 -3.982599999999929
  endloop
endfacet
facet normal -0.4323045753218232 -0.5633902913547416 -0.704062592219639
  outer loop
    vertex 39.12499999999999 33.61843013959284 -3.982599999999929
    vertex 39.26256313292354 34.76256313292359 -4.982599999999927
    vertex 39.62500000000001 34.48445554337728 -4.982599999999927
  endloop
endfacet
facet normal -0.5633902913547445 -0.4323045753218218 -0.7040625922196374
  outer loop
    vertex 38.98445554337723 35.12500000000005 -4.982599999999927
    vertex 38.555456351736986 34.05545635173704 -3.982599999999929
    vertex 38.118430139592796 34.62500000000004 -3.982599999999929
  endloop
endfacet
facet normal -0.5633902913547445 -0.4323045753218218 -0.7040625922196374
  outer loop
    vertex 38.555456351736986 34.05545635173704 -3.982599999999929
    vertex 38.98445554337723 35.12500000000005 -4.982599999999927
    vertex 39.26256313292354 34.76256313292359 -4.982599999999927
  endloop
endfacet
facet normal -0.656081890078315 -0.27175801689781404 -0.704062592219636
  outer loop
    vertex 38.80962980399413 35.54706667107064 -4.982599999999927
    vertex 38.118430139592796 34.62500000000004 -3.982599999999929
    vertex 37.84370397770507 35.288247625968104 -3.982599999999929
  endloop
endfacet
facet normal -0.656081890078315 -0.27175801689781404 -0.704062592219636
  outer loop
    vertex 38.118430139592796 34.62500000000004 -3.982599999999929
    vertex 38.80962980399413 35.54706667107064 -4.982599999999927
    vertex 38.98445554337723 35.12500000000005 -4.982599999999927
  endloop
endfacet
facet normal -0.7040625922196377 -0.09269159872356725 -0.704062592219636
  outer loop
    vertex 37.75000000000001 36.00000000000004 -3.982599999999929
    vertex 38.80962980399413 35.54706667107064 -4.982599999999927
    vertex 37.84370397770507 35.288247625968104 -3.982599999999929
  endloop
endfacet
facet normal -0.7040625922196377 -0.09269159872356725 -0.704062592219636
  outer loop
    vertex 38.80962980399413 35.54706667107064 -4.982599999999927
    vertex 37.75000000000001 36.00000000000004 -3.982599999999929
    vertex 38.75 36.00000000000005 -4.982599999999927
  endloop
endfacet
facet normal -0.7040625922196382 0.09269159872356812 -0.7040625922196353
  outer loop
    vertex 37.84370397770507 36.71175237403197 -3.982599999999929
    vertex 38.75 36.00000000000005 -4.982599999999927
    vertex 37.75000000000001 36.00000000000004 -3.982599999999929
  endloop
endfacet
facet normal -0.7040625922196382 0.09269159872356812 -0.7040625922196353
  outer loop
    vertex 38.75 36.00000000000005 -4.982599999999927
    vertex 37.84370397770507 36.71175237403197 -3.982599999999929
    vertex 38.80962980399413 36.452933328929454 -4.982599999999927
  endloop
endfacet
facet normal -0.6560818900783164 0.2717580168978132 -0.704062592219635
  outer loop
    vertex 38.118430139592796 37.375000000000036 -3.982599999999929
    vertex 38.80962980399413 36.452933328929454 -4.982599999999927
    vertex 37.84370397770507 36.71175237403197 -3.982599999999929
  endloop
endfacet
facet normal -0.6560818900783164 0.2717580168978132 -0.704062592219635
  outer loop
    vertex 38.80962980399413 36.452933328929454 -4.982599999999927
    vertex 38.118430139592796 37.375000000000036 -3.982599999999929
    vertex 38.98445554337723 36.87500000000004 -4.982599999999927
  endloop
endfacet
facet normal -0.5633902913547454 0.4323045753218255 -0.7040625922196346
  outer loop
    vertex 38.555456351737 37.94454364826304 -3.982599999999929
    vertex 38.98445554337723 36.87500000000004 -4.982599999999927
    vertex 38.118430139592796 37.375000000000036 -3.982599999999929
  endloop
endfacet
facet normal -0.5633902913547454 0.4323045753218255 -0.7040625922196346
  outer loop
    vertex 38.98445554337723 36.87500000000004 -4.982599999999927
    vertex 38.555456351737 37.94454364826304 -3.982599999999929
    vertex 39.26256313292354 37.237436867076504 -4.982599999999927
  endloop
endfacet
facet normal -0.4323045753218194 0.5633902913547486 -0.7040625922196356
  outer loop
    vertex 39.12500000000001 38.38156986040725 -3.982599999999929
    vertex 39.26256313292354 37.237436867076504 -4.982599999999927
    vertex 38.555456351737 37.94454364826304 -3.982599999999929
  endloop
endfacet
facet normal -0.4323045753218194 0.5633902913547486 -0.7040625922196356
  outer loop
    vertex 39.26256313292354 37.237436867076504 -4.982599999999927
    vertex 39.12500000000001 38.38156986040725 -3.982599999999929
    vertex 39.62500000000001 37.515544456622806 -4.982599999999927
  endloop
endfacet
facet normal -0.2717580168978191 0.6560818900783106 -0.704062592219638
  outer loop
    vertex 39.78824762596806 38.65629602229498 -3.982599999999929
    vertex 39.62500000000001 37.515544456622806 -4.982599999999927
    vertex 39.12500000000001 38.38156986040725 -3.982599999999929
  endloop
endfacet
facet normal -0.2717580168978191 0.6560818900783106 -0.704062592219638
  outer loop
    vertex 39.62500000000001 37.515544456622806 -4.982599999999927
    vertex 39.78824762596806 38.65629602229498 -3.982599999999929
    vertex 40.04706667107059 37.69037019600591 -4.982599999999927
  endloop
endfacet
facet normal -0.09269159872356927 0.704062592219635 -0.7040625922196386
  outer loop
    vertex 40.5 38.75000000000004 -3.982599999999929
    vertex 40.04706667107059 37.69037019600591 -4.982599999999927
    vertex 39.78824762596806 38.65629602229498 -3.982599999999929
  endloop
endfacet
facet normal -0.09269159872356927 0.704062592219635 -0.7040625922196386
  outer loop
    vertex 40.04706667107059 37.69037019600591 -4.982599999999927
    vertex 40.5 38.75000000000004 -3.982599999999929
    vertex 40.5 37.750000000000036 -4.982599999999927
  endloop
endfacet
facet normal 0.09269159872357255 0.7040625922196341 -0.704062592219639
  outer loop
    vertex 41.21175237403192 38.65629602229498 -3.982599999999929
    vertex 40.5 37.750000000000036 -4.982599999999927
    vertex 40.5 38.75000000000004 -3.982599999999929
  endloop
endfacet
facet normal 0.09269159872357255 0.7040625922196341 -0.704062592219639
  outer loop
    vertex 40.5 37.750000000000036 -4.982599999999927
    vertex 41.21175237403192 38.65629602229498 -3.982599999999929
    vertex 40.95293332892938 37.69037019600591 -4.982599999999927
  endloop
endfacet
facet normal 0.2717580168978153 0.656081890078311 -0.7040625922196392
  outer loop
    vertex 41.21175237403192 38.65629602229498 -3.982599999999929
    vertex 41.37499999999997 37.515544456622806 -4.982599999999927
    vertex 40.95293332892938 37.69037019600591 -4.982599999999927
  endloop
endfacet
facet normal 0.2717580168978153 0.656081890078311 -0.7040625922196392
  outer loop
    vertex 41.37499999999997 37.515544456622806 -4.982599999999927
    vertex 41.21175237403192 38.65629602229498 -3.982599999999929
    vertex 41.87499999999998 38.38156986040725 -3.982599999999929
  endloop
endfacet
facet normal 0.43230457532181743 0.5633902913547479 -0.7040625922196374
  outer loop
    vertex 41.87499999999998 38.38156986040725 -3.982599999999929
    vertex 41.73743686707645 37.2374368670765 -4.982599999999927
    vertex 41.37499999999997 37.515544456622806 -4.982599999999927
  endloop
endfacet
facet normal 0.43230457532181743 0.5633902913547479 -0.7040625922196374
  outer loop
    vertex 41.73743686707645 37.2374368670765 -4.982599999999927
    vertex 41.87499999999998 38.38156986040725 -3.982599999999929
    vertex 42.444543648263 37.94454364826304 -3.982599999999929
  endloop
endfacet
facet normal 0.563390291354747 0.43230457532181676 -0.7040625922196384
  outer loop
    vertex 42.444543648263 37.94454364826304 -3.982599999999929
    vertex 42.01554445662275 36.875000000000036 -4.982599999999927
    vertex 41.73743686707645 37.2374368670765 -4.982599999999927
  endloop
endfacet
facet normal 0.563390291354747 0.43230457532181676 -0.7040625922196384
  outer loop
    vertex 42.01554445662275 36.875000000000036 -4.982599999999927
    vertex 42.444543648263 37.94454364826304 -3.982599999999929
    vertex 42.88156986040719 37.375000000000036 -3.982599999999929
  endloop
endfacet
facet normal 0.6560818900783078 0.2717580168978224 -0.7040625922196394
  outer loop
    vertex 42.88156986040719 37.375000000000036 -3.982599999999929
    vertex 42.19037019600586 36.45293332892945 -4.982599999999927
    vertex 42.01554445662275 36.875000000000036 -4.982599999999927
  endloop
endfacet
facet normal 0.6560818900783078 0.2717580168978224 -0.7040625922196394
  outer loop
    vertex 42.19037019600586 36.45293332892945 -4.982599999999927
    vertex 42.88156986040719 37.375000000000036 -3.982599999999929
    vertex 43.15629602229493 36.71175237403197 -3.982599999999929
  endloop
endfacet
facet normal 0.9914448613738107 0.1305261922200493 -0.0
  outer loop
    vertex 43.15629602229493 36.71175237403197 -3.982599999999929
    vertex 43.24999999999999 36.000000000000036 -0.9999999999999869
    vertex 43.24999999999999 36.000000000000036 -3.982599999999929
  endloop
endfacet
facet normal 0.9914448613738107 0.1305261922200493 -0.0
  outer loop
    vertex 43.24999999999999 36.000000000000036 -0.9999999999999869
    vertex 43.15629602229493 36.71175237403197 -3.982599999999929
    vertex 43.15629602229493 36.71175237403197 -0.9999999999999869
  endloop
endfacet
facet normal 0.7933533402912413 -0.6087614290087128 -0.0
  outer loop
    vertex 42.88156986040719 34.625000000000036 -3.982599999999929
    vertex 42.444543648263 34.05545635173703 -0.9999999999999869
    vertex 42.444543648263 34.05545635173703 -3.982599999999929
  endloop
endfacet
facet normal 0.7933533402912413 -0.6087614290087128 -0.0
  outer loop
    vertex 42.444543648263 34.05545635173703 -0.9999999999999869
    vertex 42.88156986040719 34.625000000000036 -3.982599999999929
    vertex 42.88156986040719 34.625000000000036 -0.9999999999999869
  endloop
endfacet
facet normal -0.3826834323650885 -0.9238795325112873 0.0
  outer loop
    vertex 39.78824762596806 33.343703977705104 -0.9999999999999869
    vertex 39.12499999999999 33.61843013959284 -3.982599999999929
    vertex 39.78824762596806 33.343703977705104 -3.982599999999929
  endloop
endfacet
facet normal -0.3826834323650885 -0.9238795325112873 0.0
  outer loop
    vertex 39.12499999999999 33.61843013959284 -3.982599999999929
    vertex 39.78824762596806 33.343703977705104 -0.9999999999999869
    vertex 39.12499999999999 33.61843013959284 -0.9999999999999869
  endloop
endfacet
facet normal -0.9238795325112862 -0.3826834323650912 0.0
  outer loop
    vertex 37.84370397770507 35.288247625968104 -0.9999999999999869
    vertex 38.118430139592796 34.62500000000004 -3.982599999999929
    vertex 38.118430139592796 34.62500000000004 -0.9999999999999869
  endloop
endfacet
facet normal -0.9238795325112862 -0.3826834323650912 0.0
  outer loop
    vertex 38.118430139592796 34.62500000000004 -3.982599999999929
    vertex 37.84370397770507 35.288247625968104 -0.9999999999999869
    vertex 37.84370397770507 35.288247625968104 -3.982599999999929
  endloop
endfacet
facet normal 0.9238795325112817 -0.38268343236510194 -0.0
  outer loop
    vertex 43.15629602229493 35.288247625968104 -3.982599999999929
    vertex 42.88156986040719 34.625000000000036 -0.9999999999999869
    vertex 42.88156986040719 34.625000000000036 -3.982599999999929
  endloop
endfacet
facet normal 0.9238795325112817 -0.38268343236510194 -0.0
  outer loop
    vertex 42.88156986040719 34.625000000000036 -0.9999999999999869
    vertex 43.15629602229493 35.288247625968104 -3.982599999999929
    vertex 43.15629602229493 35.288247625968104 -0.9999999999999869
  endloop
endfacet
facet normal 0.6087614290087101 -0.7933533402912435 0.0
  outer loop
    vertex 42.444543648263 34.05545635173703 -0.9999999999999869
    vertex 41.87499999999998 33.61843013959283 -3.982599999999929
    vertex 42.444543648263 34.05545635173703 -3.982599999999929
  endloop
endfacet
facet normal 0.6087614290087101 -0.7933533402912435 0.0
  outer loop
    vertex 41.87499999999998 33.61843013959283 -3.982599999999929
    vertex 42.444543648263 34.05545635173703 -0.9999999999999869
    vertex 41.87499999999998 33.61843013959283 -0.9999999999999869
  endloop
endfacet
facet normal 0.38268343236508007 -0.9238795325112907 0.0
  outer loop
    vertex 41.87499999999998 33.61843013959283 -0.9999999999999869
    vertex 41.211752374031896 33.343703977705104 -3.982599999999929
    vertex 41.87499999999998 33.61843013959283 -3.982599999999929
  endloop
endfacet
facet normal 0.38268343236508007 -0.9238795325112907 0.0
  outer loop
    vertex 41.211752374031896 33.343703977705104 -3.982599999999929
    vertex 41.87499999999998 33.61843013959283 -0.9999999999999869
    vertex 41.211752374031896 33.343703977705104 -0.9999999999999869
  endloop
endfacet
facet normal 0.13052619222004874 -0.9914448613738109 0.0
  outer loop
    vertex 41.211752374031896 33.343703977705104 -0.9999999999999869
    vertex 40.5 33.25000000000005 -3.982599999999929
    vertex 41.211752374031896 33.343703977705104 -3.982599999999929
  endloop
endfacet
facet normal 0.13052619222004874 -0.9914448613738109 0.0
  outer loop
    vertex 40.5 33.25000000000005 -3.982599999999929
    vertex 41.211752374031896 33.343703977705104 -0.9999999999999869
    vertex 40.5 33.25000000000005 -0.9999999999999869
  endloop
endfacet
facet normal -0.6087614290087227 -0.7933533402912336 0.0
  outer loop
    vertex 39.12499999999999 33.61843013959284 -0.9999999999999869
    vertex 38.555456351736986 34.05545635173704 -3.982599999999929
    vertex 39.12499999999999 33.61843013959284 -3.982599999999929
  endloop
endfacet
facet normal -0.6087614290087227 -0.7933533402912336 0.0
  outer loop
    vertex 38.555456351736986 34.05545635173704 -3.982599999999929
    vertex 39.12499999999999 33.61843013959284 -0.9999999999999869
    vertex 38.555456351736986 34.05545635173704 -0.9999999999999869
  endloop
endfacet
facet normal -0.9914448613738107 -0.13052619222004933 0.0
  outer loop
    vertex 37.75000000000001 36.00000000000004 -0.9999999999999869
    vertex 37.84370397770507 35.288247625968104 -3.982599999999929
    vertex 37.84370397770507 35.288247625968104 -0.9999999999999869
  endloop
endfacet
facet normal -0.9914448613738107 -0.13052619222004933 0.0
  outer loop
    vertex 37.84370397770507 35.288247625968104 -3.982599999999929
    vertex 37.75000000000001 36.00000000000004 -0.9999999999999869
    vertex 37.75000000000001 36.00000000000004 -3.982599999999929
  endloop
endfacet
facet normal -0.13052619222004933 -0.9914448613738107 0.0
  outer loop
    vertex 40.5 33.25000000000005 -0.9999999999999869
    vertex 39.78824762596806 33.343703977705104 -3.982599999999929
    vertex 40.5 33.25000000000005 -3.982599999999929
  endloop
endfacet
facet normal -0.13052619222004933 -0.9914448613738107 0.0
  outer loop
    vertex 39.78824762596806 33.343703977705104 -3.982599999999929
    vertex 40.5 33.25000000000005 -0.9999999999999869
    vertex 39.78824762596806 33.343703977705104 -0.9999999999999869
  endloop
endfacet
facet normal -0.7933533402912383 -0.6087614290087167 0.0
  outer loop
    vertex 38.118430139592796 34.62500000000004 -0.9999999999999869
    vertex 38.555456351736986 34.05545635173704 -3.982599999999929
    vertex 38.555456351736986 34.05545635173704 -0.9999999999999869
  endloop
endfacet
facet normal -0.7933533402912383 -0.6087614290087167 0.0
  outer loop
    vertex 38.555456351736986 34.05545635173704 -3.982599999999929
    vertex 38.118430139592796 34.62500000000004 -0.9999999999999869
    vertex 38.118430139592796 34.62500000000004 -3.982599999999929
  endloop
endfacet
facet normal 0.9914448613738107 -0.13052619222005035 -0.0
  outer loop
    vertex 43.24999999999999 36.000000000000036 -3.982599999999929
    vertex 43.15629602229493 35.288247625968104 -0.9999999999999869
    vertex 43.15629602229493 35.288247625968104 -3.982599999999929
  endloop
endfacet
facet normal 0.9914448613738107 -0.13052619222005035 -0.0
  outer loop
    vertex 43.15629602229493 35.288247625968104 -0.9999999999999869
    vertex 43.24999999999999 36.000000000000036 -3.982599999999929
    vertex 43.24999999999999 36.000000000000036 -0.9999999999999869
  endloop
endfacet
facet normal 0.0 0.0 1.0
  outer loop
    vertex 37.84370397770506 35.28824762596811 -0.5000000000000112
    vertex 37.84370397770506 36.71175237403197 -0.5000000000000112
    vertex 37.75 36.00000000000004 -0.5000000000000112
  endloop
endfacet
facet normal 0.0 0.0 1.0
  outer loop
    vertex 37.84370397770506 36.71175237403197 -0.5000000000000112
    vertex 37.84370397770506 35.28824762596811 -0.5000000000000112
    vertex 38.11843013959279 34.62500000000004 -0.5000000000000112
  endloop
endfacet
facet normal 0.0 0.0 1.0
  outer loop
    vertex 37.84370397770506 36.71175237403197 -0.5000000000000112
    vertex 38.11843013959279 34.62500000000004 -0.5000000000000112
    vertex 38.11843013959279 37.375000000000036 -0.5000000000000112
  endloop
endfacet
facet normal 0.0 0.0 1.0
  outer loop
    vertex 38.11843013959279 37.375000000000036 -0.5000000000000112
    vertex 38.11843013959279 34.62500000000004 -0.5000000000000112
    vertex 38.555456351736986 34.055456351737035 -0.5000000000000112
  endloop
endfacet
facet normal 0.0 0.0 1.0
  outer loop
    vertex 38.11843013959279 37.375000000000036 -0.5000000000000112
    vertex 38.555456351736986 34.055456351737035 -0.5000000000000112
    vertex 38.55545635173699 37.94454364826304 -0.5000000000000112
  endloop
endfacet
facet normal 0.0 0.0 1.0
  outer loop
    vertex 38.55545635173699 37.94454364826304 -0.5000000000000112
    vertex 38.555456351736986 34.055456351737035 -0.5000000000000112
    vertex 39.12499999999999 33.61843013959284 -0.5000000000000112
  endloop
endfacet
facet normal 0.0 0.0 1.0
  outer loop
    vertex 38.55545635173699 37.94454364826304 -0.5000000000000112
    vertex 39.12499999999999 33.61843013959284 -0.5000000000000112
    vertex 39.12499999999999 38.38156986040725 -0.5000000000000112
  endloop
endfacet
facet normal 0.0 0.0 1.0
  outer loop
    vertex 39.12499999999999 38.38156986040725 -0.5000000000000112
    vertex 39.12499999999999 33.61843013959284 -0.5000000000000112
    vertex 39.78824762596806 33.343703977705104 -0.5000000000000112
  endloop
endfacet
facet normal 0.0 0.0 1.0
  outer loop
    vertex 39.12499999999999 38.38156986040725 -0.5000000000000112
    vertex 39.78824762596806 33.343703977705104 -0.5000000000000112
    vertex 39.78824762596806 38.65629602229498 -0.5000000000000112
  endloop
endfacet
facet normal 0.0 0.0 1.0
  outer loop
    vertex 39.78824762596806 38.65629602229498 -0.5000000000000112
    vertex 39.78824762596806 33.343703977705104 -0.5000000000000112
    vertex 40.5 33.25000000000004 -0.5000000000000112
  endloop
endfacet
facet normal 0.0 0.0 1.0
  outer loop
    vertex 39.78824762596806 38.65629602229498 -0.5000000000000112
    vertex 40.5 33.25000000000004 -0.5000000000000112
    vertex 40.5 38.75000000000004 -0.5000000000000112
  endloop
endfacet
facet normal 0.0 0.0 1.0
  outer loop
    vertex 40.5 38.75000000000004 -0.5000000000000112
    vertex 40.5 33.25000000000004 -0.5000000000000112
    vertex 41.21175237403193 33.343703977705104 -0.5000000000000112
  endloop
endfacet
facet normal 0.0 0.0 1.0
  outer loop
    vertex 40.5 38.75000000000004 -0.5000000000000112
    vertex 41.21175237403193 33.343703977705104 -0.5000000000000112
    vertex 41.21175237403193 38.65629602229498 -0.5000000000000112
  endloop
endfacet
facet normal 0.0 0.0 1.0
  outer loop
    vertex 41.21175237403193 38.65629602229498 -0.5000000000000112
    vertex 41.21175237403193 33.343703977705104 -0.5000000000000112
    vertex 41.875 38.381569860407254 -0.5000000000000112
  endloop
endfacet
facet normal 0.0 0.0 1.0
  outer loop
    vertex 41.875 38.381569860407254 -0.5000000000000112
    vertex 41.21175237403193 33.343703977705104 -0.5000000000000112
    vertex 41.875 33.61843013959283 -0.5000000000000112
  endloop
endfacet
facet normal 0.0 0.0 1.0
  outer loop
    vertex 41.875 38.381569860407254 -0.5000000000000112
    vertex 41.875 33.61843013959283 -0.5000000000000112
    vertex 42.44454364826301 34.055456351737035 -0.5000000000000112
  endloop
endfacet
facet normal 0.0 0.0 1.0
  outer loop
    vertex 41.875 38.381569860407254 -0.5000000000000112
    vertex 42.44454364826301 34.055456351737035 -0.5000000000000112
    vertex 42.44454364826301 37.94454364826304 -0.5000000000000112
  endloop
endfacet
facet normal 0.0 0.0 1.0
  outer loop
    vertex 42.44454364826301 37.94454364826304 -0.5000000000000112
    vertex 42.44454364826301 34.055456351737035 -0.5000000000000112
    vertex 42.88156986040721 34.625000000000036 -0.5000000000000112
  endloop
endfacet
facet normal 0.0 0.0 1.0
  outer loop
    vertex 42.44454364826301 37.94454364826304 -0.5000000000000112
    vertex 42.88156986040721 34.625000000000036 -0.5000000000000112
    vertex 42.88156986040721 37.375000000000036 -0.5000000000000112
  endloop
endfacet
facet normal 0.0 0.0 1.0
  outer loop
    vertex 42.88156986040721 37.375000000000036 -0.5000000000000112
    vertex 42.88156986040721 34.625000000000036 -0.5000000000000112
    vertex 43.15629602229494 35.288247625968104 -0.5000000000000112
  endloop
endfacet
facet normal 0.0 0.0 1.0
  outer loop
    vertex 42.88156986040721 37.375000000000036 -0.5000000000000112
    vertex 43.15629602229494 35.288247625968104 -0.5000000000000112
    vertex 43.15629602229494 36.71175237403197 -0.5000000000000112
  endloop
endfacet
facet normal 0.0 0.0 1.0
  outer loop
    vertex 43.15629602229494 36.71175237403197 -0.5000000000000112
    vertex 43.15629602229494 35.288247625968104 -0.5000000000000112
    vertex 43.25 36.00000000000004 -0.5000000000000112
  endloop
endfacet
facet normal -0.7933533402912336 -0.6087614290087227 -0.0
  outer loop
    vertex 42.44454364826301 37.94454364826304 -1.127986593019159e-14
    vertex 42.88156986040721 37.375000000000036 -0.5000000000000112
    vertex 42.88156986040721 37.375000000000036 -1.127986593019159e-14
  endloop
endfacet
facet normal -0.7933533402912336 -0.6087614290087227 -0.0
  outer loop
    vertex 42.88156986040721 37.375000000000036 -0.5000000000000112
    vertex 42.44454364826301 37.94454364826304 -1.127986593019159e-14
    vertex 42.44454364826301 37.94454364826304 -0.5000000000000112
  endloop
endfacet
facet normal -0.6087614290087227 -0.7933533402912336 -0.0
  outer loop
    vertex 42.44454364826301 37.94454364826304 -1.127986593019159e-14
    vertex 41.875 38.381569860407254 -0.5000000000000112
    vertex 42.44454364826301 37.94454364826304 -0.5000000000000112
  endloop
endfacet
facet normal -0.6087614290087227 -0.7933533402912336 -0.0
  outer loop
    vertex 41.875 38.381569860407254 -0.5000000000000112
    vertex 42.44454364826301 37.94454364826304 -1.127986593019159e-14
    vertex 41.875 38.381569860407254 -1.127986593019159e-14
  endloop
endfacet
facet normal -0.38268343236508845 -0.9238795325112873 -0.0
  outer loop
    vertex 41.875 38.381569860407254 -1.127986593019159e-14
    vertex 41.21175237403193 38.65629602229498 -0.5000000000000112
    vertex 41.875 38.381569860407254 -0.5000000000000112
  endloop
endfacet
facet normal -0.38268343236508845 -0.9238795325112873 -0.0
  outer loop
    vertex 41.21175237403193 38.65629602229498 -0.5000000000000112
    vertex 41.875 38.381569860407254 -1.127986593019159e-14
    vertex 41.21175237403193 38.65629602229498 -1.127986593019159e-14
  endloop
endfacet
facet normal -0.13052619222005035 -0.9914448613738107 -0.0
  outer loop
    vertex 41.21175237403193 38.65629602229498 -1.127986593019159e-14
    vertex 40.5 38.75000000000004 -0.5000000000000112
    vertex 41.21175237403193 38.65629602229498 -0.5000000000000112
  endloop
endfacet
facet normal -0.13052619222005035 -0.9914448613738107 -0.0
  outer loop
    vertex 40.5 38.75000000000004 -0.5000000000000112
    vertex 41.21175237403193 38.65629602229498 -1.127986593019159e-14
    vertex 40.5 38.75000000000004 -1.127986593019159e-14
  endloop
endfacet
facet normal 0.13052619222004933 -0.9914448613738107 -0.0
  outer loop
    vertex 40.5 38.75000000000004 -1.127986593019159e-14
    vertex 39.78824762596806 38.65629602229498 -0.5000000000000112
    vertex 40.5 38.75000000000004 -0.5000000000000112
  endloop
endfacet
facet normal 0.13052619222004933 -0.9914448613738107 -0.0
  outer loop
    vertex 39.78824762596806 38.65629602229498 -0.5000000000000112
    vertex 40.5 38.75000000000004 -1.127986593019159e-14
    vertex 39.78824762596806 38.65629602229498 -1.127986593019159e-14
  endloop
endfacet
facet normal 0.38268343236509517 -0.9238795325112845 -0.0
  outer loop
    vertex 39.78824762596806 38.65629602229498 -1.127986593019159e-14
    vertex 39.12499999999999 38.38156986040725 -0.5000000000000112
    vertex 39.78824762596806 38.65629602229498 -0.5000000000000112
  endloop
endfacet
facet normal 0.38268343236509517 -0.9238795325112845 -0.0
  outer loop
    vertex 39.12499999999999 38.38156986040725 -0.5000000000000112
    vertex 39.78824762596806 38.65629602229498 -1.127986593019159e-14
    vertex 39.12499999999999 38.38156986040725 -1.127986593019159e-14
  endloop
endfacet
facet normal 0.6087614290087215 -0.7933533402912345 -0.0
  outer loop
    vertex 39.12499999999999 38.38156986040725 -1.127986593019159e-14
    vertex 38.55545635173699 37.94454364826304 -0.5000000000000112
    vertex 39.12499999999999 38.38156986040725 -0.5000000000000112
  endloop
endfacet
facet normal 0.6087614290087215 -0.7933533402912345 -0.0
  outer loop
    vertex 38.55545635173699 37.94454364826304 -0.5000000000000112
    vertex 39.12499999999999 38.38156986040725 -1.127986593019159e-14
    vertex 38.55545635173699 37.94454364826304 -1.127986593019159e-14
  endloop
endfacet
facet normal 0.7933533402912336 -0.6087614290087227 -0.0
  outer loop
    vertex 38.55545635173699 37.94454364826304 -0.5000000000000112
    vertex 38.11843013959279 37.375000000000036 -1.127986593019159e-14
    vertex 38.11843013959279 37.375000000000036 -0.5000000000000112
  endloop
endfacet
facet normal 0.7933533402912336 -0.6087614290087227 -0.0
  outer loop
    vertex 38.11843013959279 37.375000000000036 -1.127986593019159e-14
    vertex 38.55545635173699 37.94454364826304 -0.5000000000000112
    vertex 38.55545635173699 37.94454364826304 -1.127986593019159e-14
  endloop
endfacet
facet normal 0.9238795325112873 -0.38268343236508845 -0.0
  outer loop
    vertex 38.11843013959279 37.375000000000036 -0.5000000000000112
    vertex 37.84370397770506 36.71175237403197 -1.127986593019159e-14
    vertex 37.84370397770506 36.71175237403197 -0.5000000000000112
  endloop
endfacet
facet normal 0.9238795325112873 -0.38268343236508845 -0.0
  outer loop
    vertex 37.84370397770506 36.71175237403197 -1.127986593019159e-14
    vertex 38.11843013959279 37.375000000000036 -0.5000000000000112
    vertex 38.11843013959279 37.375000000000036 -1.127986593019159e-14
  endloop
endfacet
facet normal 0.9914448613738107 -0.13052619222005035 -0.0
  outer loop
    vertex 37.84370397770506 36.71175237403197 -0.5000000000000112
    vertex 37.75 36.00000000000004 -1.127986593019159e-14
    vertex 37.75 36.00000000000004 -0.5000000000000112
  endloop
endfacet
facet normal 0.9914448613738107 -0.13052619222005035 -0.0
  outer loop
    vertex 37.75 36.00000000000004 -1.127986593019159e-14
    vertex 37.84370397770506 36.71175237403197 -0.5000000000000112
    vertex 37.84370397770506 36.71175237403197 -1.127986593019159e-14
  endloop
endfacet
facet normal 0.9914448613738107 0.13052619222005035 0.0
  outer loop
    vertex 37.75 36.00000000000004 -0.5000000000000112
    vertex 37.84370397770506 35.28824762596811 -1.127986593019159e-14
    vertex 37.84370397770506 35.28824762596811 -0.5000000000000112
  endloop
endfacet
facet normal 0.9914448613738107 0.13052619222005035 0.0
  outer loop
    vertex 37.84370397770506 35.28824762596811 -1.127986593019159e-14
    vertex 37.75 36.00000000000004 -0.5000000000000112
    vertex 37.75 36.00000000000004 -1.127986593019159e-14
  endloop
endfacet
facet normal 0.9238795325112873 0.38268343236508845 0.0
  outer loop
    vertex 37.84370397770506 35.28824762596811 -0.5000000000000112
    vertex 38.11843013959279 34.62500000000004 -1.127986593019159e-14
    vertex 38.11843013959279 34.62500000000004 -0.5000000000000112
  endloop
endfacet
facet normal 0.9238795325112873 0.38268343236508845 0.0
  outer loop
    vertex 38.11843013959279 34.62500000000004 -1.127986593019159e-14
    vertex 37.84370397770506 35.28824762596811 -0.5000000000000112
    vertex 37.84370397770506 35.28824762596811 -1.127986593019159e-14
  endloop
endfacet
facet normal 0.7933533402912376 0.6087614290087178 0.0
  outer loop
    vertex 38.11843013959279 34.62500000000004 -0.5000000000000112
    vertex 38.555456351736986 34.055456351737035 -1.127986593019159e-14
    vertex 38.555456351736986 34.055456351737035 -0.5000000000000112
  endloop
endfacet
facet normal 0.7933533402912376 0.6087614290087178 0.0
  outer loop
    vertex 38.555456351736986 34.055456351737035 -1.127986593019159e-14
    vertex 38.11843013959279 34.62500000000004 -0.5000000000000112
    vertex 38.11843013959279 34.62500000000004 -1.127986593019159e-14
  endloop
endfacet
facet normal 0.6087614290087178 0.7933533402912376 0.0
  outer loop
    vertex 38.555456351736986 34.055456351737035 -1.127986593019159e-14
    vertex 39.12499999999999 33.61843013959284 -0.5000000000000112
    vertex 38.555456351736986 34.055456351737035 -0.5000000000000112
  endloop
endfacet
facet normal 0.6087614290087178 0.7933533402912376 0.0
  outer loop
    vertex 39.12499999999999 33.61843013959284 -0.5000000000000112
    vertex 38.555456351736986 34.055456351737035 -1.127986593019159e-14
    vertex 39.12499999999999 33.61843013959284 -1.127986593019159e-14
  endloop
endfacet
facet normal 0.38268343236509517 0.9238795325112845 0.0
  outer loop
    vertex 39.12499999999999 33.61843013959284 -1.127986593019159e-14
    vertex 39.78824762596806 33.343703977705104 -0.5000000000000112
    vertex 39.12499999999999 33.61843013959284 -0.5000000000000112
  endloop
endfacet
facet normal 0.38268343236509517 0.9238795325112845 0.0
  outer loop
    vertex 39.78824762596806 33.343703977705104 -0.5000000000000112
    vertex 39.12499999999999 33.61843013959284 -1.127986593019159e-14
    vertex 39.78824762596806 33.343703977705104 -1.127986593019159e-14
  endloop
endfacet
facet normal 0.13052619222004933 0.9914448613738107 0.0
  outer loop
    vertex 39.78824762596806 33.343703977705104 -1.127986593019159e-14
    vertex 40.5 33.25000000000004 -0.5000000000000112
    vertex 39.78824762596806 33.343703977705104 -0.5000000000000112
  endloop
endfacet
facet normal 0.13052619222004933 0.9914448613738107 0.0
  outer loop
    vertex 40.5 33.25000000000004 -0.5000000000000112
    vertex 39.78824762596806 33.343703977705104 -1.127986593019159e-14
    vertex 40.5 33.25000000000004 -1.127986593019159e-14
  endloop
endfacet
facet normal -0.13052619222004933 0.9914448613738107 -0.0
  outer loop
    vertex 40.5 33.25000000000004 -1.127986593019159e-14
    vertex 41.21175237403193 33.343703977705104 -0.5000000000000112
    vertex 40.5 33.25000000000004 -0.5000000000000112
  endloop
endfacet
facet normal -0.13052619222004933 0.9914448613738107 -0.0
  outer loop
    vertex 41.21175237403193 33.343703977705104 -0.5000000000000112
    vertex 40.5 33.25000000000004 -1.127986593019159e-14
    vertex 41.21175237403193 33.343703977705104 -1.127986593019159e-14
  endloop
endfacet
facet normal -0.3826834323650912 0.9238795325112862 -0.0
  outer loop
    vertex 41.21175237403193 33.343703977705104 -1.127986593019159e-14
    vertex 41.875 33.61843013959283 -0.5000000000000112
    vertex 41.21175237403193 33.343703977705104 -0.5000000000000112
  endloop
endfacet
facet normal -0.3826834323650912 0.9238795325112862 -0.0
  outer loop
    vertex 41.875 33.61843013959283 -0.5000000000000112
    vertex 41.21175237403193 33.343703977705104 -1.127986593019159e-14
    vertex 41.875 33.61843013959283 -1.127986593019159e-14
  endloop
endfacet
facet normal -0.6087614290087227 0.7933533402912336 -0.0
  outer loop
    vertex 41.875 33.61843013959283 -1.127986593019159e-14
    vertex 42.44454364826301 34.055456351737035 -0.5000000000000112
    vertex 41.875 33.61843013959283 -0.5000000000000112
  endloop
endfacet
facet normal -0.6087614290087227 0.7933533402912336 -0.0
  outer loop
    vertex 42.44454364826301 34.055456351737035 -0.5000000000000112
    vertex 41.875 33.61843013959283 -1.127986593019159e-14
    vertex 42.44454364826301 34.055456351737035 -1.127986593019159e-14
  endloop
endfacet
facet normal -0.7933533402912308 0.6087614290087265 -0.0
  outer loop
    vertex 42.88156986040721 34.625000000000036 -1.127986593019159e-14
    vertex 42.44454364826301 34.055456351737035 -0.5000000000000112
    vertex 42.44454364826301 34.055456351737035 -1.127986593019159e-14
  endloop
endfacet
facet normal -0.7933533402912308 0.6087614290087265 -0.0
  outer loop
    vertex 42.44454364826301 34.055456351737035 -0.5000000000000112
    vertex 42.88156986040721 34.625000000000036 -1.127986593019159e-14
    vertex 42.88156986040721 34.625000000000036 -0.5000000000000112
  endloop
endfacet
facet normal -0.9238795325112873 0.38268343236508845 -0.0
  outer loop
    vertex 43.15629602229494 35.288247625968104 -1.127986593019159e-14
    vertex 42.88156986040721 34.625000000000036 -0.5000000000000112
    vertex 42.88156986040721 34.625000000000036 -1.127986593019159e-14
  endloop
endfacet
facet normal -0.9238795325112873 0.38268343236508845 -0.0
  outer loop
    vertex 42.88156986040721 34.625000000000036 -0.5000000000000112
    vertex 43.15629602229494 35.288247625968104 -1.127986593019159e-14
    vertex 43.15629602229494 35.288247625968104 -0.5000000000000112
  endloop
endfacet
facet normal -0.9914448613738107 0.13052619222004933 -0.0
  outer loop
    vertex 43.25 36.00000000000004 -1.127986593019159e-14
    vertex 43.15629602229494 35.288247625968104 -0.5000000000000112
    vertex 43.15629602229494 35.288247625968104 -1.127986593019159e-14
  endloop
endfacet
facet normal -0.9914448613738107 0.13052619222004933 -0.0
  outer loop
    vertex 43.15629602229494 35.288247625968104 -0.5000000000000112
    vertex 43.25 36.00000000000004 -1.127986593019159e-14
    vertex 43.25 36.00000000000004 -0.5000000000000112
  endloop
endfacet
facet normal -0.9914448613738107 -0.13052619222005035 -0.0
  outer loop
    vertex 43.15629602229494 36.71175237403197 -1.127986593019159e-14
    vertex 43.25 36.00000000000004 -0.5000000000000112
    vertex 43.25 36.00000000000004 -1.127986593019159e-14
  endloop
endfacet
facet normal -0.9914448613738107 -0.13052619222005035 -0.0
  outer loop
    vertex 43.25 36.00000000000004 -0.5000000000000112
    vertex 43.15629602229494 36.71175237403197 -1.127986593019159e-14
    vertex 43.15629602229494 36.71175237403197 -0.5000000000000112
  endloop
endfacet
facet normal -0.9238795325112873 -0.38268343236508845 -0.0
  outer loop
    vertex 42.88156986040721 37.375000000000036 -1.127986593019159e-14
    vertex 43.15629602229494 36.71175237403197 -0.5000000000000112
    vertex 43.15629602229494 36.71175237403197 -1.127986593019159e-14
  endloop
endfacet
facet normal -0.9238795325112873 -0.38268343236508845 -0.0
  outer loop
    vertex 43.15629602229494 36.71175237403197 -0.5000000000000112
    vertex 42.88156986040721 37.375000000000036 -1.127986593019159e-14
    vertex 42.88156986040721 37.375000000000036 -0.5000000000000112
  endloop
endfacet
endsolid ESPLCD Screen
